%TF.GenerationSoftware,KiCad,Pcbnew,8.0.6*%
%TF.CreationDate,2025-08-26T16:14:54+02:00*%
%TF.ProjectId,controller,636f6e74-726f-46c6-9c65-722e6b696361,rev?*%
%TF.SameCoordinates,Original*%
%TF.FileFunction,Copper,L1,Top*%
%TF.FilePolarity,Positive*%
%FSLAX46Y46*%
G04 Gerber Fmt 4.6, Leading zero omitted, Abs format (unit mm)*
G04 Created by KiCad (PCBNEW 8.0.6) date 2025-08-26 16:14:54*
%MOMM*%
%LPD*%
G01*
G04 APERTURE LIST*
G04 Aperture macros list*
%AMRoundRect*
0 Rectangle with rounded corners*
0 $1 Rounding radius*
0 $2 $3 $4 $5 $6 $7 $8 $9 X,Y pos of 4 corners*
0 Add a 4 corners polygon primitive as box body*
4,1,4,$2,$3,$4,$5,$6,$7,$8,$9,$2,$3,0*
0 Add four circle primitives for the rounded corners*
1,1,$1+$1,$2,$3*
1,1,$1+$1,$4,$5*
1,1,$1+$1,$6,$7*
1,1,$1+$1,$8,$9*
0 Add four rect primitives between the rounded corners*
20,1,$1+$1,$2,$3,$4,$5,0*
20,1,$1+$1,$4,$5,$6,$7,0*
20,1,$1+$1,$6,$7,$8,$9,0*
20,1,$1+$1,$8,$9,$2,$3,0*%
G04 Aperture macros list end*
%TA.AperFunction,SMDPad,CuDef*%
%ADD10RoundRect,0.375000X-0.625000X-0.375000X0.625000X-0.375000X0.625000X0.375000X-0.625000X0.375000X0*%
%TD*%
%TA.AperFunction,SMDPad,CuDef*%
%ADD11RoundRect,0.500000X-0.500000X-1.400000X0.500000X-1.400000X0.500000X1.400000X-0.500000X1.400000X0*%
%TD*%
%TA.AperFunction,SMDPad,CuDef*%
%ADD12RoundRect,0.200000X-0.275000X0.200000X-0.275000X-0.200000X0.275000X-0.200000X0.275000X0.200000X0*%
%TD*%
%TA.AperFunction,SMDPad,CuDef*%
%ADD13RoundRect,0.250000X-0.650000X0.325000X-0.650000X-0.325000X0.650000X-0.325000X0.650000X0.325000X0*%
%TD*%
%TA.AperFunction,SMDPad,CuDef*%
%ADD14RoundRect,0.200000X0.275000X-0.200000X0.275000X0.200000X-0.275000X0.200000X-0.275000X-0.200000X0*%
%TD*%
%TA.AperFunction,ComponentPad*%
%ADD15R,1.700000X1.700000*%
%TD*%
%TA.AperFunction,ComponentPad*%
%ADD16O,1.700000X1.700000*%
%TD*%
%TA.AperFunction,ComponentPad*%
%ADD17R,1.408000X1.408000*%
%TD*%
%TA.AperFunction,ComponentPad*%
%ADD18C,1.408000*%
%TD*%
%TA.AperFunction,SMDPad,CuDef*%
%ADD19RoundRect,0.140000X0.140000X0.170000X-0.140000X0.170000X-0.140000X-0.170000X0.140000X-0.170000X0*%
%TD*%
%TA.AperFunction,SMDPad,CuDef*%
%ADD20RoundRect,0.140000X-0.140000X-0.170000X0.140000X-0.170000X0.140000X0.170000X-0.140000X0.170000X0*%
%TD*%
%TA.AperFunction,SMDPad,CuDef*%
%ADD21RoundRect,0.150000X-0.150000X0.825000X-0.150000X-0.825000X0.150000X-0.825000X0.150000X0.825000X0*%
%TD*%
%TA.AperFunction,SMDPad,CuDef*%
%ADD22RoundRect,0.250000X0.650000X-0.325000X0.650000X0.325000X-0.650000X0.325000X-0.650000X-0.325000X0*%
%TD*%
%TA.AperFunction,SMDPad,CuDef*%
%ADD23RoundRect,0.375000X0.625000X0.375000X-0.625000X0.375000X-0.625000X-0.375000X0.625000X-0.375000X0*%
%TD*%
%TA.AperFunction,SMDPad,CuDef*%
%ADD24RoundRect,0.500000X0.500000X1.400000X-0.500000X1.400000X-0.500000X-1.400000X0.500000X-1.400000X0*%
%TD*%
%TA.AperFunction,ViaPad*%
%ADD25C,0.600000*%
%TD*%
%TA.AperFunction,ViaPad*%
%ADD26C,0.800000*%
%TD*%
%TA.AperFunction,Conductor*%
%ADD27C,0.400000*%
%TD*%
%TA.AperFunction,Conductor*%
%ADD28C,0.250000*%
%TD*%
%TA.AperFunction,Conductor*%
%ADD29C,0.500000*%
%TD*%
G04 APERTURE END LIST*
D10*
%TO.P,U4,1,GND*%
%TO.N,GND*%
X196299990Y-49494092D03*
%TO.P,U4,2,VO*%
%TO.N,3V3*%
X196299990Y-51794092D03*
D11*
X202599990Y-51794092D03*
D10*
%TO.P,U4,3,VI*%
%TO.N,5V*%
X196299990Y-54094092D03*
%TD*%
D12*
%TO.P,R1,1*%
%TO.N,3V3*%
X187835524Y-56521058D03*
%TO.P,R1,2*%
%TO.N,RS485_A+*%
X187835524Y-58171058D03*
%TD*%
D13*
%TO.P,C7,1*%
%TO.N,5V*%
X208235524Y-50281592D03*
%TO.P,C7,2*%
%TO.N,GND*%
X208235524Y-53231592D03*
%TD*%
D14*
%TO.P,R2,1*%
%TO.N,RS485_A+*%
X186235524Y-58171058D03*
%TO.P,R2,2*%
%TO.N,RS485_B-*%
X186235524Y-56521058D03*
%TD*%
D13*
%TO.P,C3,1*%
%TO.N,9V*%
X219585524Y-50281592D03*
%TO.P,C3,2*%
%TO.N,GND*%
X219585524Y-53231592D03*
%TD*%
D15*
%TO.P,J4,1,Pin_1*%
%TO.N,ESP3V3*%
X218969990Y-33334092D03*
D16*
%TO.P,J4,2,Pin_2*%
%TO.N,EN*%
X216429990Y-33334092D03*
%TO.P,J4,3,Pin_3*%
%TO.N,GPIO36*%
X213889990Y-33334092D03*
%TO.P,J4,4,Pin_4*%
%TO.N,GPIO39*%
X211349990Y-33334092D03*
%TO.P,J4,5,Pin_5*%
%TO.N,GPIO34*%
X208809990Y-33334092D03*
%TO.P,J4,6,Pin_6*%
%TO.N,GPIO35*%
X206269990Y-33334092D03*
%TO.P,J4,7,Pin_7*%
%TO.N,GPIO32*%
X203729990Y-33334092D03*
%TO.P,J4,8,Pin_8*%
%TO.N,GPIO33*%
X201189990Y-33334092D03*
%TO.P,J4,9,Pin_9*%
%TO.N,GPIO25*%
X198649990Y-33334092D03*
%TO.P,J4,10,Pin_10*%
%TO.N,GPIO26*%
X196109990Y-33334092D03*
%TO.P,J4,11,Pin_11*%
%TO.N,GPIO27*%
X193569990Y-33334092D03*
%TO.P,J4,12,Pin_12*%
%TO.N,GPIO14*%
X191029990Y-33334092D03*
%TO.P,J4,13,Pin_13*%
%TO.N,12*%
X188489990Y-33334092D03*
%TO.P,J4,14,Pin_14*%
%TO.N,GND*%
X185949990Y-33334092D03*
%TO.P,J4,15,Pin_15*%
%TO.N,GPIO13*%
X183409990Y-33334092D03*
%TO.P,J4,16,Pin_16*%
%TO.N,SD2*%
X180869990Y-33334092D03*
%TO.P,J4,17,Pin_17*%
%TO.N,SD3*%
X178329990Y-33334092D03*
%TO.P,J4,18,Pin_18*%
%TO.N,CMD*%
X175789990Y-33334092D03*
%TO.P,J4,19,Pin_19*%
%TO.N,5V*%
X173249990Y-33334092D03*
%TD*%
D17*
%TO.P,U1,J2_1,3V3*%
%TO.N,ESP3V3*%
X218934990Y-39389842D03*
D18*
%TO.P,U1,J2_2,EN*%
%TO.N,EN*%
X216394990Y-39389842D03*
%TO.P,U1,J2_3,SENSOR_VP*%
%TO.N,GPIO36*%
X213854990Y-39389842D03*
%TO.P,U1,J2_4,SENSOR_VN*%
%TO.N,GPIO39*%
X211314990Y-39389842D03*
%TO.P,U1,J2_5,IO34*%
%TO.N,GPIO34*%
X208774990Y-39389842D03*
%TO.P,U1,J2_6,IO35*%
%TO.N,GPIO35*%
X206234990Y-39389842D03*
%TO.P,U1,J2_7,IO32*%
%TO.N,GPIO32*%
X203694990Y-39389842D03*
%TO.P,U1,J2_8,IO33*%
%TO.N,GPIO33*%
X201154990Y-39389842D03*
%TO.P,U1,J2_9,IO25*%
%TO.N,GPIO25*%
X198614990Y-39389842D03*
%TO.P,U1,J2_10,IO26*%
%TO.N,GPIO26*%
X196074990Y-39389842D03*
%TO.P,U1,J2_11,IO27*%
%TO.N,GPIO27*%
X193534990Y-39389842D03*
%TO.P,U1,J2_12,IO14*%
%TO.N,GPIO14*%
X190994990Y-39389842D03*
%TO.P,U1,J2_13,IO12*%
%TO.N,12*%
X188454990Y-39389842D03*
%TO.P,U1,J2_14,GND_J2_14*%
%TO.N,GND*%
X185914990Y-39389842D03*
%TO.P,U1,J2_15,IO13*%
%TO.N,GPIO13*%
X183374990Y-39389842D03*
%TO.P,U1,J2_16,SD2*%
%TO.N,SD2*%
X180834990Y-39389842D03*
%TO.P,U1,J2_17,SD3*%
%TO.N,SD3*%
X178294990Y-39389842D03*
%TO.P,U1,J2_18,CMD*%
%TO.N,CMD*%
X175754990Y-39389842D03*
%TO.P,U1,J2_19,EXT_5V*%
%TO.N,5V*%
X173214990Y-39389842D03*
%TO.P,U1,J3_1,GND_J3_1*%
%TO.N,GND*%
X218934990Y-64789842D03*
%TO.P,U1,J3_2,IO23*%
%TO.N,GPIO23*%
X216394990Y-64789842D03*
%TO.P,U1,J3_3,IO22*%
%TO.N,GPIO22*%
X213854990Y-64789842D03*
%TO.P,U1,J3_4,TXD0*%
%TO.N,GPIO1*%
X211314990Y-64789842D03*
%TO.P,U1,J3_5,RXD0*%
%TO.N,GPIO3*%
X208774990Y-64789842D03*
%TO.P,U1,J3_6,IO21*%
%TO.N,GPIO21*%
X206234990Y-64789842D03*
%TO.P,U1,J3_7,GND_J3_7*%
%TO.N,GND*%
X203694990Y-64789842D03*
%TO.P,U1,J3_8,IO19*%
%TO.N,GPIO19*%
X201154990Y-64789842D03*
%TO.P,U1,J3_9,IO18*%
%TO.N,GPIO18*%
X198614990Y-64789842D03*
%TO.P,U1,J3_10,IO5*%
%TO.N,GPIO5*%
X196074990Y-64789842D03*
%TO.P,U1,J3_11,IO17*%
%TO.N,GPIO17*%
X193534990Y-64789842D03*
%TO.P,U1,J3_12,IO16*%
%TO.N,GPIO16*%
X190994990Y-64789842D03*
%TO.P,U1,J3_13,IO4*%
%TO.N,GPIO4*%
X188454990Y-64789842D03*
%TO.P,U1,J3_14,IO0*%
%TO.N,GPIO0*%
X185914990Y-64789842D03*
%TO.P,U1,J3_15,IO2*%
%TO.N,GPIO2*%
X183374990Y-64789842D03*
%TO.P,U1,J3_16,IO15*%
%TO.N,GPIO15*%
X180834990Y-64789842D03*
%TO.P,U1,J3_17,SD1*%
%TO.N,SD1*%
X178294990Y-64789842D03*
%TO.P,U1,J3_18,SD0*%
%TO.N,SD0*%
X175754990Y-64789842D03*
%TO.P,U1,J3_19,CLK*%
%TO.N,CLK*%
X173214990Y-64789842D03*
%TD*%
D19*
%TO.P,C2,1*%
%TO.N,9V*%
X217865524Y-46346058D03*
%TO.P,C2,2*%
%TO.N,GND*%
X216905524Y-46346058D03*
%TD*%
D20*
%TO.P,C6,1*%
%TO.N,5V*%
X195485524Y-57396058D03*
%TO.P,C6,2*%
%TO.N,GND*%
X196445524Y-57396058D03*
%TD*%
%TO.P,C5,1*%
%TO.N,5V*%
X216885524Y-56996058D03*
%TO.P,C5,2*%
%TO.N,GND*%
X217845524Y-56996058D03*
%TD*%
D15*
%TO.P,J2,1,Pin_1*%
%TO.N,GND*%
X173214466Y-92442116D03*
D16*
%TO.P,J2,2,Pin_2*%
%TO.N,9V*%
X173214466Y-94982116D03*
%TD*%
D19*
%TO.P,C9,1*%
%TO.N,3V3*%
X196415524Y-46146058D03*
%TO.P,C9,2*%
%TO.N,GND*%
X195455524Y-46146058D03*
%TD*%
D21*
%TO.P,U3,1,RO*%
%TO.N,GPIO26*%
X188040524Y-49281592D03*
%TO.P,U3,2,~{RE}*%
%TO.N,GPIO27*%
X186770524Y-49281592D03*
%TO.P,U3,3,DE*%
X185500524Y-49281592D03*
%TO.P,U3,4,DI*%
%TO.N,GPIO25*%
X184230524Y-49281592D03*
%TO.P,U3,5,GND*%
%TO.N,GND*%
X184230524Y-54231592D03*
%TO.P,U3,6,A*%
%TO.N,RS485_A+*%
X185500524Y-54231592D03*
%TO.P,U3,7,B*%
%TO.N,RS485_B-*%
X186770524Y-54231592D03*
%TO.P,U3,8,VCC*%
%TO.N,3V3*%
X188040524Y-54231592D03*
%TD*%
D16*
%TO.P,RV1,1,1*%
%TO.N,GND*%
X180478932Y-92072116D03*
%TO.P,RV1,2,2*%
%TO.N,Net-(J1-Pin_3)*%
X183018932Y-89532116D03*
%TO.P,RV1,3,3*%
%TO.N,5V*%
X180478932Y-86992116D03*
%TD*%
D13*
%TO.P,C8,1*%
%TO.N,3V3*%
X205085524Y-50281592D03*
%TO.P,C8,2*%
%TO.N,GND*%
X205085524Y-53231592D03*
%TD*%
D19*
%TO.P,C1,1*%
%TO.N,3V3*%
X186785524Y-59446058D03*
%TO.P,C1,2*%
%TO.N,GND*%
X185825524Y-59446058D03*
%TD*%
D12*
%TO.P,R3,1*%
%TO.N,RS485_B-*%
X184635524Y-56521058D03*
%TO.P,R3,2*%
%TO.N,GND*%
X184635524Y-58171058D03*
%TD*%
D22*
%TO.P,C4,1*%
%TO.N,5V*%
X193785524Y-53231592D03*
%TO.P,C4,2*%
%TO.N,GND*%
X193785524Y-50281592D03*
%TD*%
D23*
%TO.P,U2,1,GND*%
%TO.N,GND*%
X217049990Y-54019092D03*
%TO.P,U2,2,VO*%
%TO.N,5V*%
X217049990Y-51719092D03*
D24*
X210749990Y-51719092D03*
D23*
%TO.P,U2,3,VI*%
%TO.N,9V*%
X217049990Y-49419092D03*
%TD*%
D15*
%TO.P,J3,1,Pin_1*%
%TO.N,GND*%
X173214466Y-88562116D03*
D16*
%TO.P,J3,2,Pin_2*%
%TO.N,RS485_B-*%
X173214466Y-86022116D03*
%TO.P,J3,3,Pin_3*%
%TO.N,RS485_A+*%
X173214466Y-83482116D03*
%TO.P,J3,4,Pin_4*%
%TO.N,9V*%
X173214466Y-80942116D03*
%TD*%
D15*
%TO.P,J5,1,Pin_1*%
%TO.N,GND*%
X218899990Y-70934092D03*
D16*
%TO.P,J5,2,Pin_2*%
%TO.N,GPIO23*%
X216359990Y-70934092D03*
%TO.P,J5,3,Pin_3*%
%TO.N,GPIO22*%
X213819990Y-70934092D03*
%TO.P,J5,4,Pin_4*%
%TO.N,GPIO1*%
X211279990Y-70934092D03*
%TO.P,J5,5,Pin_5*%
%TO.N,GPIO3*%
X208739990Y-70934092D03*
%TO.P,J5,6,Pin_6*%
%TO.N,GPIO21*%
X206199990Y-70934092D03*
%TO.P,J5,7,Pin_7*%
%TO.N,GND*%
X203659990Y-70934092D03*
%TO.P,J5,8,Pin_8*%
%TO.N,GPIO19*%
X201119990Y-70934092D03*
%TO.P,J5,9,Pin_9*%
%TO.N,GPIO18*%
X198579990Y-70934092D03*
%TO.P,J5,10,Pin_10*%
%TO.N,GPIO5*%
X196039990Y-70934092D03*
%TO.P,J5,11,Pin_11*%
%TO.N,GPIO17*%
X193499990Y-70934092D03*
%TO.P,J5,12,Pin_12*%
%TO.N,GPIO16*%
X190959990Y-70934092D03*
%TO.P,J5,13,Pin_13*%
%TO.N,GPIO4*%
X188419990Y-70934092D03*
%TO.P,J5,14,Pin_14*%
%TO.N,GPIO0*%
X185879990Y-70934092D03*
%TO.P,J5,15,Pin_15*%
%TO.N,GPIO2*%
X183339990Y-70934092D03*
%TO.P,J5,16,Pin_16*%
%TO.N,GPIO15*%
X180799990Y-70934092D03*
%TO.P,J5,17,Pin_17*%
%TO.N,SD1*%
X178259990Y-70934092D03*
%TO.P,J5,18,Pin_18*%
%TO.N,SD0*%
X175719990Y-70934092D03*
%TO.P,J5,19,Pin_19*%
%TO.N,CLK*%
X173179990Y-70934092D03*
%TD*%
D15*
%TO.P,J1,1,Pin_1*%
%TO.N,GND*%
X180738932Y-76292116D03*
D16*
%TO.P,J1,2,Pin_2*%
%TO.N,5V*%
X183278932Y-76292116D03*
%TO.P,J1,3,Pin_3*%
%TO.N,Net-(J1-Pin_3)*%
X185818932Y-76292116D03*
%TO.P,J1,4,Pin_4*%
%TO.N,GPIO19*%
X188358932Y-76292116D03*
%TO.P,J1,5,Pin_5*%
%TO.N,GND*%
X190898932Y-76292116D03*
%TO.P,J1,6,Pin_6*%
%TO.N,GPIO23*%
X193438932Y-76292116D03*
%TO.P,J1,7,Pin_7*%
%TO.N,GND*%
X195978932Y-76292116D03*
%TO.P,J1,8,Pin_8*%
X198518932Y-76292116D03*
%TO.P,J1,9,Pin_9*%
X201058932Y-76292116D03*
%TO.P,J1,10,Pin_10*%
X203598932Y-76292116D03*
%TO.P,J1,11,Pin_11*%
%TO.N,GPIO18*%
X206138932Y-76292116D03*
%TO.P,J1,12,Pin_12*%
%TO.N,GPIO17*%
X208678932Y-76292116D03*
%TO.P,J1,13,Pin_13*%
%TO.N,GPIO16*%
X211218932Y-76292116D03*
%TO.P,J1,14,Pin_14*%
%TO.N,GPIO15*%
X213758932Y-76292116D03*
%TO.P,J1,15,Pin_15*%
%TO.N,5V*%
X216298932Y-76292116D03*
%TO.P,J1,16,Pin_16*%
%TO.N,GND*%
X218838932Y-76292116D03*
%TD*%
D25*
%TO.N,GPIO18*%
X209478932Y-74392116D03*
D26*
%TO.N,3V3*%
X192432069Y-49092116D03*
X190078932Y-57792116D03*
D25*
%TO.N,RS485_A+*%
X188864466Y-58192116D03*
%TO.N,RS485_B-*%
X189078932Y-55792116D03*
%TO.N,5V*%
X191078932Y-53192116D03*
D26*
X220885524Y-55292116D03*
X211568408Y-56996058D03*
%TD*%
D27*
%TO.N,GPIO23*%
X196238932Y-73492116D02*
X213801966Y-73492116D01*
X193438932Y-76292116D02*
X196238932Y-73492116D01*
X213801966Y-73492116D02*
X216359990Y-70934092D01*
%TO.N,GPIO19*%
X188358932Y-76292116D02*
X191758932Y-72892116D01*
X191758932Y-72892116D02*
X199161966Y-72892116D01*
X199161966Y-72892116D02*
X201119990Y-70934092D01*
%TO.N,Net-(J1-Pin_3)*%
X185818932Y-86732116D02*
X183018932Y-89532116D01*
X185818932Y-76292116D02*
X185818932Y-86732116D01*
%TO.N,GPIO18*%
X209378932Y-74492116D02*
X207938932Y-74492116D01*
X207938932Y-74492116D02*
X206138932Y-76292116D01*
X209478932Y-74392116D02*
X209378932Y-74492116D01*
D28*
%TO.N,GPIO27*%
X193534990Y-41293446D02*
X193534990Y-39389842D01*
X186770524Y-48057912D02*
X193534990Y-41293446D01*
X186770524Y-49281592D02*
X186770524Y-48057912D01*
X185500524Y-49281592D02*
X186770524Y-49281592D01*
%TO.N,GPIO25*%
X184230524Y-49281592D02*
X184230524Y-50256591D01*
X188665524Y-48255684D02*
X188490524Y-48080684D01*
X184230524Y-50256591D02*
X185266049Y-51292116D01*
X188665524Y-50307500D02*
X188665524Y-48255684D01*
X185266049Y-51292116D02*
X187680908Y-51292116D01*
X188490524Y-48080684D02*
X188490524Y-47610704D01*
X194809112Y-41292116D02*
X196564466Y-41292116D01*
X187680908Y-51292116D02*
X188665524Y-50307500D01*
X196564466Y-41292116D02*
X198466740Y-39389842D01*
X198466740Y-39389842D02*
X198614990Y-39389842D01*
X188490524Y-47610704D02*
X194809112Y-41292116D01*
%TO.N,GPIO26*%
X188040524Y-49281592D02*
X188040524Y-47424308D01*
X188040524Y-47424308D02*
X196074990Y-39389842D01*
D27*
%TO.N,3V3*%
X190155421Y-57891111D02*
X188600474Y-59446058D01*
X192432069Y-49092116D02*
X191431910Y-49092116D01*
X188600474Y-59446058D02*
X186785524Y-59446058D01*
X187835524Y-56521058D02*
X188785368Y-56521058D01*
X195908408Y-45436058D02*
X196415524Y-45943174D01*
X192432069Y-49092116D02*
X192432069Y-48091957D01*
X195087968Y-45436058D02*
X195908408Y-45436058D01*
X196415524Y-46146058D02*
X201118408Y-46146058D01*
X190155421Y-50368605D02*
X188040524Y-52483502D01*
X205085524Y-50281592D02*
X204112490Y-50281592D01*
X190155421Y-50368605D02*
X190155421Y-57891111D01*
X204112490Y-50281592D02*
X202599990Y-51794092D01*
X192432069Y-50829303D02*
X193396858Y-51794092D01*
X201118408Y-46146058D02*
X202599990Y-47627640D01*
X196415524Y-45943174D02*
X196415524Y-46146058D01*
X188785368Y-56521058D02*
X190155421Y-57891111D01*
X192432069Y-48091957D02*
X195087968Y-45436058D01*
X188040524Y-52483502D02*
X188040524Y-54231592D01*
X202599990Y-47627640D02*
X202599990Y-51794092D01*
X192432069Y-49092116D02*
X192432069Y-50829303D01*
X193396858Y-51794092D02*
X196299990Y-51794092D01*
X191431910Y-49092116D02*
X190155421Y-50368605D01*
%TO.N,GND*%
X219585524Y-53231592D02*
X217837490Y-53231592D01*
X217837490Y-53231592D02*
X217049990Y-54019092D01*
D28*
%TO.N,RS485_A+*%
X185500524Y-54231592D02*
X185500524Y-55356058D01*
X186910524Y-57246058D02*
X187835524Y-58171058D01*
X186235524Y-58171058D02*
X187835524Y-58171058D01*
X183835524Y-56021058D02*
X183835524Y-56944062D01*
X185060524Y-55796058D02*
X184060524Y-55796058D01*
X185500524Y-55356058D02*
X185060524Y-55796058D01*
X187835524Y-58171058D02*
X188843408Y-58171058D01*
X184060524Y-55796058D02*
X183835524Y-56021058D01*
X183835524Y-56944062D02*
X184137520Y-57246058D01*
X184137520Y-57246058D02*
X186910524Y-57246058D01*
X188843408Y-58171058D02*
X188864466Y-58192116D01*
D29*
%TO.N,9V*%
X175724466Y-97492116D02*
X217478932Y-97492116D01*
X169578932Y-84577650D02*
X173214466Y-80942116D01*
X217478932Y-97492116D02*
X221778932Y-93192116D01*
X173214466Y-94982116D02*
X175724466Y-97492116D01*
X217049990Y-49419092D02*
X218723024Y-49419092D01*
X219585524Y-50281592D02*
X219585524Y-48066058D01*
X173214466Y-94982116D02*
X169578932Y-91346582D01*
X221778932Y-93192116D02*
X221778932Y-52092116D01*
X218723024Y-49419092D02*
X219585524Y-50281592D01*
X219968408Y-50281592D02*
X219585524Y-50281592D01*
X219585524Y-48066058D02*
X217865524Y-46346058D01*
X221778932Y-52092116D02*
X219968408Y-50281592D01*
X169578932Y-91346582D02*
X169578932Y-84577650D01*
D28*
%TO.N,RS485_B-*%
X189078932Y-55792116D02*
X187333578Y-55792116D01*
X186770524Y-55229062D02*
X186770524Y-54231592D01*
X186770524Y-56086058D02*
X186770524Y-54231592D01*
X186335524Y-56521058D02*
X186770524Y-56086058D01*
X187333578Y-55792116D02*
X186770524Y-55229062D01*
X184635524Y-56521058D02*
X186235524Y-56521058D01*
X186235524Y-56521058D02*
X186335524Y-56521058D01*
D27*
%TO.N,5V*%
X216885524Y-56996058D02*
X211568408Y-56996058D01*
X220885524Y-52630426D02*
X219974190Y-51719092D01*
X180478932Y-79092116D02*
X180478932Y-86992116D01*
X194648024Y-54094092D02*
X193785524Y-53231592D01*
X220627022Y-55292116D02*
X218213080Y-57706058D01*
X220878932Y-60606058D02*
X220878932Y-71712116D01*
X218213080Y-57706058D02*
X217285525Y-57706058D01*
X195485524Y-57396058D02*
X195485524Y-54908558D01*
X219974190Y-51719092D02*
X217049990Y-51719092D01*
X195485524Y-54908558D02*
X196299990Y-54094092D01*
X220878932Y-71712116D02*
X216298932Y-76292116D01*
X208235524Y-50281592D02*
X209312490Y-50281592D01*
X211568408Y-56996058D02*
X210749990Y-56177640D01*
X217285525Y-57706058D02*
X216885524Y-57306057D01*
X210749990Y-56177640D02*
X210749990Y-51719092D01*
X220885524Y-55292116D02*
X220885524Y-60599466D01*
X220885524Y-60599466D02*
X220878932Y-60606058D01*
X183278932Y-76292116D02*
X180478932Y-79092116D01*
X191118408Y-53231592D02*
X191078932Y-53192116D01*
X196299990Y-54094092D02*
X194648024Y-54094092D01*
X199201956Y-56996058D02*
X196299990Y-54094092D01*
X220885524Y-55292116D02*
X220885524Y-52630426D01*
X193785524Y-53231592D02*
X191118408Y-53231592D01*
X216885524Y-57306057D02*
X216885524Y-56996058D01*
X211568408Y-56996058D02*
X199201956Y-56996058D01*
X220885524Y-55292116D02*
X220627022Y-55292116D01*
X209312490Y-50281592D02*
X210749990Y-51719092D01*
%TD*%
%TA.AperFunction,Conductor*%
%TO.N,GND*%
G36*
X217967162Y-29292733D02*
G01*
X218359941Y-29309887D01*
X218370683Y-29310827D01*
X218757810Y-29361798D01*
X218768425Y-29363670D01*
X219149620Y-29448183D01*
X219160036Y-29450973D01*
X219532413Y-29568386D01*
X219542579Y-29572086D01*
X219903293Y-29721502D01*
X219913096Y-29726074D01*
X220259405Y-29906352D01*
X220268773Y-29911761D01*
X220598042Y-30121529D01*
X220606904Y-30127733D01*
X220916661Y-30365419D01*
X220924947Y-30372372D01*
X221212799Y-30636139D01*
X221220448Y-30643788D01*
X221484216Y-30931638D01*
X221491170Y-30939925D01*
X221728852Y-31249677D01*
X221735056Y-31258538D01*
X221944830Y-31587812D01*
X221950239Y-31597180D01*
X222130508Y-31943468D01*
X222130521Y-31943492D01*
X222135090Y-31953290D01*
X222171130Y-32040296D01*
X222284510Y-32314013D01*
X222288209Y-32324178D01*
X222405614Y-32696523D01*
X222408414Y-32706972D01*
X222492922Y-33088139D01*
X222494801Y-33098792D01*
X222545768Y-33485881D01*
X222546711Y-33496657D01*
X222563848Y-33889008D01*
X222563966Y-33894419D01*
X222563966Y-51516420D01*
X222544281Y-51583459D01*
X222491477Y-51629214D01*
X222422319Y-51639158D01*
X222358763Y-51610133D01*
X222352285Y-51604102D01*
X222331642Y-51583459D01*
X222257348Y-51509165D01*
X221022342Y-50274158D01*
X220988857Y-50212835D01*
X220986023Y-50186477D01*
X220986023Y-49906590D01*
X220986022Y-49906573D01*
X220975523Y-49803795D01*
X220975522Y-49803792D01*
X220971819Y-49792616D01*
X220920338Y-49637258D01*
X220828236Y-49487936D01*
X220704180Y-49363880D01*
X220554858Y-49271778D01*
X220421019Y-49227428D01*
X220363575Y-49187655D01*
X220336752Y-49123139D01*
X220336024Y-49109722D01*
X220336024Y-47992137D01*
X220307183Y-47847150D01*
X220307182Y-47847149D01*
X220307182Y-47847145D01*
X220306581Y-47845693D01*
X220250611Y-47710569D01*
X220250604Y-47710556D01*
X220168476Y-47587643D01*
X220139477Y-47558644D01*
X220063940Y-47483107D01*
X219378670Y-46797837D01*
X218660465Y-46079631D01*
X218629071Y-46026547D01*
X218598018Y-45919663D01*
X218515641Y-45780371D01*
X218515639Y-45780369D01*
X218515636Y-45780365D01*
X218401216Y-45665945D01*
X218401208Y-45665939D01*
X218293001Y-45601946D01*
X218261919Y-45583564D01*
X218261918Y-45583563D01*
X218261917Y-45583563D01*
X218261914Y-45583562D01*
X218106521Y-45538415D01*
X218106515Y-45538414D01*
X218070221Y-45535558D01*
X218070214Y-45535558D01*
X217660834Y-45535558D01*
X217660826Y-45535558D01*
X217624532Y-45538414D01*
X217624526Y-45538415D01*
X217469133Y-45583562D01*
X217469128Y-45583564D01*
X217448152Y-45595969D01*
X217380427Y-45613150D01*
X217321913Y-45595969D01*
X217301715Y-45584024D01*
X217301714Y-45584023D01*
X217155525Y-45541551D01*
X217155524Y-45541552D01*
X217155524Y-45847703D01*
X217138258Y-45910821D01*
X217133031Y-45919658D01*
X217133028Y-45919666D01*
X217087881Y-46075060D01*
X217087880Y-46075066D01*
X217085024Y-46111360D01*
X217085024Y-46580755D01*
X217087880Y-46617049D01*
X217087881Y-46617055D01*
X217133027Y-46772447D01*
X217133029Y-46772451D01*
X217133030Y-46772453D01*
X217138256Y-46781291D01*
X217155524Y-46844410D01*
X217155524Y-47150561D01*
X217301718Y-47108090D01*
X217321908Y-47096149D01*
X217389632Y-47078964D01*
X217448153Y-47096147D01*
X217469129Y-47108552D01*
X217576013Y-47139605D01*
X217629097Y-47170999D01*
X218219725Y-47761627D01*
X218798705Y-48340606D01*
X218832190Y-48401929D01*
X218835024Y-48428287D01*
X218835024Y-48544592D01*
X218815339Y-48611631D01*
X218762535Y-48657386D01*
X218711024Y-48668592D01*
X218542932Y-48668592D01*
X218475893Y-48648907D01*
X218431844Y-48599686D01*
X218417020Y-48569796D01*
X218297712Y-48421370D01*
X218297711Y-48421369D01*
X218149285Y-48302061D01*
X218149282Y-48302059D01*
X217978687Y-48217452D01*
X217793882Y-48171492D01*
X217772496Y-48170042D01*
X217751113Y-48168592D01*
X217751110Y-48168592D01*
X216348867Y-48168592D01*
X216348864Y-48168593D01*
X216306103Y-48171491D01*
X216306102Y-48171491D01*
X216121293Y-48217452D01*
X215950697Y-48302059D01*
X215950694Y-48302061D01*
X215802268Y-48421369D01*
X215802267Y-48421370D01*
X215682959Y-48569796D01*
X215682957Y-48569799D01*
X215598350Y-48740394D01*
X215552390Y-48925199D01*
X215549490Y-48967971D01*
X215549490Y-49870214D01*
X215549491Y-49870217D01*
X215552389Y-49912978D01*
X215552389Y-49912979D01*
X215598350Y-50097788D01*
X215682957Y-50268384D01*
X215682959Y-50268387D01*
X215802267Y-50416813D01*
X215802268Y-50416814D01*
X215871476Y-50472445D01*
X215911395Y-50529788D01*
X215913975Y-50599610D01*
X215878396Y-50659743D01*
X215871476Y-50665739D01*
X215802268Y-50721369D01*
X215802267Y-50721370D01*
X215682959Y-50869796D01*
X215682957Y-50869799D01*
X215598350Y-51040394D01*
X215552390Y-51225199D01*
X215549490Y-51267971D01*
X215549490Y-52170214D01*
X215549491Y-52170217D01*
X215552389Y-52212978D01*
X215552389Y-52212979D01*
X215571813Y-52291083D01*
X215598349Y-52397785D01*
X215598350Y-52397787D01*
X215682957Y-52568384D01*
X215682959Y-52568387D01*
X215802267Y-52716813D01*
X215802268Y-52716814D01*
X215871874Y-52772765D01*
X215911793Y-52830108D01*
X215914373Y-52899930D01*
X215878794Y-52960063D01*
X215871875Y-52966059D01*
X215802621Y-53021727D01*
X215683382Y-53170066D01*
X215683380Y-53170069D01*
X215598821Y-53340568D01*
X215552887Y-53525267D01*
X215549990Y-53567995D01*
X215549990Y-53769092D01*
X217175990Y-53769092D01*
X217243029Y-53788777D01*
X217288784Y-53841581D01*
X217299990Y-53893092D01*
X217299990Y-55269092D01*
X217751087Y-55269092D01*
X217793814Y-55266194D01*
X217978513Y-55220260D01*
X218149012Y-55135701D01*
X218149015Y-55135699D01*
X218297356Y-55016459D01*
X218297357Y-55016458D01*
X218416597Y-54868117D01*
X218416599Y-54868114D01*
X218501158Y-54697615D01*
X218547092Y-54512916D01*
X218549990Y-54470188D01*
X218549990Y-54390662D01*
X218569675Y-54323623D01*
X218622479Y-54277868D01*
X218691637Y-54267924D01*
X218712995Y-54272956D01*
X218782829Y-54296097D01*
X218782833Y-54296098D01*
X218885543Y-54306591D01*
X219335523Y-54306591D01*
X219335524Y-54306590D01*
X219335524Y-53105592D01*
X219355209Y-53038553D01*
X219408013Y-52992798D01*
X219459524Y-52981592D01*
X219711524Y-52981592D01*
X219778563Y-53001277D01*
X219824318Y-53054081D01*
X219835524Y-53105592D01*
X219835524Y-54306591D01*
X220061024Y-54306591D01*
X220128063Y-54326276D01*
X220173818Y-54379080D01*
X220185024Y-54430591D01*
X220185024Y-54676724D01*
X220165339Y-54743763D01*
X220153180Y-54759690D01*
X220152991Y-54759899D01*
X220139854Y-54782652D01*
X220120150Y-54808329D01*
X218584203Y-56344277D01*
X218522880Y-56377762D01*
X218453188Y-56372778D01*
X218408841Y-56344277D01*
X218380907Y-56316343D01*
X218380898Y-56316336D01*
X218241717Y-56234025D01*
X218241714Y-56234023D01*
X218095525Y-56191551D01*
X218095524Y-56191552D01*
X218095524Y-56781594D01*
X218075839Y-56848633D01*
X218059206Y-56869274D01*
X217959240Y-56969240D01*
X217897920Y-57002724D01*
X217871561Y-57005558D01*
X217790024Y-57005558D01*
X217722985Y-56985873D01*
X217677230Y-56933069D01*
X217666024Y-56881558D01*
X217666024Y-56761375D01*
X217666023Y-56761360D01*
X217663167Y-56725066D01*
X217663166Y-56725060D01*
X217618019Y-56569666D01*
X217618016Y-56569658D01*
X217612790Y-56560821D01*
X217595524Y-56497703D01*
X217595524Y-56191552D01*
X217595522Y-56191551D01*
X217449333Y-56234023D01*
X217449330Y-56234025D01*
X217429132Y-56245970D01*
X217361408Y-56263150D01*
X217302894Y-56245968D01*
X217281921Y-56233565D01*
X217281914Y-56233562D01*
X217126521Y-56188415D01*
X217126515Y-56188414D01*
X217090221Y-56185558D01*
X217090214Y-56185558D01*
X216680834Y-56185558D01*
X216680826Y-56185558D01*
X216644532Y-56188414D01*
X216644526Y-56188415D01*
X216489133Y-56233562D01*
X216489130Y-56233563D01*
X216467029Y-56246634D01*
X216417589Y-56275873D01*
X216413502Y-56278290D01*
X216350381Y-56295558D01*
X212176564Y-56295558D01*
X212109525Y-56275873D01*
X212103679Y-56271876D01*
X212021142Y-56211909D01*
X212021137Y-56211906D01*
X211848215Y-56134915D01*
X211848210Y-56134913D01*
X211711898Y-56105940D01*
X211693280Y-56101982D01*
X211631799Y-56068791D01*
X211631381Y-56068374D01*
X211486809Y-55923802D01*
X211453324Y-55862479D01*
X211450490Y-55836121D01*
X211450490Y-54470188D01*
X215549990Y-54470188D01*
X215552887Y-54512916D01*
X215598821Y-54697615D01*
X215683380Y-54868114D01*
X215683382Y-54868117D01*
X215802622Y-55016458D01*
X215802623Y-55016459D01*
X215950964Y-55135699D01*
X215950967Y-55135701D01*
X216121466Y-55220260D01*
X216306165Y-55266194D01*
X216348893Y-55269092D01*
X216799990Y-55269092D01*
X216799990Y-54269092D01*
X215549990Y-54269092D01*
X215549990Y-54470188D01*
X211450490Y-54470188D01*
X211450490Y-54195869D01*
X211470175Y-54128830D01*
X211522979Y-54083075D01*
X211540378Y-54076653D01*
X211623039Y-54053001D01*
X211803397Y-53958790D01*
X211961099Y-53830201D01*
X212089688Y-53672499D01*
X212183899Y-53492141D01*
X212239876Y-53296510D01*
X212250490Y-53177129D01*
X212250489Y-50261056D01*
X212239876Y-50141674D01*
X212189694Y-49966294D01*
X212183900Y-49946046D01*
X212183899Y-49946045D01*
X212183899Y-49946043D01*
X212089688Y-49765685D01*
X212037674Y-49701895D01*
X211961099Y-49607982D01*
X211842706Y-49511446D01*
X211803397Y-49479394D01*
X211623039Y-49385183D01*
X211623038Y-49385182D01*
X211623035Y-49385181D01*
X211505819Y-49351642D01*
X211427408Y-49329206D01*
X211427405Y-49329205D01*
X211427403Y-49329205D01*
X211361092Y-49323309D01*
X211308027Y-49318592D01*
X211308022Y-49318592D01*
X210191961Y-49318592D01*
X210191955Y-49318592D01*
X210191954Y-49318593D01*
X210180306Y-49319628D01*
X210072574Y-49329205D01*
X209876944Y-49385181D01*
X209795205Y-49427877D01*
X209696583Y-49479394D01*
X209657274Y-49511446D01*
X209592877Y-49538553D01*
X209524047Y-49526542D01*
X209481647Y-49492250D01*
X209478236Y-49487936D01*
X209354181Y-49363881D01*
X209354180Y-49363880D01*
X209204858Y-49271778D01*
X209038321Y-49216593D01*
X209038319Y-49216592D01*
X208935534Y-49206092D01*
X207535522Y-49206092D01*
X207535505Y-49206093D01*
X207432727Y-49216592D01*
X207432724Y-49216593D01*
X207266192Y-49271777D01*
X207266187Y-49271779D01*
X207116866Y-49363881D01*
X206992813Y-49487934D01*
X206900711Y-49637255D01*
X206900709Y-49637260D01*
X206885558Y-49682983D01*
X206845525Y-49803795D01*
X206845525Y-49803796D01*
X206845524Y-49803796D01*
X206835024Y-49906575D01*
X206835024Y-50656593D01*
X206835025Y-50656611D01*
X206845524Y-50759388D01*
X206845525Y-50759391D01*
X206882110Y-50869796D01*
X206900710Y-50925926D01*
X206992812Y-51075248D01*
X207116868Y-51199304D01*
X207266190Y-51291406D01*
X207432727Y-51346591D01*
X207535515Y-51357092D01*
X208935532Y-51357091D01*
X209038321Y-51346591D01*
X209086485Y-51330630D01*
X209156312Y-51328228D01*
X209216355Y-51363958D01*
X209247548Y-51426478D01*
X209249490Y-51448336D01*
X209249490Y-52065374D01*
X209229805Y-52132413D01*
X209177001Y-52178168D01*
X209107843Y-52188112D01*
X209086486Y-52183080D01*
X209038221Y-52167086D01*
X209038214Y-52167085D01*
X208935510Y-52156592D01*
X208485524Y-52156592D01*
X208485524Y-54306591D01*
X208935496Y-54306591D01*
X208935510Y-54306590D01*
X209038221Y-54296097D01*
X209204643Y-54240950D01*
X209204648Y-54240948D01*
X209353869Y-54148907D01*
X209477839Y-54024937D01*
X209503922Y-53982651D01*
X209555870Y-53935927D01*
X209624833Y-53924704D01*
X209687821Y-53951645D01*
X209696583Y-53958790D01*
X209876941Y-54053001D01*
X209959602Y-54076653D01*
X210018639Y-54114020D01*
X210048103Y-54177374D01*
X210049490Y-54195869D01*
X210049490Y-56171558D01*
X210029805Y-56238597D01*
X209977001Y-56284352D01*
X209925490Y-56295558D01*
X199543475Y-56295558D01*
X199476436Y-56275873D01*
X199455794Y-56259239D01*
X197836608Y-54640053D01*
X197803123Y-54578730D01*
X197800828Y-54547329D01*
X197800419Y-54547316D01*
X197800488Y-54545241D01*
X197800490Y-54545215D01*
X197800489Y-53642970D01*
X197797590Y-53600203D01*
X197751631Y-53415399D01*
X197714678Y-53340890D01*
X197667022Y-53244799D01*
X197667020Y-53244796D01*
X197547712Y-53096370D01*
X197547711Y-53096369D01*
X197478504Y-53040739D01*
X197438585Y-52983396D01*
X197436005Y-52913574D01*
X197471584Y-52853441D01*
X197478504Y-52847445D01*
X197500072Y-52830108D01*
X197547712Y-52791814D01*
X197667020Y-52643388D01*
X197751631Y-52472785D01*
X197797590Y-52287981D01*
X197800490Y-52245215D01*
X197800489Y-51342970D01*
X197797590Y-51300203D01*
X197751631Y-51115399D01*
X197711075Y-51033625D01*
X197667022Y-50944799D01*
X197667020Y-50944796D01*
X197547714Y-50796372D01*
X197547712Y-50796370D01*
X197478102Y-50740416D01*
X197438186Y-50683077D01*
X197435606Y-50613255D01*
X197471184Y-50553122D01*
X197478105Y-50547125D01*
X197547356Y-50491459D01*
X197547357Y-50491458D01*
X197666597Y-50343117D01*
X197666599Y-50343114D01*
X197751158Y-50172615D01*
X197797092Y-49987916D01*
X197799990Y-49945188D01*
X197799990Y-49744092D01*
X196173990Y-49744092D01*
X196106951Y-49724407D01*
X196061196Y-49671603D01*
X196049990Y-49620092D01*
X196049990Y-49244092D01*
X196549990Y-49244092D01*
X197799990Y-49244092D01*
X197799990Y-49042995D01*
X197797092Y-49000267D01*
X197751158Y-48815568D01*
X197666599Y-48645069D01*
X197666597Y-48645066D01*
X197547357Y-48496725D01*
X197547356Y-48496724D01*
X197399015Y-48377484D01*
X197399012Y-48377482D01*
X197228513Y-48292923D01*
X197043814Y-48246989D01*
X197001087Y-48244092D01*
X196549990Y-48244092D01*
X196549990Y-49244092D01*
X196049990Y-49244092D01*
X196049990Y-48244092D01*
X195598893Y-48244092D01*
X195556165Y-48246989D01*
X195371466Y-48292923D01*
X195200967Y-48377482D01*
X195200964Y-48377484D01*
X195052623Y-48496724D01*
X195052622Y-48496725D01*
X194933382Y-48645066D01*
X194933380Y-48645069D01*
X194848821Y-48815568D01*
X194802887Y-49000267D01*
X194799990Y-49042995D01*
X194799990Y-49115539D01*
X194780305Y-49182578D01*
X194727501Y-49228333D01*
X194658343Y-49238277D01*
X194636988Y-49233245D01*
X194588228Y-49217088D01*
X194588214Y-49217085D01*
X194485510Y-49206592D01*
X194035524Y-49206592D01*
X194035524Y-50407592D01*
X194015839Y-50474631D01*
X193963035Y-50520386D01*
X193911524Y-50531592D01*
X193659524Y-50531592D01*
X193592485Y-50511907D01*
X193546730Y-50459103D01*
X193535524Y-50407592D01*
X193535524Y-49206592D01*
X193461211Y-49206592D01*
X193394172Y-49186907D01*
X193348417Y-49134103D01*
X193337890Y-49095554D01*
X193332366Y-49042995D01*
X193317743Y-48903860D01*
X193259248Y-48723832D01*
X193194469Y-48611631D01*
X193164604Y-48559903D01*
X193164600Y-48559898D01*
X193164413Y-48559690D01*
X193164342Y-48559543D01*
X193160783Y-48554644D01*
X193161679Y-48553992D01*
X193134188Y-48496696D01*
X193132569Y-48476724D01*
X193132569Y-48433474D01*
X193152254Y-48366435D01*
X193168883Y-48345798D01*
X194716847Y-46797834D01*
X194778166Y-46764352D01*
X194847858Y-46769336D01*
X194892205Y-46797837D01*
X194920140Y-46825772D01*
X194920149Y-46825779D01*
X195059328Y-46908089D01*
X195205524Y-46950562D01*
X195205524Y-46360520D01*
X195225209Y-46293481D01*
X195241843Y-46272839D01*
X195341805Y-46172877D01*
X195403128Y-46139392D01*
X195429486Y-46136558D01*
X195511024Y-46136558D01*
X195578063Y-46156243D01*
X195623818Y-46209047D01*
X195635024Y-46260558D01*
X195635024Y-46380755D01*
X195637880Y-46417049D01*
X195637881Y-46417055D01*
X195683027Y-46572447D01*
X195683029Y-46572451D01*
X195683030Y-46572453D01*
X195688256Y-46581291D01*
X195705524Y-46644410D01*
X195705524Y-46950561D01*
X195851718Y-46908090D01*
X195871908Y-46896149D01*
X195939632Y-46878964D01*
X195998153Y-46896147D01*
X196019129Y-46908552D01*
X196060111Y-46920458D01*
X196174526Y-46953700D01*
X196174529Y-46953700D01*
X196174531Y-46953701D01*
X196210834Y-46956558D01*
X196210842Y-46956558D01*
X196620206Y-46956558D01*
X196620214Y-46956558D01*
X196656517Y-46953701D01*
X196656519Y-46953700D01*
X196656521Y-46953700D01*
X196697499Y-46941794D01*
X196811919Y-46908552D01*
X196887546Y-46863825D01*
X196950667Y-46846558D01*
X200776889Y-46846558D01*
X200843928Y-46866243D01*
X200864570Y-46882877D01*
X201863171Y-47881477D01*
X201896656Y-47942800D01*
X201899490Y-47969158D01*
X201899490Y-49317314D01*
X201879805Y-49384353D01*
X201827001Y-49430108D01*
X201809603Y-49436529D01*
X201726946Y-49460180D01*
X201665552Y-49492250D01*
X201546583Y-49554394D01*
X201546581Y-49554395D01*
X201546580Y-49554396D01*
X201388880Y-49682982D01*
X201273496Y-49824491D01*
X201260292Y-49840685D01*
X201244866Y-49870217D01*
X201166079Y-50021046D01*
X201122805Y-50172286D01*
X201111203Y-50212835D01*
X201110104Y-50216675D01*
X201110103Y-50216678D01*
X201099490Y-50336058D01*
X201099490Y-53252120D01*
X201099491Y-53252126D01*
X201110103Y-53371507D01*
X201166079Y-53567137D01*
X201166080Y-53567140D01*
X201166081Y-53567141D01*
X201260292Y-53747499D01*
X201260294Y-53747501D01*
X201388880Y-53905201D01*
X201477529Y-53977484D01*
X201546583Y-54033790D01*
X201726941Y-54128001D01*
X201922572Y-54183978D01*
X202041953Y-54194592D01*
X203158026Y-54194591D01*
X203277408Y-54183978D01*
X203473039Y-54128001D01*
X203653397Y-54033790D01*
X203676005Y-54015355D01*
X203740400Y-53988246D01*
X203809230Y-54000255D01*
X203842047Y-54023776D01*
X203967178Y-54148907D01*
X204116399Y-54240948D01*
X204116404Y-54240950D01*
X204282826Y-54296097D01*
X204282833Y-54296098D01*
X204385543Y-54306591D01*
X204835523Y-54306591D01*
X205335524Y-54306591D01*
X205785496Y-54306591D01*
X205785510Y-54306590D01*
X205888221Y-54296097D01*
X206054643Y-54240950D01*
X206054648Y-54240948D01*
X206203869Y-54148907D01*
X206327839Y-54024937D01*
X206419880Y-53875716D01*
X206419882Y-53875711D01*
X206475029Y-53709289D01*
X206475030Y-53709282D01*
X206485523Y-53606578D01*
X206835525Y-53606578D01*
X206846018Y-53709289D01*
X206901165Y-53875711D01*
X206901167Y-53875716D01*
X206993208Y-54024937D01*
X207117178Y-54148907D01*
X207266399Y-54240948D01*
X207266404Y-54240950D01*
X207432826Y-54296097D01*
X207432833Y-54296098D01*
X207535543Y-54306591D01*
X207985523Y-54306591D01*
X207985524Y-54306590D01*
X207985524Y-53481592D01*
X206835525Y-53481592D01*
X206835525Y-53606578D01*
X206485523Y-53606578D01*
X206485524Y-53606565D01*
X206485524Y-53481592D01*
X205335524Y-53481592D01*
X205335524Y-54306591D01*
X204835523Y-54306591D01*
X204835524Y-54306590D01*
X204835524Y-52981592D01*
X205335524Y-52981592D01*
X206485523Y-52981592D01*
X206485523Y-52856620D01*
X206485522Y-52856605D01*
X206835524Y-52856605D01*
X206835524Y-52981592D01*
X207985524Y-52981592D01*
X207985524Y-52156592D01*
X207535552Y-52156592D01*
X207535536Y-52156593D01*
X207432826Y-52167086D01*
X207266404Y-52222233D01*
X207266399Y-52222235D01*
X207117178Y-52314276D01*
X206993208Y-52438246D01*
X206901167Y-52587467D01*
X206901165Y-52587472D01*
X206846018Y-52753894D01*
X206846017Y-52753901D01*
X206835524Y-52856605D01*
X206485522Y-52856605D01*
X206475029Y-52753894D01*
X206419882Y-52587472D01*
X206419880Y-52587467D01*
X206327839Y-52438246D01*
X206203869Y-52314276D01*
X206054648Y-52222235D01*
X206054643Y-52222233D01*
X205888221Y-52167086D01*
X205888214Y-52167085D01*
X205785510Y-52156592D01*
X205335524Y-52156592D01*
X205335524Y-52981592D01*
X204835524Y-52981592D01*
X204835524Y-52156592D01*
X204385552Y-52156592D01*
X204385536Y-52156593D01*
X204282826Y-52167086D01*
X204263490Y-52173493D01*
X204193662Y-52175893D01*
X204133621Y-52140160D01*
X204102430Y-52077639D01*
X204100489Y-52055786D01*
X204100489Y-51457923D01*
X204120174Y-51390884D01*
X204172978Y-51345129D01*
X204242136Y-51335185D01*
X204263488Y-51340215D01*
X204282727Y-51346591D01*
X204385515Y-51357092D01*
X205785532Y-51357091D01*
X205888321Y-51346591D01*
X206054858Y-51291406D01*
X206204180Y-51199304D01*
X206328236Y-51075248D01*
X206420338Y-50925926D01*
X206475523Y-50759389D01*
X206486024Y-50656601D01*
X206486023Y-49906584D01*
X206475523Y-49803795D01*
X206420338Y-49637258D01*
X206328236Y-49487936D01*
X206204180Y-49363880D01*
X206054858Y-49271778D01*
X205888321Y-49216593D01*
X205888319Y-49216592D01*
X205785534Y-49206092D01*
X204385522Y-49206092D01*
X204385505Y-49206093D01*
X204282727Y-49216592D01*
X204282724Y-49216593D01*
X204116192Y-49271777D01*
X204116187Y-49271779D01*
X203966866Y-49363881D01*
X203842812Y-49487935D01*
X203842809Y-49487939D01*
X203826002Y-49515187D01*
X203774053Y-49561911D01*
X203705090Y-49573131D01*
X203659492Y-49556305D01*
X203658970Y-49557306D01*
X203653400Y-49554396D01*
X203653397Y-49554394D01*
X203473039Y-49460183D01*
X203473038Y-49460182D01*
X203473033Y-49460180D01*
X203390377Y-49436529D01*
X203331340Y-49399162D01*
X203301877Y-49335808D01*
X203300490Y-49317314D01*
X203300490Y-47558644D01*
X203273571Y-47423316D01*
X203273570Y-47423314D01*
X203273570Y-47423312D01*
X203270357Y-47415556D01*
X203264328Y-47400999D01*
X203264316Y-47400972D01*
X203248464Y-47362701D01*
X203220765Y-47295829D01*
X203220763Y-47295827D01*
X203220763Y-47295825D01*
X203144105Y-47181099D01*
X203102609Y-47139603D01*
X203046532Y-47083526D01*
X202727358Y-46764352D01*
X202559064Y-46596058D01*
X216126734Y-46596058D01*
X216128378Y-46616968D01*
X216173492Y-46772253D01*
X216255802Y-46911432D01*
X216255809Y-46911441D01*
X216370140Y-47025772D01*
X216370149Y-47025779D01*
X216509328Y-47108089D01*
X216655524Y-47150562D01*
X216655524Y-46596058D01*
X216126734Y-46596058D01*
X202559064Y-46596058D01*
X202059064Y-46096057D01*
X216126733Y-46096057D01*
X216126734Y-46096058D01*
X216655524Y-46096058D01*
X216655524Y-45541552D01*
X216655522Y-45541551D01*
X216509333Y-45584023D01*
X216509330Y-45584025D01*
X216370149Y-45666336D01*
X216370140Y-45666343D01*
X216255809Y-45780674D01*
X216255802Y-45780683D01*
X216173492Y-45919862D01*
X216173490Y-45919867D01*
X216128379Y-46075139D01*
X216128378Y-46075145D01*
X216126733Y-46096057D01*
X202059064Y-46096057D01*
X201564954Y-45601946D01*
X201564953Y-45601945D01*
X201450215Y-45525280D01*
X201322740Y-45472479D01*
X201322730Y-45472476D01*
X201187404Y-45445558D01*
X201187402Y-45445558D01*
X201187401Y-45445558D01*
X196959926Y-45445558D01*
X196892887Y-45425873D01*
X196872245Y-45409239D01*
X196862066Y-45399060D01*
X196354954Y-44891946D01*
X196354953Y-44891945D01*
X196240215Y-44815280D01*
X196112740Y-44762479D01*
X196112730Y-44762476D01*
X195977404Y-44735558D01*
X195977402Y-44735558D01*
X195977401Y-44735558D01*
X195018975Y-44735558D01*
X195018971Y-44735558D01*
X194910558Y-44757123D01*
X194910557Y-44757123D01*
X194897099Y-44759800D01*
X194883641Y-44762477D01*
X194830834Y-44784349D01*
X194830834Y-44784350D01*
X194783742Y-44803856D01*
X194756154Y-44815284D01*
X194746002Y-44822068D01*
X194745891Y-44822142D01*
X194641425Y-44891944D01*
X194641421Y-44891947D01*
X191887957Y-47645410D01*
X191887956Y-47645411D01*
X191811291Y-47760149D01*
X191758490Y-47887624D01*
X191758487Y-47887636D01*
X191736872Y-47996304D01*
X191736872Y-47996307D01*
X191731569Y-48022961D01*
X191731569Y-48267616D01*
X191711884Y-48334655D01*
X191659080Y-48380410D01*
X191607569Y-48391616D01*
X191362914Y-48391616D01*
X191227587Y-48418534D01*
X191227577Y-48418537D01*
X191100102Y-48471338D01*
X190985364Y-48548003D01*
X190985363Y-48548004D01*
X189708878Y-49824491D01*
X189502705Y-50030664D01*
X189441382Y-50064149D01*
X189371690Y-50059165D01*
X189315757Y-50017293D01*
X189291340Y-49951829D01*
X189291024Y-49942983D01*
X189291024Y-48194077D01*
X189286583Y-48171754D01*
X189286582Y-48171750D01*
X189286531Y-48171492D01*
X189266987Y-48073233D01*
X189246164Y-48022963D01*
X189219835Y-47959398D01*
X189198900Y-47928067D01*
X189178022Y-47861392D01*
X189196505Y-47794011D01*
X189214317Y-47771499D01*
X195031883Y-41953935D01*
X195093206Y-41920450D01*
X195119564Y-41917616D01*
X196626074Y-41917616D01*
X196626074Y-41917615D01*
X196740231Y-41894909D01*
X196746918Y-41893579D01*
X196746919Y-41893578D01*
X196746921Y-41893578D01*
X196780253Y-41879770D01*
X196780252Y-41879770D01*
X196780258Y-41879768D01*
X196860752Y-41846428D01*
X196911975Y-41812200D01*
X196963199Y-41777974D01*
X197050324Y-41690849D01*
X197050324Y-41690847D01*
X197060532Y-41680640D01*
X197060533Y-41680637D01*
X198157610Y-40583561D01*
X198218931Y-40550078D01*
X198279233Y-40551980D01*
X198283937Y-40553318D01*
X198283951Y-40553324D01*
X198503377Y-40594342D01*
X198503379Y-40594342D01*
X198726601Y-40594342D01*
X198726603Y-40594342D01*
X198946029Y-40553324D01*
X199154182Y-40472685D01*
X199343973Y-40355172D01*
X199508940Y-40204785D01*
X199643464Y-40026646D01*
X199742964Y-39826822D01*
X199765723Y-39746829D01*
X199803002Y-39687737D01*
X199866312Y-39658179D01*
X199935552Y-39667541D01*
X199988738Y-39712850D01*
X200004257Y-39746831D01*
X200027016Y-39826824D01*
X200116729Y-40006991D01*
X200126516Y-40026646D01*
X200261040Y-40204785D01*
X200426007Y-40355172D01*
X200426014Y-40355176D01*
X200426015Y-40355177D01*
X200615794Y-40472683D01*
X200615795Y-40472683D01*
X200615798Y-40472685D01*
X200823951Y-40553324D01*
X201043377Y-40594342D01*
X201043379Y-40594342D01*
X201266601Y-40594342D01*
X201266603Y-40594342D01*
X201486029Y-40553324D01*
X201694182Y-40472685D01*
X201883973Y-40355172D01*
X202048940Y-40204785D01*
X202183464Y-40026646D01*
X202282964Y-39826822D01*
X202305723Y-39746829D01*
X202343002Y-39687737D01*
X202406312Y-39658179D01*
X202475552Y-39667541D01*
X202528738Y-39712850D01*
X202544257Y-39746831D01*
X202567016Y-39826824D01*
X202656729Y-40006991D01*
X202666516Y-40026646D01*
X202801040Y-40204785D01*
X202966007Y-40355172D01*
X202966014Y-40355176D01*
X202966015Y-40355177D01*
X203155794Y-40472683D01*
X203155795Y-40472683D01*
X203155798Y-40472685D01*
X203363951Y-40553324D01*
X203583377Y-40594342D01*
X203583379Y-40594342D01*
X203806601Y-40594342D01*
X203806603Y-40594342D01*
X204026029Y-40553324D01*
X204234182Y-40472685D01*
X204423973Y-40355172D01*
X204588940Y-40204785D01*
X204723464Y-40026646D01*
X204822964Y-39826822D01*
X204845723Y-39746829D01*
X204883002Y-39687737D01*
X204946312Y-39658179D01*
X205015552Y-39667541D01*
X205068738Y-39712850D01*
X205084257Y-39746831D01*
X205107016Y-39826824D01*
X205196729Y-40006991D01*
X205206516Y-40026646D01*
X205341040Y-40204785D01*
X205506007Y-40355172D01*
X205506014Y-40355176D01*
X205506015Y-40355177D01*
X205695794Y-40472683D01*
X205695795Y-40472683D01*
X205695798Y-40472685D01*
X205903951Y-40553324D01*
X206123377Y-40594342D01*
X206123379Y-40594342D01*
X206346601Y-40594342D01*
X206346603Y-40594342D01*
X206566029Y-40553324D01*
X206774182Y-40472685D01*
X206963973Y-40355172D01*
X207128940Y-40204785D01*
X207263464Y-40026646D01*
X207362964Y-39826822D01*
X207385723Y-39746829D01*
X207423002Y-39687737D01*
X207486312Y-39658179D01*
X207555552Y-39667541D01*
X207608738Y-39712850D01*
X207624257Y-39746831D01*
X207647016Y-39826824D01*
X207736729Y-40006991D01*
X207746516Y-40026646D01*
X207881040Y-40204785D01*
X208046007Y-40355172D01*
X208046014Y-40355176D01*
X208046015Y-40355177D01*
X208235794Y-40472683D01*
X208235795Y-40472683D01*
X208235798Y-40472685D01*
X208443951Y-40553324D01*
X208663377Y-40594342D01*
X208663379Y-40594342D01*
X208886601Y-40594342D01*
X208886603Y-40594342D01*
X209106029Y-40553324D01*
X209314182Y-40472685D01*
X209503973Y-40355172D01*
X209668940Y-40204785D01*
X209803464Y-40026646D01*
X209902964Y-39826822D01*
X209925723Y-39746829D01*
X209963002Y-39687737D01*
X210026312Y-39658179D01*
X210095552Y-39667541D01*
X210148738Y-39712850D01*
X210164257Y-39746831D01*
X210187016Y-39826824D01*
X210276729Y-40006991D01*
X210286516Y-40026646D01*
X210421040Y-40204785D01*
X210586007Y-40355172D01*
X210586014Y-40355176D01*
X210586015Y-40355177D01*
X210775794Y-40472683D01*
X210775795Y-40472683D01*
X210775798Y-40472685D01*
X210983951Y-40553324D01*
X211203377Y-40594342D01*
X211203379Y-40594342D01*
X211426601Y-40594342D01*
X211426603Y-40594342D01*
X211646029Y-40553324D01*
X211854182Y-40472685D01*
X212043973Y-40355172D01*
X212208940Y-40204785D01*
X212343464Y-40026646D01*
X212442964Y-39826822D01*
X212465723Y-39746829D01*
X212503002Y-39687737D01*
X212566312Y-39658179D01*
X212635552Y-39667541D01*
X212688738Y-39712850D01*
X212704257Y-39746831D01*
X212727016Y-39826824D01*
X212816729Y-40006991D01*
X212826516Y-40026646D01*
X212961040Y-40204785D01*
X213126007Y-40355172D01*
X213126014Y-40355176D01*
X213126015Y-40355177D01*
X213315794Y-40472683D01*
X213315795Y-40472683D01*
X213315798Y-40472685D01*
X213523951Y-40553324D01*
X213743377Y-40594342D01*
X213743379Y-40594342D01*
X213966601Y-40594342D01*
X213966603Y-40594342D01*
X214186029Y-40553324D01*
X214394182Y-40472685D01*
X214583973Y-40355172D01*
X214748940Y-40204785D01*
X214883464Y-40026646D01*
X214982964Y-39826822D01*
X215005723Y-39746829D01*
X215043002Y-39687737D01*
X215106312Y-39658179D01*
X215175552Y-39667541D01*
X215228738Y-39712850D01*
X215244257Y-39746831D01*
X215267016Y-39826824D01*
X215356729Y-40006991D01*
X215366516Y-40026646D01*
X215501040Y-40204785D01*
X215666007Y-40355172D01*
X215666014Y-40355176D01*
X215666015Y-40355177D01*
X215855794Y-40472683D01*
X215855795Y-40472683D01*
X215855798Y-40472685D01*
X216063951Y-40553324D01*
X216283377Y-40594342D01*
X216283379Y-40594342D01*
X216506601Y-40594342D01*
X216506603Y-40594342D01*
X216726029Y-40553324D01*
X216934182Y-40472685D01*
X217123973Y-40355172D01*
X217288940Y-40204785D01*
X217423464Y-40026646D01*
X217495491Y-39881994D01*
X217542992Y-39830760D01*
X217610655Y-39813338D01*
X217676995Y-39835263D01*
X217720951Y-39889574D01*
X217730490Y-39937267D01*
X217730490Y-40141711D01*
X217730491Y-40141718D01*
X217736898Y-40201325D01*
X217787192Y-40336170D01*
X217787196Y-40336177D01*
X217873442Y-40451386D01*
X217873445Y-40451389D01*
X217988654Y-40537635D01*
X217988661Y-40537639D01*
X218123507Y-40587933D01*
X218123506Y-40587933D01*
X218130434Y-40588677D01*
X218183117Y-40594342D01*
X219686862Y-40594341D01*
X219746473Y-40587933D01*
X219881321Y-40537638D01*
X219996536Y-40451388D01*
X220082786Y-40336173D01*
X220133081Y-40201325D01*
X220139490Y-40141715D01*
X220139489Y-38637970D01*
X220133081Y-38578359D01*
X220082786Y-38443511D01*
X220082785Y-38443510D01*
X220082783Y-38443506D01*
X219996537Y-38328297D01*
X219996534Y-38328294D01*
X219881325Y-38242048D01*
X219881318Y-38242044D01*
X219746472Y-38191750D01*
X219746473Y-38191750D01*
X219686873Y-38185343D01*
X219686871Y-38185342D01*
X219686863Y-38185342D01*
X219686854Y-38185342D01*
X218183119Y-38185342D01*
X218183113Y-38185343D01*
X218123506Y-38191750D01*
X217988661Y-38242044D01*
X217988654Y-38242048D01*
X217873445Y-38328294D01*
X217873442Y-38328297D01*
X217787196Y-38443506D01*
X217787192Y-38443513D01*
X217736898Y-38578359D01*
X217730491Y-38637958D01*
X217730491Y-38637965D01*
X217730490Y-38637977D01*
X217730490Y-38842413D01*
X217710805Y-38909452D01*
X217658001Y-38955207D01*
X217588843Y-38965151D01*
X217525287Y-38936126D01*
X217495490Y-38897685D01*
X217423594Y-38753300D01*
X217423464Y-38753038D01*
X217288940Y-38574899D01*
X217123973Y-38424512D01*
X217123969Y-38424509D01*
X217123964Y-38424506D01*
X216934185Y-38307000D01*
X216934179Y-38306998D01*
X216726029Y-38226360D01*
X216506603Y-38185342D01*
X216283377Y-38185342D01*
X216063951Y-38226360D01*
X216023456Y-38242048D01*
X215855800Y-38306998D01*
X215855794Y-38307000D01*
X215666015Y-38424506D01*
X215666005Y-38424513D01*
X215501041Y-38574897D01*
X215366516Y-38753037D01*
X215267016Y-38952860D01*
X215267013Y-38952866D01*
X215244256Y-39032853D01*
X215206977Y-39091946D01*
X215143668Y-39121504D01*
X215074428Y-39112142D01*
X215021242Y-39066833D01*
X215005724Y-39032853D01*
X214982966Y-38952866D01*
X214982963Y-38952860D01*
X214976481Y-38939842D01*
X214883464Y-38753038D01*
X214748940Y-38574899D01*
X214583973Y-38424512D01*
X214583969Y-38424509D01*
X214583964Y-38424506D01*
X214394185Y-38307000D01*
X214394179Y-38306998D01*
X214186029Y-38226360D01*
X213966603Y-38185342D01*
X213743377Y-38185342D01*
X213523951Y-38226360D01*
X213483456Y-38242048D01*
X213315800Y-38306998D01*
X213315794Y-38307000D01*
X213126015Y-38424506D01*
X213126005Y-38424513D01*
X212961041Y-38574897D01*
X212826516Y-38753037D01*
X212727016Y-38952860D01*
X212727013Y-38952866D01*
X212704256Y-39032853D01*
X212666977Y-39091946D01*
X212603668Y-39121504D01*
X212534428Y-39112142D01*
X212481242Y-39066833D01*
X212465724Y-39032853D01*
X212442966Y-38952866D01*
X212442963Y-38952860D01*
X212436481Y-38939842D01*
X212343464Y-38753038D01*
X212208940Y-38574899D01*
X212043973Y-38424512D01*
X212043969Y-38424509D01*
X212043964Y-38424506D01*
X211854185Y-38307000D01*
X211854179Y-38306998D01*
X211646029Y-38226360D01*
X211426603Y-38185342D01*
X211203377Y-38185342D01*
X210983951Y-38226360D01*
X210943456Y-38242048D01*
X210775800Y-38306998D01*
X210775794Y-38307000D01*
X210586015Y-38424506D01*
X210586005Y-38424513D01*
X210421041Y-38574897D01*
X210286516Y-38753037D01*
X210187016Y-38952860D01*
X210187013Y-38952866D01*
X210164256Y-39032853D01*
X210126977Y-39091946D01*
X210063668Y-39121504D01*
X209994428Y-39112142D01*
X209941242Y-39066833D01*
X209925724Y-39032853D01*
X209902966Y-38952866D01*
X209902963Y-38952860D01*
X209896481Y-38939842D01*
X209803464Y-38753038D01*
X209668940Y-38574899D01*
X209503973Y-38424512D01*
X209503969Y-38424509D01*
X209503964Y-38424506D01*
X209314185Y-38307000D01*
X209314179Y-38306998D01*
X209106029Y-38226360D01*
X208886603Y-38185342D01*
X208663377Y-38185342D01*
X208443951Y-38226360D01*
X208403456Y-38242048D01*
X208235800Y-38306998D01*
X208235794Y-38307000D01*
X208046015Y-38424506D01*
X208046005Y-38424513D01*
X207881041Y-38574897D01*
X207746516Y-38753037D01*
X207647016Y-38952860D01*
X207647013Y-38952866D01*
X207624256Y-39032853D01*
X207586977Y-39091946D01*
X207523668Y-39121504D01*
X207454428Y-39112142D01*
X207401242Y-39066833D01*
X207385724Y-39032853D01*
X207362966Y-38952866D01*
X207362963Y-38952860D01*
X207356481Y-38939842D01*
X207263464Y-38753038D01*
X207128940Y-38574899D01*
X206963973Y-38424512D01*
X206963969Y-38424509D01*
X206963964Y-38424506D01*
X206774185Y-38307000D01*
X206774179Y-38306998D01*
X206566029Y-38226360D01*
X206346603Y-38185342D01*
X206123377Y-38185342D01*
X205903951Y-38226360D01*
X205863456Y-38242048D01*
X205695800Y-38306998D01*
X205695794Y-38307000D01*
X205506015Y-38424506D01*
X205506005Y-38424513D01*
X205341041Y-38574897D01*
X205206516Y-38753037D01*
X205107016Y-38952860D01*
X205107013Y-38952866D01*
X205084256Y-39032853D01*
X205046977Y-39091946D01*
X204983668Y-39121504D01*
X204914428Y-39112142D01*
X204861242Y-39066833D01*
X204845724Y-39032853D01*
X204822966Y-38952866D01*
X204822963Y-38952860D01*
X204816481Y-38939842D01*
X204723464Y-38753038D01*
X204588940Y-38574899D01*
X204423973Y-38424512D01*
X204423969Y-38424509D01*
X204423964Y-38424506D01*
X204234185Y-38307000D01*
X204234179Y-38306998D01*
X204026029Y-38226360D01*
X203806603Y-38185342D01*
X203583377Y-38185342D01*
X203363951Y-38226360D01*
X203323456Y-38242048D01*
X203155800Y-38306998D01*
X203155794Y-38307000D01*
X202966015Y-38424506D01*
X202966005Y-38424513D01*
X202801041Y-38574897D01*
X202666516Y-38753037D01*
X202567016Y-38952860D01*
X202567013Y-38952866D01*
X202544256Y-39032853D01*
X202506977Y-39091946D01*
X202443668Y-39121504D01*
X202374428Y-39112142D01*
X202321242Y-39066833D01*
X202305724Y-39032853D01*
X202282966Y-38952866D01*
X202282963Y-38952860D01*
X202276481Y-38939842D01*
X202183464Y-38753038D01*
X202048940Y-38574899D01*
X201883973Y-38424512D01*
X201883969Y-38424509D01*
X201883964Y-38424506D01*
X201694185Y-38307000D01*
X201694179Y-38306998D01*
X201486029Y-38226360D01*
X201266603Y-38185342D01*
X201043377Y-38185342D01*
X200823951Y-38226360D01*
X200783456Y-38242048D01*
X200615800Y-38306998D01*
X200615794Y-38307000D01*
X200426015Y-38424506D01*
X200426005Y-38424513D01*
X200261041Y-38574897D01*
X200126516Y-38753037D01*
X200027016Y-38952860D01*
X200027013Y-38952866D01*
X200004256Y-39032853D01*
X199966977Y-39091946D01*
X199903668Y-39121504D01*
X199834428Y-39112142D01*
X199781242Y-39066833D01*
X199765724Y-39032853D01*
X199742966Y-38952866D01*
X199742963Y-38952860D01*
X199736481Y-38939842D01*
X199643464Y-38753038D01*
X199508940Y-38574899D01*
X199343973Y-38424512D01*
X199343969Y-38424509D01*
X199343964Y-38424506D01*
X199154185Y-38307000D01*
X199154179Y-38306998D01*
X198946029Y-38226360D01*
X198726603Y-38185342D01*
X198503377Y-38185342D01*
X198283951Y-38226360D01*
X198243456Y-38242048D01*
X198075800Y-38306998D01*
X198075794Y-38307000D01*
X197886015Y-38424506D01*
X197886005Y-38424513D01*
X197721041Y-38574897D01*
X197586516Y-38753037D01*
X197487016Y-38952860D01*
X197487013Y-38952866D01*
X197464256Y-39032853D01*
X197426977Y-39091946D01*
X197363668Y-39121504D01*
X197294428Y-39112142D01*
X197241242Y-39066833D01*
X197225724Y-39032853D01*
X197202966Y-38952866D01*
X197202963Y-38952860D01*
X197196481Y-38939842D01*
X197103464Y-38753038D01*
X196968940Y-38574899D01*
X196803973Y-38424512D01*
X196803969Y-38424509D01*
X196803964Y-38424506D01*
X196614185Y-38307000D01*
X196614179Y-38306998D01*
X196406029Y-38226360D01*
X196186603Y-38185342D01*
X195963377Y-38185342D01*
X195743951Y-38226360D01*
X195703456Y-38242048D01*
X195535800Y-38306998D01*
X195535794Y-38307000D01*
X195346015Y-38424506D01*
X195346005Y-38424513D01*
X195181041Y-38574897D01*
X195046516Y-38753037D01*
X194947016Y-38952860D01*
X194947013Y-38952866D01*
X194924256Y-39032853D01*
X194886977Y-39091946D01*
X194823668Y-39121504D01*
X194754428Y-39112142D01*
X194701242Y-39066833D01*
X194685724Y-39032853D01*
X194662966Y-38952866D01*
X194662963Y-38952860D01*
X194656481Y-38939842D01*
X194563464Y-38753038D01*
X194428940Y-38574899D01*
X194263973Y-38424512D01*
X194263969Y-38424509D01*
X194263964Y-38424506D01*
X194074185Y-38307000D01*
X194074179Y-38306998D01*
X193866029Y-38226360D01*
X193646603Y-38185342D01*
X193423377Y-38185342D01*
X193203951Y-38226360D01*
X193163456Y-38242048D01*
X192995800Y-38306998D01*
X192995794Y-38307000D01*
X192806015Y-38424506D01*
X192806005Y-38424513D01*
X192641041Y-38574897D01*
X192506516Y-38753037D01*
X192407016Y-38952860D01*
X192407013Y-38952866D01*
X192384256Y-39032853D01*
X192346977Y-39091946D01*
X192283668Y-39121504D01*
X192214428Y-39112142D01*
X192161242Y-39066833D01*
X192145724Y-39032853D01*
X192122966Y-38952866D01*
X192122963Y-38952860D01*
X192116481Y-38939842D01*
X192023464Y-38753038D01*
X191888940Y-38574899D01*
X191723973Y-38424512D01*
X191723969Y-38424509D01*
X191723964Y-38424506D01*
X191534185Y-38307000D01*
X191534179Y-38306998D01*
X191326029Y-38226360D01*
X191106603Y-38185342D01*
X190883377Y-38185342D01*
X190663951Y-38226360D01*
X190623456Y-38242048D01*
X190455800Y-38306998D01*
X190455794Y-38307000D01*
X190266015Y-38424506D01*
X190266005Y-38424513D01*
X190101041Y-38574897D01*
X189966516Y-38753037D01*
X189867016Y-38952860D01*
X189867013Y-38952866D01*
X189844256Y-39032853D01*
X189806977Y-39091946D01*
X189743668Y-39121504D01*
X189674428Y-39112142D01*
X189621242Y-39066833D01*
X189605724Y-39032853D01*
X189582966Y-38952866D01*
X189582963Y-38952860D01*
X189576481Y-38939842D01*
X189483464Y-38753038D01*
X189348940Y-38574899D01*
X189183973Y-38424512D01*
X189183969Y-38424509D01*
X189183964Y-38424506D01*
X188994185Y-38307000D01*
X188994179Y-38306998D01*
X188786029Y-38226360D01*
X188566603Y-38185342D01*
X188343377Y-38185342D01*
X188123951Y-38226360D01*
X188083456Y-38242048D01*
X187915800Y-38306998D01*
X187915794Y-38307000D01*
X187726015Y-38424506D01*
X187726005Y-38424513D01*
X187561041Y-38574897D01*
X187426516Y-38753037D01*
X187327016Y-38952860D01*
X187327014Y-38952864D01*
X187303995Y-39033768D01*
X187266715Y-39092861D01*
X187203406Y-39122418D01*
X187134166Y-39113056D01*
X187080980Y-39067746D01*
X187065462Y-39033767D01*
X187042493Y-38953038D01*
X187042491Y-38953033D01*
X186943036Y-38753300D01*
X186926706Y-38731678D01*
X186357128Y-39301256D01*
X186334323Y-39216148D01*
X186275080Y-39113536D01*
X186191296Y-39029752D01*
X186088684Y-38970509D01*
X186003574Y-38947703D01*
X186571222Y-38380055D01*
X186453956Y-38307447D01*
X186453955Y-38307446D01*
X186245894Y-38226844D01*
X186026555Y-38185842D01*
X185803425Y-38185842D01*
X185584085Y-38226844D01*
X185376024Y-38307446D01*
X185376018Y-38307449D01*
X185258757Y-38380054D01*
X185258756Y-38380055D01*
X185826405Y-38947703D01*
X185741296Y-38970509D01*
X185638684Y-39029752D01*
X185554900Y-39113536D01*
X185495657Y-39216148D01*
X185472851Y-39301257D01*
X184903272Y-38731678D01*
X184903271Y-38731678D01*
X184886943Y-38753300D01*
X184787488Y-38953033D01*
X184787483Y-38953046D01*
X184764516Y-39033768D01*
X184727237Y-39092861D01*
X184663927Y-39122418D01*
X184594687Y-39113056D01*
X184541501Y-39067746D01*
X184525984Y-39033767D01*
X184502966Y-38952866D01*
X184502963Y-38952860D01*
X184496481Y-38939842D01*
X184403464Y-38753038D01*
X184268940Y-38574899D01*
X184103973Y-38424512D01*
X184103969Y-38424509D01*
X184103964Y-38424506D01*
X183914185Y-38307000D01*
X183914179Y-38306998D01*
X183706029Y-38226360D01*
X183486603Y-38185342D01*
X183263377Y-38185342D01*
X183043951Y-38226360D01*
X183003456Y-38242048D01*
X182835800Y-38306998D01*
X182835794Y-38307000D01*
X182646015Y-38424506D01*
X182646005Y-38424513D01*
X182481041Y-38574897D01*
X182346516Y-38753037D01*
X182247016Y-38952860D01*
X182247013Y-38952866D01*
X182224256Y-39032853D01*
X182186977Y-39091946D01*
X182123668Y-39121504D01*
X182054428Y-39112142D01*
X182001242Y-39066833D01*
X181985724Y-39032853D01*
X181962966Y-38952866D01*
X181962963Y-38952860D01*
X181956481Y-38939842D01*
X181863464Y-38753038D01*
X181728940Y-38574899D01*
X181563973Y-38424512D01*
X181563969Y-38424509D01*
X181563964Y-38424506D01*
X181374185Y-38307000D01*
X181374179Y-38306998D01*
X181166029Y-38226360D01*
X180946603Y-38185342D01*
X180723377Y-38185342D01*
X180503951Y-38226360D01*
X180463456Y-38242048D01*
X180295800Y-38306998D01*
X180295794Y-38307000D01*
X180106015Y-38424506D01*
X180106005Y-38424513D01*
X179941041Y-38574897D01*
X179806516Y-38753037D01*
X179707016Y-38952860D01*
X179707013Y-38952866D01*
X179684256Y-39032853D01*
X179646977Y-39091946D01*
X179583668Y-39121504D01*
X179514428Y-39112142D01*
X179461242Y-39066833D01*
X179445724Y-39032853D01*
X179422966Y-38952866D01*
X179422963Y-38952860D01*
X179416481Y-38939842D01*
X179323464Y-38753038D01*
X179188940Y-38574899D01*
X179023973Y-38424512D01*
X179023969Y-38424509D01*
X179023964Y-38424506D01*
X178834185Y-38307000D01*
X178834179Y-38306998D01*
X178626029Y-38226360D01*
X178406603Y-38185342D01*
X178183377Y-38185342D01*
X177963951Y-38226360D01*
X177923456Y-38242048D01*
X177755800Y-38306998D01*
X177755794Y-38307000D01*
X177566015Y-38424506D01*
X177566005Y-38424513D01*
X177401041Y-38574897D01*
X177266516Y-38753037D01*
X177167016Y-38952860D01*
X177167013Y-38952866D01*
X177144256Y-39032853D01*
X177106977Y-39091946D01*
X177043668Y-39121504D01*
X176974428Y-39112142D01*
X176921242Y-39066833D01*
X176905724Y-39032853D01*
X176882966Y-38952866D01*
X176882963Y-38952860D01*
X176876481Y-38939842D01*
X176783464Y-38753038D01*
X176648940Y-38574899D01*
X176483973Y-38424512D01*
X176483969Y-38424509D01*
X176483964Y-38424506D01*
X176294185Y-38307000D01*
X176294179Y-38306998D01*
X176086029Y-38226360D01*
X175866603Y-38185342D01*
X175643377Y-38185342D01*
X175423951Y-38226360D01*
X175383456Y-38242048D01*
X175215800Y-38306998D01*
X175215794Y-38307000D01*
X175026015Y-38424506D01*
X175026005Y-38424513D01*
X174861041Y-38574897D01*
X174726516Y-38753037D01*
X174627016Y-38952860D01*
X174627013Y-38952866D01*
X174604256Y-39032853D01*
X174566977Y-39091946D01*
X174503668Y-39121504D01*
X174434428Y-39112142D01*
X174381242Y-39066833D01*
X174365724Y-39032853D01*
X174342966Y-38952866D01*
X174342963Y-38952860D01*
X174336481Y-38939842D01*
X174243464Y-38753038D01*
X174108940Y-38574899D01*
X173943973Y-38424512D01*
X173943969Y-38424509D01*
X173943964Y-38424506D01*
X173754185Y-38307000D01*
X173754179Y-38306998D01*
X173546029Y-38226360D01*
X173326603Y-38185342D01*
X173103377Y-38185342D01*
X172883951Y-38226360D01*
X172843456Y-38242048D01*
X172675800Y-38306998D01*
X172675794Y-38307000D01*
X172486015Y-38424506D01*
X172486005Y-38424513D01*
X172321041Y-38574897D01*
X172186516Y-38753037D01*
X172087016Y-38952860D01*
X172087013Y-38952866D01*
X172025927Y-39167565D01*
X172025926Y-39167568D01*
X172005330Y-39389841D01*
X172005330Y-39389842D01*
X172025926Y-39612115D01*
X172025927Y-39612118D01*
X172087013Y-39826817D01*
X172087016Y-39826823D01*
X172142011Y-39937267D01*
X172186516Y-40026646D01*
X172321040Y-40204785D01*
X172486007Y-40355172D01*
X172486014Y-40355176D01*
X172486015Y-40355177D01*
X172675794Y-40472683D01*
X172675795Y-40472683D01*
X172675798Y-40472685D01*
X172883951Y-40553324D01*
X173103377Y-40594342D01*
X173103379Y-40594342D01*
X173326601Y-40594342D01*
X173326603Y-40594342D01*
X173546029Y-40553324D01*
X173754182Y-40472685D01*
X173943973Y-40355172D01*
X174108940Y-40204785D01*
X174243464Y-40026646D01*
X174342964Y-39826822D01*
X174365723Y-39746829D01*
X174403002Y-39687737D01*
X174466312Y-39658179D01*
X174535552Y-39667541D01*
X174588738Y-39712850D01*
X174604257Y-39746831D01*
X174627016Y-39826824D01*
X174716729Y-40006991D01*
X174726516Y-40026646D01*
X174861040Y-40204785D01*
X175026007Y-40355172D01*
X175026014Y-40355176D01*
X175026015Y-40355177D01*
X175215794Y-40472683D01*
X175215795Y-40472683D01*
X175215798Y-40472685D01*
X175423951Y-40553324D01*
X175643377Y-40594342D01*
X175643379Y-40594342D01*
X175866601Y-40594342D01*
X175866603Y-40594342D01*
X176086029Y-40553324D01*
X176294182Y-40472685D01*
X176483973Y-40355172D01*
X176648940Y-40204785D01*
X176783464Y-40026646D01*
X176882964Y-39826822D01*
X176905723Y-39746829D01*
X176943002Y-39687737D01*
X177006312Y-39658179D01*
X177075552Y-39667541D01*
X177128738Y-39712850D01*
X177144257Y-39746831D01*
X177167016Y-39826824D01*
X177256729Y-40006991D01*
X177266516Y-40026646D01*
X177401040Y-40204785D01*
X177566007Y-40355172D01*
X177566014Y-40355176D01*
X177566015Y-40355177D01*
X177755794Y-40472683D01*
X177755795Y-40472683D01*
X177755798Y-40472685D01*
X177963951Y-40553324D01*
X178183377Y-40594342D01*
X178183379Y-40594342D01*
X178406601Y-40594342D01*
X178406603Y-40594342D01*
X178626029Y-40553324D01*
X178834182Y-40472685D01*
X179023973Y-40355172D01*
X179188940Y-40204785D01*
X179323464Y-40026646D01*
X179422964Y-39826822D01*
X179445723Y-39746829D01*
X179483002Y-39687737D01*
X179546312Y-39658179D01*
X179615552Y-39667541D01*
X179668738Y-39712850D01*
X179684257Y-39746831D01*
X179707016Y-39826824D01*
X179796729Y-40006991D01*
X179806516Y-40026646D01*
X179941040Y-40204785D01*
X180106007Y-40355172D01*
X180106014Y-40355176D01*
X180106015Y-40355177D01*
X180295794Y-40472683D01*
X180295795Y-40472683D01*
X180295798Y-40472685D01*
X180503951Y-40553324D01*
X180723377Y-40594342D01*
X180723379Y-40594342D01*
X180946601Y-40594342D01*
X180946603Y-40594342D01*
X181166029Y-40553324D01*
X181374182Y-40472685D01*
X181563973Y-40355172D01*
X181728940Y-40204785D01*
X181863464Y-40026646D01*
X181962964Y-39826822D01*
X181985723Y-39746829D01*
X182023002Y-39687737D01*
X182086312Y-39658179D01*
X182155552Y-39667541D01*
X182208738Y-39712850D01*
X182224257Y-39746831D01*
X182247016Y-39826824D01*
X182336729Y-40006991D01*
X182346516Y-40026646D01*
X182481040Y-40204785D01*
X182646007Y-40355172D01*
X182646014Y-40355176D01*
X182646015Y-40355177D01*
X182835794Y-40472683D01*
X182835795Y-40472683D01*
X182835798Y-40472685D01*
X183043951Y-40553324D01*
X183263377Y-40594342D01*
X183263379Y-40594342D01*
X183486601Y-40594342D01*
X183486603Y-40594342D01*
X183706029Y-40553324D01*
X183914182Y-40472685D01*
X184103973Y-40355172D01*
X184268940Y-40204785D01*
X184403464Y-40026646D01*
X184502964Y-39826822D01*
X184525983Y-39745915D01*
X184563262Y-39686823D01*
X184626572Y-39657265D01*
X184695811Y-39666627D01*
X184748998Y-39711936D01*
X184764516Y-39745916D01*
X184787482Y-39826635D01*
X184787488Y-39826650D01*
X184886943Y-40026382D01*
X184903272Y-40048005D01*
X185472851Y-39478426D01*
X185495657Y-39563536D01*
X185554900Y-39666148D01*
X185638684Y-39749932D01*
X185741296Y-39809175D01*
X185826404Y-39831979D01*
X185258756Y-40399627D01*
X185376021Y-40472235D01*
X185376022Y-40472236D01*
X185584085Y-40552839D01*
X185803425Y-40593842D01*
X186026555Y-40593842D01*
X186245894Y-40552839D01*
X186453957Y-40472236D01*
X186453961Y-40472234D01*
X186571221Y-40399628D01*
X186571221Y-40399627D01*
X186003575Y-39831979D01*
X186088684Y-39809175D01*
X186191296Y-39749932D01*
X186275080Y-39666148D01*
X186334323Y-39563536D01*
X186357128Y-39478427D01*
X186926706Y-40048005D01*
X186943039Y-40026378D01*
X186943043Y-40026371D01*
X187042489Y-39826655D01*
X187042494Y-39826642D01*
X187065462Y-39745917D01*
X187102741Y-39686823D01*
X187166051Y-39657265D01*
X187235290Y-39666626D01*
X187288477Y-39711936D01*
X187303995Y-39745915D01*
X187327014Y-39826819D01*
X187327016Y-39826823D01*
X187382011Y-39937267D01*
X187426516Y-40026646D01*
X187561040Y-40204785D01*
X187726007Y-40355172D01*
X187726014Y-40355176D01*
X187726015Y-40355177D01*
X187915794Y-40472683D01*
X187915795Y-40472683D01*
X187915798Y-40472685D01*
X188123951Y-40553324D01*
X188343377Y-40594342D01*
X188343379Y-40594342D01*
X188566601Y-40594342D01*
X188566603Y-40594342D01*
X188786029Y-40553324D01*
X188994182Y-40472685D01*
X189183973Y-40355172D01*
X189348940Y-40204785D01*
X189483464Y-40026646D01*
X189582964Y-39826822D01*
X189605723Y-39746829D01*
X189643002Y-39687737D01*
X189706312Y-39658179D01*
X189775552Y-39667541D01*
X189828738Y-39712850D01*
X189844257Y-39746831D01*
X189867016Y-39826824D01*
X189956729Y-40006991D01*
X189966516Y-40026646D01*
X190101040Y-40204785D01*
X190266007Y-40355172D01*
X190266014Y-40355176D01*
X190266015Y-40355177D01*
X190455794Y-40472683D01*
X190455795Y-40472683D01*
X190455798Y-40472685D01*
X190663951Y-40553324D01*
X190883377Y-40594342D01*
X190883379Y-40594342D01*
X191106601Y-40594342D01*
X191106603Y-40594342D01*
X191326029Y-40553324D01*
X191534182Y-40472685D01*
X191723973Y-40355172D01*
X191888940Y-40204785D01*
X192023464Y-40026646D01*
X192122964Y-39826822D01*
X192145723Y-39746829D01*
X192183002Y-39687737D01*
X192246312Y-39658179D01*
X192315552Y-39667541D01*
X192368738Y-39712850D01*
X192384257Y-39746831D01*
X192407016Y-39826824D01*
X192506516Y-40026646D01*
X192641041Y-40204787D01*
X192806003Y-40355169D01*
X192806005Y-40355170D01*
X192806007Y-40355172D01*
X192850768Y-40382886D01*
X192897402Y-40434911D01*
X192909490Y-40488312D01*
X192909490Y-40982993D01*
X192889805Y-41050032D01*
X192873171Y-41070674D01*
X186371793Y-47572052D01*
X186371791Y-47572054D01*
X186328228Y-47615616D01*
X186284666Y-47659178D01*
X186270522Y-47680346D01*
X186256473Y-47701373D01*
X186216214Y-47761622D01*
X186216211Y-47761627D01*
X186212818Y-47769821D01*
X186212816Y-47769827D01*
X186179810Y-47849509D01*
X186135968Y-47903912D01*
X186069674Y-47925976D01*
X186002128Y-47908787D01*
X185993885Y-47903912D01*
X185910922Y-47854848D01*
X185910921Y-47854847D01*
X185910920Y-47854847D01*
X185910917Y-47854846D01*
X185753097Y-47808994D01*
X185753091Y-47808993D01*
X185716225Y-47806092D01*
X185716218Y-47806092D01*
X185284830Y-47806092D01*
X185284822Y-47806092D01*
X185247956Y-47808993D01*
X185247950Y-47808994D01*
X185090130Y-47854846D01*
X185090127Y-47854847D01*
X184948661Y-47938509D01*
X184942493Y-47943294D01*
X184940596Y-47940848D01*
X184891882Y-47967449D01*
X184822190Y-47962465D01*
X184789820Y-47941661D01*
X184788555Y-47943294D01*
X184782386Y-47938509D01*
X184640920Y-47854847D01*
X184640917Y-47854846D01*
X184483097Y-47808994D01*
X184483091Y-47808993D01*
X184446225Y-47806092D01*
X184446218Y-47806092D01*
X184014830Y-47806092D01*
X184014822Y-47806092D01*
X183977956Y-47808993D01*
X183977950Y-47808994D01*
X183820130Y-47854846D01*
X183820127Y-47854847D01*
X183678661Y-47938509D01*
X183678653Y-47938515D01*
X183562447Y-48054721D01*
X183562441Y-48054729D01*
X183478779Y-48196195D01*
X183478778Y-48196198D01*
X183432926Y-48354018D01*
X183432925Y-48354024D01*
X183430024Y-48390890D01*
X183430024Y-50172293D01*
X183432925Y-50209159D01*
X183432926Y-50209165D01*
X183478778Y-50366985D01*
X183478779Y-50366988D01*
X183562441Y-50508454D01*
X183562447Y-50508462D01*
X183678653Y-50624668D01*
X183678659Y-50624673D01*
X183751706Y-50667872D01*
X183776264Y-50686922D01*
X183838856Y-50749514D01*
X183838861Y-50749518D01*
X184780190Y-51690848D01*
X184780191Y-51690849D01*
X184825963Y-51736621D01*
X184867317Y-51777975D01*
X184969756Y-51846423D01*
X184969762Y-51846426D01*
X184969763Y-51846427D01*
X185083597Y-51893579D01*
X185204437Y-51917615D01*
X185204441Y-51917616D01*
X185204442Y-51917616D01*
X185204443Y-51917616D01*
X187344165Y-51917616D01*
X187411204Y-51937301D01*
X187456959Y-51990105D01*
X187466903Y-52059263D01*
X187447268Y-52110506D01*
X187419746Y-52151694D01*
X187366945Y-52279169D01*
X187366942Y-52279181D01*
X187343351Y-52397782D01*
X187343350Y-52397787D01*
X187340024Y-52414504D01*
X187340024Y-52685918D01*
X187320339Y-52752957D01*
X187267535Y-52798712D01*
X187198377Y-52808656D01*
X187181429Y-52804994D01*
X187023097Y-52758994D01*
X187023091Y-52758993D01*
X186986225Y-52756092D01*
X186986218Y-52756092D01*
X186554830Y-52756092D01*
X186554822Y-52756092D01*
X186517956Y-52758993D01*
X186517950Y-52758994D01*
X186360130Y-52804846D01*
X186360127Y-52804847D01*
X186218661Y-52888509D01*
X186212493Y-52893294D01*
X186210596Y-52890848D01*
X186161882Y-52917449D01*
X186092190Y-52912465D01*
X186059820Y-52891661D01*
X186058555Y-52893294D01*
X186052386Y-52888509D01*
X185963804Y-52836122D01*
X185910922Y-52804848D01*
X185910921Y-52804847D01*
X185910920Y-52804847D01*
X185910917Y-52804846D01*
X185753097Y-52758994D01*
X185753091Y-52758993D01*
X185716225Y-52756092D01*
X185716218Y-52756092D01*
X185284830Y-52756092D01*
X185284822Y-52756092D01*
X185247956Y-52758993D01*
X185247950Y-52758994D01*
X185090130Y-52804846D01*
X185090127Y-52804847D01*
X184948664Y-52888507D01*
X184942498Y-52893291D01*
X184940698Y-52890971D01*
X184891437Y-52917822D01*
X184821749Y-52912785D01*
X184789516Y-52892053D01*
X184788246Y-52893692D01*
X184782076Y-52888906D01*
X184640720Y-52805309D01*
X184640717Y-52805308D01*
X184483018Y-52759492D01*
X184483021Y-52759492D01*
X184480524Y-52759295D01*
X184480524Y-54357592D01*
X184460839Y-54424631D01*
X184408035Y-54470386D01*
X184356524Y-54481592D01*
X183430524Y-54481592D01*
X183430524Y-55122241D01*
X183433423Y-55159081D01*
X183433424Y-55159087D01*
X183479240Y-55316785D01*
X183479241Y-55316788D01*
X183495670Y-55344568D01*
X183512853Y-55412292D01*
X183490693Y-55478555D01*
X183476620Y-55495369D01*
X183436794Y-55535196D01*
X183436791Y-55535200D01*
X183349667Y-55622323D01*
X183349666Y-55622325D01*
X183340998Y-55635298D01*
X183281212Y-55724772D01*
X183281210Y-55724775D01*
X183281209Y-55724777D01*
X183266602Y-55760044D01*
X183234063Y-55838599D01*
X183234059Y-55838613D01*
X183210024Y-55959447D01*
X183210024Y-55959452D01*
X183210024Y-57005668D01*
X183234061Y-57126514D01*
X183234062Y-57126517D01*
X183234062Y-57126518D01*
X183242362Y-57146554D01*
X183242363Y-57146558D01*
X183281210Y-57240345D01*
X183281214Y-57240353D01*
X183305389Y-57276531D01*
X183305390Y-57276532D01*
X183349665Y-57342794D01*
X183349668Y-57342798D01*
X183441110Y-57434240D01*
X183441132Y-57434260D01*
X183648536Y-57641664D01*
X183648565Y-57641695D01*
X183657615Y-57650745D01*
X183691100Y-57712068D01*
X183688320Y-57775315D01*
X183666933Y-57843950D01*
X183660524Y-57914485D01*
X183660524Y-57921058D01*
X184761524Y-57921058D01*
X184828563Y-57940743D01*
X184874318Y-57993547D01*
X184885524Y-58045058D01*
X184885524Y-59071057D01*
X184922428Y-59071057D01*
X184989467Y-59090742D01*
X185035222Y-59143546D01*
X185043976Y-59193074D01*
X185046734Y-59196058D01*
X185881024Y-59196058D01*
X185948063Y-59215743D01*
X185993818Y-59268547D01*
X186005024Y-59320058D01*
X186005024Y-59680755D01*
X186007880Y-59717049D01*
X186007881Y-59717055D01*
X186053027Y-59872447D01*
X186053029Y-59872451D01*
X186053030Y-59872453D01*
X186058256Y-59881291D01*
X186075524Y-59944410D01*
X186075524Y-60250561D01*
X186221718Y-60208090D01*
X186241908Y-60196149D01*
X186309632Y-60178964D01*
X186368153Y-60196147D01*
X186389129Y-60208552D01*
X186430111Y-60220458D01*
X186544526Y-60253700D01*
X186544529Y-60253700D01*
X186544531Y-60253701D01*
X186580834Y-60256558D01*
X186580842Y-60256558D01*
X186990206Y-60256558D01*
X186990214Y-60256558D01*
X187026517Y-60253701D01*
X187026519Y-60253700D01*
X187026521Y-60253700D01*
X187067499Y-60241794D01*
X187181919Y-60208552D01*
X187257546Y-60163825D01*
X187320667Y-60146558D01*
X188669470Y-60146558D01*
X188771939Y-60126175D01*
X188804802Y-60119638D01*
X188868543Y-60093235D01*
X188932281Y-60066835D01*
X188932282Y-60066834D01*
X188932285Y-60066833D01*
X189047017Y-59990172D01*
X190387899Y-58649288D01*
X190425138Y-58623694D01*
X190531662Y-58576267D01*
X190684803Y-58465004D01*
X190811465Y-58324332D01*
X190906111Y-58160400D01*
X190964606Y-57980372D01*
X190984392Y-57792116D01*
X190964606Y-57603860D01*
X190906111Y-57423832D01*
X190872532Y-57365672D01*
X190855921Y-57303674D01*
X190855921Y-54111310D01*
X190875606Y-54044271D01*
X190928410Y-53998516D01*
X190993804Y-53988090D01*
X191078928Y-53997681D01*
X191078932Y-53997681D01*
X191078936Y-53997681D01*
X191258181Y-53977485D01*
X191258184Y-53977484D01*
X191258187Y-53977484D01*
X191368025Y-53939049D01*
X191408980Y-53932092D01*
X192416146Y-53932092D01*
X192483185Y-53951777D01*
X192521683Y-53990993D01*
X192542812Y-54025248D01*
X192666868Y-54149304D01*
X192816190Y-54241406D01*
X192982727Y-54296591D01*
X193085515Y-54307092D01*
X193819003Y-54307091D01*
X193886042Y-54326775D01*
X193906684Y-54343410D01*
X194201478Y-54638204D01*
X194201481Y-54638206D01*
X194316213Y-54714867D01*
X194443695Y-54767672D01*
X194469401Y-54772785D01*
X194519005Y-54782652D01*
X194579029Y-54794592D01*
X194579031Y-54794592D01*
X194661024Y-54794592D01*
X194728063Y-54814277D01*
X194773818Y-54867081D01*
X194785024Y-54918592D01*
X194785024Y-56881641D01*
X194767757Y-56944761D01*
X194753028Y-56969666D01*
X194753028Y-56969667D01*
X194707881Y-57125060D01*
X194707880Y-57125066D01*
X194705024Y-57161360D01*
X194705024Y-57630755D01*
X194707880Y-57667049D01*
X194707881Y-57667055D01*
X194753028Y-57822448D01*
X194753029Y-57822451D01*
X194753030Y-57822453D01*
X194782071Y-57871558D01*
X194835405Y-57961742D01*
X194835411Y-57961750D01*
X194949831Y-58076170D01*
X194949835Y-58076173D01*
X194949837Y-58076175D01*
X195089129Y-58158552D01*
X195095466Y-58160393D01*
X195244526Y-58203700D01*
X195244529Y-58203700D01*
X195244531Y-58203701D01*
X195280834Y-58206558D01*
X195280842Y-58206558D01*
X195690206Y-58206558D01*
X195690214Y-58206558D01*
X195726517Y-58203701D01*
X195726519Y-58203700D01*
X195726521Y-58203700D01*
X195767499Y-58191794D01*
X195881919Y-58158552D01*
X195902893Y-58146147D01*
X195970612Y-58128964D01*
X196029137Y-58146148D01*
X196049327Y-58158089D01*
X196195524Y-58200562D01*
X196195524Y-58200561D01*
X196695524Y-58200561D01*
X196841719Y-58158089D01*
X196980898Y-58075779D01*
X196980907Y-58075772D01*
X197095238Y-57961441D01*
X197095245Y-57961432D01*
X197177555Y-57822253D01*
X197177557Y-57822248D01*
X197222668Y-57666976D01*
X197222669Y-57666970D01*
X197224314Y-57646058D01*
X196695524Y-57646058D01*
X196695524Y-58200561D01*
X196195524Y-58200561D01*
X196195524Y-57894410D01*
X196212791Y-57831291D01*
X196218018Y-57822453D01*
X196238313Y-57752600D01*
X196263166Y-57667055D01*
X196263167Y-57667049D01*
X196264819Y-57646058D01*
X196266024Y-57630748D01*
X196266024Y-57161368D01*
X196263167Y-57125065D01*
X196222727Y-56985873D01*
X196218019Y-56969666D01*
X196218016Y-56969658D01*
X196212790Y-56960821D01*
X196195524Y-56897703D01*
X196195524Y-56591552D01*
X196695524Y-56591552D01*
X196695524Y-57146058D01*
X197224314Y-57146058D01*
X197222669Y-57125147D01*
X197177555Y-56969862D01*
X197095245Y-56830683D01*
X197095238Y-56830674D01*
X196980907Y-56716343D01*
X196980898Y-56716336D01*
X196841717Y-56634025D01*
X196841714Y-56634023D01*
X196695525Y-56591551D01*
X196695524Y-56591552D01*
X196195524Y-56591552D01*
X196195524Y-56567962D01*
X196193780Y-56565626D01*
X196186024Y-56522460D01*
X196186024Y-55468591D01*
X196205709Y-55401552D01*
X196258513Y-55355797D01*
X196310024Y-55344591D01*
X196508470Y-55344591D01*
X196575509Y-55364276D01*
X196596151Y-55380910D01*
X198755409Y-57540169D01*
X198755410Y-57540170D01*
X198870148Y-57616835D01*
X198991382Y-57667051D01*
X198997628Y-57669638D01*
X198997632Y-57669638D01*
X198997633Y-57669639D01*
X199132959Y-57696558D01*
X199132962Y-57696558D01*
X199132963Y-57696558D01*
X210960252Y-57696558D01*
X211027291Y-57716243D01*
X211033137Y-57720240D01*
X211115673Y-57780206D01*
X211115678Y-57780209D01*
X211288600Y-57857200D01*
X211288605Y-57857202D01*
X211473762Y-57896558D01*
X211473763Y-57896558D01*
X211663052Y-57896558D01*
X211663054Y-57896558D01*
X211848211Y-57857202D01*
X212021138Y-57780209D01*
X212036728Y-57768881D01*
X212103679Y-57720240D01*
X212169485Y-57696760D01*
X212176564Y-57696558D01*
X216237684Y-57696558D01*
X216304723Y-57716243D01*
X216337217Y-57748161D01*
X216337546Y-57747892D01*
X216340049Y-57750942D01*
X216340784Y-57751664D01*
X216341408Y-57752598D01*
X216341412Y-57752603D01*
X216838979Y-58250170D01*
X216953717Y-58326835D01*
X217081192Y-58379636D01*
X217081197Y-58379638D01*
X217081201Y-58379638D01*
X217081202Y-58379639D01*
X217216528Y-58406558D01*
X217216531Y-58406558D01*
X218282076Y-58406558D01*
X218373120Y-58388447D01*
X218417408Y-58379638D01*
X218481149Y-58353235D01*
X218544887Y-58326835D01*
X218544888Y-58326834D01*
X218544891Y-58326833D01*
X218659623Y-58250172D01*
X219973343Y-56936452D01*
X220034666Y-56902967D01*
X220104358Y-56907951D01*
X220160291Y-56949823D01*
X220184708Y-57015287D01*
X220185024Y-57024133D01*
X220185024Y-60491713D01*
X220182641Y-60515906D01*
X220178432Y-60537064D01*
X220178432Y-64068565D01*
X220158747Y-64135604D01*
X220105943Y-64181359D01*
X220036785Y-64191303D01*
X219973229Y-64162278D01*
X219955480Y-64143294D01*
X219946707Y-64131678D01*
X219946706Y-64131678D01*
X219377128Y-64701256D01*
X219354323Y-64616148D01*
X219295080Y-64513536D01*
X219211296Y-64429752D01*
X219108684Y-64370509D01*
X219023574Y-64347703D01*
X219591222Y-63780055D01*
X219473956Y-63707447D01*
X219473955Y-63707446D01*
X219265894Y-63626844D01*
X219046555Y-63585842D01*
X218823425Y-63585842D01*
X218604085Y-63626844D01*
X218396024Y-63707446D01*
X218396018Y-63707449D01*
X218278757Y-63780054D01*
X218278756Y-63780055D01*
X218846405Y-64347703D01*
X218761296Y-64370509D01*
X218658684Y-64429752D01*
X218574900Y-64513536D01*
X218515657Y-64616148D01*
X218492851Y-64701257D01*
X217923272Y-64131678D01*
X217923271Y-64131678D01*
X217906943Y-64153300D01*
X217807488Y-64353033D01*
X217807483Y-64353046D01*
X217784516Y-64433768D01*
X217747237Y-64492861D01*
X217683927Y-64522418D01*
X217614687Y-64513056D01*
X217561501Y-64467746D01*
X217545984Y-64433767D01*
X217522966Y-64352866D01*
X217522963Y-64352860D01*
X217516481Y-64339842D01*
X217423464Y-64153038D01*
X217288940Y-63974899D01*
X217123973Y-63824512D01*
X217123969Y-63824509D01*
X217123964Y-63824506D01*
X216934185Y-63707000D01*
X216934179Y-63706998D01*
X216726029Y-63626360D01*
X216506603Y-63585342D01*
X216283377Y-63585342D01*
X216063951Y-63626360D01*
X215932318Y-63677354D01*
X215855800Y-63706998D01*
X215855794Y-63707000D01*
X215666015Y-63824506D01*
X215666005Y-63824513D01*
X215501041Y-63974897D01*
X215366516Y-64153037D01*
X215267016Y-64352860D01*
X215267013Y-64352866D01*
X215244256Y-64432853D01*
X215206977Y-64491946D01*
X215143668Y-64521504D01*
X215074428Y-64512142D01*
X215021242Y-64466833D01*
X215005724Y-64432853D01*
X214982966Y-64352866D01*
X214982963Y-64352860D01*
X214976481Y-64339842D01*
X214883464Y-64153038D01*
X214748940Y-63974899D01*
X214583973Y-63824512D01*
X214583969Y-63824509D01*
X214583964Y-63824506D01*
X214394185Y-63707000D01*
X214394179Y-63706998D01*
X214186029Y-63626360D01*
X213966603Y-63585342D01*
X213743377Y-63585342D01*
X213523951Y-63626360D01*
X213392318Y-63677354D01*
X213315800Y-63706998D01*
X213315794Y-63707000D01*
X213126015Y-63824506D01*
X213126005Y-63824513D01*
X212961041Y-63974897D01*
X212826516Y-64153037D01*
X212727016Y-64352860D01*
X212727013Y-64352866D01*
X212704256Y-64432853D01*
X212666977Y-64491946D01*
X212603668Y-64521504D01*
X212534428Y-64512142D01*
X212481242Y-64466833D01*
X212465724Y-64432853D01*
X212442966Y-64352866D01*
X212442963Y-64352860D01*
X212436481Y-64339842D01*
X212343464Y-64153038D01*
X212208940Y-63974899D01*
X212043973Y-63824512D01*
X212043969Y-63824509D01*
X212043964Y-63824506D01*
X211854185Y-63707000D01*
X211854179Y-63706998D01*
X211646029Y-63626360D01*
X211426603Y-63585342D01*
X211203377Y-63585342D01*
X210983951Y-63626360D01*
X210852318Y-63677354D01*
X210775800Y-63706998D01*
X210775794Y-63707000D01*
X210586015Y-63824506D01*
X210586005Y-63824513D01*
X210421041Y-63974897D01*
X210286516Y-64153037D01*
X210187016Y-64352860D01*
X210187013Y-64352866D01*
X210164256Y-64432853D01*
X210126977Y-64491946D01*
X210063668Y-64521504D01*
X209994428Y-64512142D01*
X209941242Y-64466833D01*
X209925724Y-64432853D01*
X209902966Y-64352866D01*
X209902963Y-64352860D01*
X209896481Y-64339842D01*
X209803464Y-64153038D01*
X209668940Y-63974899D01*
X209503973Y-63824512D01*
X209503969Y-63824509D01*
X209503964Y-63824506D01*
X209314185Y-63707000D01*
X209314179Y-63706998D01*
X209106029Y-63626360D01*
X208886603Y-63585342D01*
X208663377Y-63585342D01*
X208443951Y-63626360D01*
X208312318Y-63677354D01*
X208235800Y-63706998D01*
X208235794Y-63707000D01*
X208046015Y-63824506D01*
X208046005Y-63824513D01*
X207881041Y-63974897D01*
X207746516Y-64153037D01*
X207647016Y-64352860D01*
X207647013Y-64352866D01*
X207624256Y-64432853D01*
X207586977Y-64491946D01*
X207523668Y-64521504D01*
X207454428Y-64512142D01*
X207401242Y-64466833D01*
X207385724Y-64432853D01*
X207362966Y-64352866D01*
X207362963Y-64352860D01*
X207356481Y-64339842D01*
X207263464Y-64153038D01*
X207128940Y-63974899D01*
X206963973Y-63824512D01*
X206963969Y-63824509D01*
X206963964Y-63824506D01*
X206774185Y-63707000D01*
X206774179Y-63706998D01*
X206566029Y-63626360D01*
X206346603Y-63585342D01*
X206123377Y-63585342D01*
X205903951Y-63626360D01*
X205772318Y-63677354D01*
X205695800Y-63706998D01*
X205695794Y-63707000D01*
X205506015Y-63824506D01*
X205506005Y-63824513D01*
X205341041Y-63974897D01*
X205206516Y-64153037D01*
X205107016Y-64352860D01*
X205107014Y-64352864D01*
X205083995Y-64433768D01*
X205046715Y-64492861D01*
X204983406Y-64522418D01*
X204914166Y-64513056D01*
X204860980Y-64467746D01*
X204845462Y-64433767D01*
X204822493Y-64353038D01*
X204822491Y-64353033D01*
X204723036Y-64153300D01*
X204706706Y-64131678D01*
X204137128Y-64701256D01*
X204114323Y-64616148D01*
X204055080Y-64513536D01*
X203971296Y-64429752D01*
X203868684Y-64370509D01*
X203783574Y-64347703D01*
X204351222Y-63780055D01*
X204233956Y-63707447D01*
X204233955Y-63707446D01*
X204025894Y-63626844D01*
X203806555Y-63585842D01*
X203583425Y-63585842D01*
X203364085Y-63626844D01*
X203156024Y-63707446D01*
X203156018Y-63707449D01*
X203038757Y-63780054D01*
X203038756Y-63780055D01*
X203606405Y-64347703D01*
X203521296Y-64370509D01*
X203418684Y-64429752D01*
X203334900Y-64513536D01*
X203275657Y-64616148D01*
X203252851Y-64701257D01*
X202683272Y-64131678D01*
X202683271Y-64131678D01*
X202666943Y-64153300D01*
X202567488Y-64353033D01*
X202567483Y-64353046D01*
X202544516Y-64433768D01*
X202507237Y-64492861D01*
X202443927Y-64522418D01*
X202374687Y-64513056D01*
X202321501Y-64467746D01*
X202305984Y-64433767D01*
X202282966Y-64352866D01*
X202282963Y-64352860D01*
X202276481Y-64339842D01*
X202183464Y-64153038D01*
X202048940Y-63974899D01*
X201883973Y-63824512D01*
X201883969Y-63824509D01*
X201883964Y-63824506D01*
X201694185Y-63707000D01*
X201694179Y-63706998D01*
X201486029Y-63626360D01*
X201266603Y-63585342D01*
X201043377Y-63585342D01*
X200823951Y-63626360D01*
X200692318Y-63677354D01*
X200615800Y-63706998D01*
X200615794Y-63707000D01*
X200426015Y-63824506D01*
X200426005Y-63824513D01*
X200261041Y-63974897D01*
X200126516Y-64153037D01*
X200027016Y-64352860D01*
X200027013Y-64352866D01*
X200004256Y-64432853D01*
X199966977Y-64491946D01*
X199903668Y-64521504D01*
X199834428Y-64512142D01*
X199781242Y-64466833D01*
X199765724Y-64432853D01*
X199742966Y-64352866D01*
X199742963Y-64352860D01*
X199736481Y-64339842D01*
X199643464Y-64153038D01*
X199508940Y-63974899D01*
X199343973Y-63824512D01*
X199343969Y-63824509D01*
X199343964Y-63824506D01*
X199154185Y-63707000D01*
X199154179Y-63706998D01*
X198946029Y-63626360D01*
X198726603Y-63585342D01*
X198503377Y-63585342D01*
X198283951Y-63626360D01*
X198152318Y-63677354D01*
X198075800Y-63706998D01*
X198075794Y-63707000D01*
X197886015Y-63824506D01*
X197886005Y-63824513D01*
X197721041Y-63974897D01*
X197586516Y-64153037D01*
X197487016Y-64352860D01*
X197487013Y-64352866D01*
X197464256Y-64432853D01*
X197426977Y-64491946D01*
X197363668Y-64521504D01*
X197294428Y-64512142D01*
X197241242Y-64466833D01*
X197225724Y-64432853D01*
X197202966Y-64352866D01*
X197202963Y-64352860D01*
X197196481Y-64339842D01*
X197103464Y-64153038D01*
X196968940Y-63974899D01*
X196803973Y-63824512D01*
X196803969Y-63824509D01*
X196803964Y-63824506D01*
X196614185Y-63707000D01*
X196614179Y-63706998D01*
X196406029Y-63626360D01*
X196186603Y-63585342D01*
X195963377Y-63585342D01*
X195743951Y-63626360D01*
X195612318Y-63677354D01*
X195535800Y-63706998D01*
X195535794Y-63707000D01*
X195346015Y-63824506D01*
X195346005Y-63824513D01*
X195181041Y-63974897D01*
X195046516Y-64153037D01*
X194947016Y-64352860D01*
X194947013Y-64352866D01*
X194924256Y-64432853D01*
X194886977Y-64491946D01*
X194823668Y-64521504D01*
X194754428Y-64512142D01*
X194701242Y-64466833D01*
X194685724Y-64432853D01*
X194662966Y-64352866D01*
X194662963Y-64352860D01*
X194656481Y-64339842D01*
X194563464Y-64153038D01*
X194428940Y-63974899D01*
X194263973Y-63824512D01*
X194263969Y-63824509D01*
X194263964Y-63824506D01*
X194074185Y-63707000D01*
X194074179Y-63706998D01*
X193866029Y-63626360D01*
X193646603Y-63585342D01*
X193423377Y-63585342D01*
X193203951Y-63626360D01*
X193072318Y-63677354D01*
X192995800Y-63706998D01*
X192995794Y-63707000D01*
X192806015Y-63824506D01*
X192806005Y-63824513D01*
X192641041Y-63974897D01*
X192506516Y-64153037D01*
X192407016Y-64352860D01*
X192407013Y-64352866D01*
X192384256Y-64432853D01*
X192346977Y-64491946D01*
X192283668Y-64521504D01*
X192214428Y-64512142D01*
X192161242Y-64466833D01*
X192145724Y-64432853D01*
X192122966Y-64352866D01*
X192122963Y-64352860D01*
X192116481Y-64339842D01*
X192023464Y-64153038D01*
X191888940Y-63974899D01*
X191723973Y-63824512D01*
X191723969Y-63824509D01*
X191723964Y-63824506D01*
X191534185Y-63707000D01*
X191534179Y-63706998D01*
X191326029Y-63626360D01*
X191106603Y-63585342D01*
X190883377Y-63585342D01*
X190663951Y-63626360D01*
X190532318Y-63677354D01*
X190455800Y-63706998D01*
X190455794Y-63707000D01*
X190266015Y-63824506D01*
X190266005Y-63824513D01*
X190101041Y-63974897D01*
X189966516Y-64153037D01*
X189867016Y-64352860D01*
X189867013Y-64352866D01*
X189844256Y-64432853D01*
X189806977Y-64491946D01*
X189743668Y-64521504D01*
X189674428Y-64512142D01*
X189621242Y-64466833D01*
X189605724Y-64432853D01*
X189582966Y-64352866D01*
X189582963Y-64352860D01*
X189576481Y-64339842D01*
X189483464Y-64153038D01*
X189348940Y-63974899D01*
X189183973Y-63824512D01*
X189183969Y-63824509D01*
X189183964Y-63824506D01*
X188994185Y-63707000D01*
X188994179Y-63706998D01*
X188786029Y-63626360D01*
X188566603Y-63585342D01*
X188343377Y-63585342D01*
X188123951Y-63626360D01*
X187992318Y-63677354D01*
X187915800Y-63706998D01*
X187915794Y-63707000D01*
X187726015Y-63824506D01*
X187726005Y-63824513D01*
X187561041Y-63974897D01*
X187426516Y-64153037D01*
X187327016Y-64352860D01*
X187327013Y-64352866D01*
X187304256Y-64432853D01*
X187266977Y-64491946D01*
X187203668Y-64521504D01*
X187134428Y-64512142D01*
X187081242Y-64466833D01*
X187065724Y-64432853D01*
X187042966Y-64352866D01*
X187042963Y-64352860D01*
X187036481Y-64339842D01*
X186943464Y-64153038D01*
X186808940Y-63974899D01*
X186643973Y-63824512D01*
X186643969Y-63824509D01*
X186643964Y-63824506D01*
X186454185Y-63707000D01*
X186454179Y-63706998D01*
X186246029Y-63626360D01*
X186026603Y-63585342D01*
X185803377Y-63585342D01*
X185583951Y-63626360D01*
X185452318Y-63677354D01*
X185375800Y-63706998D01*
X185375794Y-63707000D01*
X185186015Y-63824506D01*
X185186005Y-63824513D01*
X185021041Y-63974897D01*
X184886516Y-64153037D01*
X184787016Y-64352860D01*
X184787013Y-64352866D01*
X184764256Y-64432853D01*
X184726977Y-64491946D01*
X184663668Y-64521504D01*
X184594428Y-64512142D01*
X184541242Y-64466833D01*
X184525724Y-64432853D01*
X184502966Y-64352866D01*
X184502963Y-64352860D01*
X184496481Y-64339842D01*
X184403464Y-64153038D01*
X184268940Y-63974899D01*
X184103973Y-63824512D01*
X184103969Y-63824509D01*
X184103964Y-63824506D01*
X183914185Y-63707000D01*
X183914179Y-63706998D01*
X183706029Y-63626360D01*
X183486603Y-63585342D01*
X183263377Y-63585342D01*
X183043951Y-63626360D01*
X182912318Y-63677354D01*
X182835800Y-63706998D01*
X182835794Y-63707000D01*
X182646015Y-63824506D01*
X182646005Y-63824513D01*
X182481041Y-63974897D01*
X182346516Y-64153037D01*
X182247016Y-64352860D01*
X182247013Y-64352866D01*
X182224256Y-64432853D01*
X182186977Y-64491946D01*
X182123668Y-64521504D01*
X182054428Y-64512142D01*
X182001242Y-64466833D01*
X181985724Y-64432853D01*
X181962966Y-64352866D01*
X181962963Y-64352860D01*
X181956481Y-64339842D01*
X181863464Y-64153038D01*
X181728940Y-63974899D01*
X181563973Y-63824512D01*
X181563969Y-63824509D01*
X181563964Y-63824506D01*
X181374185Y-63707000D01*
X181374179Y-63706998D01*
X181166029Y-63626360D01*
X180946603Y-63585342D01*
X180723377Y-63585342D01*
X180503951Y-63626360D01*
X180372318Y-63677354D01*
X180295800Y-63706998D01*
X180295794Y-63707000D01*
X180106015Y-63824506D01*
X180106005Y-63824513D01*
X179941041Y-63974897D01*
X179806516Y-64153037D01*
X179707016Y-64352860D01*
X179707013Y-64352866D01*
X179684256Y-64432853D01*
X179646977Y-64491946D01*
X179583668Y-64521504D01*
X179514428Y-64512142D01*
X179461242Y-64466833D01*
X179445724Y-64432853D01*
X179422966Y-64352866D01*
X179422963Y-64352860D01*
X179416481Y-64339842D01*
X179323464Y-64153038D01*
X179188940Y-63974899D01*
X179023973Y-63824512D01*
X179023969Y-63824509D01*
X179023964Y-63824506D01*
X178834185Y-63707000D01*
X178834179Y-63706998D01*
X178626029Y-63626360D01*
X178406603Y-63585342D01*
X178183377Y-63585342D01*
X177963951Y-63626360D01*
X177832318Y-63677354D01*
X177755800Y-63706998D01*
X177755794Y-63707000D01*
X177566015Y-63824506D01*
X177566005Y-63824513D01*
X177401041Y-63974897D01*
X177266516Y-64153037D01*
X177167016Y-64352860D01*
X177167013Y-64352866D01*
X177144256Y-64432853D01*
X177106977Y-64491946D01*
X177043668Y-64521504D01*
X176974428Y-64512142D01*
X176921242Y-64466833D01*
X176905724Y-64432853D01*
X176882966Y-64352866D01*
X176882963Y-64352860D01*
X176876481Y-64339842D01*
X176783464Y-64153038D01*
X176648940Y-63974899D01*
X176483973Y-63824512D01*
X176483969Y-63824509D01*
X176483964Y-63824506D01*
X176294185Y-63707000D01*
X176294179Y-63706998D01*
X176086029Y-63626360D01*
X175866603Y-63585342D01*
X175643377Y-63585342D01*
X175423951Y-63626360D01*
X175292318Y-63677354D01*
X175215800Y-63706998D01*
X175215794Y-63707000D01*
X175026015Y-63824506D01*
X175026005Y-63824513D01*
X174861041Y-63974897D01*
X174726516Y-64153037D01*
X174627016Y-64352860D01*
X174627013Y-64352866D01*
X174604256Y-64432853D01*
X174566977Y-64491946D01*
X174503668Y-64521504D01*
X174434428Y-64512142D01*
X174381242Y-64466833D01*
X174365724Y-64432853D01*
X174342966Y-64352866D01*
X174342963Y-64352860D01*
X174336481Y-64339842D01*
X174243464Y-64153038D01*
X174108940Y-63974899D01*
X173943973Y-63824512D01*
X173943969Y-63824509D01*
X173943964Y-63824506D01*
X173754185Y-63707000D01*
X173754179Y-63706998D01*
X173546029Y-63626360D01*
X173326603Y-63585342D01*
X173103377Y-63585342D01*
X172883951Y-63626360D01*
X172752318Y-63677354D01*
X172675800Y-63706998D01*
X172675794Y-63707000D01*
X172486015Y-63824506D01*
X172486005Y-63824513D01*
X172321041Y-63974897D01*
X172186516Y-64153037D01*
X172087016Y-64352860D01*
X172087013Y-64352866D01*
X172025927Y-64567565D01*
X172025926Y-64567568D01*
X172005330Y-64789841D01*
X172005330Y-64789842D01*
X172025926Y-65012115D01*
X172025927Y-65012118D01*
X172087013Y-65226817D01*
X172087016Y-65226823D01*
X172093499Y-65239842D01*
X172186516Y-65426646D01*
X172321040Y-65604785D01*
X172486007Y-65755172D01*
X172486014Y-65755176D01*
X172486015Y-65755177D01*
X172675794Y-65872683D01*
X172675795Y-65872683D01*
X172675798Y-65872685D01*
X172883951Y-65953324D01*
X173103377Y-65994342D01*
X173103379Y-65994342D01*
X173326601Y-65994342D01*
X173326603Y-65994342D01*
X173546029Y-65953324D01*
X173754182Y-65872685D01*
X173943973Y-65755172D01*
X174108940Y-65604785D01*
X174243464Y-65426646D01*
X174342964Y-65226822D01*
X174365723Y-65146829D01*
X174403002Y-65087737D01*
X174466312Y-65058179D01*
X174535552Y-65067541D01*
X174588738Y-65112850D01*
X174604257Y-65146831D01*
X174627016Y-65226824D01*
X174708300Y-65390063D01*
X174726516Y-65426646D01*
X174861040Y-65604785D01*
X175026007Y-65755172D01*
X175026014Y-65755176D01*
X175026015Y-65755177D01*
X175215794Y-65872683D01*
X175215795Y-65872683D01*
X175215798Y-65872685D01*
X175423951Y-65953324D01*
X175643377Y-65994342D01*
X175643379Y-65994342D01*
X175866601Y-65994342D01*
X175866603Y-65994342D01*
X176086029Y-65953324D01*
X176294182Y-65872685D01*
X176483973Y-65755172D01*
X176648940Y-65604785D01*
X176783464Y-65426646D01*
X176882964Y-65226822D01*
X176905723Y-65146829D01*
X176943002Y-65087737D01*
X177006312Y-65058179D01*
X177075552Y-65067541D01*
X177128738Y-65112850D01*
X177144257Y-65146831D01*
X177167016Y-65226824D01*
X177248300Y-65390063D01*
X177266516Y-65426646D01*
X177401040Y-65604785D01*
X177566007Y-65755172D01*
X177566014Y-65755176D01*
X177566015Y-65755177D01*
X177755794Y-65872683D01*
X177755795Y-65872683D01*
X177755798Y-65872685D01*
X177963951Y-65953324D01*
X178183377Y-65994342D01*
X178183379Y-65994342D01*
X178406601Y-65994342D01*
X178406603Y-65994342D01*
X178626029Y-65953324D01*
X178834182Y-65872685D01*
X179023973Y-65755172D01*
X179188940Y-65604785D01*
X179323464Y-65426646D01*
X179422964Y-65226822D01*
X179445723Y-65146829D01*
X179483002Y-65087737D01*
X179546312Y-65058179D01*
X179615552Y-65067541D01*
X179668738Y-65112850D01*
X179684257Y-65146831D01*
X179707016Y-65226824D01*
X179788300Y-65390063D01*
X179806516Y-65426646D01*
X179941040Y-65604785D01*
X180106007Y-65755172D01*
X180106014Y-65755176D01*
X180106015Y-65755177D01*
X180295794Y-65872683D01*
X180295795Y-65872683D01*
X180295798Y-65872685D01*
X180503951Y-65953324D01*
X180723377Y-65994342D01*
X180723379Y-65994342D01*
X180946601Y-65994342D01*
X180946603Y-65994342D01*
X181166029Y-65953324D01*
X181374182Y-65872685D01*
X181563973Y-65755172D01*
X181728940Y-65604785D01*
X181863464Y-65426646D01*
X181962964Y-65226822D01*
X181985723Y-65146829D01*
X182023002Y-65087737D01*
X182086312Y-65058179D01*
X182155552Y-65067541D01*
X182208738Y-65112850D01*
X182224257Y-65146831D01*
X182247016Y-65226824D01*
X182328300Y-65390063D01*
X182346516Y-65426646D01*
X182481040Y-65604785D01*
X182646007Y-65755172D01*
X182646014Y-65755176D01*
X182646015Y-65755177D01*
X182835794Y-65872683D01*
X182835795Y-65872683D01*
X182835798Y-65872685D01*
X183043951Y-65953324D01*
X183263377Y-65994342D01*
X183263379Y-65994342D01*
X183486601Y-65994342D01*
X183486603Y-65994342D01*
X183706029Y-65953324D01*
X183914182Y-65872685D01*
X184103973Y-65755172D01*
X184268940Y-65604785D01*
X184403464Y-65426646D01*
X184502964Y-65226822D01*
X184525723Y-65146829D01*
X184563002Y-65087737D01*
X184626312Y-65058179D01*
X184695552Y-65067541D01*
X184748738Y-65112850D01*
X184764257Y-65146831D01*
X184787016Y-65226824D01*
X184868300Y-65390063D01*
X184886516Y-65426646D01*
X185021040Y-65604785D01*
X185186007Y-65755172D01*
X185186014Y-65755176D01*
X185186015Y-65755177D01*
X185375794Y-65872683D01*
X185375795Y-65872683D01*
X185375798Y-65872685D01*
X185583951Y-65953324D01*
X185803377Y-65994342D01*
X185803379Y-65994342D01*
X186026601Y-65994342D01*
X186026603Y-65994342D01*
X186246029Y-65953324D01*
X186454182Y-65872685D01*
X186643973Y-65755172D01*
X186808940Y-65604785D01*
X186943464Y-65426646D01*
X187042964Y-65226822D01*
X187065723Y-65146829D01*
X187103002Y-65087737D01*
X187166312Y-65058179D01*
X187235552Y-65067541D01*
X187288738Y-65112850D01*
X187304257Y-65146831D01*
X187327016Y-65226824D01*
X187408300Y-65390063D01*
X187426516Y-65426646D01*
X187561040Y-65604785D01*
X187726007Y-65755172D01*
X187726014Y-65755176D01*
X187726015Y-65755177D01*
X187915794Y-65872683D01*
X187915795Y-65872683D01*
X187915798Y-65872685D01*
X188123951Y-65953324D01*
X188343377Y-65994342D01*
X188343379Y-65994342D01*
X188566601Y-65994342D01*
X188566603Y-65994342D01*
X188786029Y-65953324D01*
X188994182Y-65872685D01*
X189183973Y-65755172D01*
X189348940Y-65604785D01*
X189483464Y-65426646D01*
X189582964Y-65226822D01*
X189605723Y-65146829D01*
X189643002Y-65087737D01*
X189706312Y-65058179D01*
X189775552Y-65067541D01*
X189828738Y-65112850D01*
X189844257Y-65146831D01*
X189867016Y-65226824D01*
X189948300Y-65390063D01*
X189966516Y-65426646D01*
X190101040Y-65604785D01*
X190266007Y-65755172D01*
X190266014Y-65755176D01*
X190266015Y-65755177D01*
X190455794Y-65872683D01*
X190455795Y-65872683D01*
X190455798Y-65872685D01*
X190663951Y-65953324D01*
X190883377Y-65994342D01*
X190883379Y-65994342D01*
X191106601Y-65994342D01*
X191106603Y-65994342D01*
X191326029Y-65953324D01*
X191534182Y-65872685D01*
X191723973Y-65755172D01*
X191888940Y-65604785D01*
X192023464Y-65426646D01*
X192122964Y-65226822D01*
X192145723Y-65146829D01*
X192183002Y-65087737D01*
X192246312Y-65058179D01*
X192315552Y-65067541D01*
X192368738Y-65112850D01*
X192384257Y-65146831D01*
X192407016Y-65226824D01*
X192488300Y-65390063D01*
X192506516Y-65426646D01*
X192641040Y-65604785D01*
X192806007Y-65755172D01*
X192806014Y-65755176D01*
X192806015Y-65755177D01*
X192995794Y-65872683D01*
X192995795Y-65872683D01*
X192995798Y-65872685D01*
X193203951Y-65953324D01*
X193423377Y-65994342D01*
X193423379Y-65994342D01*
X193646601Y-65994342D01*
X193646603Y-65994342D01*
X193866029Y-65953324D01*
X194074182Y-65872685D01*
X194263973Y-65755172D01*
X194428940Y-65604785D01*
X194563464Y-65426646D01*
X194662964Y-65226822D01*
X194685723Y-65146829D01*
X194723002Y-65087737D01*
X194786312Y-65058179D01*
X194855552Y-65067541D01*
X194908738Y-65112850D01*
X194924257Y-65146831D01*
X194947016Y-65226824D01*
X195028300Y-65390063D01*
X195046516Y-65426646D01*
X195181040Y-65604785D01*
X195346007Y-65755172D01*
X195346014Y-65755176D01*
X195346015Y-65755177D01*
X195535794Y-65872683D01*
X195535795Y-65872683D01*
X195535798Y-65872685D01*
X195743951Y-65953324D01*
X195963377Y-65994342D01*
X195963379Y-65994342D01*
X196186601Y-65994342D01*
X196186603Y-65994342D01*
X196406029Y-65953324D01*
X196614182Y-65872685D01*
X196803973Y-65755172D01*
X196968940Y-65604785D01*
X197103464Y-65426646D01*
X197202964Y-65226822D01*
X197225723Y-65146829D01*
X197263002Y-65087737D01*
X197326312Y-65058179D01*
X197395552Y-65067541D01*
X197448738Y-65112850D01*
X197464257Y-65146831D01*
X197487016Y-65226824D01*
X197568300Y-65390063D01*
X197586516Y-65426646D01*
X197721040Y-65604785D01*
X197886007Y-65755172D01*
X197886014Y-65755176D01*
X197886015Y-65755177D01*
X198075794Y-65872683D01*
X198075795Y-65872683D01*
X198075798Y-65872685D01*
X198283951Y-65953324D01*
X198503377Y-65994342D01*
X198503379Y-65994342D01*
X198726601Y-65994342D01*
X198726603Y-65994342D01*
X198946029Y-65953324D01*
X199154182Y-65872685D01*
X199343973Y-65755172D01*
X199508940Y-65604785D01*
X199643464Y-65426646D01*
X199742964Y-65226822D01*
X199765723Y-65146829D01*
X199803002Y-65087737D01*
X199866312Y-65058179D01*
X199935552Y-65067541D01*
X199988738Y-65112850D01*
X200004257Y-65146831D01*
X200027016Y-65226824D01*
X200108300Y-65390063D01*
X200126516Y-65426646D01*
X200261040Y-65604785D01*
X200426007Y-65755172D01*
X200426014Y-65755176D01*
X200426015Y-65755177D01*
X200615794Y-65872683D01*
X200615795Y-65872683D01*
X200615798Y-65872685D01*
X200823951Y-65953324D01*
X201043377Y-65994342D01*
X201043379Y-65994342D01*
X201266601Y-65994342D01*
X201266603Y-65994342D01*
X201486029Y-65953324D01*
X201694182Y-65872685D01*
X201883973Y-65755172D01*
X202048940Y-65604785D01*
X202183464Y-65426646D01*
X202282964Y-65226822D01*
X202305983Y-65145915D01*
X202343262Y-65086823D01*
X202406572Y-65057265D01*
X202475811Y-65066627D01*
X202528998Y-65111936D01*
X202544516Y-65145916D01*
X202567482Y-65226635D01*
X202567488Y-65226650D01*
X202666943Y-65426382D01*
X202683272Y-65448005D01*
X203252851Y-64878426D01*
X203275657Y-64963536D01*
X203334900Y-65066148D01*
X203418684Y-65149932D01*
X203521296Y-65209175D01*
X203606404Y-65231979D01*
X203038756Y-65799627D01*
X203156021Y-65872235D01*
X203156022Y-65872236D01*
X203364085Y-65952839D01*
X203583425Y-65993842D01*
X203806555Y-65993842D01*
X204025894Y-65952839D01*
X204233957Y-65872236D01*
X204233961Y-65872234D01*
X204351221Y-65799628D01*
X204351221Y-65799627D01*
X203783575Y-65231979D01*
X203868684Y-65209175D01*
X203971296Y-65149932D01*
X204055080Y-65066148D01*
X204114323Y-64963536D01*
X204137128Y-64878427D01*
X204706706Y-65448005D01*
X204723039Y-65426378D01*
X204723043Y-65426371D01*
X204822489Y-65226655D01*
X204822494Y-65226642D01*
X204845462Y-65145917D01*
X204882741Y-65086823D01*
X204946051Y-65057265D01*
X205015290Y-65066626D01*
X205068477Y-65111936D01*
X205083995Y-65145915D01*
X205107014Y-65226819D01*
X205107016Y-65226823D01*
X205113499Y-65239842D01*
X205206516Y-65426646D01*
X205341040Y-65604785D01*
X205506007Y-65755172D01*
X205506014Y-65755176D01*
X205506015Y-65755177D01*
X205695794Y-65872683D01*
X205695795Y-65872683D01*
X205695798Y-65872685D01*
X205903951Y-65953324D01*
X206123377Y-65994342D01*
X206123379Y-65994342D01*
X206346601Y-65994342D01*
X206346603Y-65994342D01*
X206566029Y-65953324D01*
X206774182Y-65872685D01*
X206963973Y-65755172D01*
X207128940Y-65604785D01*
X207263464Y-65426646D01*
X207362964Y-65226822D01*
X207385723Y-65146829D01*
X207423002Y-65087737D01*
X207486312Y-65058179D01*
X207555552Y-65067541D01*
X207608738Y-65112850D01*
X207624257Y-65146831D01*
X207647016Y-65226824D01*
X207728300Y-65390063D01*
X207746516Y-65426646D01*
X207881040Y-65604785D01*
X208046007Y-65755172D01*
X208046014Y-65755176D01*
X208046015Y-65755177D01*
X208235794Y-65872683D01*
X208235795Y-65872683D01*
X208235798Y-65872685D01*
X208443951Y-65953324D01*
X208663377Y-65994342D01*
X208663379Y-65994342D01*
X208886601Y-65994342D01*
X208886603Y-65994342D01*
X209106029Y-65953324D01*
X209314182Y-65872685D01*
X209503973Y-65755172D01*
X209668940Y-65604785D01*
X209803464Y-65426646D01*
X209902964Y-65226822D01*
X209925723Y-65146829D01*
X209963002Y-65087737D01*
X210026312Y-65058179D01*
X210095552Y-65067541D01*
X210148738Y-65112850D01*
X210164257Y-65146831D01*
X210187016Y-65226824D01*
X210268300Y-65390063D01*
X210286516Y-65426646D01*
X210421040Y-65604785D01*
X210586007Y-65755172D01*
X210586014Y-65755176D01*
X210586015Y-65755177D01*
X210775794Y-65872683D01*
X210775795Y-65872683D01*
X210775798Y-65872685D01*
X210983951Y-65953324D01*
X211203377Y-65994342D01*
X211203379Y-65994342D01*
X211426601Y-65994342D01*
X211426603Y-65994342D01*
X211646029Y-65953324D01*
X211854182Y-65872685D01*
X212043973Y-65755172D01*
X212208940Y-65604785D01*
X212343464Y-65426646D01*
X212442964Y-65226822D01*
X212465723Y-65146829D01*
X212503002Y-65087737D01*
X212566312Y-65058179D01*
X212635552Y-65067541D01*
X212688738Y-65112850D01*
X212704257Y-65146831D01*
X212727016Y-65226824D01*
X212808300Y-65390063D01*
X212826516Y-65426646D01*
X212961040Y-65604785D01*
X213126007Y-65755172D01*
X213126014Y-65755176D01*
X213126015Y-65755177D01*
X213315794Y-65872683D01*
X213315795Y-65872683D01*
X213315798Y-65872685D01*
X213523951Y-65953324D01*
X213743377Y-65994342D01*
X213743379Y-65994342D01*
X213966601Y-65994342D01*
X213966603Y-65994342D01*
X214186029Y-65953324D01*
X214394182Y-65872685D01*
X214583973Y-65755172D01*
X214748940Y-65604785D01*
X214883464Y-65426646D01*
X214982964Y-65226822D01*
X215005723Y-65146829D01*
X215043002Y-65087737D01*
X215106312Y-65058179D01*
X215175552Y-65067541D01*
X215228738Y-65112850D01*
X215244257Y-65146831D01*
X215267016Y-65226824D01*
X215348300Y-65390063D01*
X215366516Y-65426646D01*
X215501040Y-65604785D01*
X215666007Y-65755172D01*
X215666014Y-65755176D01*
X215666015Y-65755177D01*
X215855794Y-65872683D01*
X215855795Y-65872683D01*
X215855798Y-65872685D01*
X216063951Y-65953324D01*
X216283377Y-65994342D01*
X216283379Y-65994342D01*
X216506601Y-65994342D01*
X216506603Y-65994342D01*
X216726029Y-65953324D01*
X216934182Y-65872685D01*
X217123973Y-65755172D01*
X217288940Y-65604785D01*
X217423464Y-65426646D01*
X217522964Y-65226822D01*
X217545983Y-65145915D01*
X217583262Y-65086823D01*
X217646572Y-65057265D01*
X217715811Y-65066627D01*
X217768998Y-65111936D01*
X217784516Y-65145916D01*
X217807482Y-65226635D01*
X217807488Y-65226650D01*
X217906943Y-65426382D01*
X217923272Y-65448005D01*
X218492851Y-64878426D01*
X218515657Y-64963536D01*
X218574900Y-65066148D01*
X218658684Y-65149932D01*
X218761296Y-65209175D01*
X218846404Y-65231979D01*
X218278756Y-65799627D01*
X218396021Y-65872235D01*
X218396022Y-65872236D01*
X218604085Y-65952839D01*
X218823425Y-65993842D01*
X219046555Y-65993842D01*
X219265894Y-65952839D01*
X219473957Y-65872236D01*
X219473961Y-65872234D01*
X219591221Y-65799628D01*
X219591221Y-65799627D01*
X219023575Y-65231979D01*
X219108684Y-65209175D01*
X219211296Y-65149932D01*
X219295080Y-65066148D01*
X219354323Y-64963536D01*
X219377128Y-64878427D01*
X219946706Y-65448005D01*
X219955480Y-65436388D01*
X220011590Y-65394753D01*
X220081302Y-65390063D01*
X220142483Y-65423807D01*
X220175709Y-65485271D01*
X220178432Y-65511117D01*
X220178432Y-69533504D01*
X220158747Y-69600543D01*
X220105943Y-69646298D01*
X220036785Y-69656242D01*
X219995006Y-69642337D01*
X219992077Y-69640738D01*
X219857369Y-69590495D01*
X219857362Y-69590493D01*
X219797834Y-69584092D01*
X219149990Y-69584092D01*
X219149990Y-70501080D01*
X219092983Y-70468167D01*
X218965816Y-70434092D01*
X218834164Y-70434092D01*
X218706997Y-70468167D01*
X218649990Y-70501080D01*
X218649990Y-69584092D01*
X218002145Y-69584092D01*
X217942617Y-69590493D01*
X217942610Y-69590495D01*
X217807903Y-69640737D01*
X217807896Y-69640741D01*
X217692802Y-69726901D01*
X217692799Y-69726904D01*
X217606639Y-69841998D01*
X217606635Y-69842005D01*
X217557568Y-69973562D01*
X217515697Y-70029496D01*
X217450232Y-70053913D01*
X217381959Y-70039061D01*
X217353705Y-70017911D01*
X217309356Y-69973562D01*
X217231391Y-69895597D01*
X217231387Y-69895594D01*
X217231386Y-69895593D01*
X217037824Y-69760059D01*
X217037820Y-69760057D01*
X216966717Y-69726901D01*
X216823653Y-69660189D01*
X216823649Y-69660188D01*
X216823645Y-69660186D01*
X216595403Y-69599030D01*
X216595393Y-69599028D01*
X216359991Y-69578433D01*
X216359989Y-69578433D01*
X216124586Y-69599028D01*
X216124576Y-69599030D01*
X215896334Y-69660186D01*
X215896325Y-69660190D01*
X215682161Y-69760056D01*
X215682159Y-69760057D01*
X215488587Y-69895597D01*
X215321495Y-70062689D01*
X215191565Y-70248250D01*
X215136988Y-70291875D01*
X215067490Y-70299069D01*
X215005135Y-70267546D01*
X214988415Y-70248250D01*
X214858484Y-70062689D01*
X214691392Y-69895598D01*
X214691385Y-69895593D01*
X214497824Y-69760059D01*
X214497820Y-69760057D01*
X214426717Y-69726901D01*
X214283653Y-69660189D01*
X214283649Y-69660188D01*
X214283645Y-69660186D01*
X214055403Y-69599030D01*
X214055393Y-69599028D01*
X213819991Y-69578433D01*
X213819989Y-69578433D01*
X213584586Y-69599028D01*
X213584576Y-69599030D01*
X213356334Y-69660186D01*
X213356325Y-69660190D01*
X213142161Y-69760056D01*
X213142159Y-69760057D01*
X212948587Y-69895597D01*
X212781495Y-70062689D01*
X212651565Y-70248250D01*
X212596988Y-70291875D01*
X212527490Y-70299069D01*
X212465135Y-70267546D01*
X212448415Y-70248250D01*
X212318484Y-70062689D01*
X212151392Y-69895598D01*
X212151385Y-69895593D01*
X211957824Y-69760059D01*
X211957820Y-69760057D01*
X211886717Y-69726901D01*
X211743653Y-69660189D01*
X211743649Y-69660188D01*
X211743645Y-69660186D01*
X211515403Y-69599030D01*
X211515393Y-69599028D01*
X211279991Y-69578433D01*
X211279989Y-69578433D01*
X211044586Y-69599028D01*
X211044576Y-69599030D01*
X210816334Y-69660186D01*
X210816325Y-69660190D01*
X210602161Y-69760056D01*
X210602159Y-69760057D01*
X210408587Y-69895597D01*
X210241495Y-70062689D01*
X210111565Y-70248250D01*
X210056988Y-70291875D01*
X209987490Y-70299069D01*
X209925135Y-70267546D01*
X209908415Y-70248250D01*
X209778484Y-70062689D01*
X209611392Y-69895598D01*
X209611385Y-69895593D01*
X209417824Y-69760059D01*
X209417820Y-69760057D01*
X209346717Y-69726901D01*
X209203653Y-69660189D01*
X209203649Y-69660188D01*
X209203645Y-69660186D01*
X208975403Y-69599030D01*
X208975393Y-69599028D01*
X208739991Y-69578433D01*
X208739989Y-69578433D01*
X208504586Y-69599028D01*
X208504576Y-69599030D01*
X208276334Y-69660186D01*
X208276325Y-69660190D01*
X208062161Y-69760056D01*
X208062159Y-69760057D01*
X207868587Y-69895597D01*
X207701495Y-70062689D01*
X207571565Y-70248250D01*
X207516988Y-70291875D01*
X207447490Y-70299069D01*
X207385135Y-70267546D01*
X207368415Y-70248250D01*
X207238484Y-70062689D01*
X207071392Y-69895598D01*
X207071385Y-69895593D01*
X206877824Y-69760059D01*
X206877820Y-69760057D01*
X206806717Y-69726901D01*
X206663653Y-69660189D01*
X206663649Y-69660188D01*
X206663645Y-69660186D01*
X206435403Y-69599030D01*
X206435393Y-69599028D01*
X206199991Y-69578433D01*
X206199989Y-69578433D01*
X205964586Y-69599028D01*
X205964576Y-69599030D01*
X205736334Y-69660186D01*
X205736325Y-69660190D01*
X205522161Y-69760056D01*
X205522159Y-69760057D01*
X205328587Y-69895597D01*
X205161498Y-70062686D01*
X205031259Y-70248687D01*
X204976682Y-70292311D01*
X204907183Y-70299504D01*
X204844829Y-70267982D01*
X204828109Y-70248686D01*
X204698103Y-70063018D01*
X204698098Y-70063012D01*
X204531072Y-69895986D01*
X204337568Y-69760491D01*
X204123482Y-69660662D01*
X204123476Y-69660659D01*
X203909990Y-69603456D01*
X203909990Y-70501080D01*
X203852983Y-70468167D01*
X203725816Y-70434092D01*
X203594164Y-70434092D01*
X203466997Y-70468167D01*
X203409990Y-70501080D01*
X203409990Y-69603456D01*
X203409989Y-69603456D01*
X203196503Y-69660659D01*
X203196497Y-69660662D01*
X202982412Y-69760491D01*
X202982410Y-69760492D01*
X202788916Y-69895978D01*
X202788910Y-69895983D01*
X202621881Y-70063012D01*
X202621880Y-70063014D01*
X202491870Y-70248687D01*
X202437293Y-70292311D01*
X202367794Y-70299504D01*
X202305440Y-70267982D01*
X202288720Y-70248686D01*
X202158484Y-70062689D01*
X201991392Y-69895598D01*
X201991385Y-69895593D01*
X201797824Y-69760059D01*
X201797820Y-69760057D01*
X201726717Y-69726901D01*
X201583653Y-69660189D01*
X201583649Y-69660188D01*
X201583645Y-69660186D01*
X201355403Y-69599030D01*
X201355393Y-69599028D01*
X201119991Y-69578433D01*
X201119989Y-69578433D01*
X200884586Y-69599028D01*
X200884576Y-69599030D01*
X200656334Y-69660186D01*
X200656325Y-69660190D01*
X200442161Y-69760056D01*
X200442159Y-69760057D01*
X200248587Y-69895597D01*
X200081495Y-70062689D01*
X199951565Y-70248250D01*
X199896988Y-70291875D01*
X199827490Y-70299069D01*
X199765135Y-70267546D01*
X199748415Y-70248250D01*
X199618484Y-70062689D01*
X199451392Y-69895598D01*
X199451385Y-69895593D01*
X199257824Y-69760059D01*
X199257820Y-69760057D01*
X199186717Y-69726901D01*
X199043653Y-69660189D01*
X199043649Y-69660188D01*
X199043645Y-69660186D01*
X198815403Y-69599030D01*
X198815393Y-69599028D01*
X198579991Y-69578433D01*
X198579989Y-69578433D01*
X198344586Y-69599028D01*
X198344576Y-69599030D01*
X198116334Y-69660186D01*
X198116325Y-69660190D01*
X197902161Y-69760056D01*
X197902159Y-69760057D01*
X197708587Y-69895597D01*
X197541495Y-70062689D01*
X197411565Y-70248250D01*
X197356988Y-70291875D01*
X197287490Y-70299069D01*
X197225135Y-70267546D01*
X197208415Y-70248250D01*
X197078484Y-70062689D01*
X196911392Y-69895598D01*
X196911385Y-69895593D01*
X196717824Y-69760059D01*
X196717820Y-69760057D01*
X196646717Y-69726901D01*
X196503653Y-69660189D01*
X196503649Y-69660188D01*
X196503645Y-69660186D01*
X196275403Y-69599030D01*
X196275393Y-69599028D01*
X196039991Y-69578433D01*
X196039989Y-69578433D01*
X195804586Y-69599028D01*
X195804576Y-69599030D01*
X195576334Y-69660186D01*
X195576325Y-69660190D01*
X195362161Y-69760056D01*
X195362159Y-69760057D01*
X195168587Y-69895597D01*
X195001495Y-70062689D01*
X194871565Y-70248250D01*
X194816988Y-70291875D01*
X194747490Y-70299069D01*
X194685135Y-70267546D01*
X194668415Y-70248250D01*
X194538484Y-70062689D01*
X194371392Y-69895598D01*
X194371385Y-69895593D01*
X194177824Y-69760059D01*
X194177820Y-69760057D01*
X194106717Y-69726901D01*
X193963653Y-69660189D01*
X193963649Y-69660188D01*
X193963645Y-69660186D01*
X193735403Y-69599030D01*
X193735393Y-69599028D01*
X193499991Y-69578433D01*
X193499989Y-69578433D01*
X193264586Y-69599028D01*
X193264576Y-69599030D01*
X193036334Y-69660186D01*
X193036325Y-69660190D01*
X192822161Y-69760056D01*
X192822159Y-69760057D01*
X192628587Y-69895597D01*
X192461495Y-70062689D01*
X192331565Y-70248250D01*
X192276988Y-70291875D01*
X192207490Y-70299069D01*
X192145135Y-70267546D01*
X192128415Y-70248250D01*
X191998484Y-70062689D01*
X191831392Y-69895598D01*
X191831385Y-69895593D01*
X191637824Y-69760059D01*
X191637820Y-69760057D01*
X191566717Y-69726901D01*
X191423653Y-69660189D01*
X191423649Y-69660188D01*
X191423645Y-69660186D01*
X191195403Y-69599030D01*
X191195393Y-69599028D01*
X190959991Y-69578433D01*
X190959989Y-69578433D01*
X190724586Y-69599028D01*
X190724576Y-69599030D01*
X190496334Y-69660186D01*
X190496325Y-69660190D01*
X190282161Y-69760056D01*
X190282159Y-69760057D01*
X190088587Y-69895597D01*
X189921495Y-70062689D01*
X189791565Y-70248250D01*
X189736988Y-70291875D01*
X189667490Y-70299069D01*
X189605135Y-70267546D01*
X189588415Y-70248250D01*
X189458484Y-70062689D01*
X189291392Y-69895598D01*
X189291385Y-69895593D01*
X189097824Y-69760059D01*
X189097820Y-69760057D01*
X189026717Y-69726901D01*
X188883653Y-69660189D01*
X188883649Y-69660188D01*
X188883645Y-69660186D01*
X188655403Y-69599030D01*
X188655393Y-69599028D01*
X188419991Y-69578433D01*
X188419989Y-69578433D01*
X188184586Y-69599028D01*
X188184576Y-69599030D01*
X187956334Y-69660186D01*
X187956325Y-69660190D01*
X187742161Y-69760056D01*
X187742159Y-69760057D01*
X187548587Y-69895597D01*
X187381495Y-70062689D01*
X187251565Y-70248250D01*
X187196988Y-70291875D01*
X187127490Y-70299069D01*
X187065135Y-70267546D01*
X187048415Y-70248250D01*
X186918484Y-70062689D01*
X186751392Y-69895598D01*
X186751385Y-69895593D01*
X186557824Y-69760059D01*
X186557820Y-69760057D01*
X186486717Y-69726901D01*
X186343653Y-69660189D01*
X186343649Y-69660188D01*
X186343645Y-69660186D01*
X186115403Y-69599030D01*
X186115393Y-69599028D01*
X185879991Y-69578433D01*
X185879989Y-69578433D01*
X185644586Y-69599028D01*
X185644576Y-69599030D01*
X185416334Y-69660186D01*
X185416325Y-69660190D01*
X185202161Y-69760056D01*
X185202159Y-69760057D01*
X185008587Y-69895597D01*
X184841495Y-70062689D01*
X184711565Y-70248250D01*
X184656988Y-70291875D01*
X184587490Y-70299069D01*
X184525135Y-70267546D01*
X184508415Y-70248250D01*
X184378484Y-70062689D01*
X184211392Y-69895598D01*
X184211385Y-69895593D01*
X184017824Y-69760059D01*
X184017820Y-69760057D01*
X183946717Y-69726901D01*
X183803653Y-69660189D01*
X183803649Y-69660188D01*
X183803645Y-69660186D01*
X183575403Y-69599030D01*
X183575393Y-69599028D01*
X183339991Y-69578433D01*
X183339989Y-69578433D01*
X183104586Y-69599028D01*
X183104576Y-69599030D01*
X182876334Y-69660186D01*
X182876325Y-69660190D01*
X182662161Y-69760056D01*
X182662159Y-69760057D01*
X182468587Y-69895597D01*
X182301495Y-70062689D01*
X182171565Y-70248250D01*
X182116988Y-70291875D01*
X182047490Y-70299069D01*
X181985135Y-70267546D01*
X181968415Y-70248250D01*
X181838484Y-70062689D01*
X181671392Y-69895598D01*
X181671385Y-69895593D01*
X181477824Y-69760059D01*
X181477820Y-69760057D01*
X181406717Y-69726901D01*
X181263653Y-69660189D01*
X181263649Y-69660188D01*
X181263645Y-69660186D01*
X181035403Y-69599030D01*
X181035393Y-69599028D01*
X180799991Y-69578433D01*
X180799989Y-69578433D01*
X180564586Y-69599028D01*
X180564576Y-69599030D01*
X180336334Y-69660186D01*
X180336325Y-69660190D01*
X180122161Y-69760056D01*
X180122159Y-69760057D01*
X179928587Y-69895597D01*
X179761495Y-70062689D01*
X179631565Y-70248250D01*
X179576988Y-70291875D01*
X179507490Y-70299069D01*
X179445135Y-70267546D01*
X179428415Y-70248250D01*
X179298484Y-70062689D01*
X179131392Y-69895598D01*
X179131385Y-69895593D01*
X178937824Y-69760059D01*
X178937820Y-69760057D01*
X178866717Y-69726901D01*
X178723653Y-69660189D01*
X178723649Y-69660188D01*
X178723645Y-69660186D01*
X178495403Y-69599030D01*
X178495393Y-69599028D01*
X178259991Y-69578433D01*
X178259989Y-69578433D01*
X178024586Y-69599028D01*
X178024576Y-69599030D01*
X177796334Y-69660186D01*
X177796325Y-69660190D01*
X177582161Y-69760056D01*
X177582159Y-69760057D01*
X177388587Y-69895597D01*
X177221495Y-70062689D01*
X177091565Y-70248250D01*
X177036988Y-70291875D01*
X176967490Y-70299069D01*
X176905135Y-70267546D01*
X176888415Y-70248250D01*
X176758484Y-70062689D01*
X176591392Y-69895598D01*
X176591385Y-69895593D01*
X176397824Y-69760059D01*
X176397820Y-69760057D01*
X176326717Y-69726901D01*
X176183653Y-69660189D01*
X176183649Y-69660188D01*
X176183645Y-69660186D01*
X175955403Y-69599030D01*
X175955393Y-69599028D01*
X175719991Y-69578433D01*
X175719989Y-69578433D01*
X175484586Y-69599028D01*
X175484576Y-69599030D01*
X175256334Y-69660186D01*
X175256325Y-69660190D01*
X175042161Y-69760056D01*
X175042159Y-69760057D01*
X174848587Y-69895597D01*
X174681495Y-70062689D01*
X174551565Y-70248250D01*
X174496988Y-70291875D01*
X174427490Y-70299069D01*
X174365135Y-70267546D01*
X174348415Y-70248250D01*
X174218484Y-70062689D01*
X174051392Y-69895598D01*
X174051385Y-69895593D01*
X173857824Y-69760059D01*
X173857820Y-69760057D01*
X173786717Y-69726901D01*
X173643653Y-69660189D01*
X173643649Y-69660188D01*
X173643645Y-69660186D01*
X173415403Y-69599030D01*
X173415393Y-69599028D01*
X173179991Y-69578433D01*
X173179989Y-69578433D01*
X172944586Y-69599028D01*
X172944576Y-69599030D01*
X172716334Y-69660186D01*
X172716325Y-69660190D01*
X172502161Y-69760056D01*
X172502159Y-69760057D01*
X172308587Y-69895597D01*
X172141495Y-70062689D01*
X172005955Y-70256261D01*
X172005954Y-70256263D01*
X171906088Y-70470427D01*
X171906084Y-70470436D01*
X171844928Y-70698678D01*
X171844926Y-70698688D01*
X171824331Y-70934091D01*
X171824331Y-70934092D01*
X171844926Y-71169495D01*
X171844928Y-71169505D01*
X171906084Y-71397747D01*
X171906086Y-71397751D01*
X171906087Y-71397755D01*
X171985791Y-71568680D01*
X172005955Y-71611922D01*
X172005957Y-71611926D01*
X172114271Y-71766613D01*
X172141495Y-71805493D01*
X172308589Y-71972587D01*
X172405374Y-72040357D01*
X172502155Y-72108124D01*
X172502157Y-72108125D01*
X172502160Y-72108127D01*
X172716327Y-72207995D01*
X172944582Y-72269155D01*
X173115309Y-72284092D01*
X173179989Y-72289751D01*
X173179990Y-72289751D01*
X173179991Y-72289751D01*
X173244671Y-72284092D01*
X173415398Y-72269155D01*
X173643653Y-72207995D01*
X173857820Y-72108127D01*
X174051391Y-71972587D01*
X174218485Y-71805493D01*
X174348415Y-71619934D01*
X174402992Y-71576309D01*
X174472490Y-71569115D01*
X174534845Y-71600638D01*
X174551565Y-71619934D01*
X174681490Y-71805487D01*
X174681495Y-71805493D01*
X174848589Y-71972587D01*
X174945374Y-72040357D01*
X175042155Y-72108124D01*
X175042157Y-72108125D01*
X175042160Y-72108127D01*
X175256327Y-72207995D01*
X175484582Y-72269155D01*
X175655309Y-72284092D01*
X175719989Y-72289751D01*
X175719990Y-72289751D01*
X175719991Y-72289751D01*
X175784671Y-72284092D01*
X175955398Y-72269155D01*
X176183653Y-72207995D01*
X176397820Y-72108127D01*
X176591391Y-71972587D01*
X176758485Y-71805493D01*
X176888415Y-71619934D01*
X176942992Y-71576309D01*
X177012490Y-71569115D01*
X177074845Y-71600638D01*
X177091565Y-71619934D01*
X177221490Y-71805487D01*
X177221495Y-71805493D01*
X177388589Y-71972587D01*
X177485374Y-72040357D01*
X177582155Y-72108124D01*
X177582157Y-72108125D01*
X177582160Y-72108127D01*
X177796327Y-72207995D01*
X178024582Y-72269155D01*
X178195309Y-72284092D01*
X178259989Y-72289751D01*
X178259990Y-72289751D01*
X178259991Y-72289751D01*
X178324671Y-72284092D01*
X178495398Y-72269155D01*
X178723653Y-72207995D01*
X178937820Y-72108127D01*
X179131391Y-71972587D01*
X179298485Y-71805493D01*
X179428415Y-71619934D01*
X179482992Y-71576309D01*
X179552490Y-71569115D01*
X179614845Y-71600638D01*
X179631565Y-71619934D01*
X179761490Y-71805487D01*
X179761495Y-71805493D01*
X179928589Y-71972587D01*
X180025374Y-72040357D01*
X180122155Y-72108124D01*
X180122157Y-72108125D01*
X180122160Y-72108127D01*
X180336327Y-72207995D01*
X180564582Y-72269155D01*
X180735309Y-72284092D01*
X180799989Y-72289751D01*
X180799990Y-72289751D01*
X180799991Y-72289751D01*
X180864671Y-72284092D01*
X181035398Y-72269155D01*
X181263653Y-72207995D01*
X181477820Y-72108127D01*
X181671391Y-71972587D01*
X181838485Y-71805493D01*
X181968415Y-71619934D01*
X182022992Y-71576309D01*
X182092490Y-71569115D01*
X182154845Y-71600638D01*
X182171565Y-71619934D01*
X182301490Y-71805487D01*
X182301495Y-71805493D01*
X182468589Y-71972587D01*
X182565374Y-72040357D01*
X182662155Y-72108124D01*
X182662157Y-72108125D01*
X182662160Y-72108127D01*
X182876327Y-72207995D01*
X183104582Y-72269155D01*
X183275309Y-72284092D01*
X183339989Y-72289751D01*
X183339990Y-72289751D01*
X183339991Y-72289751D01*
X183404671Y-72284092D01*
X183575398Y-72269155D01*
X183803653Y-72207995D01*
X184017820Y-72108127D01*
X184211391Y-71972587D01*
X184378485Y-71805493D01*
X184508415Y-71619934D01*
X184562992Y-71576309D01*
X184632490Y-71569115D01*
X184694845Y-71600638D01*
X184711565Y-71619934D01*
X184841490Y-71805487D01*
X184841495Y-71805493D01*
X185008589Y-71972587D01*
X185105374Y-72040357D01*
X185202155Y-72108124D01*
X185202157Y-72108125D01*
X185202160Y-72108127D01*
X185416327Y-72207995D01*
X185644582Y-72269155D01*
X185815309Y-72284092D01*
X185879989Y-72289751D01*
X185879990Y-72289751D01*
X185879991Y-72289751D01*
X185944671Y-72284092D01*
X186115398Y-72269155D01*
X186343653Y-72207995D01*
X186557820Y-72108127D01*
X186751391Y-71972587D01*
X186918485Y-71805493D01*
X187048415Y-71619934D01*
X187102992Y-71576309D01*
X187172490Y-71569115D01*
X187234845Y-71600638D01*
X187251565Y-71619934D01*
X187381490Y-71805487D01*
X187381495Y-71805493D01*
X187548589Y-71972587D01*
X187645374Y-72040357D01*
X187742155Y-72108124D01*
X187742157Y-72108125D01*
X187742160Y-72108127D01*
X187956327Y-72207995D01*
X188184582Y-72269155D01*
X188355309Y-72284092D01*
X188419989Y-72289751D01*
X188419990Y-72289751D01*
X188419991Y-72289751D01*
X188484671Y-72284092D01*
X188655398Y-72269155D01*
X188883653Y-72207995D01*
X189097820Y-72108127D01*
X189291391Y-71972587D01*
X189458485Y-71805493D01*
X189588415Y-71619934D01*
X189642992Y-71576309D01*
X189712490Y-71569115D01*
X189774845Y-71600638D01*
X189791565Y-71619934D01*
X189921490Y-71805487D01*
X189921495Y-71805493D01*
X190088589Y-71972587D01*
X190185374Y-72040357D01*
X190282155Y-72108124D01*
X190282157Y-72108125D01*
X190282160Y-72108127D01*
X190496327Y-72207995D01*
X190724582Y-72269155D01*
X190895309Y-72284092D01*
X190959989Y-72289751D01*
X190959989Y-72289750D01*
X190959990Y-72289751D01*
X191070622Y-72280071D01*
X191139120Y-72293837D01*
X191189303Y-72342452D01*
X191205237Y-72410480D01*
X191181862Y-72476324D01*
X191169109Y-72491280D01*
X188730926Y-74929463D01*
X188669603Y-74962948D01*
X188611157Y-74961558D01*
X188594342Y-74957053D01*
X188358933Y-74936457D01*
X188358931Y-74936457D01*
X188123528Y-74957052D01*
X188123518Y-74957054D01*
X187895276Y-75018210D01*
X187895267Y-75018214D01*
X187681103Y-75118080D01*
X187681101Y-75118081D01*
X187487529Y-75253621D01*
X187320437Y-75420713D01*
X187190507Y-75606274D01*
X187135930Y-75649899D01*
X187066432Y-75657093D01*
X187004077Y-75625570D01*
X186987357Y-75606274D01*
X186857426Y-75420713D01*
X186690334Y-75253622D01*
X186690327Y-75253617D01*
X186496766Y-75118083D01*
X186496762Y-75118081D01*
X186425659Y-75084925D01*
X186282595Y-75018213D01*
X186282591Y-75018212D01*
X186282587Y-75018210D01*
X186054345Y-74957054D01*
X186054335Y-74957052D01*
X185818933Y-74936457D01*
X185818931Y-74936457D01*
X185583528Y-74957052D01*
X185583518Y-74957054D01*
X185355276Y-75018210D01*
X185355267Y-75018214D01*
X185141103Y-75118080D01*
X185141101Y-75118081D01*
X184947529Y-75253621D01*
X184780437Y-75420713D01*
X184650507Y-75606274D01*
X184595930Y-75649899D01*
X184526432Y-75657093D01*
X184464077Y-75625570D01*
X184447357Y-75606274D01*
X184317426Y-75420713D01*
X184150334Y-75253622D01*
X184150327Y-75253617D01*
X183956766Y-75118083D01*
X183956762Y-75118081D01*
X183885659Y-75084925D01*
X183742595Y-75018213D01*
X183742591Y-75018212D01*
X183742587Y-75018210D01*
X183514345Y-74957054D01*
X183514335Y-74957052D01*
X183278933Y-74936457D01*
X183278931Y-74936457D01*
X183043528Y-74957052D01*
X183043518Y-74957054D01*
X182815276Y-75018210D01*
X182815267Y-75018214D01*
X182601103Y-75118080D01*
X182601101Y-75118081D01*
X182407532Y-75253619D01*
X182285216Y-75375935D01*
X182223893Y-75409419D01*
X182154201Y-75404435D01*
X182098268Y-75362563D01*
X182081353Y-75331586D01*
X182032286Y-75200029D01*
X182032282Y-75200022D01*
X181946122Y-75084928D01*
X181946119Y-75084925D01*
X181831025Y-74998765D01*
X181831018Y-74998761D01*
X181696311Y-74948519D01*
X181696304Y-74948517D01*
X181636776Y-74942116D01*
X180988932Y-74942116D01*
X180988932Y-75859104D01*
X180931925Y-75826191D01*
X180804758Y-75792116D01*
X180673106Y-75792116D01*
X180545939Y-75826191D01*
X180488932Y-75859104D01*
X180488932Y-74942116D01*
X179841087Y-74942116D01*
X179781559Y-74948517D01*
X179781552Y-74948519D01*
X179646845Y-74998761D01*
X179646838Y-74998765D01*
X179531744Y-75084925D01*
X179531741Y-75084928D01*
X179445581Y-75200022D01*
X179445577Y-75200029D01*
X179395335Y-75334736D01*
X179395333Y-75334743D01*
X179388932Y-75394271D01*
X179388932Y-76042116D01*
X180305920Y-76042116D01*
X180273007Y-76099123D01*
X180238932Y-76226290D01*
X180238932Y-76357942D01*
X180273007Y-76485109D01*
X180305920Y-76542116D01*
X179388932Y-76542116D01*
X179388932Y-77189960D01*
X179395333Y-77249488D01*
X179395335Y-77249495D01*
X179445577Y-77384202D01*
X179445581Y-77384209D01*
X179531741Y-77499303D01*
X179531744Y-77499306D01*
X179646838Y-77585466D01*
X179646845Y-77585470D01*
X179781552Y-77635712D01*
X179781559Y-77635714D01*
X179841087Y-77642115D01*
X179841104Y-77642116D01*
X180488932Y-77642116D01*
X180488932Y-76725128D01*
X180545939Y-76758041D01*
X180673106Y-76792116D01*
X180804758Y-76792116D01*
X180931925Y-76758041D01*
X180988932Y-76725128D01*
X180988932Y-77540096D01*
X180969247Y-77607135D01*
X180952613Y-77627777D01*
X179934820Y-78645569D01*
X179934819Y-78645570D01*
X179858154Y-78760308D01*
X179805353Y-78887783D01*
X179805350Y-78887793D01*
X179778432Y-79023120D01*
X179778432Y-85769404D01*
X179758747Y-85836443D01*
X179725556Y-85870979D01*
X179607526Y-85953624D01*
X179440437Y-86120713D01*
X179304897Y-86314285D01*
X179304896Y-86314287D01*
X179205030Y-86528451D01*
X179205026Y-86528460D01*
X179143870Y-86756702D01*
X179143868Y-86756712D01*
X179123273Y-86992115D01*
X179123273Y-86992116D01*
X179143868Y-87227519D01*
X179143870Y-87227529D01*
X179205026Y-87455771D01*
X179205028Y-87455775D01*
X179205029Y-87455779D01*
X179211671Y-87470022D01*
X179304897Y-87669946D01*
X179304899Y-87669950D01*
X179413213Y-87824637D01*
X179440437Y-87863517D01*
X179607531Y-88030611D01*
X179652525Y-88062116D01*
X179801097Y-88166148D01*
X179801099Y-88166149D01*
X179801102Y-88166151D01*
X180015269Y-88266019D01*
X180243524Y-88327179D01*
X180431850Y-88343655D01*
X180478931Y-88347775D01*
X180478932Y-88347775D01*
X180478933Y-88347775D01*
X180518166Y-88344342D01*
X180714340Y-88327179D01*
X180942595Y-88266019D01*
X181156762Y-88166151D01*
X181350333Y-88030611D01*
X181517427Y-87863517D01*
X181652967Y-87669946D01*
X181752835Y-87455779D01*
X181813995Y-87227524D01*
X181834591Y-86992116D01*
X181813995Y-86756708D01*
X181752835Y-86528453D01*
X181652967Y-86314287D01*
X181613222Y-86257524D01*
X181517426Y-86120713D01*
X181350336Y-85953624D01*
X181350333Y-85953621D01*
X181350328Y-85953617D01*
X181350325Y-85953615D01*
X181232308Y-85870977D01*
X181188683Y-85816400D01*
X181179432Y-85769403D01*
X181179432Y-79433634D01*
X181199117Y-79366595D01*
X181215746Y-79345958D01*
X182906938Y-77654765D01*
X182968259Y-77621282D01*
X183026710Y-77622673D01*
X183043524Y-77627179D01*
X183214251Y-77642116D01*
X183278931Y-77647775D01*
X183278932Y-77647775D01*
X183278933Y-77647775D01*
X183343613Y-77642116D01*
X183514340Y-77627179D01*
X183742595Y-77566019D01*
X183956762Y-77466151D01*
X184150333Y-77330611D01*
X184317427Y-77163517D01*
X184447357Y-76977958D01*
X184501934Y-76934333D01*
X184571432Y-76927139D01*
X184633787Y-76958662D01*
X184650507Y-76977958D01*
X184780433Y-77163512D01*
X184780438Y-77163518D01*
X184947529Y-77330610D01*
X185065555Y-77413252D01*
X185109180Y-77467829D01*
X185118432Y-77514827D01*
X185118432Y-86390596D01*
X185098747Y-86457635D01*
X185082113Y-86478277D01*
X183390926Y-88169463D01*
X183329603Y-88202948D01*
X183271157Y-88201558D01*
X183254342Y-88197053D01*
X183018933Y-88176457D01*
X183018931Y-88176457D01*
X182783528Y-88197052D01*
X182783518Y-88197054D01*
X182555276Y-88258210D01*
X182555267Y-88258214D01*
X182341103Y-88358080D01*
X182341101Y-88358081D01*
X182147529Y-88493621D01*
X181980437Y-88660713D01*
X181844897Y-88854285D01*
X181844896Y-88854287D01*
X181745030Y-89068451D01*
X181745026Y-89068460D01*
X181683870Y-89296702D01*
X181683868Y-89296712D01*
X181663273Y-89532115D01*
X181663273Y-89532116D01*
X181683868Y-89767519D01*
X181683870Y-89767529D01*
X181745026Y-89995771D01*
X181745028Y-89995775D01*
X181745029Y-89995779D01*
X181844897Y-90209946D01*
X181844899Y-90209950D01*
X181953213Y-90364637D01*
X181980437Y-90403517D01*
X182147531Y-90570611D01*
X182244316Y-90638381D01*
X182341097Y-90706148D01*
X182341099Y-90706149D01*
X182341102Y-90706151D01*
X182555269Y-90806019D01*
X182783524Y-90867179D01*
X182971850Y-90883655D01*
X183018931Y-90887775D01*
X183018932Y-90887775D01*
X183018933Y-90887775D01*
X183058166Y-90884342D01*
X183254340Y-90867179D01*
X183482595Y-90806019D01*
X183696762Y-90706151D01*
X183890333Y-90570611D01*
X184057427Y-90403517D01*
X184192967Y-90209946D01*
X184292835Y-89995779D01*
X184353995Y-89767524D01*
X184374591Y-89532116D01*
X184353995Y-89296708D01*
X184349490Y-89279895D01*
X184351151Y-89210048D01*
X184381581Y-89160122D01*
X186363046Y-87178659D01*
X186439707Y-87063927D01*
X186492512Y-86936444D01*
X186519432Y-86801110D01*
X186519432Y-86663122D01*
X186519432Y-77514827D01*
X186539117Y-77447788D01*
X186572309Y-77413252D01*
X186613797Y-77384202D01*
X186690333Y-77330611D01*
X186857427Y-77163517D01*
X186987357Y-76977958D01*
X187041934Y-76934333D01*
X187111432Y-76927139D01*
X187173787Y-76958662D01*
X187190507Y-76977958D01*
X187320213Y-77163198D01*
X187320437Y-77163517D01*
X187487531Y-77330611D01*
X187564067Y-77384202D01*
X187681097Y-77466148D01*
X187681099Y-77466149D01*
X187681102Y-77466151D01*
X187895269Y-77566019D01*
X188123524Y-77627179D01*
X188294251Y-77642116D01*
X188358931Y-77647775D01*
X188358932Y-77647775D01*
X188358933Y-77647775D01*
X188423613Y-77642116D01*
X188594340Y-77627179D01*
X188822595Y-77566019D01*
X189036762Y-77466151D01*
X189230333Y-77330611D01*
X189397427Y-77163517D01*
X189527662Y-76977521D01*
X189582239Y-76933897D01*
X189651737Y-76926703D01*
X189714092Y-76958226D01*
X189730811Y-76977521D01*
X189860822Y-77163194D01*
X190027849Y-77330221D01*
X190221353Y-77465716D01*
X190435439Y-77565545D01*
X190435448Y-77565549D01*
X190648932Y-77622750D01*
X190648932Y-76725128D01*
X190705939Y-76758041D01*
X190833106Y-76792116D01*
X190964758Y-76792116D01*
X191091925Y-76758041D01*
X191148932Y-76725128D01*
X191148932Y-77622749D01*
X191362415Y-77565549D01*
X191362424Y-77565545D01*
X191576510Y-77465716D01*
X191770014Y-77330221D01*
X191937037Y-77163198D01*
X192067051Y-76977521D01*
X192121628Y-76933897D01*
X192191127Y-76926704D01*
X192253481Y-76958226D01*
X192270201Y-76977521D01*
X192400437Y-77163517D01*
X192567531Y-77330611D01*
X192644067Y-77384202D01*
X192761097Y-77466148D01*
X192761099Y-77466149D01*
X192761102Y-77466151D01*
X192975269Y-77566019D01*
X193203524Y-77627179D01*
X193374251Y-77642116D01*
X193438931Y-77647775D01*
X193438932Y-77647775D01*
X193438933Y-77647775D01*
X193503613Y-77642116D01*
X193674340Y-77627179D01*
X193902595Y-77566019D01*
X194116762Y-77466151D01*
X194310333Y-77330611D01*
X194477427Y-77163517D01*
X194607662Y-76977521D01*
X194662239Y-76933897D01*
X194731737Y-76926703D01*
X194794092Y-76958226D01*
X194810811Y-76977521D01*
X194940822Y-77163194D01*
X195107849Y-77330221D01*
X195301353Y-77465716D01*
X195515439Y-77565545D01*
X195515448Y-77565549D01*
X195728932Y-77622750D01*
X195728932Y-76725128D01*
X195785939Y-76758041D01*
X195913106Y-76792116D01*
X196044758Y-76792116D01*
X196171925Y-76758041D01*
X196228932Y-76725128D01*
X196228932Y-77622749D01*
X196442415Y-77565549D01*
X196442424Y-77565545D01*
X196656510Y-77465716D01*
X196850014Y-77330221D01*
X197017037Y-77163198D01*
X197147357Y-76977084D01*
X197201934Y-76933460D01*
X197271433Y-76926267D01*
X197333787Y-76957789D01*
X197350507Y-76977084D01*
X197480826Y-77163198D01*
X197647849Y-77330221D01*
X197841353Y-77465716D01*
X198055439Y-77565545D01*
X198055448Y-77565549D01*
X198268932Y-77622750D01*
X198268932Y-76725128D01*
X198325939Y-76758041D01*
X198453106Y-76792116D01*
X198584758Y-76792116D01*
X198711925Y-76758041D01*
X198768932Y-76725128D01*
X198768932Y-77622749D01*
X198982415Y-77565549D01*
X198982424Y-77565545D01*
X199196510Y-77465716D01*
X199390014Y-77330221D01*
X199557037Y-77163198D01*
X199687357Y-76977084D01*
X199741934Y-76933460D01*
X199811433Y-76926267D01*
X199873787Y-76957789D01*
X199890507Y-76977084D01*
X200020826Y-77163198D01*
X200187849Y-77330221D01*
X200381353Y-77465716D01*
X200595439Y-77565545D01*
X200595448Y-77565549D01*
X200808932Y-77622750D01*
X200808932Y-76725128D01*
X200865939Y-76758041D01*
X200993106Y-76792116D01*
X201124758Y-76792116D01*
X201251925Y-76758041D01*
X201308932Y-76725128D01*
X201308932Y-77622750D01*
X201522415Y-77565549D01*
X201522424Y-77565545D01*
X201736510Y-77465716D01*
X201930014Y-77330221D01*
X202097037Y-77163198D01*
X202227357Y-76977084D01*
X202281934Y-76933460D01*
X202351433Y-76926267D01*
X202413787Y-76957789D01*
X202430507Y-76977084D01*
X202560826Y-77163198D01*
X202727849Y-77330221D01*
X202921353Y-77465716D01*
X203135439Y-77565545D01*
X203135448Y-77565549D01*
X203348932Y-77622750D01*
X203348932Y-76725128D01*
X203405939Y-76758041D01*
X203533106Y-76792116D01*
X203664758Y-76792116D01*
X203791925Y-76758041D01*
X203848932Y-76725128D01*
X203848932Y-77622749D01*
X204062415Y-77565549D01*
X204062424Y-77565545D01*
X204276510Y-77465716D01*
X204470014Y-77330221D01*
X204637037Y-77163198D01*
X204767051Y-76977521D01*
X204821628Y-76933897D01*
X204891127Y-76926704D01*
X204953481Y-76958226D01*
X204970201Y-76977521D01*
X205100437Y-77163517D01*
X205267531Y-77330611D01*
X205344067Y-77384202D01*
X205461097Y-77466148D01*
X205461099Y-77466149D01*
X205461102Y-77466151D01*
X205675269Y-77566019D01*
X205903524Y-77627179D01*
X206074251Y-77642116D01*
X206138931Y-77647775D01*
X206138932Y-77647775D01*
X206138933Y-77647775D01*
X206203613Y-77642116D01*
X206374340Y-77627179D01*
X206602595Y-77566019D01*
X206816762Y-77466151D01*
X207010333Y-77330611D01*
X207177427Y-77163517D01*
X207307357Y-76977958D01*
X207361934Y-76934333D01*
X207431432Y-76927139D01*
X207493787Y-76958662D01*
X207510507Y-76977958D01*
X207640213Y-77163198D01*
X207640437Y-77163517D01*
X207807531Y-77330611D01*
X207884067Y-77384202D01*
X208001097Y-77466148D01*
X208001099Y-77466149D01*
X208001102Y-77466151D01*
X208215269Y-77566019D01*
X208443524Y-77627179D01*
X208614251Y-77642116D01*
X208678931Y-77647775D01*
X208678932Y-77647775D01*
X208678933Y-77647775D01*
X208743613Y-77642116D01*
X208914340Y-77627179D01*
X209142595Y-77566019D01*
X209356762Y-77466151D01*
X209550333Y-77330611D01*
X209717427Y-77163517D01*
X209847357Y-76977958D01*
X209901934Y-76934333D01*
X209971432Y-76927139D01*
X210033787Y-76958662D01*
X210050507Y-76977958D01*
X210180213Y-77163198D01*
X210180437Y-77163517D01*
X210347531Y-77330611D01*
X210424067Y-77384202D01*
X210541097Y-77466148D01*
X210541099Y-77466149D01*
X210541102Y-77466151D01*
X210755269Y-77566019D01*
X210983524Y-77627179D01*
X211154251Y-77642116D01*
X211218931Y-77647775D01*
X211218932Y-77647775D01*
X211218933Y-77647775D01*
X211283613Y-77642116D01*
X211454340Y-77627179D01*
X211682595Y-77566019D01*
X211896762Y-77466151D01*
X212090333Y-77330611D01*
X212257427Y-77163517D01*
X212387357Y-76977958D01*
X212441934Y-76934333D01*
X212511432Y-76927139D01*
X212573787Y-76958662D01*
X212590507Y-76977958D01*
X212720213Y-77163198D01*
X212720437Y-77163517D01*
X212887531Y-77330611D01*
X212964067Y-77384202D01*
X213081097Y-77466148D01*
X213081099Y-77466149D01*
X213081102Y-77466151D01*
X213295269Y-77566019D01*
X213523524Y-77627179D01*
X213694251Y-77642116D01*
X213758931Y-77647775D01*
X213758932Y-77647775D01*
X213758933Y-77647775D01*
X213823613Y-77642116D01*
X213994340Y-77627179D01*
X214222595Y-77566019D01*
X214436762Y-77466151D01*
X214630333Y-77330611D01*
X214797427Y-77163517D01*
X214927357Y-76977958D01*
X214981934Y-76934333D01*
X215051432Y-76927139D01*
X215113787Y-76958662D01*
X215130507Y-76977958D01*
X215260213Y-77163198D01*
X215260437Y-77163517D01*
X215427531Y-77330611D01*
X215504067Y-77384202D01*
X215621097Y-77466148D01*
X215621099Y-77466149D01*
X215621102Y-77466151D01*
X215835269Y-77566019D01*
X216063524Y-77627179D01*
X216234251Y-77642116D01*
X216298931Y-77647775D01*
X216298932Y-77647775D01*
X216298933Y-77647775D01*
X216363613Y-77642116D01*
X216534340Y-77627179D01*
X216762595Y-77566019D01*
X216976762Y-77466151D01*
X217170333Y-77330611D01*
X217337427Y-77163517D01*
X217467662Y-76977521D01*
X217522239Y-76933897D01*
X217591737Y-76926703D01*
X217654092Y-76958226D01*
X217670811Y-76977521D01*
X217800822Y-77163194D01*
X217967849Y-77330221D01*
X218161353Y-77465716D01*
X218375439Y-77565545D01*
X218375448Y-77565549D01*
X218588932Y-77622750D01*
X218588932Y-76725128D01*
X218645939Y-76758041D01*
X218773106Y-76792116D01*
X218904758Y-76792116D01*
X219031925Y-76758041D01*
X219088932Y-76725128D01*
X219088932Y-77622749D01*
X219302415Y-77565549D01*
X219302424Y-77565545D01*
X219516510Y-77465716D01*
X219710014Y-77330221D01*
X219877037Y-77163198D01*
X220012532Y-76969694D01*
X220112361Y-76755608D01*
X220112364Y-76755602D01*
X220169568Y-76542116D01*
X219271944Y-76542116D01*
X219304857Y-76485109D01*
X219338932Y-76357942D01*
X219338932Y-76226290D01*
X219304857Y-76099123D01*
X219271944Y-76042116D01*
X220169568Y-76042116D01*
X220169567Y-76042115D01*
X220112364Y-75828629D01*
X220112361Y-75828623D01*
X220012532Y-75614538D01*
X220012531Y-75614536D01*
X219877045Y-75421042D01*
X219877040Y-75421036D01*
X219710014Y-75254010D01*
X219516510Y-75118515D01*
X219302424Y-75018686D01*
X219302418Y-75018683D01*
X219088932Y-74961480D01*
X219088932Y-75859104D01*
X219031925Y-75826191D01*
X218904758Y-75792116D01*
X218773106Y-75792116D01*
X218645939Y-75826191D01*
X218588932Y-75859104D01*
X218588932Y-75044134D01*
X218608617Y-74977095D01*
X218625251Y-74956453D01*
X219316599Y-74265105D01*
X220816753Y-72764951D01*
X220878074Y-72731468D01*
X220947766Y-72736452D01*
X221003699Y-72778324D01*
X221028116Y-72843788D01*
X221028432Y-72852634D01*
X221028432Y-92829886D01*
X221008747Y-92896925D01*
X220992113Y-92917567D01*
X217204383Y-96705297D01*
X217143060Y-96738782D01*
X217116702Y-96741616D01*
X176086696Y-96741616D01*
X176019657Y-96721931D01*
X175999015Y-96705297D01*
X174587335Y-95293617D01*
X174553850Y-95232294D01*
X174551488Y-95195128D01*
X174561801Y-95077262D01*
X174570125Y-94982116D01*
X174549529Y-94746708D01*
X174488369Y-94518453D01*
X174388501Y-94304287D01*
X174380587Y-94292985D01*
X174252962Y-94110716D01*
X174252961Y-94110715D01*
X174130645Y-93988399D01*
X174097162Y-93927079D01*
X174102146Y-93857387D01*
X174144017Y-93801453D01*
X174174995Y-93784538D01*
X174306552Y-93735470D01*
X174306559Y-93735466D01*
X174421653Y-93649306D01*
X174421656Y-93649303D01*
X174507816Y-93534209D01*
X174507820Y-93534202D01*
X174558062Y-93399495D01*
X174558064Y-93399488D01*
X174564465Y-93339960D01*
X174564466Y-93339943D01*
X174564466Y-92692116D01*
X173647478Y-92692116D01*
X173680391Y-92635109D01*
X173714466Y-92507942D01*
X173714466Y-92376290D01*
X173680391Y-92249123D01*
X173647478Y-92192116D01*
X174564466Y-92192116D01*
X174564466Y-91822115D01*
X179148296Y-91822115D01*
X179148296Y-91822116D01*
X180045920Y-91822116D01*
X180013007Y-91879123D01*
X179978932Y-92006290D01*
X179978932Y-92137942D01*
X180013007Y-92265109D01*
X180045920Y-92322116D01*
X179148296Y-92322116D01*
X179205499Y-92535602D01*
X179205502Y-92535608D01*
X179305331Y-92749694D01*
X179440826Y-92943198D01*
X179607849Y-93110221D01*
X179801353Y-93245716D01*
X180015439Y-93345545D01*
X180015448Y-93345549D01*
X180228932Y-93402750D01*
X180228932Y-92505128D01*
X180285939Y-92538041D01*
X180413106Y-92572116D01*
X180544758Y-92572116D01*
X180671925Y-92538041D01*
X180728932Y-92505128D01*
X180728932Y-93402749D01*
X180942415Y-93345549D01*
X180942424Y-93345545D01*
X181156510Y-93245716D01*
X181350014Y-93110221D01*
X181517037Y-92943198D01*
X181652532Y-92749694D01*
X181752361Y-92535608D01*
X181752364Y-92535602D01*
X181809568Y-92322116D01*
X180911944Y-92322116D01*
X180944857Y-92265109D01*
X180978932Y-92137942D01*
X180978932Y-92006290D01*
X180944857Y-91879123D01*
X180911944Y-91822116D01*
X181809568Y-91822116D01*
X181809567Y-91822115D01*
X181752364Y-91608629D01*
X181752361Y-91608623D01*
X181652532Y-91394538D01*
X181652531Y-91394536D01*
X181517045Y-91201042D01*
X181517040Y-91201036D01*
X181350014Y-91034010D01*
X181156510Y-90898515D01*
X180942424Y-90798686D01*
X180942418Y-90798683D01*
X180728932Y-90741480D01*
X180728932Y-91639104D01*
X180671925Y-91606191D01*
X180544758Y-91572116D01*
X180413106Y-91572116D01*
X180285939Y-91606191D01*
X180228932Y-91639104D01*
X180228932Y-90741480D01*
X180228931Y-90741480D01*
X180015445Y-90798683D01*
X180015439Y-90798686D01*
X179801354Y-90898515D01*
X179801352Y-90898516D01*
X179607858Y-91034002D01*
X179607852Y-91034007D01*
X179440823Y-91201036D01*
X179440818Y-91201042D01*
X179305332Y-91394536D01*
X179305331Y-91394538D01*
X179205502Y-91608623D01*
X179205499Y-91608629D01*
X179148296Y-91822115D01*
X174564466Y-91822115D01*
X174564466Y-91544288D01*
X174564465Y-91544271D01*
X174558064Y-91484743D01*
X174558062Y-91484736D01*
X174507820Y-91350029D01*
X174507816Y-91350022D01*
X174421656Y-91234928D01*
X174421653Y-91234925D01*
X174306559Y-91148765D01*
X174306552Y-91148761D01*
X174171845Y-91098519D01*
X174171838Y-91098517D01*
X174112310Y-91092116D01*
X173464466Y-91092116D01*
X173464466Y-92009104D01*
X173407459Y-91976191D01*
X173280292Y-91942116D01*
X173148640Y-91942116D01*
X173021473Y-91976191D01*
X172964466Y-92009104D01*
X172964466Y-91092116D01*
X172316621Y-91092116D01*
X172257093Y-91098517D01*
X172257086Y-91098519D01*
X172122379Y-91148761D01*
X172122372Y-91148765D01*
X172007278Y-91234925D01*
X172007275Y-91234928D01*
X171921115Y-91350022D01*
X171921111Y-91350029D01*
X171870869Y-91484736D01*
X171870867Y-91484743D01*
X171864466Y-91544271D01*
X171864466Y-92271386D01*
X171844781Y-92338425D01*
X171791977Y-92384180D01*
X171722819Y-92394124D01*
X171659263Y-92365099D01*
X171652785Y-92359067D01*
X170365751Y-91072033D01*
X170332266Y-91010710D01*
X170329432Y-90984352D01*
X170329432Y-84939878D01*
X170349117Y-84872839D01*
X170365746Y-84852202D01*
X171660883Y-83557064D01*
X171722204Y-83523581D01*
X171791896Y-83528565D01*
X171847829Y-83570437D01*
X171872090Y-83633939D01*
X171879402Y-83717519D01*
X171879404Y-83717529D01*
X171940560Y-83945771D01*
X171940562Y-83945775D01*
X171940563Y-83945779D01*
X172012122Y-84099238D01*
X172040431Y-84159946D01*
X172040433Y-84159950D01*
X172175967Y-84353511D01*
X172175972Y-84353518D01*
X172343063Y-84520609D01*
X172343069Y-84520614D01*
X172528624Y-84650541D01*
X172572249Y-84705118D01*
X172579443Y-84774616D01*
X172547920Y-84836971D01*
X172528624Y-84853691D01*
X172343063Y-84983621D01*
X172175971Y-85150713D01*
X172040431Y-85344285D01*
X172040430Y-85344287D01*
X171940564Y-85558451D01*
X171940560Y-85558460D01*
X171879404Y-85786702D01*
X171879402Y-85786712D01*
X171858807Y-86022115D01*
X171858807Y-86022116D01*
X171879402Y-86257519D01*
X171879404Y-86257529D01*
X171940560Y-86485771D01*
X171940562Y-86485775D01*
X171940563Y-86485779D01*
X171960466Y-86528460D01*
X172040431Y-86699946D01*
X172040433Y-86699950D01*
X172080172Y-86756702D01*
X172175967Y-86893512D01*
X172175972Y-86893518D01*
X172298284Y-87015830D01*
X172331769Y-87077153D01*
X172326785Y-87146845D01*
X172284913Y-87202778D01*
X172253937Y-87219693D01*
X172122378Y-87268762D01*
X172122372Y-87268765D01*
X172007278Y-87354925D01*
X172007275Y-87354928D01*
X171921115Y-87470022D01*
X171921111Y-87470029D01*
X171870869Y-87604736D01*
X171870867Y-87604743D01*
X171864466Y-87664271D01*
X171864466Y-88312116D01*
X172781454Y-88312116D01*
X172748541Y-88369123D01*
X172714466Y-88496290D01*
X172714466Y-88627942D01*
X172748541Y-88755109D01*
X172781454Y-88812116D01*
X171864466Y-88812116D01*
X171864466Y-89459960D01*
X171870867Y-89519488D01*
X171870869Y-89519495D01*
X171921111Y-89654202D01*
X171921115Y-89654209D01*
X172007275Y-89769303D01*
X172007278Y-89769306D01*
X172122372Y-89855466D01*
X172122379Y-89855470D01*
X172257086Y-89905712D01*
X172257093Y-89905714D01*
X172316621Y-89912115D01*
X172316638Y-89912116D01*
X172964466Y-89912116D01*
X172964466Y-88995128D01*
X173021473Y-89028041D01*
X173148640Y-89062116D01*
X173280292Y-89062116D01*
X173407459Y-89028041D01*
X173464466Y-88995128D01*
X173464466Y-89912116D01*
X174112294Y-89912116D01*
X174112310Y-89912115D01*
X174171838Y-89905714D01*
X174171845Y-89905712D01*
X174306552Y-89855470D01*
X174306559Y-89855466D01*
X174421653Y-89769306D01*
X174421656Y-89769303D01*
X174507816Y-89654209D01*
X174507820Y-89654202D01*
X174558062Y-89519495D01*
X174558064Y-89519488D01*
X174564465Y-89459960D01*
X174564466Y-89459943D01*
X174564466Y-88812116D01*
X173647478Y-88812116D01*
X173680391Y-88755109D01*
X173714466Y-88627942D01*
X173714466Y-88496290D01*
X173680391Y-88369123D01*
X173647478Y-88312116D01*
X174564466Y-88312116D01*
X174564466Y-87664288D01*
X174564465Y-87664271D01*
X174558064Y-87604743D01*
X174558062Y-87604736D01*
X174507820Y-87470029D01*
X174507816Y-87470022D01*
X174421656Y-87354928D01*
X174421653Y-87354925D01*
X174306559Y-87268765D01*
X174306554Y-87268762D01*
X174174994Y-87219693D01*
X174119061Y-87177821D01*
X174094644Y-87112357D01*
X174109496Y-87044084D01*
X174130641Y-87015836D01*
X174252961Y-86893517D01*
X174388501Y-86699946D01*
X174488369Y-86485779D01*
X174549529Y-86257524D01*
X174570125Y-86022116D01*
X174549529Y-85786708D01*
X174488369Y-85558453D01*
X174388501Y-85344287D01*
X174252961Y-85150715D01*
X174252960Y-85150713D01*
X174085868Y-84983622D01*
X174085862Y-84983617D01*
X173900308Y-84853691D01*
X173856683Y-84799114D01*
X173849489Y-84729616D01*
X173881012Y-84667261D01*
X173900308Y-84650541D01*
X173922492Y-84635007D01*
X174085867Y-84520611D01*
X174252961Y-84353517D01*
X174388501Y-84159946D01*
X174488369Y-83945779D01*
X174549529Y-83717524D01*
X174570125Y-83482116D01*
X174549529Y-83246708D01*
X174488369Y-83018453D01*
X174388501Y-82804287D01*
X174252961Y-82610715D01*
X174252960Y-82610713D01*
X174085868Y-82443622D01*
X174085862Y-82443617D01*
X173900308Y-82313691D01*
X173856683Y-82259114D01*
X173849489Y-82189616D01*
X173881012Y-82127261D01*
X173900308Y-82110541D01*
X173922492Y-82095007D01*
X174085867Y-81980611D01*
X174252961Y-81813517D01*
X174388501Y-81619946D01*
X174488369Y-81405779D01*
X174549529Y-81177524D01*
X174570125Y-80942116D01*
X174549529Y-80706708D01*
X174488369Y-80478453D01*
X174388501Y-80264287D01*
X174252961Y-80070715D01*
X174252960Y-80070713D01*
X174085868Y-79903622D01*
X174085861Y-79903617D01*
X173892300Y-79768083D01*
X173892296Y-79768081D01*
X173892294Y-79768080D01*
X173678129Y-79668213D01*
X173678125Y-79668212D01*
X173678121Y-79668210D01*
X173449879Y-79607054D01*
X173449869Y-79607052D01*
X173214467Y-79586457D01*
X173214465Y-79586457D01*
X172979062Y-79607052D01*
X172979052Y-79607054D01*
X172750810Y-79668210D01*
X172750801Y-79668214D01*
X172536637Y-79768080D01*
X172536635Y-79768081D01*
X172343063Y-79903621D01*
X172175971Y-80070713D01*
X172040431Y-80264285D01*
X172040430Y-80264287D01*
X171940564Y-80478451D01*
X171940560Y-80478460D01*
X171879404Y-80706702D01*
X171879402Y-80706712D01*
X171858807Y-80942115D01*
X171858807Y-80942117D01*
X171877443Y-81155129D01*
X171863676Y-81223629D01*
X171841596Y-81253617D01*
X168995982Y-84099230D01*
X168995976Y-84099238D01*
X168946744Y-84172918D01*
X168946745Y-84172919D01*
X168913853Y-84222146D01*
X168913846Y-84222158D01*
X168857274Y-84358736D01*
X168857272Y-84358742D01*
X168828432Y-84503729D01*
X168828432Y-84503732D01*
X168828432Y-91420500D01*
X168828432Y-91420502D01*
X168828431Y-91420502D01*
X168857272Y-91565489D01*
X168857275Y-91565499D01*
X168913846Y-91702074D01*
X168946744Y-91751309D01*
X168946745Y-91751312D01*
X168995978Y-91824996D01*
X168995984Y-91825003D01*
X171841596Y-94670613D01*
X171875081Y-94731936D01*
X171877443Y-94769101D01*
X171858807Y-94982113D01*
X171858807Y-94982116D01*
X171879402Y-95217519D01*
X171879404Y-95217529D01*
X171940560Y-95445771D01*
X171940562Y-95445775D01*
X171940563Y-95445779D01*
X171951965Y-95470230D01*
X172040431Y-95659946D01*
X172040433Y-95659950D01*
X172148747Y-95814637D01*
X172175971Y-95853517D01*
X172343065Y-96020611D01*
X172439850Y-96088381D01*
X172536631Y-96156148D01*
X172536633Y-96156149D01*
X172536636Y-96156151D01*
X172750803Y-96256019D01*
X172979058Y-96317179D01*
X173167384Y-96333655D01*
X173214465Y-96337775D01*
X173214466Y-96337775D01*
X173214467Y-96337775D01*
X173249750Y-96334687D01*
X173427479Y-96319138D01*
X173495978Y-96332904D01*
X173525967Y-96354985D01*
X175246052Y-98075070D01*
X175275524Y-98094761D01*
X175319736Y-98124302D01*
X175368971Y-98157200D01*
X175368972Y-98157200D01*
X175368973Y-98157201D01*
X175368975Y-98157202D01*
X175501560Y-98212120D01*
X175505553Y-98213774D01*
X175505557Y-98213774D01*
X175505558Y-98213775D01*
X175650545Y-98242616D01*
X175650548Y-98242616D01*
X217552852Y-98242616D01*
X217650394Y-98223212D01*
X217697845Y-98213774D01*
X217834427Y-98157200D01*
X217883661Y-98124302D01*
X217883666Y-98124299D01*
X217908003Y-98108037D01*
X217957348Y-98075068D01*
X220157213Y-95875201D01*
X222352285Y-93680131D01*
X222413608Y-93646646D01*
X222483300Y-93651630D01*
X222539233Y-93693502D01*
X222563650Y-93758966D01*
X222563966Y-93767812D01*
X222563966Y-93889408D01*
X222563848Y-93894817D01*
X222546698Y-94287577D01*
X222545755Y-94298354D01*
X222494794Y-94685432D01*
X222492916Y-94696085D01*
X222408409Y-95077262D01*
X222405609Y-95087711D01*
X222288205Y-95460065D01*
X222284505Y-95470230D01*
X222135094Y-95830936D01*
X222130522Y-95840740D01*
X221950245Y-96187046D01*
X221944836Y-96196415D01*
X221735056Y-96525700D01*
X221728851Y-96534561D01*
X221491180Y-96844297D01*
X221484227Y-96852584D01*
X221220454Y-97140438D01*
X221212805Y-97148087D01*
X220924949Y-97411856D01*
X220916662Y-97418809D01*
X220606924Y-97656477D01*
X220598062Y-97662682D01*
X220268775Y-97872458D01*
X220259407Y-97877867D01*
X219913090Y-98058146D01*
X219903286Y-98062717D01*
X219542588Y-98212120D01*
X219532423Y-98215820D01*
X219160068Y-98333221D01*
X219149619Y-98336021D01*
X218768440Y-98420524D01*
X218757786Y-98422402D01*
X218370710Y-98473358D01*
X218359934Y-98474301D01*
X217966020Y-98491498D01*
X217960612Y-98491616D01*
X172967165Y-98491616D01*
X172961758Y-98491498D01*
X172949997Y-98490984D01*
X172568992Y-98474353D01*
X172558216Y-98473410D01*
X172202934Y-98426641D01*
X172171132Y-98422454D01*
X172160484Y-98420577D01*
X171779300Y-98336074D01*
X171768853Y-98333275D01*
X171396499Y-98215876D01*
X171386333Y-98212176D01*
X171025626Y-98062768D01*
X171015821Y-98058196D01*
X170669512Y-97877920D01*
X170660144Y-97872512D01*
X170330851Y-97662731D01*
X170321990Y-97656526D01*
X170012244Y-97418850D01*
X170003957Y-97411896D01*
X169716113Y-97148135D01*
X169708469Y-97140492D01*
X169586285Y-97007151D01*
X169444687Y-96852622D01*
X169437734Y-96844335D01*
X169295464Y-96658925D01*
X169200055Y-96534585D01*
X169193858Y-96525734D01*
X168984081Y-96196445D01*
X168978672Y-96187077D01*
X168978656Y-96187046D01*
X168798391Y-95840753D01*
X168793833Y-95830979D01*
X168644408Y-95470227D01*
X168640720Y-95460089D01*
X168523320Y-95087730D01*
X168520520Y-95077281D01*
X168436020Y-94696101D01*
X168434142Y-94685448D01*
X168383187Y-94298367D01*
X168382244Y-94287590D01*
X168367285Y-93944843D01*
X168365083Y-93894409D01*
X168364966Y-93889010D01*
X168364967Y-93834540D01*
X168364966Y-93834536D01*
X168364966Y-59696058D01*
X185046734Y-59696058D01*
X185048378Y-59716968D01*
X185093492Y-59872253D01*
X185175802Y-60011432D01*
X185175809Y-60011441D01*
X185290140Y-60125772D01*
X185290149Y-60125779D01*
X185429328Y-60208089D01*
X185575524Y-60250562D01*
X185575524Y-59696058D01*
X185046734Y-59696058D01*
X168364966Y-59696058D01*
X168364966Y-58427640D01*
X183660525Y-58427640D01*
X183666932Y-58498160D01*
X183666933Y-58498165D01*
X183717505Y-58660454D01*
X183805451Y-58805935D01*
X183925646Y-58926130D01*
X184071128Y-59014077D01*
X184071127Y-59014077D01*
X184233418Y-59064648D01*
X184233416Y-59064648D01*
X184303942Y-59071057D01*
X184385523Y-59071056D01*
X184385524Y-59071056D01*
X184385524Y-58421058D01*
X183660525Y-58421058D01*
X183660525Y-58427640D01*
X168364966Y-58427640D01*
X168364966Y-53340942D01*
X183430524Y-53340942D01*
X183430524Y-53981592D01*
X183980524Y-53981592D01*
X183980524Y-52759295D01*
X183978027Y-52759492D01*
X183820330Y-52805308D01*
X183820327Y-52805309D01*
X183678971Y-52888906D01*
X183678962Y-52888913D01*
X183562845Y-53005030D01*
X183562838Y-53005039D01*
X183479241Y-53146395D01*
X183479240Y-53146398D01*
X183433424Y-53304096D01*
X183433423Y-53304102D01*
X183430524Y-53340942D01*
X168364966Y-53340942D01*
X168364966Y-33894814D01*
X168365084Y-33889406D01*
X168368720Y-33806124D01*
X168382231Y-33496625D01*
X168383171Y-33485891D01*
X168403155Y-33334091D01*
X171894331Y-33334091D01*
X171894331Y-33334092D01*
X171914926Y-33569495D01*
X171914928Y-33569505D01*
X171976084Y-33797747D01*
X171976086Y-33797751D01*
X171976087Y-33797755D01*
X172055791Y-33968680D01*
X172075955Y-34011922D01*
X172075957Y-34011926D01*
X172184271Y-34166613D01*
X172211495Y-34205493D01*
X172378589Y-34372587D01*
X172475374Y-34440357D01*
X172572155Y-34508124D01*
X172572157Y-34508125D01*
X172572160Y-34508127D01*
X172786327Y-34607995D01*
X173014582Y-34669155D01*
X173191024Y-34684592D01*
X173249989Y-34689751D01*
X173249990Y-34689751D01*
X173249991Y-34689751D01*
X173308956Y-34684592D01*
X173485398Y-34669155D01*
X173713653Y-34607995D01*
X173927820Y-34508127D01*
X174121391Y-34372587D01*
X174288485Y-34205493D01*
X174418415Y-34019934D01*
X174472992Y-33976309D01*
X174542490Y-33969115D01*
X174604845Y-34000638D01*
X174621565Y-34019934D01*
X174751490Y-34205487D01*
X174751495Y-34205493D01*
X174918589Y-34372587D01*
X175015374Y-34440357D01*
X175112155Y-34508124D01*
X175112157Y-34508125D01*
X175112160Y-34508127D01*
X175326327Y-34607995D01*
X175554582Y-34669155D01*
X175731024Y-34684592D01*
X175789989Y-34689751D01*
X175789990Y-34689751D01*
X175789991Y-34689751D01*
X175848956Y-34684592D01*
X176025398Y-34669155D01*
X176253653Y-34607995D01*
X176467820Y-34508127D01*
X176661391Y-34372587D01*
X176828485Y-34205493D01*
X176958415Y-34019934D01*
X177012992Y-33976309D01*
X177082490Y-33969115D01*
X177144845Y-34000638D01*
X177161565Y-34019934D01*
X177291490Y-34205487D01*
X177291495Y-34205493D01*
X177458589Y-34372587D01*
X177555374Y-34440357D01*
X177652155Y-34508124D01*
X177652157Y-34508125D01*
X177652160Y-34508127D01*
X177866327Y-34607995D01*
X178094582Y-34669155D01*
X178271024Y-34684592D01*
X178329989Y-34689751D01*
X178329990Y-34689751D01*
X178329991Y-34689751D01*
X178388956Y-34684592D01*
X178565398Y-34669155D01*
X178793653Y-34607995D01*
X179007820Y-34508127D01*
X179201391Y-34372587D01*
X179368485Y-34205493D01*
X179498415Y-34019934D01*
X179552992Y-33976309D01*
X179622490Y-33969115D01*
X179684845Y-34000638D01*
X179701565Y-34019934D01*
X179831490Y-34205487D01*
X179831495Y-34205493D01*
X179998589Y-34372587D01*
X180095374Y-34440357D01*
X180192155Y-34508124D01*
X180192157Y-34508125D01*
X180192160Y-34508127D01*
X180406327Y-34607995D01*
X180634582Y-34669155D01*
X180811024Y-34684592D01*
X180869989Y-34689751D01*
X180869990Y-34689751D01*
X180869991Y-34689751D01*
X180928956Y-34684592D01*
X181105398Y-34669155D01*
X181333653Y-34607995D01*
X181547820Y-34508127D01*
X181741391Y-34372587D01*
X181908485Y-34205493D01*
X182038415Y-34019934D01*
X182092992Y-33976309D01*
X182162490Y-33969115D01*
X182224845Y-34000638D01*
X182241565Y-34019934D01*
X182371490Y-34205487D01*
X182371495Y-34205493D01*
X182538589Y-34372587D01*
X182635374Y-34440357D01*
X182732155Y-34508124D01*
X182732157Y-34508125D01*
X182732160Y-34508127D01*
X182946327Y-34607995D01*
X183174582Y-34669155D01*
X183351024Y-34684592D01*
X183409989Y-34689751D01*
X183409990Y-34689751D01*
X183409991Y-34689751D01*
X183468956Y-34684592D01*
X183645398Y-34669155D01*
X183873653Y-34607995D01*
X184087820Y-34508127D01*
X184281391Y-34372587D01*
X184448485Y-34205493D01*
X184578720Y-34019497D01*
X184633297Y-33975873D01*
X184702795Y-33968679D01*
X184765150Y-34000202D01*
X184781869Y-34019497D01*
X184911880Y-34205170D01*
X185078907Y-34372197D01*
X185272411Y-34507692D01*
X185486497Y-34607521D01*
X185486506Y-34607525D01*
X185699990Y-34664726D01*
X185699990Y-33767104D01*
X185756997Y-33800017D01*
X185884164Y-33834092D01*
X186015816Y-33834092D01*
X186142983Y-33800017D01*
X186199990Y-33767104D01*
X186199990Y-34664725D01*
X186413473Y-34607525D01*
X186413482Y-34607521D01*
X186627568Y-34507692D01*
X186821072Y-34372197D01*
X186988095Y-34205174D01*
X187118109Y-34019497D01*
X187172686Y-33975873D01*
X187242185Y-33968680D01*
X187304539Y-34000202D01*
X187321259Y-34019497D01*
X187451495Y-34205493D01*
X187618589Y-34372587D01*
X187715374Y-34440357D01*
X187812155Y-34508124D01*
X187812157Y-34508125D01*
X187812160Y-34508127D01*
X188026327Y-34607995D01*
X188254582Y-34669155D01*
X188431024Y-34684592D01*
X188489989Y-34689751D01*
X188489990Y-34689751D01*
X188489991Y-34689751D01*
X188548956Y-34684592D01*
X188725398Y-34669155D01*
X188953653Y-34607995D01*
X189167820Y-34508127D01*
X189361391Y-34372587D01*
X189528485Y-34205493D01*
X189658415Y-34019934D01*
X189712992Y-33976309D01*
X189782490Y-33969115D01*
X189844845Y-34000638D01*
X189861565Y-34019934D01*
X189991490Y-34205487D01*
X189991495Y-34205493D01*
X190158589Y-34372587D01*
X190255374Y-34440357D01*
X190352155Y-34508124D01*
X190352157Y-34508125D01*
X190352160Y-34508127D01*
X190566327Y-34607995D01*
X190794582Y-34669155D01*
X190971024Y-34684592D01*
X191029989Y-34689751D01*
X191029990Y-34689751D01*
X191029991Y-34689751D01*
X191088956Y-34684592D01*
X191265398Y-34669155D01*
X191493653Y-34607995D01*
X191707820Y-34508127D01*
X191901391Y-34372587D01*
X192068485Y-34205493D01*
X192198415Y-34019934D01*
X192252992Y-33976309D01*
X192322490Y-33969115D01*
X192384845Y-34000638D01*
X192401565Y-34019934D01*
X192531490Y-34205487D01*
X192531495Y-34205493D01*
X192698589Y-34372587D01*
X192795374Y-34440357D01*
X192892155Y-34508124D01*
X192892157Y-34508125D01*
X192892160Y-34508127D01*
X193106327Y-34607995D01*
X193334582Y-34669155D01*
X193511024Y-34684592D01*
X193569989Y-34689751D01*
X193569990Y-34689751D01*
X193569991Y-34689751D01*
X193628956Y-34684592D01*
X193805398Y-34669155D01*
X194033653Y-34607995D01*
X194247820Y-34508127D01*
X194441391Y-34372587D01*
X194608485Y-34205493D01*
X194738415Y-34019934D01*
X194792992Y-33976309D01*
X194862490Y-33969115D01*
X194924845Y-34000638D01*
X194941565Y-34019934D01*
X195071490Y-34205487D01*
X195071495Y-34205493D01*
X195238589Y-34372587D01*
X195335374Y-34440357D01*
X195432155Y-34508124D01*
X195432157Y-34508125D01*
X195432160Y-34508127D01*
X195646327Y-34607995D01*
X195874582Y-34669155D01*
X196051024Y-34684592D01*
X196109989Y-34689751D01*
X196109990Y-34689751D01*
X196109991Y-34689751D01*
X196168956Y-34684592D01*
X196345398Y-34669155D01*
X196573653Y-34607995D01*
X196787820Y-34508127D01*
X196981391Y-34372587D01*
X197148485Y-34205493D01*
X197278415Y-34019934D01*
X197332992Y-33976309D01*
X197402490Y-33969115D01*
X197464845Y-34000638D01*
X197481565Y-34019934D01*
X197611490Y-34205487D01*
X197611495Y-34205493D01*
X197778589Y-34372587D01*
X197875374Y-34440357D01*
X197972155Y-34508124D01*
X197972157Y-34508125D01*
X197972160Y-34508127D01*
X198186327Y-34607995D01*
X198414582Y-34669155D01*
X198591024Y-34684592D01*
X198649989Y-34689751D01*
X198649990Y-34689751D01*
X198649991Y-34689751D01*
X198708956Y-34684592D01*
X198885398Y-34669155D01*
X199113653Y-34607995D01*
X199327820Y-34508127D01*
X199521391Y-34372587D01*
X199688485Y-34205493D01*
X199818415Y-34019934D01*
X199872992Y-33976309D01*
X199942490Y-33969115D01*
X200004845Y-34000638D01*
X200021565Y-34019934D01*
X200151490Y-34205487D01*
X200151495Y-34205493D01*
X200318589Y-34372587D01*
X200415374Y-34440357D01*
X200512155Y-34508124D01*
X200512157Y-34508125D01*
X200512160Y-34508127D01*
X200726327Y-34607995D01*
X200954582Y-34669155D01*
X201131024Y-34684592D01*
X201189989Y-34689751D01*
X201189990Y-34689751D01*
X201189991Y-34689751D01*
X201248956Y-34684592D01*
X201425398Y-34669155D01*
X201653653Y-34607995D01*
X201867820Y-34508127D01*
X202061391Y-34372587D01*
X202228485Y-34205493D01*
X202358415Y-34019934D01*
X202412992Y-33976309D01*
X202482490Y-33969115D01*
X202544845Y-34000638D01*
X202561565Y-34019934D01*
X202691490Y-34205487D01*
X202691495Y-34205493D01*
X202858589Y-34372587D01*
X202955374Y-34440357D01*
X203052155Y-34508124D01*
X203052157Y-34508125D01*
X203052160Y-34508127D01*
X203266327Y-34607995D01*
X203494582Y-34669155D01*
X203671024Y-34684592D01*
X203729989Y-34689751D01*
X203729990Y-34689751D01*
X203729991Y-34689751D01*
X203788956Y-34684592D01*
X203965398Y-34669155D01*
X204193653Y-34607995D01*
X204407820Y-34508127D01*
X204601391Y-34372587D01*
X204768485Y-34205493D01*
X204898415Y-34019934D01*
X204952992Y-33976309D01*
X205022490Y-33969115D01*
X205084845Y-34000638D01*
X205101565Y-34019934D01*
X205231490Y-34205487D01*
X205231495Y-34205493D01*
X205398589Y-34372587D01*
X205495374Y-34440357D01*
X205592155Y-34508124D01*
X205592157Y-34508125D01*
X205592160Y-34508127D01*
X205806327Y-34607995D01*
X206034582Y-34669155D01*
X206211024Y-34684592D01*
X206269989Y-34689751D01*
X206269990Y-34689751D01*
X206269991Y-34689751D01*
X206328956Y-34684592D01*
X206505398Y-34669155D01*
X206733653Y-34607995D01*
X206947820Y-34508127D01*
X207141391Y-34372587D01*
X207308485Y-34205493D01*
X207438415Y-34019934D01*
X207492992Y-33976309D01*
X207562490Y-33969115D01*
X207624845Y-34000638D01*
X207641565Y-34019934D01*
X207771490Y-34205487D01*
X207771495Y-34205493D01*
X207938589Y-34372587D01*
X208035374Y-34440357D01*
X208132155Y-34508124D01*
X208132157Y-34508125D01*
X208132160Y-34508127D01*
X208346327Y-34607995D01*
X208574582Y-34669155D01*
X208751024Y-34684592D01*
X208809989Y-34689751D01*
X208809990Y-34689751D01*
X208809991Y-34689751D01*
X208868956Y-34684592D01*
X209045398Y-34669155D01*
X209273653Y-34607995D01*
X209487820Y-34508127D01*
X209681391Y-34372587D01*
X209848485Y-34205493D01*
X209978415Y-34019934D01*
X210032992Y-33976309D01*
X210102490Y-33969115D01*
X210164845Y-34000638D01*
X210181565Y-34019934D01*
X210311490Y-34205487D01*
X210311495Y-34205493D01*
X210478589Y-34372587D01*
X210575374Y-34440357D01*
X210672155Y-34508124D01*
X210672157Y-34508125D01*
X210672160Y-34508127D01*
X210886327Y-34607995D01*
X211114582Y-34669155D01*
X211291024Y-34684592D01*
X211349989Y-34689751D01*
X211349990Y-34689751D01*
X211349991Y-34689751D01*
X211408956Y-34684592D01*
X211585398Y-34669155D01*
X211813653Y-34607995D01*
X212027820Y-34508127D01*
X212221391Y-34372587D01*
X212388485Y-34205493D01*
X212518415Y-34019934D01*
X212572992Y-33976309D01*
X212642490Y-33969115D01*
X212704845Y-34000638D01*
X212721565Y-34019934D01*
X212851490Y-34205487D01*
X212851495Y-34205493D01*
X213018589Y-34372587D01*
X213115374Y-34440357D01*
X213212155Y-34508124D01*
X213212157Y-34508125D01*
X213212160Y-34508127D01*
X213426327Y-34607995D01*
X213654582Y-34669155D01*
X213831024Y-34684592D01*
X213889989Y-34689751D01*
X213889990Y-34689751D01*
X213889991Y-34689751D01*
X213948956Y-34684592D01*
X214125398Y-34669155D01*
X214353653Y-34607995D01*
X214567820Y-34508127D01*
X214761391Y-34372587D01*
X214928485Y-34205493D01*
X215058415Y-34019934D01*
X215112992Y-33976309D01*
X215182490Y-33969115D01*
X215244845Y-34000638D01*
X215261565Y-34019934D01*
X215391490Y-34205487D01*
X215391495Y-34205493D01*
X215558589Y-34372587D01*
X215655374Y-34440357D01*
X215752155Y-34508124D01*
X215752157Y-34508125D01*
X215752160Y-34508127D01*
X215966327Y-34607995D01*
X216194582Y-34669155D01*
X216371024Y-34684592D01*
X216429989Y-34689751D01*
X216429990Y-34689751D01*
X216429991Y-34689751D01*
X216488956Y-34684592D01*
X216665398Y-34669155D01*
X216893653Y-34607995D01*
X217107820Y-34508127D01*
X217301391Y-34372587D01*
X217423319Y-34250658D01*
X217484638Y-34217176D01*
X217554330Y-34222160D01*
X217610264Y-34264031D01*
X217627179Y-34295009D01*
X217676192Y-34426420D01*
X217676196Y-34426427D01*
X217762442Y-34541636D01*
X217762445Y-34541639D01*
X217877654Y-34627885D01*
X217877661Y-34627889D01*
X218012507Y-34678183D01*
X218012506Y-34678183D01*
X218019434Y-34678927D01*
X218072117Y-34684592D01*
X219867862Y-34684591D01*
X219927473Y-34678183D01*
X220062321Y-34627888D01*
X220177536Y-34541638D01*
X220263786Y-34426423D01*
X220314081Y-34291575D01*
X220320490Y-34231965D01*
X220320489Y-32436220D01*
X220314081Y-32376609D01*
X220312800Y-32373175D01*
X220263787Y-32241763D01*
X220263783Y-32241756D01*
X220177537Y-32126547D01*
X220177534Y-32126544D01*
X220062325Y-32040298D01*
X220062318Y-32040294D01*
X219927472Y-31990000D01*
X219927473Y-31990000D01*
X219867873Y-31983593D01*
X219867871Y-31983592D01*
X219867863Y-31983592D01*
X219867854Y-31983592D01*
X218072119Y-31983592D01*
X218072113Y-31983593D01*
X218012506Y-31990000D01*
X217877661Y-32040294D01*
X217877654Y-32040298D01*
X217762445Y-32126544D01*
X217762442Y-32126547D01*
X217676196Y-32241756D01*
X217676193Y-32241761D01*
X217627179Y-32373175D01*
X217585307Y-32429108D01*
X217519843Y-32453525D01*
X217451570Y-32438673D01*
X217423316Y-32417522D01*
X217301392Y-32295598D01*
X217301385Y-32295593D01*
X217107824Y-32160059D01*
X217107820Y-32160057D01*
X217107818Y-32160056D01*
X216893653Y-32060189D01*
X216893649Y-32060188D01*
X216893645Y-32060186D01*
X216665403Y-31999030D01*
X216665393Y-31999028D01*
X216429991Y-31978433D01*
X216429989Y-31978433D01*
X216194586Y-31999028D01*
X216194576Y-31999030D01*
X215966334Y-32060186D01*
X215966325Y-32060190D01*
X215752161Y-32160056D01*
X215752159Y-32160057D01*
X215558587Y-32295597D01*
X215391495Y-32462689D01*
X215261565Y-32648250D01*
X215206988Y-32691875D01*
X215137490Y-32699069D01*
X215075135Y-32667546D01*
X215058415Y-32648250D01*
X214928484Y-32462689D01*
X214761392Y-32295598D01*
X214761385Y-32295593D01*
X214567824Y-32160059D01*
X214567820Y-32160057D01*
X214567818Y-32160056D01*
X214353653Y-32060189D01*
X214353649Y-32060188D01*
X214353645Y-32060186D01*
X214125403Y-31999030D01*
X214125393Y-31999028D01*
X213889991Y-31978433D01*
X213889989Y-31978433D01*
X213654586Y-31999028D01*
X213654576Y-31999030D01*
X213426334Y-32060186D01*
X213426325Y-32060190D01*
X213212161Y-32160056D01*
X213212159Y-32160057D01*
X213018587Y-32295597D01*
X212851495Y-32462689D01*
X212721565Y-32648250D01*
X212666988Y-32691875D01*
X212597490Y-32699069D01*
X212535135Y-32667546D01*
X212518415Y-32648250D01*
X212388484Y-32462689D01*
X212221392Y-32295598D01*
X212221385Y-32295593D01*
X212027824Y-32160059D01*
X212027820Y-32160057D01*
X212027818Y-32160056D01*
X211813653Y-32060189D01*
X211813649Y-32060188D01*
X211813645Y-32060186D01*
X211585403Y-31999030D01*
X211585393Y-31999028D01*
X211349991Y-31978433D01*
X211349989Y-31978433D01*
X211114586Y-31999028D01*
X211114576Y-31999030D01*
X210886334Y-32060186D01*
X210886325Y-32060190D01*
X210672161Y-32160056D01*
X210672159Y-32160057D01*
X210478587Y-32295597D01*
X210311495Y-32462689D01*
X210181565Y-32648250D01*
X210126988Y-32691875D01*
X210057490Y-32699069D01*
X209995135Y-32667546D01*
X209978415Y-32648250D01*
X209848484Y-32462689D01*
X209681392Y-32295598D01*
X209681385Y-32295593D01*
X209487824Y-32160059D01*
X209487820Y-32160057D01*
X209487818Y-32160056D01*
X209273653Y-32060189D01*
X209273649Y-32060188D01*
X209273645Y-32060186D01*
X209045403Y-31999030D01*
X209045393Y-31999028D01*
X208809991Y-31978433D01*
X208809989Y-31978433D01*
X208574586Y-31999028D01*
X208574576Y-31999030D01*
X208346334Y-32060186D01*
X208346325Y-32060190D01*
X208132161Y-32160056D01*
X208132159Y-32160057D01*
X207938587Y-32295597D01*
X207771495Y-32462689D01*
X207641565Y-32648250D01*
X207586988Y-32691875D01*
X207517490Y-32699069D01*
X207455135Y-32667546D01*
X207438415Y-32648250D01*
X207308484Y-32462689D01*
X207141392Y-32295598D01*
X207141385Y-32295593D01*
X206947824Y-32160059D01*
X206947820Y-32160057D01*
X206947818Y-32160056D01*
X206733653Y-32060189D01*
X206733649Y-32060188D01*
X206733645Y-32060186D01*
X206505403Y-31999030D01*
X206505393Y-31999028D01*
X206269991Y-31978433D01*
X206269989Y-31978433D01*
X206034586Y-31999028D01*
X206034576Y-31999030D01*
X205806334Y-32060186D01*
X205806325Y-32060190D01*
X205592161Y-32160056D01*
X205592159Y-32160057D01*
X205398587Y-32295597D01*
X205231495Y-32462689D01*
X205101565Y-32648250D01*
X205046988Y-32691875D01*
X204977490Y-32699069D01*
X204915135Y-32667546D01*
X204898415Y-32648250D01*
X204768484Y-32462689D01*
X204601392Y-32295598D01*
X204601385Y-32295593D01*
X204407824Y-32160059D01*
X204407820Y-32160057D01*
X204407818Y-32160056D01*
X204193653Y-32060189D01*
X204193649Y-32060188D01*
X204193645Y-32060186D01*
X203965403Y-31999030D01*
X203965393Y-31999028D01*
X203729991Y-31978433D01*
X203729989Y-31978433D01*
X203494586Y-31999028D01*
X203494576Y-31999030D01*
X203266334Y-32060186D01*
X203266325Y-32060190D01*
X203052161Y-32160056D01*
X203052159Y-32160057D01*
X202858587Y-32295597D01*
X202691495Y-32462689D01*
X202561565Y-32648250D01*
X202506988Y-32691875D01*
X202437490Y-32699069D01*
X202375135Y-32667546D01*
X202358415Y-32648250D01*
X202228484Y-32462689D01*
X202061392Y-32295598D01*
X202061385Y-32295593D01*
X201867824Y-32160059D01*
X201867820Y-32160057D01*
X201867818Y-32160056D01*
X201653653Y-32060189D01*
X201653649Y-32060188D01*
X201653645Y-32060186D01*
X201425403Y-31999030D01*
X201425393Y-31999028D01*
X201189991Y-31978433D01*
X201189989Y-31978433D01*
X200954586Y-31999028D01*
X200954576Y-31999030D01*
X200726334Y-32060186D01*
X200726325Y-32060190D01*
X200512161Y-32160056D01*
X200512159Y-32160057D01*
X200318587Y-32295597D01*
X200151495Y-32462689D01*
X200021565Y-32648250D01*
X199966988Y-32691875D01*
X199897490Y-32699069D01*
X199835135Y-32667546D01*
X199818415Y-32648250D01*
X199688484Y-32462689D01*
X199521392Y-32295598D01*
X199521385Y-32295593D01*
X199327824Y-32160059D01*
X199327820Y-32160057D01*
X199327818Y-32160056D01*
X199113653Y-32060189D01*
X199113649Y-32060188D01*
X199113645Y-32060186D01*
X198885403Y-31999030D01*
X198885393Y-31999028D01*
X198649991Y-31978433D01*
X198649989Y-31978433D01*
X198414586Y-31999028D01*
X198414576Y-31999030D01*
X198186334Y-32060186D01*
X198186325Y-32060190D01*
X197972161Y-32160056D01*
X197972159Y-32160057D01*
X197778587Y-32295597D01*
X197611495Y-32462689D01*
X197481565Y-32648250D01*
X197426988Y-32691875D01*
X197357490Y-32699069D01*
X197295135Y-32667546D01*
X197278415Y-32648250D01*
X197148484Y-32462689D01*
X196981392Y-32295598D01*
X196981385Y-32295593D01*
X196787824Y-32160059D01*
X196787820Y-32160057D01*
X196787818Y-32160056D01*
X196573653Y-32060189D01*
X196573649Y-32060188D01*
X196573645Y-32060186D01*
X196345403Y-31999030D01*
X196345393Y-31999028D01*
X196109991Y-31978433D01*
X196109989Y-31978433D01*
X195874586Y-31999028D01*
X195874576Y-31999030D01*
X195646334Y-32060186D01*
X195646325Y-32060190D01*
X195432161Y-32160056D01*
X195432159Y-32160057D01*
X195238587Y-32295597D01*
X195071495Y-32462689D01*
X194941565Y-32648250D01*
X194886988Y-32691875D01*
X194817490Y-32699069D01*
X194755135Y-32667546D01*
X194738415Y-32648250D01*
X194608484Y-32462689D01*
X194441392Y-32295598D01*
X194441385Y-32295593D01*
X194247824Y-32160059D01*
X194247820Y-32160057D01*
X194247818Y-32160056D01*
X194033653Y-32060189D01*
X194033649Y-32060188D01*
X194033645Y-32060186D01*
X193805403Y-31999030D01*
X193805393Y-31999028D01*
X193569991Y-31978433D01*
X193569989Y-31978433D01*
X193334586Y-31999028D01*
X193334576Y-31999030D01*
X193106334Y-32060186D01*
X193106325Y-32060190D01*
X192892161Y-32160056D01*
X192892159Y-32160057D01*
X192698587Y-32295597D01*
X192531495Y-32462689D01*
X192401565Y-32648250D01*
X192346988Y-32691875D01*
X192277490Y-32699069D01*
X192215135Y-32667546D01*
X192198415Y-32648250D01*
X192068484Y-32462689D01*
X191901392Y-32295598D01*
X191901385Y-32295593D01*
X191707824Y-32160059D01*
X191707820Y-32160057D01*
X191707818Y-32160056D01*
X191493653Y-32060189D01*
X191493649Y-32060188D01*
X191493645Y-32060186D01*
X191265403Y-31999030D01*
X191265393Y-31999028D01*
X191029991Y-31978433D01*
X191029989Y-31978433D01*
X190794586Y-31999028D01*
X190794576Y-31999030D01*
X190566334Y-32060186D01*
X190566325Y-32060190D01*
X190352161Y-32160056D01*
X190352159Y-32160057D01*
X190158587Y-32295597D01*
X189991495Y-32462689D01*
X189861565Y-32648250D01*
X189806988Y-32691875D01*
X189737490Y-32699069D01*
X189675135Y-32667546D01*
X189658415Y-32648250D01*
X189528484Y-32462689D01*
X189361392Y-32295598D01*
X189361385Y-32295593D01*
X189167824Y-32160059D01*
X189167820Y-32160057D01*
X189167818Y-32160056D01*
X188953653Y-32060189D01*
X188953649Y-32060188D01*
X188953645Y-32060186D01*
X188725403Y-31999030D01*
X188725393Y-31999028D01*
X188489991Y-31978433D01*
X188489989Y-31978433D01*
X188254586Y-31999028D01*
X188254576Y-31999030D01*
X188026334Y-32060186D01*
X188026325Y-32060190D01*
X187812161Y-32160056D01*
X187812159Y-32160057D01*
X187618587Y-32295597D01*
X187451498Y-32462686D01*
X187321259Y-32648687D01*
X187266682Y-32692311D01*
X187197183Y-32699504D01*
X187134829Y-32667982D01*
X187118109Y-32648686D01*
X186988103Y-32463018D01*
X186988098Y-32463012D01*
X186821072Y-32295986D01*
X186627568Y-32160491D01*
X186413482Y-32060662D01*
X186413476Y-32060659D01*
X186199990Y-32003456D01*
X186199990Y-32901080D01*
X186142983Y-32868167D01*
X186015816Y-32834092D01*
X185884164Y-32834092D01*
X185756997Y-32868167D01*
X185699990Y-32901080D01*
X185699990Y-32003456D01*
X185699989Y-32003456D01*
X185486503Y-32060659D01*
X185486497Y-32060662D01*
X185272412Y-32160491D01*
X185272410Y-32160492D01*
X185078916Y-32295978D01*
X185078910Y-32295983D01*
X184911881Y-32463012D01*
X184911880Y-32463014D01*
X184781870Y-32648687D01*
X184727293Y-32692311D01*
X184657794Y-32699504D01*
X184595440Y-32667982D01*
X184578720Y-32648686D01*
X184448484Y-32462689D01*
X184281392Y-32295598D01*
X184281385Y-32295593D01*
X184087824Y-32160059D01*
X184087820Y-32160057D01*
X184087818Y-32160056D01*
X183873653Y-32060189D01*
X183873649Y-32060188D01*
X183873645Y-32060186D01*
X183645403Y-31999030D01*
X183645393Y-31999028D01*
X183409991Y-31978433D01*
X183409989Y-31978433D01*
X183174586Y-31999028D01*
X183174576Y-31999030D01*
X182946334Y-32060186D01*
X182946325Y-32060190D01*
X182732161Y-32160056D01*
X182732159Y-32160057D01*
X182538587Y-32295597D01*
X182371495Y-32462689D01*
X182241565Y-32648250D01*
X182186988Y-32691875D01*
X182117490Y-32699069D01*
X182055135Y-32667546D01*
X182038415Y-32648250D01*
X181908484Y-32462689D01*
X181741392Y-32295598D01*
X181741385Y-32295593D01*
X181547824Y-32160059D01*
X181547820Y-32160057D01*
X181547818Y-32160056D01*
X181333653Y-32060189D01*
X181333649Y-32060188D01*
X181333645Y-32060186D01*
X181105403Y-31999030D01*
X181105393Y-31999028D01*
X180869991Y-31978433D01*
X180869989Y-31978433D01*
X180634586Y-31999028D01*
X180634576Y-31999030D01*
X180406334Y-32060186D01*
X180406325Y-32060190D01*
X180192161Y-32160056D01*
X180192159Y-32160057D01*
X179998587Y-32295597D01*
X179831495Y-32462689D01*
X179701565Y-32648250D01*
X179646988Y-32691875D01*
X179577490Y-32699069D01*
X179515135Y-32667546D01*
X179498415Y-32648250D01*
X179368484Y-32462689D01*
X179201392Y-32295598D01*
X179201385Y-32295593D01*
X179007824Y-32160059D01*
X179007820Y-32160057D01*
X179007818Y-32160056D01*
X178793653Y-32060189D01*
X178793649Y-32060188D01*
X178793645Y-32060186D01*
X178565403Y-31999030D01*
X178565393Y-31999028D01*
X178329991Y-31978433D01*
X178329989Y-31978433D01*
X178094586Y-31999028D01*
X178094576Y-31999030D01*
X177866334Y-32060186D01*
X177866325Y-32060190D01*
X177652161Y-32160056D01*
X177652159Y-32160057D01*
X177458587Y-32295597D01*
X177291495Y-32462689D01*
X177161565Y-32648250D01*
X177106988Y-32691875D01*
X177037490Y-32699069D01*
X176975135Y-32667546D01*
X176958415Y-32648250D01*
X176828484Y-32462689D01*
X176661392Y-32295598D01*
X176661385Y-32295593D01*
X176467824Y-32160059D01*
X176467820Y-32160057D01*
X176467818Y-32160056D01*
X176253653Y-32060189D01*
X176253649Y-32060188D01*
X176253645Y-32060186D01*
X176025403Y-31999030D01*
X176025393Y-31999028D01*
X175789991Y-31978433D01*
X175789989Y-31978433D01*
X175554586Y-31999028D01*
X175554576Y-31999030D01*
X175326334Y-32060186D01*
X175326325Y-32060190D01*
X175112161Y-32160056D01*
X175112159Y-32160057D01*
X174918587Y-32295597D01*
X174751495Y-32462689D01*
X174621565Y-32648250D01*
X174566988Y-32691875D01*
X174497490Y-32699069D01*
X174435135Y-32667546D01*
X174418415Y-32648250D01*
X174288484Y-32462689D01*
X174121392Y-32295598D01*
X174121385Y-32295593D01*
X173927824Y-32160059D01*
X173927820Y-32160057D01*
X173927818Y-32160056D01*
X173713653Y-32060189D01*
X173713649Y-32060188D01*
X173713645Y-32060186D01*
X173485403Y-31999030D01*
X173485393Y-31999028D01*
X173249991Y-31978433D01*
X173249989Y-31978433D01*
X173014586Y-31999028D01*
X173014576Y-31999030D01*
X172786334Y-32060186D01*
X172786325Y-32060190D01*
X172572161Y-32160056D01*
X172572159Y-32160057D01*
X172378587Y-32295597D01*
X172211495Y-32462689D01*
X172075955Y-32656261D01*
X172075954Y-32656263D01*
X171976088Y-32870427D01*
X171976084Y-32870436D01*
X171914928Y-33098678D01*
X171914926Y-33098688D01*
X171894331Y-33334091D01*
X168403155Y-33334091D01*
X168434135Y-33098766D01*
X168436006Y-33088155D01*
X168520519Y-32706935D01*
X168523310Y-32696521D01*
X168640719Y-32324142D01*
X168644419Y-32313979D01*
X168651875Y-32295978D01*
X168793831Y-31953259D01*
X168798390Y-31943481D01*
X168978684Y-31597138D01*
X168984070Y-31587808D01*
X169193873Y-31258480D01*
X169200058Y-31249647D01*
X169437742Y-30939887D01*
X169444692Y-30931605D01*
X169708475Y-30643734D01*
X169716102Y-30636107D01*
X170003987Y-30372306D01*
X170012225Y-30365393D01*
X170322022Y-30127675D01*
X170330846Y-30121497D01*
X170660155Y-29911702D01*
X170669511Y-29906301D01*
X171015825Y-29726019D01*
X171025622Y-29721449D01*
X171386350Y-29572028D01*
X171396496Y-29568335D01*
X171768878Y-29450921D01*
X171779312Y-29448126D01*
X172160483Y-29363620D01*
X172171127Y-29361742D01*
X172558246Y-29310775D01*
X172568980Y-29309835D01*
X172937699Y-29293734D01*
X172960623Y-29292734D01*
X172966032Y-29292616D01*
X217961753Y-29292616D01*
X217967162Y-29292733D01*
G37*
%TD.AperFunction*%
%TA.AperFunction,Conductor*%
G36*
X198053007Y-76099123D02*
G01*
X198018932Y-76226290D01*
X198018932Y-76357942D01*
X198053007Y-76485109D01*
X198085920Y-76542116D01*
X196411944Y-76542116D01*
X196444857Y-76485109D01*
X196478932Y-76357942D01*
X196478932Y-76226290D01*
X196444857Y-76099123D01*
X196411944Y-76042116D01*
X198085920Y-76042116D01*
X198053007Y-76099123D01*
G37*
%TD.AperFunction*%
%TA.AperFunction,Conductor*%
G36*
X200593007Y-76099123D02*
G01*
X200558932Y-76226290D01*
X200558932Y-76357942D01*
X200593007Y-76485109D01*
X200625920Y-76542116D01*
X198951944Y-76542116D01*
X198984857Y-76485109D01*
X199018932Y-76357942D01*
X199018932Y-76226290D01*
X198984857Y-76099123D01*
X198951944Y-76042116D01*
X200625920Y-76042116D01*
X200593007Y-76099123D01*
G37*
%TD.AperFunction*%
%TA.AperFunction,Conductor*%
G36*
X203133007Y-76099123D02*
G01*
X203098932Y-76226290D01*
X203098932Y-76357942D01*
X203133007Y-76485109D01*
X203165920Y-76542116D01*
X201491944Y-76542116D01*
X201524857Y-76485109D01*
X201558932Y-76357942D01*
X201558932Y-76226290D01*
X201524857Y-76099123D01*
X201491944Y-76042116D01*
X203165920Y-76042116D01*
X203133007Y-76099123D01*
G37*
%TD.AperFunction*%
%TA.AperFunction,Conductor*%
G36*
X194915452Y-73612301D02*
G01*
X194961207Y-73665105D01*
X194971151Y-73734263D01*
X194942126Y-73797819D01*
X194936094Y-73804297D01*
X193810926Y-74929463D01*
X193749603Y-74962948D01*
X193691157Y-74961558D01*
X193674342Y-74957053D01*
X193438933Y-74936457D01*
X193438931Y-74936457D01*
X193203528Y-74957052D01*
X193203518Y-74957054D01*
X192975276Y-75018210D01*
X192975267Y-75018214D01*
X192761103Y-75118080D01*
X192761101Y-75118081D01*
X192567529Y-75253621D01*
X192400440Y-75420710D01*
X192270201Y-75606711D01*
X192215624Y-75650335D01*
X192146125Y-75657528D01*
X192083771Y-75626006D01*
X192067051Y-75606710D01*
X191937045Y-75421042D01*
X191937040Y-75421036D01*
X191770014Y-75254010D01*
X191576510Y-75118515D01*
X191362424Y-75018686D01*
X191362418Y-75018683D01*
X191148932Y-74961480D01*
X191148932Y-75859104D01*
X191091925Y-75826191D01*
X190964758Y-75792116D01*
X190833106Y-75792116D01*
X190705939Y-75826191D01*
X190648932Y-75859104D01*
X190648932Y-75044134D01*
X190668617Y-74977095D01*
X190685251Y-74956453D01*
X190900066Y-74741639D01*
X192012770Y-73628935D01*
X192074093Y-73595450D01*
X192100451Y-73592616D01*
X194848413Y-73592616D01*
X194915452Y-73612301D01*
G37*
%TD.AperFunction*%
%TA.AperFunction,Conductor*%
G36*
X207015452Y-74212301D02*
G01*
X207061207Y-74265105D01*
X207071151Y-74334263D01*
X207042126Y-74397819D01*
X207036094Y-74404297D01*
X206510926Y-74929463D01*
X206449603Y-74962948D01*
X206391157Y-74961558D01*
X206374342Y-74957053D01*
X206138933Y-74936457D01*
X206138931Y-74936457D01*
X205903528Y-74957052D01*
X205903518Y-74957054D01*
X205675276Y-75018210D01*
X205675267Y-75018214D01*
X205461103Y-75118080D01*
X205461101Y-75118081D01*
X205267529Y-75253621D01*
X205100440Y-75420710D01*
X204970201Y-75606711D01*
X204915624Y-75650335D01*
X204846125Y-75657528D01*
X204783771Y-75626006D01*
X204767051Y-75606710D01*
X204637045Y-75421042D01*
X204637040Y-75421036D01*
X204470014Y-75254010D01*
X204276510Y-75118515D01*
X204062424Y-75018686D01*
X204062418Y-75018683D01*
X203848932Y-74961480D01*
X203848932Y-75859104D01*
X203791925Y-75826191D01*
X203664758Y-75792116D01*
X203533106Y-75792116D01*
X203405939Y-75826191D01*
X203348932Y-75859104D01*
X203348932Y-74961480D01*
X203348931Y-74961480D01*
X203135445Y-75018683D01*
X203135439Y-75018686D01*
X202921354Y-75118515D01*
X202921352Y-75118516D01*
X202727858Y-75254002D01*
X202727852Y-75254007D01*
X202560823Y-75421036D01*
X202560822Y-75421038D01*
X202430507Y-75607147D01*
X202375930Y-75650771D01*
X202306431Y-75657964D01*
X202244077Y-75626442D01*
X202227357Y-75607147D01*
X202097041Y-75421038D01*
X202097040Y-75421036D01*
X201930014Y-75254010D01*
X201736510Y-75118515D01*
X201522424Y-75018686D01*
X201522418Y-75018683D01*
X201308932Y-74961480D01*
X201308932Y-75859104D01*
X201251925Y-75826191D01*
X201124758Y-75792116D01*
X200993106Y-75792116D01*
X200865939Y-75826191D01*
X200808932Y-75859104D01*
X200808932Y-74961480D01*
X200808931Y-74961480D01*
X200595445Y-75018683D01*
X200595439Y-75018686D01*
X200381354Y-75118515D01*
X200381352Y-75118516D01*
X200187858Y-75254002D01*
X200187852Y-75254007D01*
X200020823Y-75421036D01*
X200020822Y-75421038D01*
X199890507Y-75607147D01*
X199835930Y-75650771D01*
X199766431Y-75657964D01*
X199704077Y-75626442D01*
X199687357Y-75607147D01*
X199557041Y-75421038D01*
X199557040Y-75421036D01*
X199390014Y-75254010D01*
X199196510Y-75118515D01*
X198982424Y-75018686D01*
X198982418Y-75018683D01*
X198768932Y-74961480D01*
X198768932Y-75859104D01*
X198711925Y-75826191D01*
X198584758Y-75792116D01*
X198453106Y-75792116D01*
X198325939Y-75826191D01*
X198268932Y-75859104D01*
X198268932Y-74961480D01*
X198268931Y-74961480D01*
X198055445Y-75018683D01*
X198055439Y-75018686D01*
X197841354Y-75118515D01*
X197841352Y-75118516D01*
X197647858Y-75254002D01*
X197647852Y-75254007D01*
X197480823Y-75421036D01*
X197480822Y-75421038D01*
X197350507Y-75607147D01*
X197295930Y-75650771D01*
X197226431Y-75657964D01*
X197164077Y-75626442D01*
X197147357Y-75607147D01*
X197017041Y-75421038D01*
X197017040Y-75421036D01*
X196850014Y-75254010D01*
X196656510Y-75118515D01*
X196442424Y-75018686D01*
X196442418Y-75018683D01*
X196228932Y-74961480D01*
X196228932Y-75859104D01*
X196171925Y-75826191D01*
X196044758Y-75792116D01*
X195913106Y-75792116D01*
X195785939Y-75826191D01*
X195728932Y-75859104D01*
X195728932Y-75044134D01*
X195748617Y-74977095D01*
X195765248Y-74956455D01*
X196492770Y-74228935D01*
X196554093Y-74195450D01*
X196580451Y-74192616D01*
X206948413Y-74192616D01*
X207015452Y-74212301D01*
G37*
%TD.AperFunction*%
%TA.AperFunction,Conductor*%
G36*
X219149990Y-72287855D02*
G01*
X219178948Y-72340888D01*
X219173964Y-72410580D01*
X219145463Y-72454927D01*
X216670926Y-74929463D01*
X216609603Y-74962948D01*
X216551157Y-74961558D01*
X216534342Y-74957053D01*
X216298933Y-74936457D01*
X216298931Y-74936457D01*
X216063528Y-74957052D01*
X216063518Y-74957054D01*
X215835276Y-75018210D01*
X215835267Y-75018214D01*
X215621103Y-75118080D01*
X215621101Y-75118081D01*
X215427529Y-75253621D01*
X215260437Y-75420713D01*
X215130507Y-75606274D01*
X215075930Y-75649899D01*
X215006432Y-75657093D01*
X214944077Y-75625570D01*
X214927357Y-75606274D01*
X214797426Y-75420713D01*
X214630334Y-75253622D01*
X214630327Y-75253617D01*
X214436766Y-75118083D01*
X214436762Y-75118081D01*
X214365659Y-75084925D01*
X214222595Y-75018213D01*
X214222591Y-75018212D01*
X214222587Y-75018210D01*
X213994345Y-74957054D01*
X213994335Y-74957052D01*
X213758933Y-74936457D01*
X213758931Y-74936457D01*
X213523528Y-74957052D01*
X213523518Y-74957054D01*
X213295276Y-75018210D01*
X213295267Y-75018214D01*
X213081103Y-75118080D01*
X213081101Y-75118081D01*
X212887529Y-75253621D01*
X212720437Y-75420713D01*
X212590507Y-75606274D01*
X212535930Y-75649899D01*
X212466432Y-75657093D01*
X212404077Y-75625570D01*
X212387357Y-75606274D01*
X212257426Y-75420713D01*
X212090334Y-75253622D01*
X212090327Y-75253617D01*
X211896766Y-75118083D01*
X211896762Y-75118081D01*
X211825659Y-75084925D01*
X211682595Y-75018213D01*
X211682591Y-75018212D01*
X211682587Y-75018210D01*
X211454345Y-74957054D01*
X211454335Y-74957052D01*
X211218933Y-74936457D01*
X211218931Y-74936457D01*
X210983528Y-74957052D01*
X210983518Y-74957054D01*
X210755276Y-75018210D01*
X210755267Y-75018214D01*
X210541103Y-75118080D01*
X210541101Y-75118081D01*
X210347529Y-75253621D01*
X210180437Y-75420713D01*
X210050507Y-75606274D01*
X209995930Y-75649899D01*
X209926432Y-75657093D01*
X209864077Y-75625570D01*
X209847357Y-75606274D01*
X209717426Y-75420713D01*
X209661433Y-75364720D01*
X209627948Y-75303397D01*
X209632932Y-75233705D01*
X209674804Y-75177772D01*
X209708156Y-75159999D01*
X209828454Y-75117905D01*
X209981194Y-75021932D01*
X210108748Y-74894378D01*
X210204721Y-74741638D01*
X210264300Y-74571371D01*
X210283125Y-74404297D01*
X210284497Y-74392119D01*
X210284497Y-74392112D01*
X210277555Y-74330499D01*
X210289610Y-74261677D01*
X210336959Y-74210298D01*
X210400775Y-74192616D01*
X213870962Y-74192616D01*
X213962006Y-74174505D01*
X214006294Y-74165696D01*
X214070035Y-74139293D01*
X214133773Y-74112893D01*
X214133774Y-74112892D01*
X214133777Y-74112891D01*
X214248509Y-74036230D01*
X215987996Y-72296741D01*
X216049317Y-72263258D01*
X216107768Y-72264649D01*
X216124582Y-72269155D01*
X216295309Y-72284092D01*
X216359989Y-72289751D01*
X216359990Y-72289751D01*
X216359991Y-72289751D01*
X216424671Y-72284092D01*
X216595398Y-72269155D01*
X216823653Y-72207995D01*
X217037820Y-72108127D01*
X217231391Y-71972587D01*
X217353707Y-71850270D01*
X217415026Y-71816788D01*
X217484718Y-71821772D01*
X217540652Y-71863643D01*
X217557567Y-71894620D01*
X217606636Y-72026180D01*
X217606639Y-72026185D01*
X217692799Y-72141279D01*
X217692802Y-72141282D01*
X217807896Y-72227442D01*
X217807903Y-72227446D01*
X217942610Y-72277688D01*
X217942617Y-72277690D01*
X218002145Y-72284091D01*
X218002162Y-72284092D01*
X218649990Y-72284092D01*
X218649990Y-71367104D01*
X218706997Y-71400017D01*
X218834164Y-71434092D01*
X218965816Y-71434092D01*
X219092983Y-71400017D01*
X219149990Y-71367104D01*
X219149990Y-72287855D01*
G37*
%TD.AperFunction*%
%TA.AperFunction,Conductor*%
G36*
X203909990Y-72264725D02*
G01*
X204123473Y-72207525D01*
X204123482Y-72207521D01*
X204337568Y-72107692D01*
X204531072Y-71972197D01*
X204698095Y-71805174D01*
X204828109Y-71619497D01*
X204882686Y-71575873D01*
X204952185Y-71568680D01*
X205014539Y-71600202D01*
X205031259Y-71619497D01*
X205161495Y-71805493D01*
X205328589Y-71972587D01*
X205425374Y-72040357D01*
X205522155Y-72108124D01*
X205522157Y-72108125D01*
X205522160Y-72108127D01*
X205736327Y-72207995D01*
X205964582Y-72269155D01*
X206135309Y-72284092D01*
X206199989Y-72289751D01*
X206199990Y-72289751D01*
X206199991Y-72289751D01*
X206264671Y-72284092D01*
X206435398Y-72269155D01*
X206663653Y-72207995D01*
X206877820Y-72108127D01*
X207071391Y-71972587D01*
X207238485Y-71805493D01*
X207368415Y-71619934D01*
X207422992Y-71576309D01*
X207492490Y-71569115D01*
X207554845Y-71600638D01*
X207571565Y-71619934D01*
X207701490Y-71805487D01*
X207701495Y-71805493D01*
X207868589Y-71972587D01*
X207965374Y-72040357D01*
X208062155Y-72108124D01*
X208062157Y-72108125D01*
X208062160Y-72108127D01*
X208276327Y-72207995D01*
X208504582Y-72269155D01*
X208675309Y-72284092D01*
X208739989Y-72289751D01*
X208739990Y-72289751D01*
X208739991Y-72289751D01*
X208804671Y-72284092D01*
X208975398Y-72269155D01*
X209203653Y-72207995D01*
X209417820Y-72108127D01*
X209611391Y-71972587D01*
X209778485Y-71805493D01*
X209908415Y-71619934D01*
X209962992Y-71576309D01*
X210032490Y-71569115D01*
X210094845Y-71600638D01*
X210111565Y-71619934D01*
X210241490Y-71805487D01*
X210241495Y-71805493D01*
X210408589Y-71972587D01*
X210505374Y-72040357D01*
X210602155Y-72108124D01*
X210602157Y-72108125D01*
X210602160Y-72108127D01*
X210816327Y-72207995D01*
X211044582Y-72269155D01*
X211215309Y-72284092D01*
X211279989Y-72289751D01*
X211279990Y-72289751D01*
X211279991Y-72289751D01*
X211344671Y-72284092D01*
X211515398Y-72269155D01*
X211743653Y-72207995D01*
X211957820Y-72108127D01*
X212151391Y-71972587D01*
X212318485Y-71805493D01*
X212448415Y-71619934D01*
X212502992Y-71576309D01*
X212572490Y-71569115D01*
X212634845Y-71600638D01*
X212651565Y-71619934D01*
X212781490Y-71805487D01*
X212781495Y-71805493D01*
X212948589Y-71972587D01*
X213045374Y-72040357D01*
X213142155Y-72108124D01*
X213142157Y-72108125D01*
X213142160Y-72108127D01*
X213356327Y-72207995D01*
X213584582Y-72269155D01*
X213733184Y-72282156D01*
X213798253Y-72307608D01*
X213839232Y-72364199D01*
X213843110Y-72433961D01*
X213810059Y-72493365D01*
X213735346Y-72568078D01*
X213548126Y-72755298D01*
X213486806Y-72788782D01*
X213460447Y-72791616D01*
X200552485Y-72791616D01*
X200485446Y-72771931D01*
X200439691Y-72719127D01*
X200429747Y-72649969D01*
X200458772Y-72586413D01*
X200464794Y-72579943D01*
X200747997Y-72296740D01*
X200809316Y-72263258D01*
X200867768Y-72264649D01*
X200884582Y-72269155D01*
X201055309Y-72284092D01*
X201119989Y-72289751D01*
X201119990Y-72289751D01*
X201119991Y-72289751D01*
X201184671Y-72284092D01*
X201355398Y-72269155D01*
X201583653Y-72207995D01*
X201797820Y-72108127D01*
X201991391Y-71972587D01*
X202158485Y-71805493D01*
X202288720Y-71619497D01*
X202343297Y-71575873D01*
X202412795Y-71568679D01*
X202475150Y-71600202D01*
X202491869Y-71619497D01*
X202621880Y-71805170D01*
X202788907Y-71972197D01*
X202982411Y-72107692D01*
X203196497Y-72207521D01*
X203196506Y-72207525D01*
X203409990Y-72264726D01*
X203409990Y-71367104D01*
X203466997Y-71400017D01*
X203594164Y-71434092D01*
X203725816Y-71434092D01*
X203852983Y-71400017D01*
X203909990Y-71367104D01*
X203909990Y-72264725D01*
G37*
%TD.AperFunction*%
%TD*%
M02*
