M48
; DRILL file {KiCad 8.0.6} date 2025-08-26T16:14:38+0200
; FORMAT={-:-/ absolute / inch / decimal}
; #@! TF.CreationDate,2025-08-26T16:14:38+02:00
; #@! TF.GenerationSoftware,Kicad,Pcbnew,8.0.6
; #@! TF.FileFunction,Plated,1,2,PTH
FMAT,2
INCH
; #@! TA.AperFunction,Plated,PTH,ViaDrill
T1C0.0118
; #@! TA.AperFunction,Plated,PTH,ViaDrill
T2C0.0157
; #@! TA.AperFunction,Plated,PTH,ComponentDrill
T3C0.0354
; #@! TA.AperFunction,Plated,PTH,ComponentDrill
T4C0.0394
%
G90
G05
T1
X7.4356Y-2.291
X7.4441Y-2.1965
X7.5228Y-2.0942
X8.2472Y-2.9288
T2
X7.4834Y-2.2753
X7.5761Y-1.9328
X8.3295Y-2.2439
X8.6963Y-2.1769
T3
X6.8195Y-1.5508
X6.8195Y-2.5508
X6.9195Y-1.5508
X6.9195Y-2.5508
X7.0195Y-1.5508
X7.0195Y-2.5508
X7.1195Y-1.5508
X7.1195Y-2.5508
X7.2195Y-1.5508
X7.2195Y-2.5508
X7.3195Y-1.5508
X7.3195Y-2.5508
X7.4195Y-1.5508
X7.4195Y-2.5508
X7.5195Y-1.5508
X7.5195Y-2.5508
X7.6195Y-1.5508
X7.6195Y-2.5508
X7.7195Y-1.5508
X7.7195Y-2.5508
X7.8195Y-1.5508
X7.8195Y-2.5508
X7.9195Y-1.5508
X7.9195Y-2.5508
X8.0195Y-1.5508
X8.0195Y-2.5508
X8.1195Y-1.5508
X8.1195Y-2.5508
X8.2195Y-1.5508
X8.2195Y-2.5508
X8.3195Y-1.5508
X8.3195Y-2.5508
X8.4195Y-1.5508
X8.4195Y-2.5508
X8.5195Y-1.5508
X8.5195Y-2.5508
X8.6195Y-1.5508
X8.6195Y-2.5508
T4
X6.8181Y-2.7927
X6.8195Y-3.1867
X6.8195Y-3.2867
X6.8195Y-3.3867
X6.8195Y-3.4867
X6.8195Y-3.6395
X6.8195Y-3.7395
X6.8209Y-1.3124
X6.9181Y-2.7927
X6.9209Y-1.3124
X7.0181Y-2.7927
X7.0209Y-1.3124
X7.1055Y-3.4249
X7.1055Y-3.6249
X7.1157Y-3.0036
X7.1181Y-2.7927
X7.1209Y-1.3124
X7.2055Y-3.5249
X7.2157Y-3.0036
X7.2181Y-2.7927
X7.2209Y-1.3124
X7.3157Y-3.0036
X7.3181Y-2.7927
X7.3209Y-1.3124
X7.4157Y-3.0036
X7.4181Y-2.7927
X7.4209Y-1.3124
X7.5157Y-3.0036
X7.5181Y-2.7927
X7.5209Y-1.3124
X7.6157Y-3.0036
X7.6181Y-2.7927
X7.6209Y-1.3124
X7.7157Y-3.0036
X7.7181Y-2.7927
X7.7209Y-1.3124
X7.8157Y-3.0036
X7.8181Y-2.7927
X7.8209Y-1.3124
X7.9157Y-3.0036
X7.9181Y-2.7927
X7.9209Y-1.3124
X8.0157Y-3.0036
X8.0181Y-2.7927
X8.0209Y-1.3124
X8.1157Y-3.0036
X8.1181Y-2.7927
X8.1209Y-1.3124
X8.2157Y-3.0036
X8.2181Y-2.7927
X8.2209Y-1.3124
X8.3157Y-3.0036
X8.3181Y-2.7927
X8.3209Y-1.3124
X8.4157Y-3.0036
X8.4181Y-2.7927
X8.4209Y-1.3124
X8.5157Y-3.0036
X8.5181Y-2.7927
X8.5209Y-1.3124
X8.6157Y-3.0036
X8.6181Y-2.7927
X8.6209Y-1.3124
M30
