%TF.GenerationSoftware,KiCad,Pcbnew,8.0.6*%
%TF.CreationDate,2025-08-26T16:01:02+02:00*%
%TF.ProjectId,probe,70726f62-652e-46b6-9963-61645f706362,V4-0*%
%TF.SameCoordinates,Original*%
%TF.FileFunction,Profile,NP*%
%FSLAX46Y46*%
G04 Gerber Fmt 4.6, Leading zero omitted, Abs format (unit mm)*
G04 Created by KiCad (PCBNEW 8.0.6) date 2025-08-26 16:01:02*
%MOMM*%
%LPD*%
G01*
G04 APERTURE LIST*
%TA.AperFunction,Profile*%
%ADD10C,0.100000*%
%TD*%
%TA.AperFunction,Profile*%
%ADD11C,0.050000*%
%TD*%
G04 APERTURE END LIST*
D10*
X142000000Y-70000000D02*
G75*
G02*
X140000000Y-68000000I0J2000000D01*
G01*
X142000000Y-20000000D02*
X190000000Y-20000000D01*
X190000000Y-70000000D02*
X142000000Y-70000000D01*
X190000000Y-20000000D02*
X190000000Y-70000000D01*
X140000000Y-68000000D02*
X140000000Y-22000000D01*
X140000000Y-22000000D02*
G75*
G02*
X142000000Y-20000000I2000000J0D01*
G01*
D11*
%TO.C,J8*%
X144650000Y-55125000D02*
X150650000Y-55125000D01*
X144650000Y-56725000D02*
X144650000Y-55125000D01*
X150650000Y-56725000D02*
X144650000Y-56725000D01*
X150650000Y-56725000D02*
X150650000Y-55125000D01*
X156650000Y-56725000D02*
X156650000Y-55125000D01*
X156650000Y-56725000D02*
X162650000Y-56725000D01*
X162650000Y-55125000D02*
X156650000Y-55125000D01*
X162650000Y-56725000D02*
X162650000Y-55125000D01*
%TO.C,J7*%
X144650000Y-66825000D02*
X144650000Y-68425000D01*
X144650000Y-68425000D02*
X150650000Y-68425000D01*
X150650000Y-66825000D02*
X144650000Y-66825000D01*
X150650000Y-66825000D02*
X150650000Y-68425000D01*
X156650000Y-66825000D02*
X156650000Y-68425000D01*
X156650000Y-66825000D02*
X162650000Y-66825000D01*
X162650000Y-66825000D02*
X162650000Y-68425000D01*
X162650000Y-68425000D02*
X156650000Y-68425000D01*
%TD*%
M02*
