M48
; DRILL file {KiCad 8.0.6} date 2025-08-25T15:23:21+0200
; FORMAT={-:-/ absolute / inch / decimal}
; #@! TF.CreationDate,2025-08-25T15:23:21+02:00
; #@! TF.GenerationSoftware,Kicad,Pcbnew,8.0.6
; #@! TF.FileFunction,Plated,1,4,PTH
FMAT,2
INCH
; #@! TA.AperFunction,Plated,PTH,ViaDrill
T1C0.0118
; #@! TA.AperFunction,Plated,PTH,ViaDrill
T2C0.0157
; #@! TA.AperFunction,Plated,PTH,ComponentDrill
T3C0.0197
; #@! TA.AperFunction,Plated,PTH,ComponentDrill
T4C0.0276
; #@! TA.AperFunction,Plated,PTH,ComponentDrill
T5C0.0394
%
G90
G05
T1
X5.5551Y-1.3524
X5.5925Y-1.2874
X5.6102Y-1.0571
X5.6594Y-1.7559
X5.6594Y-1.813
X5.6752Y-1.2894
X5.6752Y-1.3268
X5.7815Y-1.3957
X5.7815Y-1.8799
X5.7913Y-0.9567
X5.8287Y-1.0591
X5.8307Y-1.1791
X5.8996Y-1.7618
X5.9055Y-0.9213
X5.9173Y-1.4311
X5.9272Y-2.4075
X5.9272Y-2.4469
X5.9429Y-2.0098
X5.9803Y-1.9173
X6.0059Y-1.3602
X6.0276Y-1.9193
X6.0472Y-2.3524
X6.0512Y-2.2106
X6.0512Y-2.6575
X6.0571Y-1.6417
X6.0591Y-2.0098
X6.063Y-2.498
X6.0669Y-1.5504
X6.0669Y-1.3976
X6.0768Y-1.0591
X6.0846Y-1.4921
X6.0846Y-1.9193
X6.0846Y-2.0807
X6.0925Y-1.2461
X6.1102Y-1.5906
X6.1102Y-2.1083
X6.1201Y-1.311
X6.1358Y-0.9862
X6.1398Y-0.8327
X6.1417Y-2.4311
X6.1673Y-1.9094
X6.1737Y-1.6319
X6.2028Y-1.9016
X6.2165Y-1.561
X6.2183Y-1.2992
X6.2239Y-1.4577
X6.228Y-1.7957
X6.2333Y-1.8267
X6.2475Y-1.4789
X6.2503Y-1.0411
X6.2638Y-2.4055
X6.2776Y-0.9478
X6.2854Y-1.0453
X6.2874Y-1.2087
X6.311Y-2.0394
X6.313Y-1.689
X6.315Y-0.9478
X6.3209Y-1.2362
X6.3228Y-1.1791
X6.3366Y-1.4469
X6.3425Y-1.2992
X6.3425Y-1.7146
X6.3504Y-1.5344
X6.3504Y-1.937
X6.3578Y-1.0925
X6.3642Y-1.1447
X6.3946Y-1.934
X6.4209Y-1.037
X6.4449Y-1.1437
X6.4488Y-1.2224
X6.4488Y-1.7382
X6.4528Y-1.315
X6.4606Y-0.8189
X6.4616Y-2.1693
X6.4677Y-1.1703
X6.4705Y-1.0965
X6.4724Y-2.1386
X6.479Y-2.2257
X6.4803Y-1.4803
X6.4808Y-1.2222
X6.4833Y-1.3051
X6.4833Y-1.3935
X6.4961Y-1.0354
X6.498Y-0.9291
X6.5Y-1.5138
X6.5Y-1.8445
X6.5196Y-1.2222
X6.5335Y-1.8386
X6.5512Y-1.4232
X6.5669Y-1.8406
X6.5682Y-1.485
X6.5866Y-1.3051
X6.5866Y-1.7205
X6.5886Y-1.3386
X6.5906Y-0.937
X6.5906Y-1.2717
X6.5925Y-0.8701
X6.5963Y-1.5256
X6.5984Y-1.5571
X6.6001Y-1.8422
X6.6027Y-1.4551
X6.6142Y-1.1969
X6.6303Y-1.5673
X6.6319Y-2.4685
X6.6319Y-2.5709
X6.6378Y-2.1437
X6.6594Y-1.9626
X6.6691Y-1.5647
X6.6693Y-1.8287
X6.6732Y-1.2382
X6.6929Y-1.8524
X6.6929Y-1.9685
X6.7001Y-1.5701
X6.7264Y-1.9646
X6.7559Y-1.6319
X6.7559Y-1.8484
X6.7805Y-1.689
X6.8037Y-1.845
X6.8287Y-0.9882
X6.8307Y-1.3346
X6.8575Y-1.7488
X6.8642Y-1.3346
X6.8839Y-1.5197
X6.9094Y-1.6319
X6.935Y-1.7972
X6.9882Y-1.752
X6.989Y-1.4557
X7.0027Y-1.6943
X7.0276Y-2.126
X7.063Y-0.8976
X7.065Y-1.3031
X7.065Y-1.3406
X7.1043Y-1.5689
X7.1063Y-1.4232
X7.1063Y-1.7126
X7.1161Y-1.6201
X7.1437Y-2.1693
X7.1476Y-0.8287
X7.1594Y-1.7146
X7.1644Y-1.4094
X7.1929Y-1.0787
X7.2244Y-1.1614
X7.2352Y-0.998
X7.249Y-1.3307
X7.252Y-1.4606
X7.2598Y-0.9724
X7.2598Y-2.0433
X7.2736Y-1.7539
X7.2795Y-1.815
X7.2913Y-1.7854
X7.3051Y-1.4606
X7.3287Y-1.435
X7.3425Y-1.3661
X7.4024Y-1.3004
T2
X5.7717Y-0.8642
T4
X7.3022Y-0.877
X7.3022Y-1.0679
T5
X7.1467Y-2.6772
X7.2467Y-2.6772
X7.4016Y-1.435
X7.4016Y-1.535
X7.4035Y-1.7287
X7.4035Y-1.8287
X7.4035Y-1.9287
X7.4035Y-2.0287
X7.4035Y-2.1287
X7.4035Y-2.2287
X7.4035Y-2.3783
X7.4035Y-2.4783
X7.4035Y-2.5783
X7.4035Y-2.6783
T3
G00X7.4222Y-0.8307
M15
G01X7.3907Y-0.8307
M16
G05
G00X7.4222Y-1.1142
M15
G01X7.3907Y-1.1142
M16
G05
M30
