%TF.GenerationSoftware,KiCad,Pcbnew,8.0.6*%
%TF.CreationDate,2025-08-27T22:10:31+02:00*%
%TF.ProjectId,probe,70726f62-652e-46b6-9963-61645f706362,V4-0*%
%TF.SameCoordinates,Original*%
%TF.FileFunction,Copper,L4,Bot*%
%TF.FilePolarity,Positive*%
%FSLAX46Y46*%
G04 Gerber Fmt 4.6, Leading zero omitted, Abs format (unit mm)*
G04 Created by KiCad (PCBNEW 8.0.6) date 2025-08-27 22:10:31*
%MOMM*%
%LPD*%
G01*
G04 APERTURE LIST*
%TA.AperFunction,ComponentPad*%
%ADD10O,2.140000X1.070000*%
%TD*%
%TA.AperFunction,ComponentPad*%
%ADD11C,1.300000*%
%TD*%
%TA.AperFunction,ComponentPad*%
%ADD12R,1.700000X1.700000*%
%TD*%
%TA.AperFunction,ComponentPad*%
%ADD13O,1.700000X1.700000*%
%TD*%
%TA.AperFunction,ViaPad*%
%ADD14C,0.600000*%
%TD*%
%TA.AperFunction,ViaPad*%
%ADD15C,0.800000*%
%TD*%
%TA.AperFunction,Conductor*%
%ADD16C,0.250000*%
%TD*%
%TA.AperFunction,Conductor*%
%ADD17C,0.400000*%
%TD*%
%TA.AperFunction,Conductor*%
%ADD18C,0.300000*%
%TD*%
%TA.AperFunction,Conductor*%
%ADD19C,0.350000*%
%TD*%
G04 APERTURE END LIST*
D10*
%TO.P,J2,6,Shield*%
%TO.N,GND*%
X188125000Y-21100000D03*
D11*
X185475000Y-22275000D03*
X185475000Y-27125000D03*
D10*
X188125000Y-28300000D03*
%TD*%
D12*
%TO.P,J1,1,Pin_1*%
%TO.N,GND*%
X181525000Y-68000000D03*
D13*
%TO.P,J1,2,Pin_2*%
%TO.N,9V*%
X184065000Y-68000000D03*
%TD*%
D12*
%TO.P,J5,1,Pin_1*%
%TO.N,D+*%
X188000000Y-36450000D03*
D13*
%TO.P,J5,2,Pin_2*%
%TO.N,D-*%
X188000000Y-38990000D03*
%TD*%
D12*
%TO.P,J6,1,Pin_1*%
%TO.N,GND*%
X188050000Y-60410000D03*
D13*
%TO.P,J6,2,Pin_2*%
%TO.N,RS485_B-*%
X188050000Y-62950000D03*
%TO.P,J6,3,Pin_3*%
%TO.N,RS485_A+*%
X188050000Y-65490000D03*
%TO.P,J6,4,Pin_4*%
%TO.N,9V*%
X188050000Y-68030000D03*
%TD*%
D12*
%TO.P,J3,1,Pin_1*%
%TO.N,/Signal*%
X188050000Y-43910000D03*
D13*
%TO.P,J3,2,Pin_2*%
%TO.N,/AMP*%
X188050000Y-46450000D03*
%TO.P,J3,3,Pin_3*%
%TO.N,/DAC*%
X188050000Y-48990000D03*
%TO.P,J3,4,Pin_4*%
%TO.N,/UNB_DAC*%
X188050000Y-51530000D03*
%TO.P,J3,5,Pin_5*%
%TO.N,3V3*%
X188050000Y-54070000D03*
%TO.P,J3,6,Pin_6*%
%TO.N,5V*%
X188050000Y-56610000D03*
%TD*%
D14*
%TO.N,SDA*%
X158900000Y-60150000D03*
%TO.N,5V*%
X153100000Y-48750000D03*
X155200000Y-53550000D03*
X183500000Y-29500000D03*
X164125000Y-55100000D03*
X154350000Y-26900000D03*
%TO.N,GND*%
X169150000Y-49850000D03*
X186150000Y-36450000D03*
X168450000Y-65300000D03*
X162422880Y-49122880D03*
X148100000Y-29950000D03*
X156812500Y-41450000D03*
X181550000Y-21050000D03*
X169400000Y-46450000D03*
X164350000Y-27850000D03*
X178500000Y-54000000D03*
X155450000Y-33300000D03*
X142500000Y-26850000D03*
X161487500Y-27750000D03*
X170850000Y-49900000D03*
X168600000Y-54450000D03*
X156650000Y-48500000D03*
X161300000Y-38975000D03*
X150300000Y-36350000D03*
X176150000Y-45650000D03*
D15*
X146600000Y-21950000D03*
D14*
X159450000Y-24075000D03*
X184400000Y-51900000D03*
X168450000Y-62700000D03*
X179450000Y-34050000D03*
X149850000Y-44750000D03*
X155950000Y-21150000D03*
X146850000Y-47750000D03*
X184750000Y-44550000D03*
X155850000Y-25050000D03*
X173450000Y-25100000D03*
X174850000Y-38600000D03*
X164600000Y-37600000D03*
X166400000Y-36150000D03*
X150550000Y-61150000D03*
%TO.N,3V3*%
X160350000Y-42900000D03*
X148050000Y-26900000D03*
X185550000Y-37100000D03*
X182700000Y-27400000D03*
X181450000Y-55100000D03*
X164400001Y-54319238D03*
X167400000Y-23800000D03*
X161300000Y-49200000D03*
X160950000Y-36750000D03*
X150550000Y-62150000D03*
X180750000Y-41150000D03*
X171600000Y-41450000D03*
X177500000Y-44500000D03*
X163090380Y-26340380D03*
X164675000Y-35394238D03*
%TO.N,/UNB_DAC*%
X155200000Y-40400000D03*
X160400000Y-24075000D03*
X154100000Y-35500000D03*
%TO.N,/DAC*%
X165000000Y-26300000D03*
X154750000Y-31650000D03*
X161100000Y-33000000D03*
X153850000Y-41700000D03*
X157550000Y-48300000D03*
X154550000Y-37900000D03*
X159700000Y-30700000D03*
%TO.N,/AMP*%
X158086827Y-37025000D03*
X161650000Y-29075793D03*
X141100000Y-34350000D03*
X160300000Y-51800000D03*
X146850000Y-35450000D03*
X153900000Y-51050000D03*
X150950000Y-51050000D03*
X163700000Y-29050000D03*
X163900000Y-33400000D03*
%TO.N,/Signal*%
X179450000Y-33100000D03*
X160600000Y-29950000D03*
X184200000Y-37100000D03*
X144150000Y-32750000D03*
X164279967Y-29725793D03*
X142050000Y-32700000D03*
%TO.N,D+*%
X188019975Y-33030025D03*
X184400000Y-24700000D03*
X174350000Y-33900000D03*
%TO.N,D-*%
X183775000Y-25350000D03*
X173500000Y-33900000D03*
%TO.N,GPIO42*%
X164100000Y-20800000D03*
X179400000Y-22800000D03*
%TO.N,RS485_B-*%
X177867610Y-43036244D03*
X184125000Y-33800000D03*
X185200000Y-45350000D03*
X181850000Y-43550000D03*
%TO.N,RS485_A+*%
X180500000Y-43500000D03*
X186500000Y-34700000D03*
X184900000Y-46100000D03*
X180450000Y-39850000D03*
%TO.N,Au+ Shield*%
X153700000Y-67500000D03*
X172225000Y-42900000D03*
X175500000Y-41450000D03*
X171600000Y-46950000D03*
%TO.N,/Au+*%
X164567525Y-56532475D03*
X165100000Y-46850000D03*
%TO.N,/Au-*%
X154550000Y-48750000D03*
X153700000Y-56150000D03*
X154099999Y-39380763D03*
X154550000Y-52850000D03*
%TO.N,Au- Shield*%
X170000000Y-50000000D03*
X170000000Y-47050000D03*
%TO.N,EN*%
X167450000Y-22100000D03*
X150000000Y-23400000D03*
%TO.N,GPIO0*%
X165050000Y-23600000D03*
X147100000Y-24300000D03*
%TO.N,Net-(U6-NO3)*%
X143750000Y-44600000D03*
X143750000Y-46050000D03*
X144150000Y-33700000D03*
X152550000Y-34550000D03*
%TO.N,SDA*%
X166800000Y-46750000D03*
X158756706Y-26444064D03*
X169500000Y-31450000D03*
%TO.N,SCL*%
X159100000Y-61100000D03*
X167641942Y-46791942D03*
X159650000Y-26550000D03*
X167400000Y-32300000D03*
%TO.N,SW_Au-_SH+*%
X177520000Y-36975000D03*
X174180000Y-44420000D03*
%TO.N,SW_UBD*%
X167545000Y-38750000D03*
X161100000Y-43550000D03*
%TO.N,SW_SGN*%
X169394240Y-39744240D03*
X163800000Y-44150000D03*
%TO.N,SW_AMP*%
X158325361Y-46398152D03*
X168409620Y-39809620D03*
%TO.N,SW_R1_1K*%
X160550000Y-31400000D03*
X164612824Y-31044040D03*
%TO.N,SW_Au-_GND*%
X165100000Y-38450000D03*
X167709620Y-36959620D03*
%TO.N,SW_Au-*%
X167350000Y-34000000D03*
X158686827Y-37563173D03*
%TO.N,SW_Calib*%
X168000000Y-30400000D03*
X163800000Y-31050000D03*
%TO.N,SW_Au+*%
X164675000Y-33150000D03*
X167300000Y-33150000D03*
%TO.N,SW_Au+_GND*%
X157900000Y-39650000D03*
X166831942Y-37718058D03*
%TO.N,SW_Au-_SH-*%
X181975000Y-35800000D03*
X180500000Y-36150000D03*
%TO.N,SW_R1_10K*%
X165597077Y-31044040D03*
X157944930Y-33000000D03*
%TO.N,SW_DAC*%
X158190380Y-45609620D03*
X167600000Y-39550000D03*
%TO.N,Net-(U10-COM1)*%
X172814690Y-46862500D03*
X151900000Y-48700000D03*
%TD*%
D16*
%TO.N,SDA*%
X158850000Y-60200000D02*
X158900000Y-60150000D01*
D17*
%TO.N,5V*%
X189400000Y-55260000D02*
X188050000Y-56610000D01*
X154350000Y-26900000D02*
X152950000Y-28300000D01*
X153250000Y-34839950D02*
X152650000Y-35439950D01*
X152950000Y-28300000D02*
X152950000Y-33960050D01*
X152650000Y-48300000D02*
X153100000Y-48750000D01*
X152950000Y-33960050D02*
X153250000Y-34260050D01*
X183500000Y-29500000D02*
X189400000Y-35400000D01*
X153250000Y-34260050D02*
X153250000Y-34839950D01*
X189400000Y-35400000D02*
X189400000Y-55260000D01*
X152650000Y-35439950D02*
X152650000Y-48300000D01*
%TO.N,9V*%
X184065000Y-68000000D02*
X188020000Y-68000000D01*
X188020000Y-68000000D02*
X188050000Y-68030000D01*
D18*
%TO.N,/UNB_DAC*%
X159275000Y-25200000D02*
X160400000Y-24075000D01*
X156969239Y-25200000D02*
X159275000Y-25200000D01*
X154100000Y-28069239D02*
X156969239Y-25200000D01*
X153900000Y-35700000D02*
X154100000Y-35500000D01*
X155200000Y-39469239D02*
X153900000Y-38169239D01*
X154100000Y-35500000D02*
X154100000Y-28069239D01*
X155200000Y-40400000D02*
X155200000Y-39469239D01*
X153900000Y-38169239D02*
X153900000Y-35700000D01*
%TO.N,/DAC*%
X159700000Y-29930761D02*
X161230761Y-28400000D01*
X164049999Y-26300000D02*
X165000000Y-26300000D01*
X159700000Y-30700000D02*
X159700000Y-29930761D01*
X161949999Y-28400000D02*
X164049999Y-26300000D01*
X153850000Y-41700000D02*
X153850000Y-44600000D01*
X159700000Y-31600000D02*
X161100000Y-33000000D01*
X159700000Y-30700000D02*
X159700000Y-31600000D01*
X161230761Y-28400000D02*
X161949999Y-28400000D01*
X153850000Y-44600000D02*
X157550000Y-48300000D01*
X154750000Y-31650000D02*
X154750000Y-37700000D01*
X154750000Y-37700000D02*
X154550000Y-37900000D01*
%TO.N,/AMP*%
X158086827Y-36788173D02*
X160350000Y-34525000D01*
D19*
X153900000Y-51050000D02*
X159550000Y-51050000D01*
D18*
X160350000Y-34525000D02*
X162975000Y-34525000D01*
X146850000Y-35450000D02*
X145750000Y-34350000D01*
X161650000Y-29075793D02*
X163674207Y-29075793D01*
X163900000Y-33600000D02*
X163900000Y-33400000D01*
X145750000Y-34350000D02*
X141100000Y-34350000D01*
D19*
X150950000Y-51050000D02*
X153900000Y-51050000D01*
D18*
X162975000Y-34525000D02*
X163900000Y-33600000D01*
X158086827Y-37025000D02*
X158086827Y-36788173D01*
D19*
X159550000Y-51050000D02*
X160300000Y-51800000D01*
D18*
X163674207Y-29075793D02*
X163700000Y-29050000D01*
%TO.N,/Signal*%
X164279967Y-29725793D02*
X160824207Y-29725793D01*
X144100000Y-32700000D02*
X144150000Y-32750000D01*
X184200000Y-37100000D02*
X180200000Y-33100000D01*
X160824207Y-29725793D02*
X160600000Y-29950000D01*
X180200000Y-33100000D02*
X179450000Y-33100000D01*
X142050000Y-32700000D02*
X144100000Y-32700000D01*
D16*
%TO.N,D+*%
X188019975Y-33030025D02*
X184125000Y-29135050D01*
X184400000Y-25608884D02*
X184033884Y-25975000D01*
X183341116Y-25800000D02*
X182202512Y-25800000D01*
X174350000Y-33652512D02*
X174350000Y-33900000D01*
X182202512Y-25800000D02*
X174350000Y-33652512D01*
X184033884Y-25975000D02*
X183516116Y-25975000D01*
X183516116Y-25975000D02*
X183341116Y-25800000D01*
X184400000Y-24700000D02*
X184400000Y-25608884D01*
X184125000Y-26066116D02*
X184033884Y-25975000D01*
X184125000Y-29135050D02*
X184125000Y-26066116D01*
%TO.N,D-*%
X183775000Y-25350000D02*
X182016116Y-25350000D01*
X182016116Y-25350000D02*
X173500000Y-33866116D01*
X173500000Y-33866116D02*
X173500000Y-33900000D01*
%TO.N,GPIO42*%
X177400000Y-20800000D02*
X164100000Y-20800000D01*
X179400000Y-22800000D02*
X177400000Y-20800000D01*
%TO.N,RS485_B-*%
X180175000Y-44125000D02*
X181275000Y-44125000D01*
X181275000Y-44125000D02*
X181850000Y-43550000D01*
X186200000Y-46350000D02*
X186200000Y-61100000D01*
X177867610Y-43036244D02*
X179086244Y-43036244D01*
X180191116Y-39225000D02*
X183888604Y-39225000D01*
X184925000Y-34600000D02*
X184125000Y-33800000D01*
X179086244Y-43036244D02*
X180175000Y-44125000D01*
X185200000Y-45350000D02*
X186200000Y-46350000D01*
X177867610Y-43036244D02*
X177867610Y-41548506D01*
X177867610Y-41548506D02*
X180191116Y-39225000D01*
X184925000Y-38188604D02*
X184925000Y-34600000D01*
X183888604Y-39225000D02*
X184925000Y-38188604D01*
X186200000Y-61100000D02*
X188050000Y-62950000D01*
%TO.N,RS485_A+*%
X183900000Y-39850000D02*
X186775000Y-36975000D01*
X186775000Y-34975000D02*
X186500000Y-34700000D01*
X180450000Y-39850000D02*
X181500000Y-40900000D01*
X184900000Y-46100000D02*
X185750000Y-46950000D01*
X181500000Y-42500000D02*
X180500000Y-43500000D01*
X185750000Y-46950000D02*
X185750000Y-63190000D01*
X186775000Y-36975000D02*
X186775000Y-34975000D01*
X181500000Y-40900000D02*
X181500000Y-42500000D01*
X185750000Y-63190000D02*
X188050000Y-65490000D01*
X180450000Y-39850000D02*
X183900000Y-39850000D01*
D18*
%TO.N,Au+ Shield*%
X155000000Y-67500000D02*
X161325000Y-61175000D01*
X162875000Y-61175000D02*
X171600000Y-52450000D01*
X153700000Y-67500000D02*
X155000000Y-67500000D01*
X161325000Y-61175000D02*
X162875000Y-61175000D01*
X174050000Y-42900000D02*
X175500000Y-41450000D01*
X172225000Y-42900000D02*
X174050000Y-42900000D01*
X171600000Y-52450000D02*
X171600000Y-46950000D01*
D17*
%TO.N,/Au+*%
X164567525Y-56532475D02*
X165100000Y-56000000D01*
X165100000Y-56000000D02*
X165100000Y-46850000D01*
D18*
%TO.N,/Au-*%
X153200000Y-47400000D02*
X154550000Y-48750000D01*
X154099999Y-39380763D02*
X153200000Y-40280762D01*
X153700000Y-56150000D02*
X154550000Y-55300000D01*
X154550000Y-55300000D02*
X154550000Y-52850000D01*
X153200000Y-40280762D02*
X153200000Y-47400000D01*
%TO.N,Au- Shield*%
X170000000Y-47050000D02*
X170000000Y-50000000D01*
D16*
%TO.N,EN*%
X151300000Y-22100000D02*
X167450000Y-22100000D01*
X150000000Y-23400000D02*
X151300000Y-22100000D01*
%TO.N,GPIO0*%
X149741116Y-24025000D02*
X149466116Y-23750000D01*
X150258884Y-24025000D02*
X149741116Y-24025000D01*
X164900000Y-23450000D02*
X150833884Y-23450000D01*
X150833884Y-23450000D02*
X150258884Y-24025000D01*
X147650000Y-23750000D02*
X147100000Y-24300000D01*
X149466116Y-23750000D02*
X147650000Y-23750000D01*
X165050000Y-23600000D02*
X164900000Y-23450000D01*
D19*
%TO.N,Net-(U6-NO3)*%
X143750000Y-46050000D02*
X143750000Y-44600000D01*
X144150000Y-33700000D02*
X151700000Y-33700000D01*
X151700000Y-33700000D02*
X152550000Y-34550000D01*
D18*
%TO.N,SDA*%
X169500000Y-29150000D02*
X165500000Y-25150000D01*
X169500000Y-31450000D02*
X169500000Y-29150000D01*
X160130761Y-25150000D02*
X158756706Y-26524055D01*
X158756706Y-26575945D02*
X158756706Y-26444064D01*
X165500000Y-25150000D02*
X160130761Y-25150000D01*
D16*
X166800000Y-46750000D02*
X166800000Y-55941852D01*
X162541852Y-60200000D02*
X158850000Y-60200000D01*
X166800000Y-55941852D02*
X162541852Y-60200000D01*
D18*
X158756706Y-26524055D02*
X158756706Y-26575945D01*
D16*
%TO.N,SCL*%
X167641942Y-55736306D02*
X162678248Y-60700000D01*
D18*
X168700000Y-31000000D02*
X167400000Y-32300000D01*
D16*
X162678248Y-60700000D02*
X159500000Y-60700000D01*
D18*
X159650000Y-26550000D02*
X160550000Y-25650000D01*
X160550000Y-25650000D02*
X165269239Y-25650000D01*
X165269239Y-25650000D02*
X168700000Y-29080761D01*
D16*
X159500000Y-60700000D02*
X159100000Y-61100000D01*
X167641942Y-46791942D02*
X167641942Y-55736306D01*
D18*
X168700000Y-29080761D02*
X168700000Y-31000000D01*
D16*
%TO.N,SW_Au-_SH+*%
X177520000Y-36975000D02*
X177520000Y-41080000D01*
X177520000Y-41080000D02*
X174180000Y-44420000D01*
D18*
%TO.N,SW_UBD*%
X167480761Y-38750000D02*
X165480761Y-40750000D01*
X164300000Y-40750000D02*
X163900000Y-40750000D01*
X163900000Y-40750000D02*
X161100000Y-43550000D01*
X165480761Y-40750000D02*
X164300000Y-40750000D01*
X167545000Y-38750000D02*
X167480761Y-38750000D01*
%TO.N,SW_SGN*%
X169394240Y-39744240D02*
X166888480Y-42250000D01*
X165700000Y-42250000D02*
X163800000Y-44150000D01*
X166888480Y-42250000D02*
X165700000Y-42250000D01*
%TO.N,SW_AMP*%
X159901848Y-46398152D02*
X158325361Y-46398152D01*
X168409620Y-39809620D02*
X166469240Y-41750000D01*
X164550000Y-41750000D02*
X159901848Y-46398152D01*
X166469240Y-41750000D02*
X164550000Y-41750000D01*
%TO.N,SW_R1_1K*%
X164069239Y-31700000D02*
X160850000Y-31700000D01*
X164612824Y-31044040D02*
X164612824Y-31156415D01*
X160850000Y-31700000D02*
X160550000Y-31400000D01*
X164612824Y-31156415D02*
X164069239Y-31700000D01*
%TO.N,SW_Au-_GND*%
X167650000Y-36900000D02*
X167709620Y-36959620D01*
X165100000Y-38450000D02*
X166650000Y-36900000D01*
X166650000Y-36900000D02*
X167650000Y-36900000D01*
%TO.N,SW_Au-*%
X163750000Y-35400000D02*
X160850000Y-35400000D01*
X160850000Y-35400000D02*
X158686827Y-37563173D01*
X167350000Y-34000000D02*
X165150000Y-34000000D01*
X165150000Y-34000000D02*
X163750000Y-35400000D01*
%TO.N,SW_Calib*%
X163800000Y-31050000D02*
X163800000Y-30937625D01*
X164343585Y-30394040D02*
X167994040Y-30394040D01*
X167994040Y-30394040D02*
X168000000Y-30400000D01*
X163800000Y-30937625D02*
X164343585Y-30394040D01*
%TO.N,SW_Au+*%
X164675000Y-33150000D02*
X167300000Y-33150000D01*
%TO.N,SW_Au+_GND*%
X166831942Y-37718058D02*
X164900000Y-39650000D01*
X164900000Y-39650000D02*
X157900000Y-39650000D01*
D16*
%TO.N,SW_Au-_SH-*%
X181975000Y-35800000D02*
X180850000Y-35800000D01*
X180850000Y-35800000D02*
X180500000Y-36150000D01*
D18*
%TO.N,SW_R1_10K*%
X164000000Y-32200000D02*
X164441117Y-32200000D01*
X157944930Y-33000000D02*
X158594930Y-33650000D01*
X158594930Y-33650000D02*
X162550000Y-33650000D01*
X164441117Y-32200000D02*
X165597077Y-31044040D01*
X162550000Y-33650000D02*
X164000000Y-32200000D01*
%TO.N,SW_DAC*%
X164319239Y-41250000D02*
X165900000Y-41250000D01*
X158190380Y-45609620D02*
X159959619Y-45609620D01*
X159959619Y-45609620D02*
X164319239Y-41250000D01*
X165900000Y-41250000D02*
X167600000Y-39550000D01*
%TO.N,Net-(U10-COM1)*%
X157607107Y-49400000D02*
X152600000Y-49400000D01*
X152600000Y-49400000D02*
X151900000Y-48700000D01*
X172814690Y-46862500D02*
X171752190Y-45800000D01*
X171752190Y-45800000D02*
X161207107Y-45800000D01*
X161207107Y-45800000D02*
X157607107Y-49400000D01*
D17*
%TO.N,5V*%
X162575000Y-53550000D02*
X164125000Y-55100000D01*
X155200000Y-53550000D02*
X162575000Y-53550000D01*
%TD*%
%TA.AperFunction,Conductor*%
%TO.N,GND*%
G36*
X186647658Y-20420185D02*
G01*
X186693413Y-20472989D01*
X186703357Y-20542147D01*
X186683721Y-20593391D01*
X186672798Y-20609737D01*
X186672793Y-20609747D01*
X186594774Y-20798101D01*
X186594772Y-20798109D01*
X186584450Y-20849999D01*
X186584450Y-20850000D01*
X187675272Y-20850000D01*
X187583386Y-20888060D01*
X187513060Y-20958386D01*
X187475000Y-21050272D01*
X187475000Y-21149728D01*
X187513060Y-21241614D01*
X187583386Y-21311940D01*
X187675272Y-21350000D01*
X186584450Y-21350000D01*
X186594772Y-21401890D01*
X186594774Y-21401898D01*
X186633967Y-21496518D01*
X186641436Y-21565988D01*
X186610161Y-21628467D01*
X186550072Y-21664119D01*
X186480247Y-21661625D01*
X186473831Y-21657170D01*
X186448162Y-21655389D01*
X185828553Y-22274999D01*
X185828553Y-22275000D01*
X186448162Y-22894609D01*
X186448163Y-22894609D01*
X186456940Y-22882988D01*
X186456942Y-22882985D01*
X186551933Y-22692216D01*
X186551941Y-22692196D01*
X186610261Y-22487219D01*
X186610262Y-22487216D01*
X186629927Y-22275000D01*
X186629927Y-22274999D01*
X186610262Y-22062783D01*
X186610261Y-22062780D01*
X186551941Y-21857803D01*
X186551935Y-21857789D01*
X186544467Y-21842791D01*
X186532204Y-21774005D01*
X186559077Y-21709510D01*
X186616552Y-21669781D01*
X186686382Y-21667433D01*
X186746397Y-21703210D01*
X186758568Y-21718626D01*
X186786062Y-21759773D01*
X186786065Y-21759777D01*
X186930222Y-21903934D01*
X186930226Y-21903937D01*
X187099737Y-22017201D01*
X187099747Y-22017206D01*
X187288101Y-22095225D01*
X187288109Y-22095227D01*
X187488056Y-22134999D01*
X187488060Y-22135000D01*
X187875000Y-22135000D01*
X187875000Y-21350000D01*
X188375000Y-21350000D01*
X188375000Y-22135000D01*
X188761940Y-22135000D01*
X188761943Y-22134999D01*
X188961890Y-22095227D01*
X188961898Y-22095225D01*
X189150252Y-22017206D01*
X189150262Y-22017201D01*
X189319773Y-21903937D01*
X189319777Y-21903934D01*
X189387819Y-21835893D01*
X189449142Y-21802408D01*
X189518834Y-21807392D01*
X189574767Y-21849264D01*
X189599184Y-21914728D01*
X189599500Y-21923574D01*
X189599500Y-27476426D01*
X189579815Y-27543465D01*
X189527011Y-27589220D01*
X189457853Y-27599164D01*
X189394297Y-27570139D01*
X189387819Y-27564107D01*
X189319777Y-27496065D01*
X189319773Y-27496062D01*
X189150262Y-27382798D01*
X189150252Y-27382793D01*
X188961898Y-27304774D01*
X188961890Y-27304772D01*
X188761943Y-27265000D01*
X188375000Y-27265000D01*
X188375000Y-28050000D01*
X187875000Y-28050000D01*
X187875000Y-27265000D01*
X187488056Y-27265000D01*
X187288109Y-27304772D01*
X187288101Y-27304774D01*
X187099747Y-27382793D01*
X187099737Y-27382798D01*
X186930226Y-27496062D01*
X186930222Y-27496065D01*
X186786065Y-27640222D01*
X186786060Y-27640229D01*
X186758567Y-27681374D01*
X186704954Y-27726179D01*
X186635629Y-27734885D01*
X186572602Y-27704729D01*
X186535884Y-27645286D01*
X186537132Y-27575427D01*
X186544468Y-27557206D01*
X186551935Y-27542209D01*
X186551941Y-27542196D01*
X186610261Y-27337219D01*
X186610262Y-27337216D01*
X186629927Y-27125000D01*
X186629927Y-27124999D01*
X186610262Y-26912783D01*
X186610261Y-26912780D01*
X186551941Y-26707803D01*
X186551933Y-26707783D01*
X186456942Y-26517014D01*
X186456937Y-26517006D01*
X186448163Y-26505389D01*
X186448162Y-26505389D01*
X185828553Y-27124999D01*
X185828553Y-27125000D01*
X186448162Y-27744609D01*
X186472131Y-27742946D01*
X186476569Y-27739654D01*
X186546281Y-27734964D01*
X186607462Y-27768709D01*
X186640687Y-27830173D01*
X186635407Y-27899843D01*
X186633971Y-27903470D01*
X186594775Y-27998097D01*
X186594772Y-27998109D01*
X186584450Y-28049999D01*
X186584450Y-28050000D01*
X187675272Y-28050000D01*
X187583386Y-28088060D01*
X187513060Y-28158386D01*
X187475000Y-28250272D01*
X187475000Y-28349728D01*
X187513060Y-28441614D01*
X187583386Y-28511940D01*
X187675272Y-28550000D01*
X186584450Y-28550000D01*
X186594772Y-28601890D01*
X186594774Y-28601898D01*
X186672793Y-28790252D01*
X186672798Y-28790262D01*
X186786062Y-28959773D01*
X186786065Y-28959777D01*
X186930222Y-29103934D01*
X186930226Y-29103937D01*
X187099737Y-29217201D01*
X187099747Y-29217206D01*
X187288101Y-29295225D01*
X187288109Y-29295227D01*
X187488056Y-29334999D01*
X187488060Y-29335000D01*
X187875000Y-29335000D01*
X187875000Y-28550000D01*
X188375000Y-28550000D01*
X188375000Y-29335000D01*
X188761940Y-29335000D01*
X188761943Y-29334999D01*
X188961890Y-29295227D01*
X188961898Y-29295225D01*
X189150252Y-29217206D01*
X189150262Y-29217201D01*
X189319773Y-29103937D01*
X189319777Y-29103934D01*
X189387819Y-29035893D01*
X189449142Y-29002408D01*
X189518834Y-29007392D01*
X189574767Y-29049264D01*
X189599184Y-29114728D01*
X189599500Y-29123574D01*
X189599500Y-34309481D01*
X189579815Y-34376520D01*
X189527011Y-34422275D01*
X189457853Y-34432219D01*
X189394297Y-34403194D01*
X189387819Y-34397162D01*
X188670767Y-33680110D01*
X188637282Y-33618787D01*
X188642266Y-33549095D01*
X188653454Y-33526457D01*
X188745764Y-33379547D01*
X188805343Y-33209280D01*
X188809171Y-33175305D01*
X188825540Y-33030028D01*
X188825540Y-33030021D01*
X188805344Y-32850775D01*
X188805343Y-32850770D01*
X188797366Y-32827973D01*
X188745764Y-32680503D01*
X188649791Y-32527763D01*
X188522237Y-32400209D01*
X188519075Y-32398222D01*
X188369496Y-32304235D01*
X188199224Y-32244655D01*
X188152149Y-32239351D01*
X188087735Y-32212284D01*
X188078353Y-32203812D01*
X184786819Y-28912278D01*
X184753334Y-28850955D01*
X184750500Y-28824597D01*
X184750500Y-28251626D01*
X184770185Y-28184587D01*
X184822989Y-28138832D01*
X184892147Y-28128888D01*
X184939780Y-28146200D01*
X184960210Y-28158850D01*
X185158936Y-28235836D01*
X185158941Y-28235837D01*
X185368439Y-28275000D01*
X185581561Y-28275000D01*
X185791058Y-28235837D01*
X185791063Y-28235836D01*
X185989791Y-28158849D01*
X185989798Y-28158846D01*
X186092006Y-28095560D01*
X186092006Y-28095559D01*
X185471447Y-27475000D01*
X185521078Y-27475000D01*
X185610095Y-27451148D01*
X185689905Y-27405070D01*
X185755070Y-27339905D01*
X185801148Y-27260095D01*
X185825000Y-27171078D01*
X185825000Y-27078922D01*
X185801148Y-26989905D01*
X185755070Y-26910095D01*
X185689905Y-26844930D01*
X185610095Y-26798852D01*
X185521078Y-26775000D01*
X185471447Y-26775000D01*
X186092007Y-26154439D01*
X185989793Y-26091151D01*
X185989789Y-26091149D01*
X185791063Y-26014163D01*
X185791058Y-26014162D01*
X185581561Y-25975000D01*
X185368439Y-25975000D01*
X185158941Y-26014162D01*
X185158933Y-26014164D01*
X185131694Y-26024716D01*
X185062071Y-26030576D01*
X185000331Y-25997864D01*
X184966079Y-25936967D01*
X184970187Y-25867218D01*
X184972324Y-25861682D01*
X185001463Y-25791336D01*
X185025500Y-25670490D01*
X185025500Y-25244854D01*
X185044507Y-25178881D01*
X185125788Y-25049524D01*
X185125789Y-25049522D01*
X185185368Y-24879255D01*
X185200096Y-24748539D01*
X185205565Y-24700003D01*
X185205565Y-24699996D01*
X185185369Y-24520750D01*
X185185368Y-24520745D01*
X185162623Y-24455743D01*
X185125789Y-24350478D01*
X185029816Y-24197738D01*
X184902262Y-24070184D01*
X184749523Y-23974211D01*
X184579254Y-23914631D01*
X184579249Y-23914630D01*
X184400004Y-23894435D01*
X184399996Y-23894435D01*
X184220750Y-23914630D01*
X184220745Y-23914631D01*
X184050476Y-23974211D01*
X183897737Y-24070184D01*
X183770184Y-24197737D01*
X183674211Y-24350476D01*
X183619491Y-24506859D01*
X183578769Y-24563635D01*
X183543404Y-24582945D01*
X183425480Y-24624209D01*
X183296117Y-24705494D01*
X183230145Y-24724500D01*
X181954505Y-24724500D01*
X181833669Y-24748535D01*
X181833657Y-24748539D01*
X181801378Y-24761909D01*
X181786513Y-24768067D01*
X181764285Y-24777274D01*
X181719829Y-24795688D01*
X181709673Y-24802475D01*
X181709565Y-24802547D01*
X181617384Y-24864140D01*
X181573821Y-24907703D01*
X181530258Y-24951267D01*
X181530255Y-24951270D01*
X173403434Y-33078090D01*
X173342111Y-33111575D01*
X173329640Y-33113629D01*
X173320749Y-33114630D01*
X173150478Y-33174210D01*
X172997737Y-33270184D01*
X172870184Y-33397737D01*
X172774211Y-33550476D01*
X172714631Y-33720745D01*
X172714630Y-33720750D01*
X172694435Y-33899996D01*
X172694435Y-33900003D01*
X172714630Y-34079249D01*
X172714631Y-34079254D01*
X172774211Y-34249523D01*
X172853368Y-34375500D01*
X172870184Y-34402262D01*
X172997738Y-34529816D01*
X173086147Y-34585367D01*
X173123508Y-34608843D01*
X173150478Y-34625789D01*
X173245270Y-34658958D01*
X173320745Y-34685368D01*
X173320750Y-34685369D01*
X173499996Y-34705565D01*
X173500000Y-34705565D01*
X173500004Y-34705565D01*
X173679249Y-34685369D01*
X173679251Y-34685368D01*
X173679255Y-34685368D01*
X173679258Y-34685366D01*
X173679262Y-34685366D01*
X173754730Y-34658958D01*
X173849522Y-34625789D01*
X173859028Y-34619815D01*
X173926263Y-34600815D01*
X173990971Y-34619815D01*
X174000478Y-34625789D01*
X174031786Y-34636744D01*
X174170737Y-34685366D01*
X174170743Y-34685367D01*
X174170745Y-34685368D01*
X174170746Y-34685368D01*
X174170750Y-34685369D01*
X174349996Y-34705565D01*
X174350000Y-34705565D01*
X174350004Y-34705565D01*
X174529249Y-34685369D01*
X174529252Y-34685368D01*
X174529255Y-34685368D01*
X174699522Y-34625789D01*
X174852262Y-34529816D01*
X174979816Y-34402262D01*
X175075789Y-34249522D01*
X175135368Y-34079255D01*
X175136390Y-34070184D01*
X175155565Y-33900003D01*
X175155565Y-33899998D01*
X175153545Y-33882076D01*
X175145191Y-33807932D01*
X175157245Y-33739114D01*
X175180727Y-33706373D01*
X181695580Y-27191520D01*
X181756902Y-27158037D01*
X181826594Y-27163021D01*
X181882527Y-27204893D01*
X181906944Y-27270357D01*
X181906480Y-27293086D01*
X181894435Y-27399995D01*
X181894435Y-27400003D01*
X181914630Y-27579249D01*
X181914631Y-27579254D01*
X181974211Y-27749523D01*
X181989905Y-27774499D01*
X182070184Y-27902262D01*
X182197738Y-28029816D01*
X182350478Y-28125789D01*
X182444958Y-28158849D01*
X182520745Y-28185368D01*
X182520750Y-28185369D01*
X182699996Y-28205565D01*
X182700000Y-28205565D01*
X182700004Y-28205565D01*
X182879249Y-28185369D01*
X182879252Y-28185368D01*
X182879255Y-28185368D01*
X183049522Y-28125789D01*
X183202262Y-28029816D01*
X183287819Y-27944259D01*
X183349142Y-27910774D01*
X183418834Y-27915758D01*
X183474767Y-27957630D01*
X183499184Y-28023094D01*
X183499500Y-28031940D01*
X183499500Y-28583677D01*
X183479815Y-28650716D01*
X183427011Y-28696471D01*
X183389384Y-28706897D01*
X183320750Y-28714630D01*
X183150478Y-28774210D01*
X182997737Y-28870184D01*
X182870184Y-28997737D01*
X182774211Y-29150476D01*
X182714631Y-29320745D01*
X182714630Y-29320750D01*
X182694435Y-29499996D01*
X182694435Y-29500003D01*
X182714630Y-29679249D01*
X182714631Y-29679254D01*
X182774211Y-29849523D01*
X182870184Y-30002262D01*
X182997738Y-30129816D01*
X183150478Y-30225789D01*
X183253984Y-30262007D01*
X183300710Y-30291367D01*
X186704471Y-33695128D01*
X186737956Y-33756451D01*
X186732972Y-33826143D01*
X186691100Y-33882076D01*
X186625636Y-33906493D01*
X186602907Y-33906029D01*
X186500004Y-33894435D01*
X186499996Y-33894435D01*
X186320750Y-33914630D01*
X186320745Y-33914631D01*
X186150476Y-33974211D01*
X185997737Y-34070184D01*
X185870184Y-34197737D01*
X185774209Y-34350479D01*
X185755327Y-34404442D01*
X185714605Y-34461217D01*
X185649652Y-34486964D01*
X185581091Y-34473507D01*
X185530688Y-34425120D01*
X185523728Y-34410945D01*
X185520734Y-34403718D01*
X185520730Y-34403710D01*
X185498691Y-34350500D01*
X185479312Y-34303715D01*
X185440398Y-34245477D01*
X185410858Y-34201267D01*
X185410856Y-34201265D01*
X185410854Y-34201262D01*
X185320637Y-34111045D01*
X185320606Y-34111016D01*
X184951211Y-33741621D01*
X184917726Y-33680298D01*
X184915673Y-33667838D01*
X184910368Y-33620745D01*
X184850789Y-33450478D01*
X184850188Y-33449522D01*
X184806220Y-33379547D01*
X184754816Y-33297738D01*
X184627262Y-33170184D01*
X184595144Y-33150003D01*
X184474523Y-33074211D01*
X184304254Y-33014631D01*
X184304249Y-33014630D01*
X184125004Y-32994435D01*
X184124996Y-32994435D01*
X183945750Y-33014630D01*
X183945745Y-33014631D01*
X183775476Y-33074211D01*
X183622737Y-33170184D01*
X183495184Y-33297737D01*
X183399211Y-33450476D01*
X183339631Y-33620745D01*
X183339630Y-33620750D01*
X183319435Y-33799996D01*
X183319435Y-33800003D01*
X183339630Y-33979249D01*
X183339631Y-33979254D01*
X183399211Y-34149523D01*
X183494077Y-34300500D01*
X183495184Y-34302262D01*
X183622738Y-34429816D01*
X183692272Y-34473507D01*
X183767450Y-34520745D01*
X183775478Y-34525789D01*
X183945745Y-34585368D01*
X183992823Y-34590672D01*
X184057236Y-34617737D01*
X184066621Y-34626211D01*
X184263181Y-34822771D01*
X184296666Y-34884094D01*
X184299500Y-34910452D01*
X184299500Y-35980191D01*
X184279815Y-36047230D01*
X184227011Y-36092985D01*
X184157853Y-36102929D01*
X184094297Y-36073904D01*
X184087819Y-36067872D01*
X180614673Y-32594726D01*
X180578790Y-32570750D01*
X180508127Y-32523535D01*
X180501403Y-32520750D01*
X180389744Y-32474499D01*
X180389738Y-32474497D01*
X180264071Y-32449500D01*
X180264069Y-32449500D01*
X179955068Y-32449500D01*
X179889096Y-32430494D01*
X179889008Y-32430439D01*
X179877152Y-32422989D01*
X179799522Y-32374210D01*
X179799518Y-32374209D01*
X179629262Y-32314633D01*
X179629249Y-32314630D01*
X179450004Y-32294435D01*
X179449996Y-32294435D01*
X179270750Y-32314630D01*
X179270745Y-32314631D01*
X179100476Y-32374211D01*
X178947737Y-32470184D01*
X178820184Y-32597737D01*
X178724211Y-32750476D01*
X178664631Y-32920745D01*
X178664630Y-32920750D01*
X178644435Y-33099996D01*
X178644435Y-33100003D01*
X178664630Y-33279249D01*
X178664631Y-33279254D01*
X178724211Y-33449523D01*
X178787646Y-33550478D01*
X178820184Y-33602262D01*
X178947738Y-33729816D01*
X179027263Y-33779785D01*
X179092450Y-33820745D01*
X179100478Y-33825789D01*
X179163205Y-33847738D01*
X179270745Y-33885368D01*
X179270750Y-33885369D01*
X179449996Y-33905565D01*
X179450000Y-33905565D01*
X179450004Y-33905565D01*
X179629249Y-33885369D01*
X179629251Y-33885368D01*
X179629255Y-33885368D01*
X179629258Y-33885366D01*
X179629262Y-33885366D01*
X179736795Y-33847738D01*
X179799522Y-33825789D01*
X179840565Y-33800000D01*
X179842499Y-33798785D01*
X179909736Y-33779785D01*
X179976571Y-33800153D01*
X179996152Y-33816098D01*
X181142873Y-34962819D01*
X181176358Y-35024142D01*
X181171374Y-35093834D01*
X181129502Y-35149767D01*
X181064038Y-35174184D01*
X181055192Y-35174500D01*
X180788389Y-35174500D01*
X180667555Y-35198535D01*
X180667541Y-35198539D01*
X180639255Y-35210255D01*
X180639256Y-35210256D01*
X180553713Y-35245688D01*
X180553714Y-35245689D01*
X180451270Y-35314139D01*
X180451268Y-35314141D01*
X180441614Y-35323794D01*
X180380288Y-35357274D01*
X180367825Y-35359326D01*
X180320750Y-35364630D01*
X180150478Y-35424210D01*
X179997737Y-35520184D01*
X179870184Y-35647737D01*
X179774211Y-35800476D01*
X179714631Y-35970745D01*
X179714630Y-35970750D01*
X179694435Y-36149996D01*
X179694435Y-36150003D01*
X179714630Y-36329249D01*
X179714631Y-36329254D01*
X179774211Y-36499523D01*
X179853353Y-36625476D01*
X179870184Y-36652262D01*
X179997738Y-36779816D01*
X180150478Y-36875789D01*
X180303258Y-36929249D01*
X180320745Y-36935368D01*
X180320750Y-36935369D01*
X180499996Y-36955565D01*
X180500000Y-36955565D01*
X180500004Y-36955565D01*
X180679249Y-36935369D01*
X180679252Y-36935368D01*
X180679255Y-36935368D01*
X180849522Y-36875789D01*
X181002262Y-36779816D01*
X181129816Y-36652262D01*
X181225789Y-36499522D01*
X181225791Y-36499514D01*
X181227631Y-36495698D01*
X181229476Y-36493654D01*
X181229494Y-36493626D01*
X181229498Y-36493629D01*
X181274454Y-36443838D01*
X181339351Y-36425500D01*
X181430145Y-36425500D01*
X181496117Y-36444506D01*
X181574295Y-36493629D01*
X181625478Y-36525789D01*
X181753955Y-36570745D01*
X181795745Y-36585368D01*
X181795750Y-36585369D01*
X181974996Y-36605565D01*
X181975000Y-36605565D01*
X181975004Y-36605565D01*
X182154249Y-36585369D01*
X182154252Y-36585368D01*
X182154255Y-36585368D01*
X182324522Y-36525789D01*
X182474972Y-36431254D01*
X182542205Y-36412255D01*
X182609040Y-36432622D01*
X182628622Y-36448568D01*
X183378277Y-37198223D01*
X183411762Y-37259546D01*
X183413815Y-37272012D01*
X183414630Y-37279246D01*
X183414632Y-37279255D01*
X183474210Y-37449521D01*
X183523058Y-37527262D01*
X183570184Y-37602262D01*
X183697738Y-37729816D01*
X183788080Y-37786582D01*
X183841557Y-37820184D01*
X183850478Y-37825789D01*
X184020745Y-37885368D01*
X184055078Y-37889236D01*
X184119490Y-37916300D01*
X184159047Y-37973894D01*
X184161186Y-38043731D01*
X184128876Y-38100137D01*
X183665833Y-38563181D01*
X183604510Y-38596666D01*
X183578152Y-38599500D01*
X180258857Y-38599500D01*
X180258837Y-38599499D01*
X180252723Y-38599499D01*
X180129510Y-38599499D01*
X180028713Y-38619548D01*
X180028708Y-38619548D01*
X180008671Y-38623534D01*
X180008664Y-38623537D01*
X179994860Y-38629255D01*
X179894836Y-38670684D01*
X179894824Y-38670691D01*
X179792383Y-38739141D01*
X179792379Y-38739144D01*
X178357181Y-40174343D01*
X178295858Y-40207828D01*
X178226166Y-40202844D01*
X178170233Y-40160972D01*
X178145816Y-40095508D01*
X178145500Y-40086662D01*
X178145500Y-37519854D01*
X178164507Y-37453881D01*
X178245788Y-37324524D01*
X178251170Y-37309143D01*
X178305368Y-37154255D01*
X178307342Y-37136734D01*
X178325565Y-36975003D01*
X178325565Y-36974996D01*
X178305369Y-36795750D01*
X178305368Y-36795745D01*
X178245788Y-36625476D01*
X178183150Y-36525789D01*
X178149816Y-36472738D01*
X178022262Y-36345184D01*
X177909768Y-36274499D01*
X177869523Y-36249211D01*
X177699254Y-36189631D01*
X177699249Y-36189630D01*
X177520004Y-36169435D01*
X177519996Y-36169435D01*
X177340750Y-36189630D01*
X177340745Y-36189631D01*
X177170476Y-36249211D01*
X177017737Y-36345184D01*
X176890184Y-36472737D01*
X176794211Y-36625476D01*
X176734631Y-36795745D01*
X176734630Y-36795750D01*
X176714435Y-36974996D01*
X176714435Y-36975003D01*
X176734630Y-37154249D01*
X176734631Y-37154254D01*
X176794211Y-37324524D01*
X176875493Y-37453881D01*
X176894500Y-37519854D01*
X176894500Y-40769547D01*
X176874815Y-40836586D01*
X176858181Y-40857228D01*
X176466203Y-41249205D01*
X176404880Y-41282690D01*
X176335188Y-41277706D01*
X176279255Y-41235834D01*
X176261480Y-41202478D01*
X176259821Y-41197738D01*
X176225789Y-41100478D01*
X176129816Y-40947738D01*
X176002262Y-40820184D01*
X175921674Y-40769547D01*
X175849523Y-40724211D01*
X175679254Y-40664631D01*
X175679249Y-40664630D01*
X175500004Y-40644435D01*
X175499996Y-40644435D01*
X175320750Y-40664630D01*
X175320745Y-40664631D01*
X175150476Y-40724211D01*
X174997737Y-40820184D01*
X174870184Y-40947737D01*
X174774210Y-41100478D01*
X174714632Y-41270744D01*
X174714630Y-41270752D01*
X174713815Y-41277988D01*
X174686743Y-41342400D01*
X174678277Y-41351775D01*
X173816873Y-42213181D01*
X173755550Y-42246666D01*
X173729192Y-42249500D01*
X172730068Y-42249500D01*
X172664096Y-42230494D01*
X172574522Y-42174210D01*
X172574518Y-42174209D01*
X172404262Y-42114633D01*
X172404251Y-42114631D01*
X172342173Y-42107636D01*
X172277760Y-42080569D01*
X172238205Y-42022974D01*
X172236068Y-41953137D01*
X172251062Y-41918447D01*
X172325789Y-41799522D01*
X172385368Y-41629255D01*
X172385369Y-41629249D01*
X172405565Y-41450003D01*
X172405565Y-41449996D01*
X172385369Y-41270750D01*
X172385368Y-41270745D01*
X172373152Y-41235834D01*
X172325789Y-41100478D01*
X172229816Y-40947738D01*
X172102262Y-40820184D01*
X172021674Y-40769547D01*
X171949523Y-40724211D01*
X171779254Y-40664631D01*
X171779249Y-40664630D01*
X171600004Y-40644435D01*
X171599996Y-40644435D01*
X171420750Y-40664630D01*
X171420745Y-40664631D01*
X171250476Y-40724211D01*
X171097737Y-40820184D01*
X170970184Y-40947737D01*
X170874211Y-41100476D01*
X170814631Y-41270745D01*
X170814630Y-41270750D01*
X170794435Y-41449996D01*
X170794435Y-41450003D01*
X170814630Y-41629249D01*
X170814631Y-41629254D01*
X170874211Y-41799523D01*
X170948934Y-41918443D01*
X170970184Y-41952262D01*
X171097738Y-42079816D01*
X171153149Y-42114633D01*
X171247966Y-42174211D01*
X171250478Y-42175789D01*
X171406816Y-42230494D01*
X171420745Y-42235368D01*
X171420750Y-42235369D01*
X171482824Y-42242363D01*
X171547238Y-42269429D01*
X171586793Y-42327024D01*
X171588931Y-42396861D01*
X171573935Y-42431555D01*
X171499211Y-42550476D01*
X171439631Y-42720745D01*
X171439630Y-42720750D01*
X171419435Y-42899996D01*
X171419435Y-42900003D01*
X171439630Y-43079249D01*
X171439631Y-43079254D01*
X171499211Y-43249523D01*
X171575384Y-43370750D01*
X171595184Y-43402262D01*
X171722738Y-43529816D01*
X171756349Y-43550935D01*
X171871021Y-43622989D01*
X171875478Y-43625789D01*
X171990566Y-43666060D01*
X172045745Y-43685368D01*
X172045750Y-43685369D01*
X172224996Y-43705565D01*
X172225000Y-43705565D01*
X172225004Y-43705565D01*
X172404249Y-43685369D01*
X172404251Y-43685368D01*
X172404255Y-43685368D01*
X172404258Y-43685366D01*
X172404262Y-43685366D01*
X172494377Y-43653832D01*
X172574522Y-43625789D01*
X172664096Y-43569505D01*
X172730068Y-43550500D01*
X173628779Y-43550500D01*
X173695818Y-43570185D01*
X173741573Y-43622989D01*
X173751517Y-43692147D01*
X173722492Y-43755703D01*
X173694752Y-43779493D01*
X173677740Y-43790182D01*
X173677737Y-43790184D01*
X173550184Y-43917737D01*
X173454211Y-44070476D01*
X173394631Y-44240745D01*
X173394630Y-44240750D01*
X173374435Y-44419996D01*
X173374435Y-44420003D01*
X173394630Y-44599249D01*
X173394631Y-44599254D01*
X173454211Y-44769523D01*
X173526036Y-44883831D01*
X173550184Y-44922262D01*
X173677738Y-45049816D01*
X173702349Y-45065280D01*
X173805055Y-45129815D01*
X173830478Y-45145789D01*
X173996255Y-45203797D01*
X174000745Y-45205368D01*
X174000750Y-45205369D01*
X174179996Y-45225565D01*
X174180000Y-45225565D01*
X174180004Y-45225565D01*
X174359249Y-45205369D01*
X174359252Y-45205368D01*
X174359255Y-45205368D01*
X174529522Y-45145789D01*
X174682262Y-45049816D01*
X174809816Y-44922262D01*
X174905789Y-44769522D01*
X174965368Y-44599255D01*
X174970672Y-44552173D01*
X174997737Y-44487763D01*
X175006201Y-44478387D01*
X176945271Y-42539317D01*
X177006593Y-42505834D01*
X177076285Y-42510818D01*
X177132218Y-42552690D01*
X177156635Y-42618154D01*
X177144672Y-42680799D01*
X177141824Y-42686712D01*
X177082241Y-42856989D01*
X177082240Y-42856994D01*
X177062045Y-43036240D01*
X177062045Y-43036247D01*
X177082240Y-43215493D01*
X177082241Y-43215498D01*
X177141821Y-43385767D01*
X177237794Y-43538506D01*
X177250223Y-43550935D01*
X177283708Y-43612258D01*
X177278724Y-43681950D01*
X177236852Y-43737883D01*
X177203498Y-43755657D01*
X177150479Y-43774209D01*
X176997737Y-43870184D01*
X176870184Y-43997737D01*
X176774211Y-44150476D01*
X176714631Y-44320745D01*
X176714630Y-44320750D01*
X176694435Y-44499996D01*
X176694435Y-44500003D01*
X176714630Y-44679249D01*
X176714631Y-44679254D01*
X176774211Y-44849523D01*
X176831134Y-44940114D01*
X176870184Y-45002262D01*
X176997738Y-45129816D01*
X177062876Y-45170745D01*
X177150121Y-45225565D01*
X177150478Y-45225789D01*
X177250934Y-45260940D01*
X177320745Y-45285368D01*
X177320750Y-45285369D01*
X177499996Y-45305565D01*
X177500000Y-45305565D01*
X177500004Y-45305565D01*
X177679249Y-45285369D01*
X177679252Y-45285368D01*
X177679255Y-45285368D01*
X177849522Y-45225789D01*
X178002262Y-45129816D01*
X178129816Y-45002262D01*
X178225789Y-44849522D01*
X178285368Y-44679255D01*
X178285369Y-44679249D01*
X178305565Y-44500003D01*
X178305565Y-44499996D01*
X178285369Y-44320750D01*
X178285368Y-44320745D01*
X178263276Y-44257611D01*
X178225789Y-44150478D01*
X178129816Y-43997738D01*
X178117386Y-43985308D01*
X178083901Y-43923985D01*
X178088885Y-43854293D01*
X178130757Y-43798360D01*
X178164113Y-43780585D01*
X178182329Y-43774211D01*
X178217132Y-43762033D01*
X178346493Y-43680749D01*
X178412465Y-43661744D01*
X178775792Y-43661744D01*
X178842831Y-43681429D01*
X178863473Y-43698063D01*
X179776263Y-44610855D01*
X179776267Y-44610858D01*
X179878710Y-44679309D01*
X179878711Y-44679309D01*
X179878715Y-44679312D01*
X179927454Y-44699500D01*
X179992548Y-44726463D01*
X180012597Y-44730451D01*
X180046196Y-44737134D01*
X180113392Y-44750501D01*
X180113394Y-44750501D01*
X180242721Y-44750501D01*
X180242741Y-44750500D01*
X181336608Y-44750500D01*
X181336608Y-44750499D01*
X181402949Y-44737304D01*
X181402951Y-44737304D01*
X181457442Y-44726465D01*
X181457442Y-44726464D01*
X181457452Y-44726463D01*
X181490792Y-44712652D01*
X181571286Y-44679312D01*
X181622509Y-44645084D01*
X181673733Y-44610858D01*
X181760858Y-44523733D01*
X181760859Y-44523731D01*
X181767925Y-44516665D01*
X181767928Y-44516661D01*
X181908379Y-44376209D01*
X181969700Y-44342726D01*
X181982156Y-44340674D01*
X182029255Y-44335368D01*
X182199522Y-44275789D01*
X182352262Y-44179816D01*
X182479816Y-44052262D01*
X182575789Y-43899522D01*
X182635368Y-43729255D01*
X182637016Y-43714632D01*
X182655565Y-43550003D01*
X182655565Y-43549996D01*
X182635369Y-43370750D01*
X182635368Y-43370745D01*
X182575789Y-43200478D01*
X182479816Y-43047738D01*
X182352262Y-42920184D01*
X182339985Y-42912470D01*
X182199524Y-42824212D01*
X182199523Y-42824211D01*
X182183158Y-42818485D01*
X182126382Y-42777763D01*
X182100636Y-42712810D01*
X182102497Y-42677252D01*
X182125501Y-42561608D01*
X182125501Y-42433283D01*
X182125500Y-42433257D01*
X182125500Y-40838394D01*
X182124731Y-40834530D01*
X182101463Y-40717549D01*
X182098346Y-40710024D01*
X182097588Y-40708193D01*
X182097575Y-40708163D01*
X182097560Y-40708127D01*
X182072219Y-40646950D01*
X182064752Y-40577482D01*
X182096028Y-40515003D01*
X182156117Y-40479351D01*
X182186782Y-40475500D01*
X183961608Y-40475500D01*
X183961608Y-40475499D01*
X184067183Y-40454500D01*
X184067184Y-40454500D01*
X184082447Y-40451464D01*
X184082447Y-40451463D01*
X184082452Y-40451463D01*
X184082457Y-40451460D01*
X184082460Y-40451460D01*
X184115787Y-40437654D01*
X184115786Y-40437654D01*
X184115792Y-40437652D01*
X184196286Y-40404312D01*
X184247509Y-40370084D01*
X184298733Y-40335858D01*
X184385858Y-40248733D01*
X184385859Y-40248731D01*
X184392925Y-40241665D01*
X184392928Y-40241661D01*
X186839030Y-37795558D01*
X186900351Y-37762075D01*
X186970040Y-37767058D01*
X187039084Y-37792810D01*
X187095016Y-37834680D01*
X187119433Y-37900144D01*
X187104582Y-37968417D01*
X187083431Y-37996672D01*
X186961503Y-38118600D01*
X186825965Y-38312169D01*
X186825964Y-38312171D01*
X186726098Y-38526335D01*
X186726094Y-38526344D01*
X186664938Y-38754586D01*
X186664936Y-38754596D01*
X186644341Y-38989999D01*
X186644341Y-38990000D01*
X186664936Y-39225403D01*
X186664938Y-39225413D01*
X186726094Y-39453655D01*
X186726096Y-39453659D01*
X186726097Y-39453663D01*
X186778010Y-39564990D01*
X186825965Y-39667830D01*
X186825967Y-39667834D01*
X186879465Y-39744236D01*
X186961505Y-39861401D01*
X187128599Y-40028495D01*
X187211670Y-40086662D01*
X187322165Y-40164032D01*
X187322167Y-40164033D01*
X187322170Y-40164035D01*
X187536337Y-40263903D01*
X187764592Y-40325063D01*
X187952918Y-40341539D01*
X187999999Y-40345659D01*
X188000000Y-40345659D01*
X188000001Y-40345659D01*
X188039234Y-40342226D01*
X188235408Y-40325063D01*
X188463663Y-40263903D01*
X188523096Y-40236188D01*
X188592172Y-40225697D01*
X188655956Y-40254217D01*
X188694196Y-40312693D01*
X188699500Y-40348571D01*
X188699500Y-42435500D01*
X188679815Y-42502539D01*
X188627011Y-42548294D01*
X188575500Y-42559500D01*
X187152129Y-42559500D01*
X187152123Y-42559501D01*
X187092516Y-42565908D01*
X186957671Y-42616202D01*
X186957664Y-42616206D01*
X186842455Y-42702452D01*
X186842452Y-42702455D01*
X186756206Y-42817664D01*
X186756203Y-42817670D01*
X186705908Y-42952517D01*
X186699501Y-43012116D01*
X186699500Y-43012135D01*
X186699500Y-44807870D01*
X186699501Y-44807876D01*
X186705908Y-44867483D01*
X186756202Y-45002328D01*
X186756206Y-45002335D01*
X186842452Y-45117544D01*
X186842455Y-45117547D01*
X186957664Y-45203793D01*
X186957671Y-45203797D01*
X187089081Y-45252810D01*
X187145015Y-45294681D01*
X187169432Y-45360145D01*
X187154580Y-45428418D01*
X187133430Y-45456673D01*
X187011503Y-45578600D01*
X186875965Y-45772169D01*
X186875964Y-45772171D01*
X186833394Y-45863463D01*
X186787221Y-45915902D01*
X186720028Y-45935054D01*
X186653146Y-45914838D01*
X186633331Y-45898739D01*
X186026211Y-45291621D01*
X185992726Y-45230298D01*
X185990673Y-45217838D01*
X185985368Y-45170745D01*
X185925789Y-45000478D01*
X185829816Y-44847738D01*
X185702262Y-44720184D01*
X185669344Y-44699500D01*
X185549523Y-44624211D01*
X185379254Y-44564631D01*
X185379249Y-44564630D01*
X185200004Y-44544435D01*
X185199996Y-44544435D01*
X185020750Y-44564630D01*
X185020745Y-44564631D01*
X184850476Y-44624211D01*
X184697737Y-44720184D01*
X184570184Y-44847737D01*
X184474211Y-45000476D01*
X184414631Y-45170745D01*
X184414630Y-45170750D01*
X184394435Y-45349996D01*
X184394435Y-45350003D01*
X184400253Y-45401642D01*
X184388198Y-45470464D01*
X184364715Y-45503205D01*
X184270185Y-45597736D01*
X184270184Y-45597737D01*
X184174211Y-45750476D01*
X184114631Y-45920745D01*
X184114630Y-45920750D01*
X184094435Y-46099996D01*
X184094435Y-46100003D01*
X184114630Y-46279249D01*
X184114631Y-46279254D01*
X184174211Y-46449523D01*
X184263828Y-46592147D01*
X184270184Y-46602262D01*
X184397738Y-46729816D01*
X184550478Y-46825789D01*
X184720745Y-46885368D01*
X184767823Y-46890672D01*
X184832236Y-46917737D01*
X184841621Y-46926211D01*
X185088181Y-47172771D01*
X185121666Y-47234094D01*
X185124500Y-47260452D01*
X185124500Y-63251611D01*
X185148535Y-63372444D01*
X185148540Y-63372461D01*
X185195685Y-63486280D01*
X185195690Y-63486289D01*
X185229914Y-63537507D01*
X185229915Y-63537509D01*
X185264141Y-63588733D01*
X185355586Y-63680178D01*
X185355608Y-63680198D01*
X186709762Y-65034352D01*
X186743247Y-65095675D01*
X186741856Y-65154126D01*
X186714938Y-65254586D01*
X186714936Y-65254596D01*
X186694341Y-65489999D01*
X186694341Y-65490000D01*
X186714936Y-65725403D01*
X186714938Y-65725413D01*
X186776094Y-65953655D01*
X186776096Y-65953659D01*
X186776097Y-65953663D01*
X186875965Y-66167830D01*
X186875967Y-66167834D01*
X187011501Y-66361395D01*
X187011506Y-66361402D01*
X187178597Y-66528493D01*
X187178603Y-66528498D01*
X187364158Y-66658425D01*
X187407783Y-66713002D01*
X187414977Y-66782500D01*
X187383454Y-66844855D01*
X187364158Y-66861575D01*
X187178597Y-66991505D01*
X187011506Y-67158597D01*
X187011505Y-67158599D01*
X186949869Y-67246624D01*
X186895292Y-67290249D01*
X186848294Y-67299500D01*
X185287711Y-67299500D01*
X185220672Y-67279815D01*
X185186136Y-67246623D01*
X185103494Y-67128597D01*
X184936402Y-66961506D01*
X184936395Y-66961501D01*
X184742834Y-66825967D01*
X184742830Y-66825965D01*
X184649619Y-66782500D01*
X184528663Y-66726097D01*
X184528659Y-66726096D01*
X184528655Y-66726094D01*
X184300413Y-66664938D01*
X184300403Y-66664936D01*
X184065001Y-66644341D01*
X184064999Y-66644341D01*
X183829596Y-66664936D01*
X183829586Y-66664938D01*
X183601344Y-66726094D01*
X183601335Y-66726098D01*
X183387171Y-66825964D01*
X183387169Y-66825965D01*
X183193600Y-66961503D01*
X183071284Y-67083819D01*
X183009961Y-67117303D01*
X182940269Y-67112319D01*
X182884336Y-67070447D01*
X182867421Y-67039470D01*
X182818354Y-66907913D01*
X182818350Y-66907906D01*
X182732190Y-66792812D01*
X182732187Y-66792809D01*
X182617093Y-66706649D01*
X182617086Y-66706645D01*
X182482379Y-66656403D01*
X182482372Y-66656401D01*
X182422844Y-66650000D01*
X181775000Y-66650000D01*
X181775000Y-67566988D01*
X181717993Y-67534075D01*
X181590826Y-67500000D01*
X181459174Y-67500000D01*
X181332007Y-67534075D01*
X181275000Y-67566988D01*
X181275000Y-66650000D01*
X180627155Y-66650000D01*
X180567627Y-66656401D01*
X180567620Y-66656403D01*
X180432913Y-66706645D01*
X180432906Y-66706649D01*
X180317812Y-66792809D01*
X180317809Y-66792812D01*
X180231649Y-66907906D01*
X180231645Y-66907913D01*
X180181403Y-67042620D01*
X180181401Y-67042627D01*
X180175000Y-67102155D01*
X180175000Y-67750000D01*
X181091988Y-67750000D01*
X181059075Y-67807007D01*
X181025000Y-67934174D01*
X181025000Y-68065826D01*
X181059075Y-68192993D01*
X181091988Y-68250000D01*
X180175000Y-68250000D01*
X180175000Y-68897844D01*
X180181401Y-68957372D01*
X180181403Y-68957379D01*
X180231645Y-69092086D01*
X180231649Y-69092093D01*
X180317809Y-69207187D01*
X180317812Y-69207190D01*
X180432906Y-69293350D01*
X180432913Y-69293354D01*
X180567620Y-69343596D01*
X180567627Y-69343598D01*
X180627155Y-69349999D01*
X180627172Y-69350000D01*
X181275000Y-69350000D01*
X181275000Y-68433012D01*
X181332007Y-68465925D01*
X181459174Y-68500000D01*
X181590826Y-68500000D01*
X181717993Y-68465925D01*
X181775000Y-68433012D01*
X181775000Y-69350000D01*
X182422828Y-69350000D01*
X182422844Y-69349999D01*
X182482372Y-69343598D01*
X182482379Y-69343596D01*
X182617086Y-69293354D01*
X182617093Y-69293350D01*
X182732187Y-69207190D01*
X182732190Y-69207187D01*
X182818350Y-69092093D01*
X182818354Y-69092086D01*
X182867422Y-68960529D01*
X182909293Y-68904595D01*
X182974757Y-68880178D01*
X183043030Y-68895030D01*
X183071285Y-68916181D01*
X183193599Y-69038495D01*
X183236448Y-69068498D01*
X183387165Y-69174032D01*
X183387167Y-69174033D01*
X183387170Y-69174035D01*
X183601337Y-69273903D01*
X183829592Y-69335063D01*
X184000319Y-69350000D01*
X184022858Y-69351972D01*
X184064655Y-69368322D01*
X184083015Y-69356523D01*
X184107142Y-69351972D01*
X184129681Y-69350000D01*
X184300408Y-69335063D01*
X184528663Y-69273903D01*
X184742830Y-69174035D01*
X184936401Y-69038495D01*
X185103495Y-68871401D01*
X185186136Y-68753376D01*
X185240713Y-68709752D01*
X185287711Y-68700500D01*
X186806282Y-68700500D01*
X186873321Y-68720185D01*
X186907856Y-68753375D01*
X187011505Y-68901401D01*
X187178599Y-69068495D01*
X187275384Y-69136265D01*
X187372165Y-69204032D01*
X187372167Y-69204033D01*
X187372170Y-69204035D01*
X187586337Y-69303903D01*
X187779495Y-69355659D01*
X187779742Y-69355725D01*
X187839403Y-69392090D01*
X187869932Y-69454936D01*
X187861638Y-69524312D01*
X187817152Y-69578190D01*
X187750601Y-69599465D01*
X187747649Y-69599500D01*
X184117950Y-69599500D01*
X184062714Y-69583280D01*
X184036482Y-69597069D01*
X184012050Y-69599500D01*
X142004428Y-69599500D01*
X141995582Y-69599184D01*
X141966011Y-69597069D01*
X141781211Y-69583851D01*
X141763700Y-69581333D01*
X141558039Y-69536595D01*
X141541063Y-69531611D01*
X141343849Y-69458053D01*
X141327757Y-69450703D01*
X141143031Y-69349836D01*
X141128146Y-69340271D01*
X141121186Y-69335061D01*
X140959646Y-69214133D01*
X140946276Y-69202547D01*
X140797452Y-69053723D01*
X140785866Y-69040353D01*
X140659724Y-68871848D01*
X140650163Y-68856968D01*
X140549296Y-68672242D01*
X140541946Y-68656150D01*
X140513389Y-68579586D01*
X140468385Y-68458928D01*
X140463406Y-68441969D01*
X140418665Y-68236296D01*
X140416148Y-68218787D01*
X140412623Y-68169506D01*
X140400816Y-68004418D01*
X140400500Y-67995572D01*
X140400500Y-66772273D01*
X144249500Y-66772273D01*
X144249500Y-68372273D01*
X144249500Y-68477727D01*
X144276793Y-68579587D01*
X144329520Y-68670913D01*
X144404087Y-68745480D01*
X144495413Y-68798207D01*
X144597273Y-68825500D01*
X144597275Y-68825500D01*
X150702725Y-68825500D01*
X150702727Y-68825500D01*
X150804587Y-68798207D01*
X150895913Y-68745480D01*
X150970480Y-68670913D01*
X151023207Y-68579587D01*
X151050500Y-68477727D01*
X151050500Y-66772273D01*
X151023207Y-66670413D01*
X150970480Y-66579087D01*
X150895913Y-66504520D01*
X150804587Y-66451793D01*
X150702727Y-66424500D01*
X144702727Y-66424500D01*
X144597273Y-66424500D01*
X144495413Y-66451793D01*
X144495410Y-66451794D01*
X144404085Y-66504521D01*
X144329521Y-66579085D01*
X144276794Y-66670410D01*
X144276793Y-66670413D01*
X144249500Y-66772273D01*
X140400500Y-66772273D01*
X140400500Y-62149996D01*
X149744435Y-62149996D01*
X149744435Y-62150003D01*
X149764630Y-62329249D01*
X149764631Y-62329254D01*
X149824211Y-62499523D01*
X149920184Y-62652262D01*
X150047738Y-62779816D01*
X150200478Y-62875789D01*
X150358005Y-62930910D01*
X150370745Y-62935368D01*
X150370750Y-62935369D01*
X150549996Y-62955565D01*
X150550000Y-62955565D01*
X150550004Y-62955565D01*
X150729249Y-62935369D01*
X150729252Y-62935368D01*
X150729255Y-62935368D01*
X150899522Y-62875789D01*
X151052262Y-62779816D01*
X151179816Y-62652262D01*
X151275789Y-62499522D01*
X151335368Y-62329255D01*
X151355565Y-62150000D01*
X151347520Y-62078600D01*
X151335369Y-61970750D01*
X151335368Y-61970745D01*
X151314639Y-61911505D01*
X151275789Y-61800478D01*
X151260386Y-61775965D01*
X151200262Y-61680278D01*
X151179816Y-61647738D01*
X151052262Y-61520184D01*
X151024306Y-61502618D01*
X150899523Y-61424211D01*
X150729254Y-61364631D01*
X150729249Y-61364630D01*
X150550004Y-61344435D01*
X150549996Y-61344435D01*
X150370750Y-61364630D01*
X150370745Y-61364631D01*
X150200476Y-61424211D01*
X150047737Y-61520184D01*
X149920184Y-61647737D01*
X149824211Y-61800476D01*
X149764631Y-61970745D01*
X149764630Y-61970750D01*
X149744435Y-62149996D01*
X140400500Y-62149996D01*
X140400500Y-55072273D01*
X144249500Y-55072273D01*
X144249500Y-56672273D01*
X144249500Y-56777727D01*
X144276793Y-56879587D01*
X144329520Y-56970913D01*
X144404087Y-57045480D01*
X144495413Y-57098207D01*
X144597273Y-57125500D01*
X144597275Y-57125500D01*
X150702725Y-57125500D01*
X150702727Y-57125500D01*
X150804587Y-57098207D01*
X150895913Y-57045480D01*
X150970480Y-56970913D01*
X151023207Y-56879587D01*
X151050500Y-56777727D01*
X151050500Y-55072273D01*
X151023207Y-54970413D01*
X150970480Y-54879087D01*
X150895913Y-54804520D01*
X150804587Y-54751793D01*
X150702727Y-54724500D01*
X144702727Y-54724500D01*
X144597273Y-54724500D01*
X144495413Y-54751793D01*
X144495410Y-54751794D01*
X144404085Y-54804521D01*
X144329521Y-54879085D01*
X144276794Y-54970410D01*
X144276793Y-54970413D01*
X144249500Y-55072273D01*
X140400500Y-55072273D01*
X140400500Y-44599996D01*
X142944435Y-44599996D01*
X142944435Y-44600003D01*
X142964630Y-44779249D01*
X142964631Y-44779254D01*
X143024211Y-44949524D01*
X143055493Y-44999307D01*
X143074500Y-45065280D01*
X143074500Y-45584719D01*
X143055494Y-45650690D01*
X143024209Y-45700479D01*
X142964633Y-45870737D01*
X142964630Y-45870750D01*
X142944435Y-46049996D01*
X142944435Y-46050003D01*
X142964630Y-46229249D01*
X142964631Y-46229254D01*
X143024211Y-46399523D01*
X143116038Y-46545664D01*
X143120184Y-46552262D01*
X143247738Y-46679816D01*
X143338080Y-46736582D01*
X143392450Y-46770745D01*
X143400478Y-46775789D01*
X143543367Y-46825788D01*
X143570745Y-46835368D01*
X143570750Y-46835369D01*
X143749996Y-46855565D01*
X143750000Y-46855565D01*
X143750004Y-46855565D01*
X143929249Y-46835369D01*
X143929252Y-46835368D01*
X143929255Y-46835368D01*
X144099522Y-46775789D01*
X144252262Y-46679816D01*
X144379816Y-46552262D01*
X144475789Y-46399522D01*
X144535368Y-46229255D01*
X144536535Y-46218897D01*
X144555565Y-46050003D01*
X144555565Y-46049996D01*
X144535369Y-45870750D01*
X144535366Y-45870737D01*
X144475790Y-45700479D01*
X144444506Y-45650690D01*
X144425500Y-45584719D01*
X144425500Y-45065280D01*
X144444507Y-44999307D01*
X144475788Y-44949524D01*
X144475789Y-44949522D01*
X144535368Y-44779255D01*
X144541316Y-44726465D01*
X144555565Y-44600003D01*
X144555565Y-44599996D01*
X144535369Y-44420750D01*
X144535368Y-44420745D01*
X144500376Y-44320745D01*
X144475789Y-44250478D01*
X144474371Y-44248222D01*
X144412955Y-44150478D01*
X144379816Y-44097738D01*
X144252262Y-43970184D01*
X144168795Y-43917738D01*
X144099523Y-43874211D01*
X143929254Y-43814631D01*
X143929249Y-43814630D01*
X143750004Y-43794435D01*
X143749996Y-43794435D01*
X143570750Y-43814630D01*
X143570745Y-43814631D01*
X143400476Y-43874211D01*
X143247737Y-43970184D01*
X143120184Y-44097737D01*
X143024211Y-44250476D01*
X142964631Y-44420745D01*
X142964630Y-44420750D01*
X142944435Y-44599996D01*
X140400500Y-44599996D01*
X140400500Y-35080012D01*
X140420185Y-35012973D01*
X140472989Y-34967218D01*
X140542147Y-34957274D01*
X140590532Y-34978194D01*
X140591842Y-34976111D01*
X140597737Y-34979815D01*
X140597738Y-34979816D01*
X140631713Y-35001164D01*
X140722055Y-35057930D01*
X140750478Y-35075789D01*
X140887977Y-35123902D01*
X140920745Y-35135368D01*
X140920750Y-35135369D01*
X141099996Y-35155565D01*
X141100000Y-35155565D01*
X141100004Y-35155565D01*
X141279249Y-35135369D01*
X141279251Y-35135368D01*
X141279255Y-35135368D01*
X141279258Y-35135366D01*
X141279262Y-35135366D01*
X141378965Y-35100478D01*
X141449522Y-35075789D01*
X141539096Y-35019505D01*
X141605068Y-35000500D01*
X145429192Y-35000500D01*
X145496231Y-35020185D01*
X145516873Y-35036819D01*
X146028277Y-35548223D01*
X146061762Y-35609546D01*
X146063815Y-35622012D01*
X146064630Y-35629246D01*
X146064632Y-35629255D01*
X146124210Y-35799521D01*
X146185146Y-35896500D01*
X146220184Y-35952262D01*
X146347738Y-36079816D01*
X146411983Y-36120184D01*
X146498031Y-36174252D01*
X146500478Y-36175789D01*
X146633213Y-36222235D01*
X146670745Y-36235368D01*
X146670750Y-36235369D01*
X146849996Y-36255565D01*
X146850000Y-36255565D01*
X146850004Y-36255565D01*
X147029249Y-36235369D01*
X147029252Y-36235368D01*
X147029255Y-36235368D01*
X147199522Y-36175789D01*
X147352262Y-36079816D01*
X147479816Y-35952262D01*
X147575789Y-35799522D01*
X147635368Y-35629255D01*
X147641651Y-35573492D01*
X147655565Y-35450003D01*
X147655565Y-35449996D01*
X147635369Y-35270750D01*
X147635368Y-35270745D01*
X147575789Y-35100478D01*
X147575174Y-35099500D01*
X147527824Y-35024142D01*
X147479816Y-34947738D01*
X147352262Y-34820184D01*
X147328996Y-34805565D01*
X147199521Y-34724210D01*
X147029255Y-34664632D01*
X147029246Y-34664630D01*
X147022012Y-34663815D01*
X146957600Y-34636744D01*
X146948223Y-34628277D01*
X146907127Y-34587181D01*
X146873642Y-34525858D01*
X146878626Y-34456166D01*
X146920498Y-34400233D01*
X146985962Y-34375816D01*
X146994808Y-34375500D01*
X151368837Y-34375500D01*
X151435876Y-34395185D01*
X151456518Y-34411819D01*
X151739601Y-34694902D01*
X151768962Y-34741629D01*
X151824210Y-34899521D01*
X151920184Y-35052262D01*
X151955066Y-35087144D01*
X151988551Y-35148467D01*
X151983567Y-35218159D01*
X151981948Y-35222273D01*
X151976423Y-35235612D01*
X151976418Y-35235628D01*
X151954776Y-35344433D01*
X151954776Y-35344437D01*
X151949500Y-35370957D01*
X151949500Y-47778044D01*
X151929815Y-47845083D01*
X151877011Y-47890838D01*
X151839384Y-47901264D01*
X151720749Y-47914630D01*
X151720745Y-47914631D01*
X151550476Y-47974211D01*
X151397737Y-48070184D01*
X151270184Y-48197737D01*
X151174211Y-48350476D01*
X151114631Y-48520745D01*
X151114630Y-48520750D01*
X151094435Y-48699996D01*
X151094435Y-48700003D01*
X151114630Y-48879249D01*
X151114631Y-48879254D01*
X151174211Y-49049523D01*
X151268760Y-49199996D01*
X151270184Y-49202262D01*
X151397738Y-49329816D01*
X151550478Y-49425789D01*
X151720745Y-49485368D01*
X151727974Y-49486182D01*
X151792388Y-49513246D01*
X151801776Y-49521722D01*
X152185324Y-49905271D01*
X152185331Y-49905277D01*
X152291871Y-49976464D01*
X152291870Y-49976464D01*
X152313369Y-49985369D01*
X152410256Y-50025501D01*
X152410260Y-50025501D01*
X152410261Y-50025502D01*
X152535928Y-50050500D01*
X153602886Y-50050500D01*
X153669925Y-50070185D01*
X153715680Y-50122989D01*
X153725624Y-50192147D01*
X153696599Y-50255703D01*
X153643840Y-50291542D01*
X153550477Y-50324210D01*
X153500693Y-50355493D01*
X153434720Y-50374500D01*
X151415280Y-50374500D01*
X151349307Y-50355493D01*
X151299524Y-50324211D01*
X151129254Y-50264631D01*
X151129249Y-50264630D01*
X150950004Y-50244435D01*
X150949996Y-50244435D01*
X150770750Y-50264630D01*
X150770745Y-50264631D01*
X150600476Y-50324211D01*
X150447737Y-50420184D01*
X150320184Y-50547737D01*
X150224211Y-50700476D01*
X150164631Y-50870745D01*
X150164630Y-50870750D01*
X150144435Y-51049996D01*
X150144435Y-51050003D01*
X150164630Y-51229249D01*
X150164631Y-51229254D01*
X150224211Y-51399523D01*
X150320184Y-51552262D01*
X150447738Y-51679816D01*
X150600478Y-51775789D01*
X150669678Y-51800003D01*
X150770745Y-51835368D01*
X150770750Y-51835369D01*
X150949996Y-51855565D01*
X150950000Y-51855565D01*
X150950004Y-51855565D01*
X151129249Y-51835369D01*
X151129252Y-51835368D01*
X151129255Y-51835368D01*
X151299522Y-51775789D01*
X151349307Y-51744507D01*
X151415280Y-51725500D01*
X153434720Y-51725500D01*
X153500693Y-51744507D01*
X153550475Y-51775788D01*
X153720745Y-51835368D01*
X153720750Y-51835369D01*
X153899996Y-51855565D01*
X153900000Y-51855565D01*
X153900004Y-51855565D01*
X154079249Y-51835369D01*
X154079252Y-51835368D01*
X154079255Y-51835368D01*
X154249522Y-51775789D01*
X154299307Y-51744507D01*
X154365280Y-51725500D01*
X159218837Y-51725500D01*
X159285876Y-51745185D01*
X159306518Y-51761819D01*
X159489601Y-51944902D01*
X159518962Y-51991629D01*
X159574210Y-52149521D01*
X159603560Y-52196231D01*
X159670184Y-52302262D01*
X159797738Y-52429816D01*
X159888080Y-52486582D01*
X159931825Y-52514069D01*
X159950478Y-52525789D01*
X160120742Y-52585367D01*
X160120745Y-52585368D01*
X160120750Y-52585369D01*
X160270840Y-52602280D01*
X160297366Y-52613426D01*
X160308108Y-52606523D01*
X160329160Y-52602280D01*
X160479249Y-52585369D01*
X160479252Y-52585368D01*
X160479255Y-52585368D01*
X160649522Y-52525789D01*
X160802262Y-52429816D01*
X160929816Y-52302262D01*
X161025789Y-52149522D01*
X161085368Y-51979255D01*
X161089239Y-51944902D01*
X161105565Y-51800003D01*
X161105565Y-51799996D01*
X161085369Y-51620750D01*
X161085368Y-51620745D01*
X161025788Y-51450476D01*
X160929815Y-51297737D01*
X160802262Y-51170184D01*
X160649521Y-51074210D01*
X160491629Y-51018962D01*
X160444902Y-50989601D01*
X159980609Y-50525307D01*
X159980605Y-50525304D01*
X159869975Y-50451383D01*
X159869965Y-50451378D01*
X159747036Y-50400459D01*
X159747028Y-50400457D01*
X159616535Y-50374500D01*
X159616531Y-50374500D01*
X154365280Y-50374500D01*
X154299307Y-50355493D01*
X154249522Y-50324210D01*
X154156160Y-50291542D01*
X154099383Y-50250820D01*
X154073636Y-50185867D01*
X154087092Y-50117306D01*
X154135479Y-50066903D01*
X154197114Y-50050500D01*
X157671178Y-50050500D01*
X157781784Y-50028498D01*
X157796851Y-50025501D01*
X157915234Y-49976465D01*
X158021776Y-49905277D01*
X158727057Y-49199996D01*
X160494435Y-49199996D01*
X160494435Y-49200003D01*
X160514630Y-49379249D01*
X160514631Y-49379254D01*
X160574211Y-49549523D01*
X160637645Y-49650477D01*
X160670184Y-49702262D01*
X160797738Y-49829816D01*
X160950478Y-49925789D01*
X161095299Y-49976464D01*
X161120745Y-49985368D01*
X161120750Y-49985369D01*
X161299996Y-50005565D01*
X161300000Y-50005565D01*
X161300004Y-50005565D01*
X161479249Y-49985369D01*
X161479252Y-49985368D01*
X161479255Y-49985368D01*
X161649522Y-49925789D01*
X161802262Y-49829816D01*
X161929816Y-49702262D01*
X162025789Y-49549522D01*
X162085368Y-49379255D01*
X162085369Y-49379249D01*
X162105565Y-49200003D01*
X162105565Y-49199996D01*
X162085369Y-49020750D01*
X162085368Y-49020745D01*
X162025789Y-48850478D01*
X161929816Y-48697738D01*
X161802262Y-48570184D01*
X161649523Y-48474211D01*
X161479254Y-48414631D01*
X161479249Y-48414630D01*
X161300004Y-48394435D01*
X161299996Y-48394435D01*
X161120750Y-48414630D01*
X161120745Y-48414631D01*
X160950476Y-48474211D01*
X160797737Y-48570184D01*
X160670184Y-48697737D01*
X160574211Y-48850476D01*
X160514631Y-49020745D01*
X160514630Y-49020750D01*
X160494435Y-49199996D01*
X158727057Y-49199996D01*
X161440234Y-46486819D01*
X161501557Y-46453334D01*
X161527915Y-46450500D01*
X164216937Y-46450500D01*
X164283976Y-46470185D01*
X164329731Y-46522989D01*
X164339675Y-46592147D01*
X164333978Y-46615455D01*
X164314633Y-46670737D01*
X164314630Y-46670750D01*
X164294435Y-46849996D01*
X164294435Y-46850003D01*
X164314630Y-47029249D01*
X164314631Y-47029254D01*
X164374212Y-47199525D01*
X164380492Y-47209519D01*
X164399500Y-47275493D01*
X164399500Y-53402915D01*
X164379815Y-53469954D01*
X164327011Y-53515709D01*
X164289385Y-53526135D01*
X164220751Y-53533868D01*
X164050479Y-53593448D01*
X163897738Y-53689422D01*
X163889087Y-53698073D01*
X163827763Y-53731556D01*
X163758071Y-53726569D01*
X163713728Y-53698070D01*
X163021545Y-53005887D01*
X162906807Y-52929222D01*
X162779332Y-52876421D01*
X162779322Y-52876418D01*
X162643996Y-52849500D01*
X162643994Y-52849500D01*
X162643993Y-52849500D01*
X160343043Y-52849500D01*
X160300101Y-52836890D01*
X160278351Y-52847640D01*
X160256957Y-52849500D01*
X155625494Y-52849500D01*
X155559523Y-52830494D01*
X155549524Y-52824211D01*
X155418122Y-52778232D01*
X155361345Y-52737510D01*
X155335855Y-52675070D01*
X155335368Y-52670745D01*
X155275789Y-52500478D01*
X155179816Y-52347738D01*
X155052262Y-52220184D01*
X155014141Y-52196231D01*
X154899523Y-52124211D01*
X154729254Y-52064631D01*
X154729249Y-52064630D01*
X154550004Y-52044435D01*
X154549996Y-52044435D01*
X154370750Y-52064630D01*
X154370745Y-52064631D01*
X154200476Y-52124211D01*
X154047737Y-52220184D01*
X153920184Y-52347737D01*
X153824211Y-52500476D01*
X153764631Y-52670745D01*
X153764630Y-52670750D01*
X153744435Y-52849996D01*
X153744435Y-52850003D01*
X153764630Y-53029249D01*
X153764631Y-53029254D01*
X153824211Y-53199524D01*
X153880493Y-53289094D01*
X153899500Y-53355067D01*
X153899500Y-54979191D01*
X153879815Y-55046230D01*
X153863181Y-55066872D01*
X153601775Y-55328277D01*
X153540452Y-55361762D01*
X153527988Y-55363815D01*
X153520752Y-55364630D01*
X153520744Y-55364632D01*
X153350478Y-55424210D01*
X153197737Y-55520184D01*
X153070184Y-55647737D01*
X152974211Y-55800476D01*
X152914631Y-55970745D01*
X152914630Y-55970750D01*
X152894435Y-56149996D01*
X152894435Y-56150003D01*
X152914630Y-56329249D01*
X152914631Y-56329254D01*
X152974211Y-56499523D01*
X153043629Y-56610000D01*
X153070184Y-56652262D01*
X153197738Y-56779816D01*
X153288080Y-56836582D01*
X153346045Y-56873004D01*
X153350478Y-56875789D01*
X153406066Y-56895240D01*
X153520745Y-56935368D01*
X153520750Y-56935369D01*
X153699996Y-56955565D01*
X153700000Y-56955565D01*
X153700004Y-56955565D01*
X153879249Y-56935369D01*
X153879252Y-56935368D01*
X153879255Y-56935368D01*
X154049522Y-56875789D01*
X154202262Y-56779816D01*
X154329816Y-56652262D01*
X154425789Y-56499522D01*
X154485368Y-56329255D01*
X154486182Y-56322025D01*
X154513245Y-56257611D01*
X154521712Y-56248232D01*
X155055277Y-55714669D01*
X155126466Y-55608126D01*
X155175501Y-55489743D01*
X155180557Y-55464328D01*
X155200388Y-55364632D01*
X155200500Y-55364071D01*
X155200500Y-54466321D01*
X155220185Y-54399282D01*
X155272989Y-54353527D01*
X155310612Y-54343101D01*
X155379255Y-54335368D01*
X155549522Y-54275789D01*
X155550488Y-54275181D01*
X155559523Y-54269506D01*
X155625494Y-54250500D01*
X162233481Y-54250500D01*
X162300520Y-54270185D01*
X162321162Y-54286819D01*
X162547162Y-54512819D01*
X162580647Y-54574142D01*
X162575663Y-54643834D01*
X162533791Y-54699767D01*
X162468327Y-54724184D01*
X162459481Y-54724500D01*
X156597273Y-54724500D01*
X156495413Y-54751793D01*
X156495410Y-54751794D01*
X156404085Y-54804521D01*
X156329521Y-54879085D01*
X156276794Y-54970410D01*
X156276793Y-54970413D01*
X156249500Y-55072273D01*
X156249500Y-56672273D01*
X156249500Y-56777727D01*
X156276793Y-56879587D01*
X156329520Y-56970913D01*
X156404087Y-57045480D01*
X156495413Y-57098207D01*
X156597273Y-57125500D01*
X156597275Y-57125500D01*
X162702725Y-57125500D01*
X162702727Y-57125500D01*
X162804587Y-57098207D01*
X162895913Y-57045480D01*
X162970480Y-56970913D01*
X163023207Y-56879587D01*
X163050500Y-56777727D01*
X163050500Y-55315519D01*
X163070185Y-55248480D01*
X163122989Y-55202725D01*
X163192147Y-55192781D01*
X163255703Y-55221806D01*
X163262181Y-55227838D01*
X163333630Y-55299287D01*
X163362990Y-55346013D01*
X163399209Y-55449519D01*
X163424486Y-55489747D01*
X163495184Y-55602262D01*
X163622738Y-55729816D01*
X163775478Y-55825789D01*
X163867000Y-55857814D01*
X163923775Y-55898534D01*
X163949523Y-55963487D01*
X163936067Y-56032049D01*
X163931039Y-56040827D01*
X163841736Y-56182951D01*
X163782156Y-56353220D01*
X163782155Y-56353225D01*
X163761960Y-56532471D01*
X163761960Y-56532478D01*
X163782155Y-56711724D01*
X163782156Y-56711729D01*
X163841736Y-56881998D01*
X163907709Y-56986993D01*
X163937709Y-57034737D01*
X164065263Y-57162291D01*
X164218003Y-57258264D01*
X164313966Y-57291843D01*
X164370742Y-57332565D01*
X164396490Y-57397518D01*
X164383034Y-57466079D01*
X164360693Y-57496566D01*
X162319081Y-59538181D01*
X162257758Y-59571666D01*
X162231400Y-59574500D01*
X159507940Y-59574500D01*
X159440901Y-59554815D01*
X159420259Y-59538181D01*
X159402262Y-59520184D01*
X159249523Y-59424211D01*
X159079254Y-59364631D01*
X159079249Y-59364630D01*
X158900004Y-59344435D01*
X158899996Y-59344435D01*
X158720750Y-59364630D01*
X158720745Y-59364631D01*
X158550476Y-59424211D01*
X158397737Y-59520184D01*
X158270184Y-59647737D01*
X158174211Y-59800476D01*
X158114631Y-59970745D01*
X158114630Y-59970750D01*
X158094435Y-60149996D01*
X158094435Y-60150003D01*
X158114630Y-60329249D01*
X158114631Y-60329254D01*
X158174211Y-60499523D01*
X158270184Y-60652262D01*
X158317610Y-60699688D01*
X158351095Y-60761011D01*
X158346971Y-60828323D01*
X158314631Y-60920747D01*
X158294435Y-61099996D01*
X158294435Y-61100003D01*
X158314630Y-61279249D01*
X158314631Y-61279254D01*
X158374211Y-61449523D01*
X158407573Y-61502618D01*
X158470184Y-61602262D01*
X158597738Y-61729816D01*
X158660635Y-61769337D01*
X158749653Y-61825271D01*
X158750478Y-61825789D01*
X158853446Y-61861819D01*
X158920745Y-61885368D01*
X158920750Y-61885369D01*
X159099996Y-61905565D01*
X159100000Y-61905565D01*
X159100004Y-61905565D01*
X159279249Y-61885369D01*
X159279251Y-61885368D01*
X159279255Y-61885368D01*
X159279258Y-61885366D01*
X159279262Y-61885366D01*
X159405503Y-61841192D01*
X159475281Y-61837629D01*
X159535909Y-61872358D01*
X159568137Y-61934351D01*
X159561732Y-62003927D01*
X159534139Y-62045914D01*
X154766873Y-66813181D01*
X154705550Y-66846666D01*
X154679192Y-66849500D01*
X154205068Y-66849500D01*
X154139096Y-66830494D01*
X154049522Y-66774210D01*
X154049518Y-66774209D01*
X153879262Y-66714633D01*
X153879249Y-66714630D01*
X153700004Y-66694435D01*
X153699996Y-66694435D01*
X153520750Y-66714630D01*
X153520745Y-66714631D01*
X153350476Y-66774211D01*
X153197737Y-66870184D01*
X153070184Y-66997737D01*
X152974211Y-67150476D01*
X152914631Y-67320745D01*
X152914630Y-67320750D01*
X152894435Y-67499996D01*
X152894435Y-67500003D01*
X152914630Y-67679249D01*
X152914631Y-67679254D01*
X152974211Y-67849523D01*
X153027401Y-67934174D01*
X153070184Y-68002262D01*
X153197738Y-68129816D01*
X153260904Y-68169506D01*
X153298283Y-68192993D01*
X153350478Y-68225789D01*
X153463703Y-68265408D01*
X153520745Y-68285368D01*
X153520750Y-68285369D01*
X153699996Y-68305565D01*
X153700000Y-68305565D01*
X153700004Y-68305565D01*
X153879249Y-68285369D01*
X153879251Y-68285368D01*
X153879255Y-68285368D01*
X153879258Y-68285366D01*
X153879262Y-68285366D01*
X153980331Y-68250000D01*
X154049522Y-68225789D01*
X154139096Y-68169505D01*
X154205068Y-68150500D01*
X155064071Y-68150500D01*
X155148615Y-68133682D01*
X155189744Y-68125501D01*
X155308127Y-68076465D01*
X155317416Y-68070257D01*
X155319315Y-68068990D01*
X155385899Y-68024500D01*
X155414669Y-68005277D01*
X156037819Y-67382127D01*
X156099142Y-67348642D01*
X156168833Y-67353626D01*
X156224767Y-67395497D01*
X156249184Y-67460962D01*
X156249500Y-67469808D01*
X156249500Y-68372273D01*
X156249500Y-68477727D01*
X156276793Y-68579587D01*
X156329520Y-68670913D01*
X156404087Y-68745480D01*
X156495413Y-68798207D01*
X156597273Y-68825500D01*
X156597275Y-68825500D01*
X162702725Y-68825500D01*
X162702727Y-68825500D01*
X162804587Y-68798207D01*
X162895913Y-68745480D01*
X162970480Y-68670913D01*
X163023207Y-68579587D01*
X163050500Y-68477727D01*
X163050500Y-66772273D01*
X163023207Y-66670413D01*
X162970480Y-66579087D01*
X162895913Y-66504520D01*
X162804587Y-66451793D01*
X162702727Y-66424500D01*
X162702726Y-66424500D01*
X157294808Y-66424500D01*
X157227769Y-66404815D01*
X157182014Y-66352011D01*
X157172070Y-66282853D01*
X157201095Y-66219297D01*
X157207127Y-66212819D01*
X161558127Y-61861819D01*
X161619450Y-61828334D01*
X161645808Y-61825500D01*
X162939071Y-61825500D01*
X163023615Y-61808682D01*
X163064744Y-61800501D01*
X163183127Y-61751465D01*
X163184556Y-61750509D01*
X163184573Y-61750504D01*
X163184571Y-61750501D01*
X163263216Y-61697952D01*
X163289669Y-61680277D01*
X169869950Y-55099996D01*
X180644435Y-55099996D01*
X180644435Y-55100003D01*
X180664630Y-55279249D01*
X180664631Y-55279254D01*
X180724211Y-55449523D01*
X180749486Y-55489747D01*
X180820184Y-55602262D01*
X180947738Y-55729816D01*
X181038080Y-55786582D01*
X181060192Y-55800476D01*
X181100478Y-55825789D01*
X181237060Y-55873581D01*
X181270745Y-55885368D01*
X181270750Y-55885369D01*
X181449996Y-55905565D01*
X181450000Y-55905565D01*
X181450004Y-55905565D01*
X181629249Y-55885369D01*
X181629252Y-55885368D01*
X181629255Y-55885368D01*
X181799522Y-55825789D01*
X181952262Y-55729816D01*
X182079816Y-55602262D01*
X182175789Y-55449522D01*
X182235368Y-55279255D01*
X182235369Y-55279249D01*
X182255565Y-55100003D01*
X182255565Y-55099996D01*
X182235369Y-54920750D01*
X182235368Y-54920745D01*
X182220791Y-54879087D01*
X182175789Y-54750478D01*
X182172371Y-54745039D01*
X182079815Y-54597737D01*
X181952262Y-54470184D01*
X181799523Y-54374211D01*
X181629254Y-54314631D01*
X181629249Y-54314630D01*
X181450004Y-54294435D01*
X181449996Y-54294435D01*
X181270750Y-54314630D01*
X181270745Y-54314631D01*
X181100476Y-54374211D01*
X180947737Y-54470184D01*
X180820184Y-54597737D01*
X180724211Y-54750476D01*
X180664631Y-54920745D01*
X180664630Y-54920750D01*
X180644435Y-55099996D01*
X169869950Y-55099996D01*
X172105276Y-52864670D01*
X172148487Y-52800000D01*
X172176464Y-52758129D01*
X172185005Y-52737510D01*
X172225501Y-52639744D01*
X172236317Y-52585368D01*
X172250500Y-52514069D01*
X172250500Y-47677765D01*
X172270185Y-47610726D01*
X172322989Y-47564971D01*
X172392147Y-47555027D01*
X172440471Y-47572770D01*
X172465166Y-47588288D01*
X172465168Y-47588289D01*
X172635435Y-47647868D01*
X172635440Y-47647869D01*
X172814686Y-47668065D01*
X172814690Y-47668065D01*
X172814694Y-47668065D01*
X172993939Y-47647869D01*
X172993942Y-47647868D01*
X172993945Y-47647868D01*
X173164212Y-47588289D01*
X173316952Y-47492316D01*
X173444506Y-47364762D01*
X173540479Y-47212022D01*
X173600058Y-47041755D01*
X173600059Y-47041749D01*
X173620255Y-46862503D01*
X173620255Y-46862496D01*
X173600059Y-46683250D01*
X173600058Y-46683245D01*
X173572995Y-46605903D01*
X173540479Y-46512978D01*
X173522924Y-46485040D01*
X173444505Y-46360237D01*
X173316952Y-46232684D01*
X173164211Y-46136710D01*
X172993945Y-46077132D01*
X172993936Y-46077130D01*
X172986702Y-46076315D01*
X172922290Y-46049244D01*
X172912913Y-46040777D01*
X172166864Y-45294727D01*
X172166863Y-45294726D01*
X172162216Y-45291621D01*
X172060317Y-45223535D01*
X172046522Y-45217821D01*
X171941934Y-45174499D01*
X171941928Y-45174497D01*
X171816261Y-45149500D01*
X171816259Y-45149500D01*
X164097114Y-45149500D01*
X164030075Y-45129815D01*
X163984320Y-45077011D01*
X163974376Y-45007853D01*
X164003401Y-44944297D01*
X164056160Y-44908458D01*
X164126542Y-44883830D01*
X164149522Y-44875789D01*
X164302262Y-44779816D01*
X164429816Y-44652262D01*
X164525789Y-44499522D01*
X164585368Y-44329255D01*
X164586182Y-44322025D01*
X164613245Y-44257611D01*
X164621712Y-44248232D01*
X165933127Y-42936819D01*
X165994450Y-42903334D01*
X166020808Y-42900500D01*
X166952551Y-42900500D01*
X167060714Y-42878984D01*
X167078224Y-42875501D01*
X167196607Y-42826465D01*
X167209771Y-42817669D01*
X167303149Y-42755277D01*
X169492464Y-40565960D01*
X169553785Y-40532477D01*
X169566259Y-40530423D01*
X169573495Y-40529608D01*
X169743762Y-40470029D01*
X169896502Y-40374056D01*
X170024056Y-40246502D01*
X170120029Y-40093762D01*
X170179608Y-39923495D01*
X170179609Y-39923489D01*
X170199805Y-39744243D01*
X170199805Y-39744236D01*
X170179609Y-39564990D01*
X170179608Y-39564985D01*
X170120028Y-39394716D01*
X170060813Y-39300476D01*
X170024056Y-39241978D01*
X169896502Y-39114424D01*
X169847814Y-39083831D01*
X169743763Y-39018451D01*
X169573494Y-38958871D01*
X169573489Y-38958870D01*
X169394244Y-38938675D01*
X169394236Y-38938675D01*
X169214990Y-38958870D01*
X169214985Y-38958871D01*
X169044716Y-39018451D01*
X168915876Y-39099407D01*
X168848639Y-39118407D01*
X168783934Y-39099408D01*
X168759140Y-39083829D01*
X168588882Y-39024253D01*
X168588870Y-39024250D01*
X168446259Y-39008182D01*
X168381845Y-38981115D01*
X168342290Y-38923520D01*
X168336923Y-38871078D01*
X168350565Y-38750002D01*
X168350565Y-38749996D01*
X168330369Y-38570750D01*
X168330368Y-38570745D01*
X168293606Y-38465685D01*
X168270789Y-38400478D01*
X168250845Y-38368738D01*
X168189272Y-38270745D01*
X168174816Y-38247738D01*
X168047262Y-38120184D01*
X168044741Y-38118600D01*
X167894523Y-38024211D01*
X167802328Y-37991951D01*
X167745552Y-37951229D01*
X167719805Y-37886276D01*
X167733261Y-37817715D01*
X167781648Y-37767312D01*
X167829396Y-37751689D01*
X167888875Y-37744988D01*
X168059142Y-37685409D01*
X168211882Y-37589436D01*
X168339436Y-37461882D01*
X168435409Y-37309142D01*
X168494988Y-37138875D01*
X168494989Y-37138869D01*
X168515185Y-36959623D01*
X168515185Y-36959616D01*
X168494989Y-36780370D01*
X168494988Y-36780365D01*
X168450163Y-36652262D01*
X168435409Y-36610098D01*
X168339436Y-36457358D01*
X168211882Y-36329804D01*
X168123862Y-36274497D01*
X168059143Y-36233831D01*
X167888874Y-36174251D01*
X167888869Y-36174250D01*
X167709624Y-36154055D01*
X167709616Y-36154055D01*
X167530370Y-36174250D01*
X167530365Y-36174251D01*
X167360090Y-36233833D01*
X167353825Y-36236851D01*
X167352550Y-36234205D01*
X167299436Y-36249500D01*
X166585929Y-36249500D01*
X166460261Y-36274497D01*
X166460255Y-36274499D01*
X166341874Y-36323534D01*
X166235326Y-36394726D01*
X165001775Y-37628277D01*
X164940452Y-37661762D01*
X164927988Y-37663815D01*
X164920752Y-37664630D01*
X164920744Y-37664632D01*
X164750478Y-37724210D01*
X164597737Y-37820184D01*
X164470184Y-37947737D01*
X164374211Y-38100476D01*
X164314631Y-38270745D01*
X164314630Y-38270750D01*
X164294435Y-38449996D01*
X164294435Y-38450003D01*
X164314630Y-38629249D01*
X164314631Y-38629254D01*
X164374211Y-38799524D01*
X164380497Y-38809527D01*
X164399498Y-38876764D01*
X164379131Y-38943599D01*
X164325863Y-38988814D01*
X164275504Y-38999500D01*
X158405068Y-38999500D01*
X158339096Y-38980494D01*
X158249522Y-38924210D01*
X158249518Y-38924209D01*
X158079262Y-38864633D01*
X158079249Y-38864630D01*
X157900004Y-38844435D01*
X157899996Y-38844435D01*
X157720750Y-38864630D01*
X157720745Y-38864631D01*
X157550476Y-38924211D01*
X157397737Y-39020184D01*
X157270184Y-39147737D01*
X157174211Y-39300476D01*
X157114631Y-39470745D01*
X157114630Y-39470750D01*
X157094435Y-39649996D01*
X157094435Y-39650003D01*
X157114630Y-39829249D01*
X157114631Y-39829254D01*
X157174211Y-39999523D01*
X157234523Y-40095508D01*
X157270184Y-40152262D01*
X157397738Y-40279816D01*
X157460904Y-40319506D01*
X157546021Y-40372989D01*
X157550478Y-40375789D01*
X157631992Y-40404312D01*
X157720745Y-40435368D01*
X157720750Y-40435369D01*
X157899996Y-40455565D01*
X157900000Y-40455565D01*
X157900004Y-40455565D01*
X158079249Y-40435369D01*
X158079251Y-40435368D01*
X158079255Y-40435368D01*
X158079258Y-40435366D01*
X158079262Y-40435366D01*
X158180342Y-40399996D01*
X158249522Y-40375789D01*
X158339096Y-40319505D01*
X158405068Y-40300500D01*
X163130192Y-40300500D01*
X163197231Y-40320185D01*
X163242986Y-40372989D01*
X163252930Y-40442147D01*
X163223905Y-40505703D01*
X163217873Y-40512181D01*
X161225786Y-42504266D01*
X161164463Y-42537751D01*
X161094771Y-42532767D01*
X161038838Y-42490895D01*
X161033111Y-42482557D01*
X160979816Y-42397738D01*
X160852262Y-42270184D01*
X160819344Y-42249500D01*
X160699523Y-42174211D01*
X160529254Y-42114631D01*
X160529249Y-42114630D01*
X160350004Y-42094435D01*
X160349996Y-42094435D01*
X160170750Y-42114630D01*
X160170745Y-42114631D01*
X160000476Y-42174211D01*
X159847737Y-42270184D01*
X159720184Y-42397737D01*
X159624211Y-42550476D01*
X159564631Y-42720745D01*
X159564630Y-42720750D01*
X159544435Y-42899996D01*
X159544435Y-42900003D01*
X159564630Y-43079249D01*
X159564631Y-43079254D01*
X159624211Y-43249523D01*
X159700384Y-43370750D01*
X159720184Y-43402262D01*
X159847738Y-43529816D01*
X159881349Y-43550935D01*
X159996021Y-43622989D01*
X160000478Y-43625789D01*
X160170745Y-43685368D01*
X160227126Y-43691720D01*
X160291538Y-43718785D01*
X160330284Y-43773986D01*
X160374210Y-43899521D01*
X160466520Y-44046431D01*
X160485520Y-44113668D01*
X160465152Y-44180503D01*
X160449207Y-44200084D01*
X159726492Y-44922801D01*
X159665169Y-44956286D01*
X159638811Y-44959120D01*
X158695448Y-44959120D01*
X158629476Y-44940114D01*
X158539902Y-44883830D01*
X158539898Y-44883829D01*
X158369642Y-44824253D01*
X158369629Y-44824250D01*
X158190384Y-44804055D01*
X158190376Y-44804055D01*
X158011130Y-44824250D01*
X158011125Y-44824251D01*
X157840856Y-44883831D01*
X157688117Y-44979804D01*
X157560564Y-45107357D01*
X157464591Y-45260096D01*
X157405011Y-45430365D01*
X157405010Y-45430370D01*
X157384815Y-45609616D01*
X157384815Y-45609623D01*
X157405010Y-45788869D01*
X157405011Y-45788874D01*
X157464591Y-45959143D01*
X157539632Y-46078569D01*
X157558632Y-46145806D01*
X157551680Y-46185493D01*
X157539993Y-46218894D01*
X157539992Y-46218898D01*
X157519796Y-46398148D01*
X157519796Y-46398155D01*
X157539991Y-46577401D01*
X157539992Y-46577406D01*
X157599572Y-46747675D01*
X157671722Y-46862500D01*
X157695545Y-46900414D01*
X157823099Y-47027968D01*
X157975839Y-47123941D01*
X158045096Y-47148175D01*
X158146106Y-47183520D01*
X158146111Y-47183521D01*
X158325357Y-47203717D01*
X158325361Y-47203717D01*
X158325365Y-47203717D01*
X158504610Y-47183521D01*
X158504612Y-47183520D01*
X158504616Y-47183520D01*
X158504619Y-47183518D01*
X158504623Y-47183518D01*
X158605627Y-47148175D01*
X158675405Y-47144612D01*
X158736033Y-47179341D01*
X158768261Y-47241334D01*
X158761856Y-47310910D01*
X158734263Y-47352897D01*
X158322300Y-47764859D01*
X158260977Y-47798344D01*
X158191285Y-47793360D01*
X158146938Y-47764860D01*
X158102078Y-47720000D01*
X158052262Y-47670184D01*
X157921927Y-47588289D01*
X157899521Y-47574210D01*
X157729255Y-47514632D01*
X157729245Y-47514630D01*
X157722012Y-47513815D01*
X157657599Y-47486745D01*
X157648222Y-47478277D01*
X154536819Y-44366873D01*
X154503334Y-44305550D01*
X154500500Y-44279192D01*
X154500500Y-42205067D01*
X154519507Y-42139094D01*
X154575788Y-42049524D01*
X154583301Y-42028054D01*
X154635368Y-41879255D01*
X154643442Y-41807596D01*
X154655565Y-41700003D01*
X154655565Y-41699996D01*
X154635369Y-41520750D01*
X154635368Y-41520745D01*
X154575788Y-41350476D01*
X154525694Y-41270752D01*
X154479816Y-41197738D01*
X154352262Y-41070184D01*
X154288015Y-41029815D01*
X154199521Y-40974210D01*
X154029249Y-40914630D01*
X153960616Y-40906897D01*
X153896202Y-40879830D01*
X153856647Y-40822235D01*
X153850500Y-40783677D01*
X153850500Y-40601569D01*
X153870185Y-40534530D01*
X153886815Y-40513892D01*
X154193852Y-40206854D01*
X154255175Y-40173370D01*
X154324867Y-40178354D01*
X154380800Y-40220226D01*
X154405217Y-40285690D01*
X154404753Y-40308419D01*
X154394435Y-40399996D01*
X154394435Y-40400003D01*
X154414630Y-40579249D01*
X154414631Y-40579254D01*
X154474211Y-40749523D01*
X154527617Y-40834517D01*
X154570184Y-40902262D01*
X154697738Y-41029816D01*
X154761983Y-41070184D01*
X154810192Y-41100476D01*
X154850478Y-41125789D01*
X154919678Y-41150003D01*
X155020745Y-41185368D01*
X155020750Y-41185369D01*
X155199996Y-41205565D01*
X155200000Y-41205565D01*
X155200004Y-41205565D01*
X155379249Y-41185369D01*
X155379252Y-41185368D01*
X155379255Y-41185368D01*
X155549522Y-41125789D01*
X155702262Y-41029816D01*
X155829816Y-40902262D01*
X155925789Y-40749522D01*
X155985368Y-40579255D01*
X155990323Y-40535281D01*
X156005565Y-40400003D01*
X156005565Y-40399996D01*
X155985369Y-40220750D01*
X155985366Y-40220737D01*
X155925790Y-40050481D01*
X155925789Y-40050478D01*
X155893771Y-39999522D01*
X155869506Y-39960903D01*
X155850500Y-39894931D01*
X155850500Y-39405167D01*
X155825502Y-39279500D01*
X155825501Y-39279499D01*
X155825501Y-39279495D01*
X155784208Y-39179804D01*
X155776466Y-39161113D01*
X155767529Y-39147738D01*
X155705278Y-39054571D01*
X155705272Y-39054564D01*
X155200792Y-38550085D01*
X155167307Y-38488762D01*
X155172291Y-38419071D01*
X155183479Y-38396432D01*
X155275789Y-38249522D01*
X155335368Y-38079255D01*
X155347744Y-37969410D01*
X155356400Y-37935856D01*
X155375501Y-37889744D01*
X155390177Y-37815965D01*
X155400500Y-37764071D01*
X155400500Y-32155067D01*
X155419507Y-32089094D01*
X155475788Y-31999524D01*
X155475789Y-31999522D01*
X155535368Y-31829255D01*
X155535369Y-31829249D01*
X155555565Y-31650003D01*
X155555565Y-31649996D01*
X155535369Y-31470750D01*
X155535368Y-31470745D01*
X155528108Y-31449996D01*
X155475789Y-31300478D01*
X155457106Y-31270745D01*
X155393391Y-31169343D01*
X155379816Y-31147738D01*
X155252262Y-31020184D01*
X155132498Y-30944931D01*
X155099521Y-30924210D01*
X154929249Y-30864630D01*
X154860616Y-30856897D01*
X154796202Y-30829830D01*
X154756647Y-30772235D01*
X154750500Y-30733677D01*
X154750500Y-28390047D01*
X154770185Y-28323008D01*
X154786819Y-28302366D01*
X157202366Y-25886819D01*
X157263689Y-25853334D01*
X157290047Y-25850500D01*
X157959897Y-25850500D01*
X158026936Y-25870185D01*
X158072691Y-25922989D01*
X158082635Y-25992147D01*
X158064891Y-26040472D01*
X158030917Y-26094540D01*
X157971337Y-26264809D01*
X157971336Y-26264814D01*
X157951141Y-26444060D01*
X157951141Y-26444067D01*
X157971336Y-26623313D01*
X157971337Y-26623318D01*
X158030917Y-26793587D01*
X158106879Y-26914479D01*
X158126890Y-26946326D01*
X158254444Y-27073880D01*
X158407184Y-27169853D01*
X158552625Y-27220745D01*
X158577451Y-27229432D01*
X158577456Y-27229433D01*
X158756702Y-27249629D01*
X158756706Y-27249629D01*
X158756710Y-27249629D01*
X158935955Y-27229433D01*
X158935957Y-27229432D01*
X158935961Y-27229432D01*
X158935964Y-27229430D01*
X158935968Y-27229430D01*
X159066341Y-27183810D01*
X159136119Y-27180247D01*
X159173269Y-27195858D01*
X159300475Y-27275788D01*
X159470745Y-27335368D01*
X159470750Y-27335369D01*
X159649996Y-27355565D01*
X159650000Y-27355565D01*
X159650004Y-27355565D01*
X159829249Y-27335369D01*
X159829252Y-27335368D01*
X159829255Y-27335368D01*
X159999522Y-27275789D01*
X160152262Y-27179816D01*
X160279816Y-27052262D01*
X160375789Y-26899522D01*
X160435368Y-26729255D01*
X160436182Y-26722025D01*
X160463245Y-26657611D01*
X160471712Y-26648232D01*
X160783126Y-26336819D01*
X160844449Y-26303334D01*
X160870807Y-26300500D01*
X162169508Y-26300500D01*
X162236547Y-26320185D01*
X162282302Y-26372989D01*
X162292728Y-26410616D01*
X162305010Y-26519630D01*
X162305011Y-26519634D01*
X162364591Y-26689903D01*
X162456900Y-26836811D01*
X162475900Y-26904048D01*
X162455532Y-26970883D01*
X162439587Y-26990464D01*
X161716872Y-27713181D01*
X161655549Y-27746666D01*
X161629191Y-27749500D01*
X161166690Y-27749500D01*
X161041022Y-27774497D01*
X161041016Y-27774499D01*
X160922635Y-27823534D01*
X160816087Y-27894726D01*
X159194724Y-29516089D01*
X159145818Y-29589284D01*
X159123535Y-29622632D01*
X159074499Y-29741016D01*
X159074497Y-29741022D01*
X159049500Y-29866689D01*
X159049500Y-30194931D01*
X159030494Y-30260903D01*
X158974211Y-30350477D01*
X158974209Y-30350481D01*
X158914633Y-30520737D01*
X158914630Y-30520750D01*
X158894435Y-30699996D01*
X158894435Y-30700003D01*
X158914630Y-30879249D01*
X158914631Y-30879254D01*
X158974211Y-31049524D01*
X159030493Y-31139094D01*
X159049500Y-31205067D01*
X159049500Y-31664070D01*
X159063188Y-31732879D01*
X159063188Y-31732881D01*
X159074497Y-31789736D01*
X159074499Y-31789744D01*
X159117863Y-31894435D01*
X159123535Y-31908127D01*
X159184604Y-31999524D01*
X159194726Y-32014673D01*
X159194727Y-32014674D01*
X159967873Y-32787819D01*
X160001358Y-32849142D01*
X159996374Y-32918833D01*
X159954502Y-32974767D01*
X159889038Y-32999184D01*
X159880192Y-32999500D01*
X158915738Y-32999500D01*
X158848699Y-32979815D01*
X158828057Y-32963181D01*
X158766652Y-32901776D01*
X158733167Y-32840453D01*
X158731112Y-32827973D01*
X158730298Y-32820745D01*
X158670719Y-32650478D01*
X158670118Y-32649522D01*
X158631512Y-32588080D01*
X158574746Y-32497738D01*
X158447192Y-32370184D01*
X158415827Y-32350476D01*
X158294453Y-32274211D01*
X158124184Y-32214631D01*
X158124179Y-32214630D01*
X157944934Y-32194435D01*
X157944926Y-32194435D01*
X157765680Y-32214630D01*
X157765675Y-32214631D01*
X157595406Y-32274211D01*
X157442667Y-32370184D01*
X157315114Y-32497737D01*
X157219141Y-32650476D01*
X157159561Y-32820745D01*
X157159560Y-32820750D01*
X157139365Y-32999996D01*
X157139365Y-33000003D01*
X157159560Y-33179249D01*
X157159561Y-33179254D01*
X157219141Y-33349523D01*
X157282576Y-33450478D01*
X157315114Y-33502262D01*
X157442668Y-33629816D01*
X157526816Y-33682690D01*
X157587380Y-33720745D01*
X157595408Y-33725789D01*
X157765675Y-33785368D01*
X157772904Y-33786182D01*
X157837318Y-33813246D01*
X157846706Y-33821722D01*
X158180255Y-34155272D01*
X158180256Y-34155273D01*
X158180259Y-34155275D01*
X158180261Y-34155277D01*
X158275893Y-34219175D01*
X158275892Y-34219175D01*
X158275894Y-34219176D01*
X158286803Y-34226465D01*
X158405186Y-34275501D01*
X158405190Y-34275501D01*
X158405191Y-34275502D01*
X158530858Y-34300500D01*
X158530861Y-34300500D01*
X159355192Y-34300500D01*
X159422231Y-34320185D01*
X159467986Y-34372989D01*
X159477930Y-34442147D01*
X159448905Y-34505703D01*
X159442873Y-34512181D01*
X157581552Y-36373500D01*
X157538609Y-36437769D01*
X157523189Y-36456557D01*
X157457014Y-36522733D01*
X157457013Y-36522734D01*
X157361038Y-36675476D01*
X157301458Y-36845745D01*
X157301457Y-36845750D01*
X157281262Y-37024996D01*
X157281262Y-37025003D01*
X157301457Y-37204249D01*
X157301458Y-37204254D01*
X157361038Y-37374523D01*
X157424668Y-37475789D01*
X157457011Y-37527262D01*
X157584565Y-37654816D01*
X157737305Y-37750789D01*
X157871332Y-37797687D01*
X157928107Y-37838407D01*
X157947417Y-37873771D01*
X157958543Y-37905565D01*
X157961039Y-37912697D01*
X157999492Y-37973894D01*
X158057011Y-38065435D01*
X158184565Y-38192989D01*
X158337305Y-38288962D01*
X158403627Y-38312169D01*
X158507572Y-38348541D01*
X158507577Y-38348542D01*
X158686823Y-38368738D01*
X158686827Y-38368738D01*
X158686831Y-38368738D01*
X158866076Y-38348542D01*
X158866079Y-38348541D01*
X158866082Y-38348541D01*
X159036349Y-38288962D01*
X159189089Y-38192989D01*
X159316643Y-38065435D01*
X159412616Y-37912695D01*
X159472195Y-37742428D01*
X159473009Y-37735198D01*
X159500072Y-37670784D01*
X159508539Y-37661405D01*
X160054920Y-37115024D01*
X160116241Y-37081541D01*
X160185933Y-37086525D01*
X160241866Y-37128397D01*
X160247592Y-37136734D01*
X160320182Y-37252260D01*
X160320184Y-37252262D01*
X160447738Y-37379816D01*
X160538080Y-37436582D01*
X160565611Y-37453881D01*
X160600478Y-37475789D01*
X160726409Y-37519854D01*
X160770745Y-37535368D01*
X160770750Y-37535369D01*
X160949996Y-37555565D01*
X160950000Y-37555565D01*
X160950004Y-37555565D01*
X161129249Y-37535369D01*
X161129252Y-37535368D01*
X161129255Y-37535368D01*
X161299522Y-37475789D01*
X161452262Y-37379816D01*
X161579816Y-37252262D01*
X161675789Y-37099522D01*
X161735368Y-36929255D01*
X161741392Y-36875789D01*
X161755565Y-36750003D01*
X161755565Y-36749996D01*
X161735369Y-36570750D01*
X161735368Y-36570745D01*
X161701074Y-36472738D01*
X161675789Y-36400478D01*
X161641045Y-36345184D01*
X161580923Y-36249500D01*
X161579816Y-36247738D01*
X161579815Y-36247737D01*
X161576111Y-36241842D01*
X161578409Y-36240397D01*
X161556659Y-36187151D01*
X161569401Y-36118453D01*
X161617261Y-36067550D01*
X161680012Y-36050500D01*
X163814071Y-36050500D01*
X163898615Y-36033682D01*
X163939744Y-36025501D01*
X164028974Y-35988540D01*
X164098440Y-35981072D01*
X164160919Y-36012346D01*
X164164105Y-36015421D01*
X164172738Y-36024054D01*
X164242474Y-36067872D01*
X164298266Y-36102929D01*
X164325478Y-36120027D01*
X164480441Y-36174251D01*
X164495745Y-36179606D01*
X164495750Y-36179607D01*
X164674996Y-36199803D01*
X164675000Y-36199803D01*
X164675004Y-36199803D01*
X164854249Y-36179607D01*
X164854252Y-36179606D01*
X164854255Y-36179606D01*
X165024522Y-36120027D01*
X165177262Y-36024054D01*
X165304816Y-35896500D01*
X165400789Y-35743760D01*
X165460368Y-35573493D01*
X165460369Y-35573487D01*
X165480565Y-35394241D01*
X165480565Y-35394234D01*
X165460369Y-35214988D01*
X165460368Y-35214983D01*
X165432510Y-35135369D01*
X165400789Y-35044716D01*
X165387861Y-35024142D01*
X165308479Y-34897806D01*
X165289479Y-34830570D01*
X165309847Y-34763734D01*
X165325788Y-34744157D01*
X165383128Y-34686818D01*
X165444451Y-34653334D01*
X165470808Y-34650500D01*
X166844932Y-34650500D01*
X166910904Y-34669506D01*
X167000477Y-34725789D01*
X167000481Y-34725790D01*
X167170737Y-34785366D01*
X167170743Y-34785367D01*
X167170745Y-34785368D01*
X167170746Y-34785368D01*
X167170750Y-34785369D01*
X167349996Y-34805565D01*
X167350000Y-34805565D01*
X167350004Y-34805565D01*
X167529249Y-34785369D01*
X167529252Y-34785368D01*
X167529255Y-34785368D01*
X167699522Y-34725789D01*
X167852262Y-34629816D01*
X167979816Y-34502262D01*
X168075789Y-34349522D01*
X168135368Y-34179255D01*
X168138070Y-34155273D01*
X168155565Y-34000003D01*
X168155565Y-33999996D01*
X168135369Y-33820750D01*
X168135368Y-33820745D01*
X168075788Y-33650475D01*
X168041516Y-33595933D01*
X168022515Y-33528696D01*
X168029466Y-33489012D01*
X168085368Y-33329255D01*
X168088919Y-33297738D01*
X168105565Y-33150003D01*
X168105565Y-33149996D01*
X168085369Y-32970750D01*
X168085366Y-32970737D01*
X168047354Y-32862105D01*
X168043792Y-32792326D01*
X168059401Y-32755178D01*
X168094070Y-32700003D01*
X168125789Y-32649522D01*
X168185368Y-32479255D01*
X168186182Y-32472025D01*
X168213245Y-32407611D01*
X168221712Y-32398232D01*
X168682228Y-31937716D01*
X168743549Y-31904233D01*
X168813241Y-31909217D01*
X168866853Y-31948084D01*
X168870180Y-31952257D01*
X168870184Y-31952262D01*
X168997738Y-32079816D01*
X169150478Y-32175789D01*
X169254775Y-32212284D01*
X169320745Y-32235368D01*
X169320750Y-32235369D01*
X169499996Y-32255565D01*
X169500000Y-32255565D01*
X169500004Y-32255565D01*
X169679249Y-32235369D01*
X169679252Y-32235368D01*
X169679255Y-32235368D01*
X169849522Y-32175789D01*
X170002262Y-32079816D01*
X170129816Y-31952262D01*
X170225789Y-31799522D01*
X170285368Y-31629255D01*
X170291570Y-31574210D01*
X170305565Y-31450003D01*
X170305565Y-31449996D01*
X170285369Y-31270750D01*
X170285366Y-31270737D01*
X170225790Y-31100481D01*
X170225789Y-31100478D01*
X170193771Y-31049522D01*
X170169506Y-31010903D01*
X170150500Y-30944931D01*
X170150500Y-29085928D01*
X170125502Y-28960261D01*
X170125501Y-28960260D01*
X170125501Y-28960256D01*
X170076465Y-28841873D01*
X170076465Y-28841872D01*
X170058289Y-28814671D01*
X170058289Y-28814670D01*
X170005274Y-28735327D01*
X165914673Y-24644726D01*
X165914669Y-24644723D01*
X165808127Y-24573535D01*
X165786633Y-24564632D01*
X165689744Y-24524499D01*
X165689738Y-24524497D01*
X165564071Y-24499500D01*
X165564069Y-24499500D01*
X165553476Y-24499500D01*
X165486437Y-24479815D01*
X165440682Y-24427011D01*
X165430738Y-24357853D01*
X165459763Y-24294297D01*
X165487504Y-24270506D01*
X165552262Y-24229816D01*
X165679816Y-24102262D01*
X165775789Y-23949522D01*
X165835368Y-23779255D01*
X165835369Y-23779249D01*
X165855565Y-23600003D01*
X165855565Y-23599996D01*
X165835369Y-23420750D01*
X165835368Y-23420745D01*
X165792326Y-23297738D01*
X165775789Y-23250478D01*
X165741361Y-23195687D01*
X165711734Y-23148535D01*
X165679816Y-23097738D01*
X165552262Y-22970184D01*
X165527290Y-22954493D01*
X165481000Y-22902159D01*
X165470352Y-22833106D01*
X165498727Y-22769257D01*
X165557116Y-22730885D01*
X165593263Y-22725500D01*
X166905145Y-22725500D01*
X166971116Y-22744505D01*
X167050578Y-22794435D01*
X167100483Y-22825792D01*
X167106753Y-22828812D01*
X167105630Y-22831142D01*
X167152746Y-22864940D01*
X167178489Y-22929894D01*
X167165027Y-22998455D01*
X167116636Y-23048854D01*
X167095965Y-23058293D01*
X167050480Y-23074208D01*
X166897737Y-23170184D01*
X166770184Y-23297737D01*
X166674211Y-23450476D01*
X166614631Y-23620745D01*
X166614630Y-23620750D01*
X166594435Y-23799996D01*
X166594435Y-23800003D01*
X166614630Y-23979249D01*
X166614631Y-23979254D01*
X166674211Y-24149523D01*
X166760708Y-24287181D01*
X166770184Y-24302262D01*
X166897738Y-24429816D01*
X166939001Y-24455743D01*
X167048421Y-24524497D01*
X167050478Y-24525789D01*
X167189683Y-24574499D01*
X167220745Y-24585368D01*
X167220750Y-24585369D01*
X167399996Y-24605565D01*
X167400000Y-24605565D01*
X167400004Y-24605565D01*
X167579249Y-24585369D01*
X167579252Y-24585368D01*
X167579255Y-24585368D01*
X167749522Y-24525789D01*
X167902262Y-24429816D01*
X168029816Y-24302262D01*
X168125789Y-24149522D01*
X168185368Y-23979255D01*
X168185369Y-23979249D01*
X168205565Y-23800003D01*
X168205565Y-23799996D01*
X168185369Y-23620750D01*
X168185368Y-23620745D01*
X168125788Y-23450476D01*
X168085172Y-23385836D01*
X168029816Y-23297738D01*
X167902262Y-23170184D01*
X167867808Y-23148535D01*
X167749516Y-23074207D01*
X167743247Y-23071188D01*
X167744366Y-23068864D01*
X167697231Y-23035032D01*
X167671507Y-22970070D01*
X167684988Y-22901513D01*
X167733393Y-22851128D01*
X167754033Y-22841706D01*
X167799522Y-22825789D01*
X167952262Y-22729816D01*
X168079816Y-22602262D01*
X168175789Y-22449522D01*
X168235368Y-22279255D01*
X168235369Y-22279249D01*
X168255565Y-22100003D01*
X168255565Y-22099996D01*
X168235369Y-21920750D01*
X168235368Y-21920745D01*
X168183448Y-21772367D01*
X168175789Y-21750478D01*
X168090958Y-21615471D01*
X168071959Y-21548235D01*
X168092327Y-21481400D01*
X168145594Y-21436186D01*
X168195953Y-21425500D01*
X177089548Y-21425500D01*
X177156587Y-21445185D01*
X177177229Y-21461819D01*
X178573787Y-22858377D01*
X178607272Y-22919700D01*
X178609326Y-22932173D01*
X178614630Y-22979249D01*
X178674210Y-23149521D01*
X178727625Y-23234530D01*
X178770184Y-23302262D01*
X178897738Y-23429816D01*
X178988080Y-23486582D01*
X179032721Y-23514632D01*
X179050478Y-23525789D01*
X179188857Y-23574210D01*
X179220745Y-23585368D01*
X179220750Y-23585369D01*
X179399996Y-23605565D01*
X179400000Y-23605565D01*
X179400004Y-23605565D01*
X179579249Y-23585369D01*
X179579252Y-23585368D01*
X179579255Y-23585368D01*
X179749522Y-23525789D01*
X179902262Y-23429816D01*
X180029816Y-23302262D01*
X180065445Y-23245559D01*
X184857991Y-23245559D01*
X184960204Y-23308847D01*
X184960208Y-23308849D01*
X185158936Y-23385836D01*
X185158941Y-23385837D01*
X185368439Y-23425000D01*
X185581561Y-23425000D01*
X185791058Y-23385837D01*
X185791063Y-23385836D01*
X185989791Y-23308849D01*
X185989798Y-23308846D01*
X186092006Y-23245560D01*
X186092006Y-23245559D01*
X185475001Y-22628553D01*
X185475000Y-22628553D01*
X184857991Y-23245559D01*
X180065445Y-23245559D01*
X180125789Y-23149522D01*
X180185368Y-22979255D01*
X180190930Y-22929894D01*
X180205565Y-22800003D01*
X180205565Y-22799996D01*
X180185369Y-22620750D01*
X180185368Y-22620745D01*
X180179673Y-22604469D01*
X180125789Y-22450478D01*
X180125188Y-22449522D01*
X180086582Y-22388080D01*
X180029816Y-22297738D01*
X180007077Y-22274999D01*
X184320073Y-22274999D01*
X184320073Y-22275000D01*
X184339737Y-22487216D01*
X184339738Y-22487219D01*
X184398058Y-22692196D01*
X184398064Y-22692211D01*
X184493061Y-22882991D01*
X184493064Y-22882996D01*
X184501836Y-22894610D01*
X185121447Y-22275000D01*
X185121447Y-22274999D01*
X185075370Y-22228922D01*
X185125000Y-22228922D01*
X185125000Y-22321078D01*
X185148852Y-22410095D01*
X185194930Y-22489905D01*
X185260095Y-22555070D01*
X185339905Y-22601148D01*
X185428922Y-22625000D01*
X185521078Y-22625000D01*
X185610095Y-22601148D01*
X185689905Y-22555070D01*
X185755070Y-22489905D01*
X185801148Y-22410095D01*
X185825000Y-22321078D01*
X185825000Y-22228922D01*
X185801148Y-22139905D01*
X185755070Y-22060095D01*
X185689905Y-21994930D01*
X185610095Y-21948852D01*
X185521078Y-21925000D01*
X185428922Y-21925000D01*
X185339905Y-21948852D01*
X185260095Y-21994930D01*
X185194930Y-22060095D01*
X185148852Y-22139905D01*
X185125000Y-22228922D01*
X185075370Y-22228922D01*
X184501836Y-21655388D01*
X184493059Y-21667010D01*
X184398066Y-21857783D01*
X184398058Y-21857803D01*
X184339738Y-22062780D01*
X184339737Y-22062783D01*
X184320073Y-22274999D01*
X180007077Y-22274999D01*
X179902262Y-22170184D01*
X179846267Y-22135000D01*
X179749521Y-22074210D01*
X179579249Y-22014630D01*
X179532173Y-22009326D01*
X179467759Y-21982259D01*
X179458377Y-21973787D01*
X178789029Y-21304439D01*
X184857991Y-21304439D01*
X185475000Y-21921447D01*
X185475001Y-21921447D01*
X186092007Y-21304439D01*
X185989793Y-21241151D01*
X185989789Y-21241149D01*
X185791063Y-21164163D01*
X185791058Y-21164162D01*
X185581561Y-21125000D01*
X185368439Y-21125000D01*
X185158941Y-21164162D01*
X185158936Y-21164163D01*
X184960210Y-21241149D01*
X184960201Y-21241154D01*
X184857992Y-21304438D01*
X184857991Y-21304439D01*
X178789029Y-21304439D01*
X178096771Y-20612181D01*
X178063286Y-20550858D01*
X178068270Y-20481166D01*
X178110142Y-20425233D01*
X178175606Y-20400816D01*
X178184452Y-20400500D01*
X186580619Y-20400500D01*
X186647658Y-20420185D01*
G37*
%TD.AperFunction*%
%TA.AperFunction,Conductor*%
G36*
X189524312Y-56873004D02*
G01*
X189578190Y-56917489D01*
X189599465Y-56984041D01*
X189599500Y-56986993D01*
X189599500Y-59317381D01*
X189579815Y-59384420D01*
X189527011Y-59430175D01*
X189457853Y-59440119D01*
X189394297Y-59411094D01*
X189359318Y-59360714D01*
X189343354Y-59317913D01*
X189343350Y-59317906D01*
X189257190Y-59202812D01*
X189257187Y-59202809D01*
X189142093Y-59116649D01*
X189142086Y-59116645D01*
X189007379Y-59066403D01*
X189007372Y-59066401D01*
X188947844Y-59060000D01*
X188300000Y-59060000D01*
X188300000Y-59976988D01*
X188242993Y-59944075D01*
X188115826Y-59910000D01*
X187984174Y-59910000D01*
X187857007Y-59944075D01*
X187800000Y-59976988D01*
X187800000Y-59060000D01*
X187152155Y-59060000D01*
X187092627Y-59066401D01*
X187092619Y-59066403D01*
X186992833Y-59103621D01*
X186923141Y-59108605D01*
X186861818Y-59075120D01*
X186828334Y-59013796D01*
X186825500Y-58987439D01*
X186825500Y-57594758D01*
X186845185Y-57527719D01*
X186897989Y-57481964D01*
X186967147Y-57472020D01*
X187030703Y-57501045D01*
X187037181Y-57507077D01*
X187178599Y-57648495D01*
X187275384Y-57716265D01*
X187372165Y-57784032D01*
X187372167Y-57784033D01*
X187372170Y-57784035D01*
X187586337Y-57883903D01*
X187814592Y-57945063D01*
X188002918Y-57961539D01*
X188049999Y-57965659D01*
X188050000Y-57965659D01*
X188050001Y-57965659D01*
X188089234Y-57962226D01*
X188285408Y-57945063D01*
X188513663Y-57883903D01*
X188727830Y-57784035D01*
X188921401Y-57648495D01*
X189088495Y-57481401D01*
X189224035Y-57287830D01*
X189323903Y-57073663D01*
X189355725Y-56954899D01*
X189392090Y-56895240D01*
X189454936Y-56864710D01*
X189524312Y-56873004D01*
G37*
%TD.AperFunction*%
%TA.AperFunction,Conductor*%
G36*
X169273960Y-46470185D02*
G01*
X169319715Y-46522989D01*
X169329659Y-46592147D01*
X169311915Y-46640472D01*
X169274211Y-46700476D01*
X169214631Y-46870745D01*
X169214630Y-46870750D01*
X169194435Y-47049996D01*
X169194435Y-47050003D01*
X169214630Y-47229249D01*
X169214631Y-47229254D01*
X169274211Y-47399524D01*
X169330493Y-47489094D01*
X169349500Y-47555067D01*
X169349500Y-49494931D01*
X169330494Y-49560903D01*
X169274211Y-49650477D01*
X169274209Y-49650481D01*
X169214633Y-49820737D01*
X169214630Y-49820750D01*
X169194435Y-49999996D01*
X169194435Y-50000003D01*
X169214630Y-50179249D01*
X169214631Y-50179254D01*
X169274211Y-50349523D01*
X169363425Y-50491505D01*
X169370184Y-50502262D01*
X169497738Y-50629816D01*
X169543546Y-50658599D01*
X169610192Y-50700476D01*
X169650478Y-50725789D01*
X169820745Y-50785368D01*
X169820750Y-50785369D01*
X169999996Y-50805565D01*
X170000000Y-50805565D01*
X170000004Y-50805565D01*
X170179249Y-50785369D01*
X170179252Y-50785368D01*
X170179255Y-50785368D01*
X170349522Y-50725789D01*
X170502262Y-50629816D01*
X170629816Y-50502262D01*
X170720506Y-50357930D01*
X170772841Y-50311639D01*
X170841895Y-50300991D01*
X170905743Y-50329366D01*
X170944115Y-50387756D01*
X170949500Y-50423902D01*
X170949500Y-52129192D01*
X170929815Y-52196231D01*
X170913181Y-52216873D01*
X168479123Y-54650931D01*
X168417800Y-54684416D01*
X168348108Y-54679432D01*
X168292175Y-54637560D01*
X168267758Y-54572096D01*
X168267442Y-54563250D01*
X168267442Y-47336796D01*
X168286449Y-47270823D01*
X168367730Y-47141466D01*
X168367731Y-47141464D01*
X168427310Y-46971197D01*
X168427311Y-46971191D01*
X168447507Y-46791945D01*
X168447507Y-46791938D01*
X168427311Y-46612695D01*
X168427310Y-46612694D01*
X168427310Y-46612687D01*
X168427307Y-46612680D01*
X168425761Y-46605903D01*
X168427764Y-46605445D01*
X168424720Y-46545664D01*
X168459455Y-46485040D01*
X168521451Y-46452819D01*
X168545320Y-46450500D01*
X169206921Y-46450500D01*
X169273960Y-46470185D01*
G37*
%TD.AperFunction*%
%TA.AperFunction,Conductor*%
G36*
X170905743Y-47379366D02*
G01*
X170944115Y-47437756D01*
X170949500Y-47473902D01*
X170949500Y-49576097D01*
X170929815Y-49643136D01*
X170877011Y-49688891D01*
X170807853Y-49698835D01*
X170744297Y-49669810D01*
X170720506Y-49642069D01*
X170669506Y-49560903D01*
X170650500Y-49494931D01*
X170650500Y-47555067D01*
X170669507Y-47489094D01*
X170720507Y-47407929D01*
X170772841Y-47361639D01*
X170841895Y-47350991D01*
X170905743Y-47379366D01*
G37*
%TD.AperFunction*%
%TA.AperFunction,Conductor*%
G36*
X154055703Y-45726094D02*
G01*
X154062181Y-45732126D01*
X156728277Y-48398222D01*
X156761762Y-48459545D01*
X156763815Y-48472012D01*
X156764630Y-48479245D01*
X156764632Y-48479255D01*
X156796647Y-48570750D01*
X156801475Y-48584546D01*
X156805036Y-48654325D01*
X156770307Y-48714952D01*
X156708313Y-48747179D01*
X156684433Y-48749500D01*
X155466322Y-48749500D01*
X155399283Y-48729815D01*
X155353528Y-48677011D01*
X155343102Y-48639383D01*
X155335369Y-48570750D01*
X155335368Y-48570748D01*
X155335368Y-48570745D01*
X155275789Y-48400478D01*
X155179816Y-48247738D01*
X155052262Y-48120184D01*
X154972688Y-48070184D01*
X154899521Y-48024210D01*
X154729255Y-47964632D01*
X154729246Y-47964630D01*
X154722012Y-47963815D01*
X154657600Y-47936744D01*
X154648223Y-47928277D01*
X153886819Y-47166873D01*
X153853334Y-47105550D01*
X153850500Y-47079192D01*
X153850500Y-45819807D01*
X153870185Y-45752768D01*
X153922989Y-45707013D01*
X153992147Y-45697069D01*
X154055703Y-45726094D01*
G37*
%TD.AperFunction*%
%TA.AperFunction,Conductor*%
G36*
X185755703Y-35030189D02*
G01*
X185779494Y-35057930D01*
X185870184Y-35202262D01*
X185997740Y-35329818D01*
X186091471Y-35388712D01*
X186137763Y-35441046D01*
X186149500Y-35493706D01*
X186149500Y-36306921D01*
X186129815Y-36373960D01*
X186077011Y-36419715D01*
X186007853Y-36429659D01*
X185959528Y-36411915D01*
X185899521Y-36374210D01*
X185729249Y-36314630D01*
X185660616Y-36306897D01*
X185596202Y-36279830D01*
X185556647Y-36222235D01*
X185550500Y-36183677D01*
X185550500Y-35123902D01*
X185570185Y-35056863D01*
X185622989Y-35011108D01*
X185692147Y-35001164D01*
X185755703Y-35030189D01*
G37*
%TD.AperFunction*%
%TA.AperFunction,Conductor*%
G36*
X163283976Y-20420185D02*
G01*
X163329731Y-20472989D01*
X163339675Y-20542147D01*
X163333978Y-20565455D01*
X163314633Y-20620737D01*
X163314630Y-20620750D01*
X163294435Y-20799996D01*
X163294435Y-20800003D01*
X163314630Y-20979249D01*
X163314631Y-20979254D01*
X163374211Y-21149523D01*
X163459041Y-21284528D01*
X163478041Y-21351765D01*
X163457673Y-21418600D01*
X163404406Y-21463814D01*
X163354047Y-21474500D01*
X151367741Y-21474500D01*
X151367721Y-21474499D01*
X151361607Y-21474499D01*
X151238394Y-21474499D01*
X151137597Y-21494548D01*
X151137592Y-21494548D01*
X151117549Y-21498536D01*
X151117547Y-21498536D01*
X151070397Y-21518067D01*
X151003719Y-21545685D01*
X151003717Y-21545686D01*
X150901266Y-21614141D01*
X150901263Y-21614144D01*
X149941621Y-22573787D01*
X149880298Y-22607272D01*
X149867825Y-22609326D01*
X149820750Y-22614630D01*
X149650478Y-22674210D01*
X149497737Y-22770184D01*
X149370184Y-22897737D01*
X149274210Y-23050479D01*
X149272369Y-23054302D01*
X149270523Y-23056345D01*
X149270506Y-23056374D01*
X149270501Y-23056370D01*
X149225546Y-23106162D01*
X149160649Y-23124500D01*
X147588388Y-23124500D01*
X147467555Y-23148535D01*
X147467547Y-23148537D01*
X147353716Y-23195687D01*
X147295585Y-23234530D01*
X147295584Y-23234531D01*
X147251263Y-23264144D01*
X147041620Y-23473787D01*
X146980297Y-23507272D01*
X146967825Y-23509326D01*
X146920750Y-23514630D01*
X146750478Y-23574210D01*
X146597737Y-23670184D01*
X146470184Y-23797737D01*
X146374211Y-23950476D01*
X146314631Y-24120745D01*
X146314630Y-24120750D01*
X146294435Y-24299996D01*
X146294435Y-24300003D01*
X146314630Y-24479249D01*
X146314631Y-24479254D01*
X146374211Y-24649523D01*
X146448698Y-24768067D01*
X146470184Y-24802262D01*
X146597738Y-24929816D01*
X146750478Y-25025789D01*
X146818309Y-25049524D01*
X146920745Y-25085368D01*
X146920750Y-25085369D01*
X147099996Y-25105565D01*
X147100000Y-25105565D01*
X147100004Y-25105565D01*
X147279249Y-25085369D01*
X147279252Y-25085368D01*
X147279255Y-25085368D01*
X147449522Y-25025789D01*
X147602262Y-24929816D01*
X147729816Y-24802262D01*
X147825789Y-24649522D01*
X147885368Y-24479255D01*
X147885369Y-24479249D01*
X147886917Y-24472468D01*
X147889886Y-24473145D01*
X147911736Y-24421181D01*
X147969340Y-24381639D01*
X148007872Y-24375500D01*
X149155663Y-24375500D01*
X149222702Y-24395185D01*
X149243339Y-24411814D01*
X149303993Y-24472468D01*
X149342384Y-24510859D01*
X149444824Y-24579308D01*
X149444831Y-24579312D01*
X149508212Y-24605565D01*
X149558664Y-24626463D01*
X149674593Y-24649522D01*
X149679505Y-24650499D01*
X149679509Y-24650500D01*
X149679510Y-24650500D01*
X150320492Y-24650500D01*
X150320492Y-24650499D01*
X150381353Y-24638394D01*
X150381354Y-24638394D01*
X150396451Y-24635390D01*
X150441336Y-24626463D01*
X150491788Y-24605565D01*
X150555170Y-24579312D01*
X150609241Y-24543182D01*
X150657617Y-24510858D01*
X150744742Y-24423733D01*
X150744744Y-24423729D01*
X151056656Y-24111816D01*
X151117978Y-24078334D01*
X151144336Y-24075500D01*
X159180192Y-24075500D01*
X159247231Y-24095185D01*
X159292986Y-24147989D01*
X159302930Y-24217147D01*
X159273905Y-24280703D01*
X159267873Y-24287181D01*
X159041873Y-24513181D01*
X158980550Y-24546666D01*
X158954192Y-24549500D01*
X156905168Y-24549500D01*
X156779500Y-24574497D01*
X156779494Y-24574499D01*
X156683448Y-24614283D01*
X156661113Y-24623534D01*
X156554565Y-24694726D01*
X155000084Y-26249207D01*
X154938761Y-26282692D01*
X154869069Y-26277708D01*
X154846431Y-26266520D01*
X154699523Y-26174211D01*
X154529254Y-26114631D01*
X154529249Y-26114630D01*
X154350004Y-26094435D01*
X154349996Y-26094435D01*
X154170750Y-26114630D01*
X154170745Y-26114631D01*
X154000476Y-26174211D01*
X153847737Y-26270184D01*
X153720184Y-26397737D01*
X153624212Y-26550475D01*
X153624211Y-26550476D01*
X153587992Y-26653984D01*
X153558632Y-26700709D01*
X152405887Y-27853454D01*
X152329222Y-27968192D01*
X152276421Y-28095667D01*
X152276418Y-28095679D01*
X152258578Y-28185368D01*
X152253628Y-28210256D01*
X152251672Y-28220090D01*
X152249500Y-28231007D01*
X152249500Y-33022759D01*
X152229815Y-33089798D01*
X152177011Y-33135553D01*
X152107853Y-33145497D01*
X152056610Y-33125862D01*
X152019973Y-33101382D01*
X152019965Y-33101378D01*
X151897036Y-33050459D01*
X151897028Y-33050457D01*
X151766535Y-33024500D01*
X151766531Y-33024500D01*
X145063393Y-33024500D01*
X144996354Y-33004815D01*
X144950599Y-32952011D01*
X144940173Y-32886617D01*
X144955565Y-32750003D01*
X144955565Y-32749996D01*
X144935369Y-32570750D01*
X144935368Y-32570745D01*
X144920328Y-32527762D01*
X144875789Y-32400478D01*
X144874371Y-32398222D01*
X144809071Y-32294297D01*
X144779816Y-32247738D01*
X144652262Y-32120184D01*
X144588017Y-32079816D01*
X144499523Y-32024211D01*
X144329254Y-31964631D01*
X144329249Y-31964630D01*
X144150004Y-31944435D01*
X144149996Y-31944435D01*
X143970750Y-31964630D01*
X143970745Y-31964631D01*
X143800474Y-32024212D01*
X143790477Y-32030494D01*
X143724506Y-32049500D01*
X142555068Y-32049500D01*
X142489096Y-32030494D01*
X142399522Y-31974210D01*
X142399518Y-31974209D01*
X142229262Y-31914633D01*
X142229249Y-31914630D01*
X142050004Y-31894435D01*
X142049996Y-31894435D01*
X141870750Y-31914630D01*
X141870745Y-31914631D01*
X141700476Y-31974211D01*
X141547737Y-32070184D01*
X141420184Y-32197737D01*
X141324211Y-32350476D01*
X141264631Y-32520745D01*
X141264630Y-32520750D01*
X141244435Y-32699996D01*
X141244435Y-32700003D01*
X141264630Y-32879249D01*
X141264631Y-32879254D01*
X141324211Y-33049523D01*
X141387347Y-33150003D01*
X141420184Y-33202262D01*
X141547738Y-33329816D01*
X141626886Y-33379548D01*
X141700478Y-33425789D01*
X141793840Y-33458458D01*
X141850617Y-33499180D01*
X141876364Y-33564133D01*
X141862908Y-33632694D01*
X141814521Y-33683097D01*
X141752886Y-33699500D01*
X141605068Y-33699500D01*
X141539096Y-33680494D01*
X141449522Y-33624210D01*
X141449518Y-33624209D01*
X141279262Y-33564633D01*
X141279249Y-33564630D01*
X141100004Y-33544435D01*
X141099996Y-33544435D01*
X140920750Y-33564630D01*
X140920745Y-33564631D01*
X140750476Y-33624211D01*
X140591842Y-33723889D01*
X140590402Y-33721598D01*
X140537096Y-33743346D01*
X140468404Y-33730573D01*
X140417522Y-33682690D01*
X140400500Y-33619987D01*
X140400500Y-26899996D01*
X147244435Y-26899996D01*
X147244435Y-26900003D01*
X147264630Y-27079249D01*
X147264631Y-27079254D01*
X147324211Y-27249523D01*
X147390842Y-27355565D01*
X147420184Y-27402262D01*
X147547738Y-27529816D01*
X147626410Y-27579249D01*
X147658104Y-27599164D01*
X147700478Y-27625789D01*
X147859331Y-27681374D01*
X147870745Y-27685368D01*
X147870750Y-27685369D01*
X148049996Y-27705565D01*
X148050000Y-27705565D01*
X148050004Y-27705565D01*
X148229249Y-27685369D01*
X148229252Y-27685368D01*
X148229255Y-27685368D01*
X148399522Y-27625789D01*
X148552262Y-27529816D01*
X148679816Y-27402262D01*
X148775789Y-27249522D01*
X148835368Y-27079255D01*
X148835974Y-27073879D01*
X148855565Y-26900003D01*
X148855565Y-26899996D01*
X148835369Y-26720750D01*
X148835368Y-26720745D01*
X148788962Y-26588124D01*
X148775789Y-26550478D01*
X148756408Y-26519634D01*
X148708926Y-26444067D01*
X148679816Y-26397738D01*
X148552262Y-26270184D01*
X148543708Y-26264809D01*
X148399523Y-26174211D01*
X148229254Y-26114631D01*
X148229249Y-26114630D01*
X148050004Y-26094435D01*
X148049996Y-26094435D01*
X147870750Y-26114630D01*
X147870745Y-26114631D01*
X147700476Y-26174211D01*
X147547737Y-26270184D01*
X147420184Y-26397737D01*
X147324211Y-26550476D01*
X147264631Y-26720745D01*
X147264630Y-26720750D01*
X147244435Y-26899996D01*
X140400500Y-26899996D01*
X140400500Y-22004427D01*
X140400816Y-21995581D01*
X140406168Y-21920750D01*
X140416148Y-21781206D01*
X140418666Y-21763700D01*
X140463407Y-21558026D01*
X140468384Y-21541075D01*
X140541948Y-21343844D01*
X140549296Y-21327757D01*
X140557933Y-21311940D01*
X140650166Y-21143025D01*
X140659720Y-21128157D01*
X140785873Y-20959637D01*
X140797445Y-20946283D01*
X140946283Y-20797445D01*
X140959637Y-20785873D01*
X141128157Y-20659720D01*
X141143025Y-20650166D01*
X141327757Y-20549295D01*
X141343844Y-20541948D01*
X141541075Y-20468384D01*
X141558026Y-20463407D01*
X141763705Y-20418665D01*
X141781206Y-20416148D01*
X141995582Y-20400816D01*
X142004428Y-20400500D01*
X142057583Y-20400500D01*
X163216937Y-20400500D01*
X163283976Y-20420185D01*
G37*
%TD.AperFunction*%
%TA.AperFunction,Conductor*%
G36*
X165630504Y-26934847D02*
G01*
X165650085Y-26950792D01*
X168013181Y-29313888D01*
X168046666Y-29375211D01*
X168049500Y-29401569D01*
X168049500Y-29478044D01*
X168029815Y-29545083D01*
X167977011Y-29590838D01*
X167939384Y-29601264D01*
X167820749Y-29614630D01*
X167820745Y-29614631D01*
X167650475Y-29674211D01*
X167570391Y-29724533D01*
X167504418Y-29743540D01*
X165198345Y-29743540D01*
X165131306Y-29723855D01*
X165085551Y-29671051D01*
X165075125Y-29633423D01*
X165065336Y-29546543D01*
X165065335Y-29546538D01*
X165005755Y-29376269D01*
X164909782Y-29223530D01*
X164782229Y-29095977D01*
X164629488Y-29000003D01*
X164568157Y-28978543D01*
X164511381Y-28937821D01*
X164485890Y-28875381D01*
X164485368Y-28870745D01*
X164425789Y-28700478D01*
X164329816Y-28547738D01*
X164202262Y-28420184D01*
X164180145Y-28406287D01*
X164049523Y-28324211D01*
X163879254Y-28264631D01*
X163879249Y-28264630D01*
X163700004Y-28244435D01*
X163699996Y-28244435D01*
X163520750Y-28264630D01*
X163520745Y-28264631D01*
X163350476Y-28324211D01*
X163219855Y-28406287D01*
X163153883Y-28425293D01*
X163144014Y-28425293D01*
X163076975Y-28405608D01*
X163031220Y-28352804D01*
X163021276Y-28283646D01*
X163050301Y-28220090D01*
X163056333Y-28213612D01*
X164283126Y-26986819D01*
X164344449Y-26953334D01*
X164370807Y-26950500D01*
X164494932Y-26950500D01*
X164560904Y-26969506D01*
X164650477Y-27025789D01*
X164650481Y-27025790D01*
X164820737Y-27085366D01*
X164820743Y-27085367D01*
X164820745Y-27085368D01*
X164820746Y-27085368D01*
X164820750Y-27085369D01*
X164999996Y-27105565D01*
X165000000Y-27105565D01*
X165000004Y-27105565D01*
X165179249Y-27085369D01*
X165179252Y-27085368D01*
X165179255Y-27085368D01*
X165349522Y-27025789D01*
X165496432Y-26933478D01*
X165563668Y-26914479D01*
X165630504Y-26934847D01*
G37*
%TD.AperFunction*%
%TD*%
M02*
