%TF.GenerationSoftware,KiCad,Pcbnew,8.0.6*%
%TF.CreationDate,2025-08-26T16:20:21+02:00*%
%TF.ProjectId,GoldElectrode,476f6c64-456c-4656-9374-726f64652e6b,rev?*%
%TF.SameCoordinates,Original*%
%TF.FileFunction,Profile,NP*%
%FSLAX46Y46*%
G04 Gerber Fmt 4.6, Leading zero omitted, Abs format (unit mm)*
G04 Created by KiCad (PCBNEW 8.0.6) date 2025-08-26 16:20:21*
%MOMM*%
%LPD*%
G01*
G04 APERTURE LIST*
%TA.AperFunction,Profile*%
%ADD10C,0.050000*%
%TD*%
G04 APERTURE END LIST*
D10*
X118000000Y-44400000D02*
X118000000Y-49400000D01*
X123000000Y-90000000D02*
X123000000Y-62000000D01*
X114000000Y-46400000D02*
X116000000Y-46400000D01*
X106000000Y-49400000D02*
X106000000Y-51000000D01*
X102000000Y-46400000D02*
X104000000Y-46400000D01*
X106000000Y-51000000D02*
X112000000Y-51000000D01*
X112000000Y-49400000D02*
X112000000Y-44400000D01*
X102000000Y-49400000D02*
X102000000Y-46400000D01*
X100000000Y-55000000D02*
X104000000Y-55000000D01*
X104000000Y-55000000D02*
X104000000Y-62000000D01*
X118000000Y-51000000D02*
X118000000Y-55000000D01*
X112000000Y-44400000D02*
X118000000Y-44400000D01*
X100000000Y-44400000D02*
X106000000Y-44400000D01*
X95000000Y-90000000D02*
X123000000Y-90000000D01*
X114000000Y-49400000D02*
X116000000Y-49400000D01*
X100000000Y-51000000D02*
X100000000Y-49400000D01*
X118000000Y-55000000D02*
X114000000Y-55000000D01*
X104000000Y-49400000D02*
X102000000Y-49400000D01*
X104000000Y-46400000D02*
X104000000Y-49400000D01*
X100000000Y-49400000D02*
X100000000Y-44400000D01*
X118000000Y-51000000D02*
X118000000Y-49400000D01*
X95000000Y-90000000D02*
X95000000Y-62000000D01*
X95000000Y-62000000D02*
X104000000Y-62000000D01*
X106000000Y-44400000D02*
X106000000Y-49400000D01*
X100000000Y-51000000D02*
X100000000Y-55000000D01*
X114000000Y-62000000D02*
X123000000Y-62000000D01*
X112000000Y-51000000D02*
X112000000Y-49400000D01*
X114000000Y-55000000D02*
X114000000Y-62000000D01*
X114000000Y-49400000D02*
X114000000Y-46400000D01*
X116000000Y-46400000D02*
X116000000Y-49400000D01*
M02*
