%TF.GenerationSoftware,KiCad,Pcbnew,8.0.6*%
%TF.CreationDate,2025-08-25T17:41:28+02:00*%
%TF.ProjectId,controller,636f6e74-726f-46c6-9c65-722e6b696361,rev?*%
%TF.SameCoordinates,Original*%
%TF.FileFunction,Legend,Top*%
%TF.FilePolarity,Positive*%
%FSLAX46Y46*%
G04 Gerber Fmt 4.6, Leading zero omitted, Abs format (unit mm)*
G04 Created by KiCad (PCBNEW 8.0.6) date 2025-08-25 17:41:28*
%MOMM*%
%LPD*%
G01*
G04 APERTURE LIST*
%ADD10C,0.400000*%
%ADD11C,0.200000*%
%ADD12C,0.127000*%
%ADD13C,0.120000*%
G04 APERTURE END LIST*
D10*
X194427803Y-91651554D02*
X195761136Y-91651554D01*
X195761136Y-91651554D02*
X194427803Y-93651554D01*
X194427803Y-93651554D02*
X195761136Y-93651554D01*
X196523041Y-91651554D02*
X196523041Y-93270601D01*
X196523041Y-93270601D02*
X196618279Y-93461077D01*
X196618279Y-93461077D02*
X196713517Y-93556316D01*
X196713517Y-93556316D02*
X196903993Y-93651554D01*
X196903993Y-93651554D02*
X197284946Y-93651554D01*
X197284946Y-93651554D02*
X197475422Y-93556316D01*
X197475422Y-93556316D02*
X197570660Y-93461077D01*
X197570660Y-93461077D02*
X197665898Y-93270601D01*
X197665898Y-93270601D02*
X197665898Y-91651554D01*
X198618279Y-93651554D02*
X198618279Y-91651554D01*
X198618279Y-92603935D02*
X199761136Y-92603935D01*
X199761136Y-93651554D02*
X199761136Y-91651554D01*
X200618279Y-93080125D02*
X201570660Y-93080125D01*
X200427803Y-93651554D02*
X201094469Y-91651554D01*
X201094469Y-91651554D02*
X201761136Y-93651554D01*
X202808755Y-92699173D02*
X202808755Y-93651554D01*
X202142089Y-91651554D02*
X202808755Y-92699173D01*
X202808755Y-92699173D02*
X203475422Y-91651554D01*
X205284946Y-93651554D02*
X204618279Y-92699173D01*
X204142089Y-93651554D02*
X204142089Y-91651554D01*
X204142089Y-91651554D02*
X204903994Y-91651554D01*
X204903994Y-91651554D02*
X205094470Y-91746792D01*
X205094470Y-91746792D02*
X205189708Y-91842030D01*
X205189708Y-91842030D02*
X205284946Y-92032506D01*
X205284946Y-92032506D02*
X205284946Y-92318220D01*
X205284946Y-92318220D02*
X205189708Y-92508696D01*
X205189708Y-92508696D02*
X205094470Y-92603935D01*
X205094470Y-92603935D02*
X204903994Y-92699173D01*
X204903994Y-92699173D02*
X204142089Y-92699173D01*
X208618280Y-93651554D02*
X207665899Y-93651554D01*
X207665899Y-93651554D02*
X207665899Y-91651554D01*
X209665899Y-91651554D02*
X210046852Y-91651554D01*
X210046852Y-91651554D02*
X210237328Y-91746792D01*
X210237328Y-91746792D02*
X210427804Y-91937268D01*
X210427804Y-91937268D02*
X210523042Y-92318220D01*
X210523042Y-92318220D02*
X210523042Y-92984887D01*
X210523042Y-92984887D02*
X210427804Y-93365839D01*
X210427804Y-93365839D02*
X210237328Y-93556316D01*
X210237328Y-93556316D02*
X210046852Y-93651554D01*
X210046852Y-93651554D02*
X209665899Y-93651554D01*
X209665899Y-93651554D02*
X209475423Y-93556316D01*
X209475423Y-93556316D02*
X209284947Y-93365839D01*
X209284947Y-93365839D02*
X209189709Y-92984887D01*
X209189709Y-92984887D02*
X209189709Y-92318220D01*
X209189709Y-92318220D02*
X209284947Y-91937268D01*
X209284947Y-91937268D02*
X209475423Y-91746792D01*
X209475423Y-91746792D02*
X209665899Y-91651554D01*
X211761137Y-91651554D02*
X212142090Y-91651554D01*
X212142090Y-91651554D02*
X212332566Y-91746792D01*
X212332566Y-91746792D02*
X212523042Y-91937268D01*
X212523042Y-91937268D02*
X212618280Y-92318220D01*
X212618280Y-92318220D02*
X212618280Y-92984887D01*
X212618280Y-92984887D02*
X212523042Y-93365839D01*
X212523042Y-93365839D02*
X212332566Y-93556316D01*
X212332566Y-93556316D02*
X212142090Y-93651554D01*
X212142090Y-93651554D02*
X211761137Y-93651554D01*
X211761137Y-93651554D02*
X211570661Y-93556316D01*
X211570661Y-93556316D02*
X211380185Y-93365839D01*
X211380185Y-93365839D02*
X211284947Y-92984887D01*
X211284947Y-92984887D02*
X211284947Y-92318220D01*
X211284947Y-92318220D02*
X211380185Y-91937268D01*
X211380185Y-91937268D02*
X211570661Y-91746792D01*
X211570661Y-91746792D02*
X211761137Y-91651554D01*
X213475423Y-93651554D02*
X213475423Y-91651554D01*
X213475423Y-91651554D02*
X214618280Y-93651554D01*
X214618280Y-93651554D02*
X214618280Y-91651554D01*
X215475423Y-93080125D02*
X216427804Y-93080125D01*
X215284947Y-93651554D02*
X215951613Y-91651554D01*
X215951613Y-91651554D02*
X216618280Y-93651554D01*
X216999233Y-91651554D02*
X218142090Y-91651554D01*
X217570661Y-93651554D02*
X217570661Y-91651554D01*
D11*
X194300986Y-95536716D02*
X194443843Y-95584335D01*
X194443843Y-95584335D02*
X194681938Y-95584335D01*
X194681938Y-95584335D02*
X194777176Y-95536716D01*
X194777176Y-95536716D02*
X194824795Y-95489096D01*
X194824795Y-95489096D02*
X194872414Y-95393858D01*
X194872414Y-95393858D02*
X194872414Y-95298620D01*
X194872414Y-95298620D02*
X194824795Y-95203382D01*
X194824795Y-95203382D02*
X194777176Y-95155763D01*
X194777176Y-95155763D02*
X194681938Y-95108144D01*
X194681938Y-95108144D02*
X194491462Y-95060525D01*
X194491462Y-95060525D02*
X194396224Y-95012906D01*
X194396224Y-95012906D02*
X194348605Y-94965287D01*
X194348605Y-94965287D02*
X194300986Y-94870049D01*
X194300986Y-94870049D02*
X194300986Y-94774811D01*
X194300986Y-94774811D02*
X194348605Y-94679573D01*
X194348605Y-94679573D02*
X194396224Y-94631954D01*
X194396224Y-94631954D02*
X194491462Y-94584335D01*
X194491462Y-94584335D02*
X194729557Y-94584335D01*
X194729557Y-94584335D02*
X194872414Y-94631954D01*
X195729557Y-95584335D02*
X195729557Y-95060525D01*
X195729557Y-95060525D02*
X195681938Y-94965287D01*
X195681938Y-94965287D02*
X195586700Y-94917668D01*
X195586700Y-94917668D02*
X195396224Y-94917668D01*
X195396224Y-94917668D02*
X195300986Y-94965287D01*
X195729557Y-95536716D02*
X195634319Y-95584335D01*
X195634319Y-95584335D02*
X195396224Y-95584335D01*
X195396224Y-95584335D02*
X195300986Y-95536716D01*
X195300986Y-95536716D02*
X195253367Y-95441477D01*
X195253367Y-95441477D02*
X195253367Y-95346239D01*
X195253367Y-95346239D02*
X195300986Y-95251001D01*
X195300986Y-95251001D02*
X195396224Y-95203382D01*
X195396224Y-95203382D02*
X195634319Y-95203382D01*
X195634319Y-95203382D02*
X195729557Y-95155763D01*
X196348605Y-95584335D02*
X196253367Y-95536716D01*
X196253367Y-95536716D02*
X196205748Y-95441477D01*
X196205748Y-95441477D02*
X196205748Y-94584335D01*
X196729558Y-95584335D02*
X196729558Y-94917668D01*
X196729558Y-94584335D02*
X196681939Y-94631954D01*
X196681939Y-94631954D02*
X196729558Y-94679573D01*
X196729558Y-94679573D02*
X196777177Y-94631954D01*
X196777177Y-94631954D02*
X196729558Y-94584335D01*
X196729558Y-94584335D02*
X196729558Y-94679573D01*
X197205748Y-94917668D02*
X197205748Y-95584335D01*
X197205748Y-95012906D02*
X197253367Y-94965287D01*
X197253367Y-94965287D02*
X197348605Y-94917668D01*
X197348605Y-94917668D02*
X197491462Y-94917668D01*
X197491462Y-94917668D02*
X197586700Y-94965287D01*
X197586700Y-94965287D02*
X197634319Y-95060525D01*
X197634319Y-95060525D02*
X197634319Y-95584335D01*
X198110510Y-95584335D02*
X198110510Y-94917668D01*
X198110510Y-94584335D02*
X198062891Y-94631954D01*
X198062891Y-94631954D02*
X198110510Y-94679573D01*
X198110510Y-94679573D02*
X198158129Y-94631954D01*
X198158129Y-94631954D02*
X198110510Y-94584335D01*
X198110510Y-94584335D02*
X198110510Y-94679573D01*
X198443843Y-94917668D02*
X198824795Y-94917668D01*
X198586700Y-94584335D02*
X198586700Y-95441477D01*
X198586700Y-95441477D02*
X198634319Y-95536716D01*
X198634319Y-95536716D02*
X198729557Y-95584335D01*
X198729557Y-95584335D02*
X198824795Y-95584335D01*
X199062891Y-94917668D02*
X199300986Y-95584335D01*
X199539081Y-94917668D02*
X199300986Y-95584335D01*
X199300986Y-95584335D02*
X199205748Y-95822430D01*
X199205748Y-95822430D02*
X199158129Y-95870049D01*
X199158129Y-95870049D02*
X199062891Y-95917668D01*
X201253367Y-95489096D02*
X201205748Y-95536716D01*
X201205748Y-95536716D02*
X201062891Y-95584335D01*
X201062891Y-95584335D02*
X200967653Y-95584335D01*
X200967653Y-95584335D02*
X200824796Y-95536716D01*
X200824796Y-95536716D02*
X200729558Y-95441477D01*
X200729558Y-95441477D02*
X200681939Y-95346239D01*
X200681939Y-95346239D02*
X200634320Y-95155763D01*
X200634320Y-95155763D02*
X200634320Y-95012906D01*
X200634320Y-95012906D02*
X200681939Y-94822430D01*
X200681939Y-94822430D02*
X200729558Y-94727192D01*
X200729558Y-94727192D02*
X200824796Y-94631954D01*
X200824796Y-94631954D02*
X200967653Y-94584335D01*
X200967653Y-94584335D02*
X201062891Y-94584335D01*
X201062891Y-94584335D02*
X201205748Y-94631954D01*
X201205748Y-94631954D02*
X201253367Y-94679573D01*
X201824796Y-95584335D02*
X201729558Y-95536716D01*
X201729558Y-95536716D02*
X201681939Y-95489096D01*
X201681939Y-95489096D02*
X201634320Y-95393858D01*
X201634320Y-95393858D02*
X201634320Y-95108144D01*
X201634320Y-95108144D02*
X201681939Y-95012906D01*
X201681939Y-95012906D02*
X201729558Y-94965287D01*
X201729558Y-94965287D02*
X201824796Y-94917668D01*
X201824796Y-94917668D02*
X201967653Y-94917668D01*
X201967653Y-94917668D02*
X202062891Y-94965287D01*
X202062891Y-94965287D02*
X202110510Y-95012906D01*
X202110510Y-95012906D02*
X202158129Y-95108144D01*
X202158129Y-95108144D02*
X202158129Y-95393858D01*
X202158129Y-95393858D02*
X202110510Y-95489096D01*
X202110510Y-95489096D02*
X202062891Y-95536716D01*
X202062891Y-95536716D02*
X201967653Y-95584335D01*
X201967653Y-95584335D02*
X201824796Y-95584335D01*
X202586701Y-94917668D02*
X202586701Y-95584335D01*
X202586701Y-95012906D02*
X202634320Y-94965287D01*
X202634320Y-94965287D02*
X202729558Y-94917668D01*
X202729558Y-94917668D02*
X202872415Y-94917668D01*
X202872415Y-94917668D02*
X202967653Y-94965287D01*
X202967653Y-94965287D02*
X203015272Y-95060525D01*
X203015272Y-95060525D02*
X203015272Y-95584335D01*
X203348606Y-94917668D02*
X203729558Y-94917668D01*
X203491463Y-94584335D02*
X203491463Y-95441477D01*
X203491463Y-95441477D02*
X203539082Y-95536716D01*
X203539082Y-95536716D02*
X203634320Y-95584335D01*
X203634320Y-95584335D02*
X203729558Y-95584335D01*
X204062892Y-95584335D02*
X204062892Y-94917668D01*
X204062892Y-95108144D02*
X204110511Y-95012906D01*
X204110511Y-95012906D02*
X204158130Y-94965287D01*
X204158130Y-94965287D02*
X204253368Y-94917668D01*
X204253368Y-94917668D02*
X204348606Y-94917668D01*
X204824797Y-95584335D02*
X204729559Y-95536716D01*
X204729559Y-95536716D02*
X204681940Y-95489096D01*
X204681940Y-95489096D02*
X204634321Y-95393858D01*
X204634321Y-95393858D02*
X204634321Y-95108144D01*
X204634321Y-95108144D02*
X204681940Y-95012906D01*
X204681940Y-95012906D02*
X204729559Y-94965287D01*
X204729559Y-94965287D02*
X204824797Y-94917668D01*
X204824797Y-94917668D02*
X204967654Y-94917668D01*
X204967654Y-94917668D02*
X205062892Y-94965287D01*
X205062892Y-94965287D02*
X205110511Y-95012906D01*
X205110511Y-95012906D02*
X205158130Y-95108144D01*
X205158130Y-95108144D02*
X205158130Y-95393858D01*
X205158130Y-95393858D02*
X205110511Y-95489096D01*
X205110511Y-95489096D02*
X205062892Y-95536716D01*
X205062892Y-95536716D02*
X204967654Y-95584335D01*
X204967654Y-95584335D02*
X204824797Y-95584335D01*
X205729559Y-95584335D02*
X205634321Y-95536716D01*
X205634321Y-95536716D02*
X205586702Y-95441477D01*
X205586702Y-95441477D02*
X205586702Y-94584335D01*
X206253369Y-95584335D02*
X206158131Y-95536716D01*
X206158131Y-95536716D02*
X206110512Y-95441477D01*
X206110512Y-95441477D02*
X206110512Y-94584335D01*
X207015274Y-95536716D02*
X206920036Y-95584335D01*
X206920036Y-95584335D02*
X206729560Y-95584335D01*
X206729560Y-95584335D02*
X206634322Y-95536716D01*
X206634322Y-95536716D02*
X206586703Y-95441477D01*
X206586703Y-95441477D02*
X206586703Y-95060525D01*
X206586703Y-95060525D02*
X206634322Y-94965287D01*
X206634322Y-94965287D02*
X206729560Y-94917668D01*
X206729560Y-94917668D02*
X206920036Y-94917668D01*
X206920036Y-94917668D02*
X207015274Y-94965287D01*
X207015274Y-94965287D02*
X207062893Y-95060525D01*
X207062893Y-95060525D02*
X207062893Y-95155763D01*
X207062893Y-95155763D02*
X206586703Y-95251001D01*
X207491465Y-95584335D02*
X207491465Y-94917668D01*
X207491465Y-95108144D02*
X207539084Y-95012906D01*
X207539084Y-95012906D02*
X207586703Y-94965287D01*
X207586703Y-94965287D02*
X207681941Y-94917668D01*
X207681941Y-94917668D02*
X207777179Y-94917668D01*
X171064093Y-91585598D02*
X171111712Y-91490360D01*
X171111712Y-91490360D02*
X171111712Y-91347503D01*
X171111712Y-91347503D02*
X171064093Y-91204646D01*
X171064093Y-91204646D02*
X170968855Y-91109408D01*
X170968855Y-91109408D02*
X170873617Y-91061789D01*
X170873617Y-91061789D02*
X170683141Y-91014170D01*
X170683141Y-91014170D02*
X170540284Y-91014170D01*
X170540284Y-91014170D02*
X170349808Y-91061789D01*
X170349808Y-91061789D02*
X170254570Y-91109408D01*
X170254570Y-91109408D02*
X170159332Y-91204646D01*
X170159332Y-91204646D02*
X170111712Y-91347503D01*
X170111712Y-91347503D02*
X170111712Y-91442741D01*
X170111712Y-91442741D02*
X170159332Y-91585598D01*
X170159332Y-91585598D02*
X170206951Y-91633217D01*
X170206951Y-91633217D02*
X170540284Y-91633217D01*
X170540284Y-91633217D02*
X170540284Y-91442741D01*
X170111712Y-92061789D02*
X171111712Y-92061789D01*
X171111712Y-92061789D02*
X170111712Y-92633217D01*
X170111712Y-92633217D02*
X171111712Y-92633217D01*
X170111712Y-93109408D02*
X171111712Y-93109408D01*
X171111712Y-93109408D02*
X171111712Y-93347503D01*
X171111712Y-93347503D02*
X171064093Y-93490360D01*
X171064093Y-93490360D02*
X170968855Y-93585598D01*
X170968855Y-93585598D02*
X170873617Y-93633217D01*
X170873617Y-93633217D02*
X170683141Y-93680836D01*
X170683141Y-93680836D02*
X170540284Y-93680836D01*
X170540284Y-93680836D02*
X170349808Y-93633217D01*
X170349808Y-93633217D02*
X170254570Y-93585598D01*
X170254570Y-93585598D02*
X170159332Y-93490360D01*
X170159332Y-93490360D02*
X170111712Y-93347503D01*
X170111712Y-93347503D02*
X170111712Y-93109408D01*
X170635522Y-86095122D02*
X170587903Y-86237979D01*
X170587903Y-86237979D02*
X170540284Y-86285598D01*
X170540284Y-86285598D02*
X170445046Y-86333217D01*
X170445046Y-86333217D02*
X170302189Y-86333217D01*
X170302189Y-86333217D02*
X170206951Y-86285598D01*
X170206951Y-86285598D02*
X170159332Y-86237979D01*
X170159332Y-86237979D02*
X170111712Y-86142741D01*
X170111712Y-86142741D02*
X170111712Y-85761789D01*
X170111712Y-85761789D02*
X171111712Y-85761789D01*
X171111712Y-85761789D02*
X171111712Y-86095122D01*
X171111712Y-86095122D02*
X171064093Y-86190360D01*
X171064093Y-86190360D02*
X171016474Y-86237979D01*
X171016474Y-86237979D02*
X170921236Y-86285598D01*
X170921236Y-86285598D02*
X170825998Y-86285598D01*
X170825998Y-86285598D02*
X170730760Y-86237979D01*
X170730760Y-86237979D02*
X170683141Y-86190360D01*
X170683141Y-86190360D02*
X170635522Y-86095122D01*
X170635522Y-86095122D02*
X170635522Y-85761789D01*
X170397427Y-83314170D02*
X170397427Y-83790360D01*
X170111712Y-83218932D02*
X171111712Y-83552265D01*
X171111712Y-83552265D02*
X170111712Y-83885598D01*
X170111712Y-94309408D02*
X170111712Y-94499884D01*
X170111712Y-94499884D02*
X170159332Y-94595122D01*
X170159332Y-94595122D02*
X170206951Y-94642741D01*
X170206951Y-94642741D02*
X170349808Y-94737979D01*
X170349808Y-94737979D02*
X170540284Y-94785598D01*
X170540284Y-94785598D02*
X170921236Y-94785598D01*
X170921236Y-94785598D02*
X171016474Y-94737979D01*
X171016474Y-94737979D02*
X171064093Y-94690360D01*
X171064093Y-94690360D02*
X171111712Y-94595122D01*
X171111712Y-94595122D02*
X171111712Y-94404646D01*
X171111712Y-94404646D02*
X171064093Y-94309408D01*
X171064093Y-94309408D02*
X171016474Y-94261789D01*
X171016474Y-94261789D02*
X170921236Y-94214170D01*
X170921236Y-94214170D02*
X170683141Y-94214170D01*
X170683141Y-94214170D02*
X170587903Y-94261789D01*
X170587903Y-94261789D02*
X170540284Y-94309408D01*
X170540284Y-94309408D02*
X170492665Y-94404646D01*
X170492665Y-94404646D02*
X170492665Y-94595122D01*
X170492665Y-94595122D02*
X170540284Y-94690360D01*
X170540284Y-94690360D02*
X170587903Y-94737979D01*
X170587903Y-94737979D02*
X170683141Y-94785598D01*
X171111712Y-95071313D02*
X170111712Y-95404646D01*
X170111712Y-95404646D02*
X171111712Y-95737979D01*
X171064093Y-87785598D02*
X171111712Y-87690360D01*
X171111712Y-87690360D02*
X171111712Y-87547503D01*
X171111712Y-87547503D02*
X171064093Y-87404646D01*
X171064093Y-87404646D02*
X170968855Y-87309408D01*
X170968855Y-87309408D02*
X170873617Y-87261789D01*
X170873617Y-87261789D02*
X170683141Y-87214170D01*
X170683141Y-87214170D02*
X170540284Y-87214170D01*
X170540284Y-87214170D02*
X170349808Y-87261789D01*
X170349808Y-87261789D02*
X170254570Y-87309408D01*
X170254570Y-87309408D02*
X170159332Y-87404646D01*
X170159332Y-87404646D02*
X170111712Y-87547503D01*
X170111712Y-87547503D02*
X170111712Y-87642741D01*
X170111712Y-87642741D02*
X170159332Y-87785598D01*
X170159332Y-87785598D02*
X170206951Y-87833217D01*
X170206951Y-87833217D02*
X170540284Y-87833217D01*
X170540284Y-87833217D02*
X170540284Y-87642741D01*
X170111712Y-88261789D02*
X171111712Y-88261789D01*
X171111712Y-88261789D02*
X170111712Y-88833217D01*
X170111712Y-88833217D02*
X171111712Y-88833217D01*
X170111712Y-89309408D02*
X171111712Y-89309408D01*
X171111712Y-89309408D02*
X171111712Y-89547503D01*
X171111712Y-89547503D02*
X171064093Y-89690360D01*
X171064093Y-89690360D02*
X170968855Y-89785598D01*
X170968855Y-89785598D02*
X170873617Y-89833217D01*
X170873617Y-89833217D02*
X170683141Y-89880836D01*
X170683141Y-89880836D02*
X170540284Y-89880836D01*
X170540284Y-89880836D02*
X170349808Y-89833217D01*
X170349808Y-89833217D02*
X170254570Y-89785598D01*
X170254570Y-89785598D02*
X170159332Y-89690360D01*
X170159332Y-89690360D02*
X170111712Y-89547503D01*
X170111712Y-89547503D02*
X170111712Y-89309408D01*
X170111712Y-80309408D02*
X170111712Y-80499884D01*
X170111712Y-80499884D02*
X170159332Y-80595122D01*
X170159332Y-80595122D02*
X170206951Y-80642741D01*
X170206951Y-80642741D02*
X170349808Y-80737979D01*
X170349808Y-80737979D02*
X170540284Y-80785598D01*
X170540284Y-80785598D02*
X170921236Y-80785598D01*
X170921236Y-80785598D02*
X171016474Y-80737979D01*
X171016474Y-80737979D02*
X171064093Y-80690360D01*
X171064093Y-80690360D02*
X171111712Y-80595122D01*
X171111712Y-80595122D02*
X171111712Y-80404646D01*
X171111712Y-80404646D02*
X171064093Y-80309408D01*
X171064093Y-80309408D02*
X171016474Y-80261789D01*
X171016474Y-80261789D02*
X170921236Y-80214170D01*
X170921236Y-80214170D02*
X170683141Y-80214170D01*
X170683141Y-80214170D02*
X170587903Y-80261789D01*
X170587903Y-80261789D02*
X170540284Y-80309408D01*
X170540284Y-80309408D02*
X170492665Y-80404646D01*
X170492665Y-80404646D02*
X170492665Y-80595122D01*
X170492665Y-80595122D02*
X170540284Y-80690360D01*
X170540284Y-80690360D02*
X170587903Y-80737979D01*
X170587903Y-80737979D02*
X170683141Y-80785598D01*
X171111712Y-81071313D02*
X170111712Y-81404646D01*
X170111712Y-81404646D02*
X171111712Y-81737979D01*
X209332770Y-66556509D02*
X209332770Y-67175556D01*
X209332770Y-67175556D02*
X208951818Y-66842223D01*
X208951818Y-66842223D02*
X208951818Y-66985080D01*
X208951818Y-66985080D02*
X208904199Y-67080318D01*
X208904199Y-67080318D02*
X208856580Y-67127937D01*
X208856580Y-67127937D02*
X208761342Y-67175556D01*
X208761342Y-67175556D02*
X208523247Y-67175556D01*
X208523247Y-67175556D02*
X208428009Y-67127937D01*
X208428009Y-67127937D02*
X208380390Y-67080318D01*
X208380390Y-67080318D02*
X208332770Y-66985080D01*
X208332770Y-66985080D02*
X208332770Y-66699366D01*
X208332770Y-66699366D02*
X208380390Y-66604128D01*
X208380390Y-66604128D02*
X208428009Y-66556509D01*
X182932770Y-36699365D02*
X182932770Y-36127937D01*
X182932770Y-36413651D02*
X183932770Y-36413651D01*
X183932770Y-36413651D02*
X183789913Y-36318413D01*
X183789913Y-36318413D02*
X183694675Y-36223175D01*
X183694675Y-36223175D02*
X183647056Y-36127937D01*
X183932770Y-37032699D02*
X183932770Y-37651746D01*
X183932770Y-37651746D02*
X183551818Y-37318413D01*
X183551818Y-37318413D02*
X183551818Y-37461270D01*
X183551818Y-37461270D02*
X183504199Y-37556508D01*
X183504199Y-37556508D02*
X183456580Y-37604127D01*
X183456580Y-37604127D02*
X183361342Y-37651746D01*
X183361342Y-37651746D02*
X183123247Y-37651746D01*
X183123247Y-37651746D02*
X183028009Y-37604127D01*
X183028009Y-37604127D02*
X182980390Y-37556508D01*
X182980390Y-37556508D02*
X182932770Y-37461270D01*
X182932770Y-37461270D02*
X182932770Y-37175556D01*
X182932770Y-37175556D02*
X182980390Y-37080318D01*
X182980390Y-37080318D02*
X183028009Y-37032699D01*
X180432770Y-67099365D02*
X180432770Y-66527937D01*
X180432770Y-66813651D02*
X181432770Y-66813651D01*
X181432770Y-66813651D02*
X181289913Y-66718413D01*
X181289913Y-66718413D02*
X181194675Y-66623175D01*
X181194675Y-66623175D02*
X181147056Y-66527937D01*
X181432770Y-68004127D02*
X181432770Y-67527937D01*
X181432770Y-67527937D02*
X180956580Y-67480318D01*
X180956580Y-67480318D02*
X181004199Y-67527937D01*
X181004199Y-67527937D02*
X181051818Y-67623175D01*
X181051818Y-67623175D02*
X181051818Y-67861270D01*
X181051818Y-67861270D02*
X181004199Y-67956508D01*
X181004199Y-67956508D02*
X180956580Y-68004127D01*
X180956580Y-68004127D02*
X180861342Y-68051746D01*
X180861342Y-68051746D02*
X180623247Y-68051746D01*
X180623247Y-68051746D02*
X180528009Y-68004127D01*
X180528009Y-68004127D02*
X180480390Y-67956508D01*
X180480390Y-67956508D02*
X180432770Y-67861270D01*
X180432770Y-67861270D02*
X180432770Y-67623175D01*
X180432770Y-67623175D02*
X180480390Y-67527937D01*
X180480390Y-67527937D02*
X180528009Y-67480318D01*
X209232770Y-36080318D02*
X209232770Y-36699365D01*
X209232770Y-36699365D02*
X208851818Y-36366032D01*
X208851818Y-36366032D02*
X208851818Y-36508889D01*
X208851818Y-36508889D02*
X208804199Y-36604127D01*
X208804199Y-36604127D02*
X208756580Y-36651746D01*
X208756580Y-36651746D02*
X208661342Y-36699365D01*
X208661342Y-36699365D02*
X208423247Y-36699365D01*
X208423247Y-36699365D02*
X208328009Y-36651746D01*
X208328009Y-36651746D02*
X208280390Y-36604127D01*
X208280390Y-36604127D02*
X208232770Y-36508889D01*
X208232770Y-36508889D02*
X208232770Y-36223175D01*
X208232770Y-36223175D02*
X208280390Y-36127937D01*
X208280390Y-36127937D02*
X208328009Y-36080318D01*
X208899437Y-37556508D02*
X208232770Y-37556508D01*
X209280390Y-37318413D02*
X208566104Y-37080318D01*
X208566104Y-37080318D02*
X208566104Y-37699365D01*
X219432770Y-35270794D02*
X219432770Y-35889841D01*
X219432770Y-35889841D02*
X219051818Y-35556508D01*
X219051818Y-35556508D02*
X219051818Y-35699365D01*
X219051818Y-35699365D02*
X219004199Y-35794603D01*
X219004199Y-35794603D02*
X218956580Y-35842222D01*
X218956580Y-35842222D02*
X218861342Y-35889841D01*
X218861342Y-35889841D02*
X218623247Y-35889841D01*
X218623247Y-35889841D02*
X218528009Y-35842222D01*
X218528009Y-35842222D02*
X218480390Y-35794603D01*
X218480390Y-35794603D02*
X218432770Y-35699365D01*
X218432770Y-35699365D02*
X218432770Y-35413651D01*
X218432770Y-35413651D02*
X218480390Y-35318413D01*
X218480390Y-35318413D02*
X218528009Y-35270794D01*
X219432770Y-36175556D02*
X218432770Y-36508889D01*
X218432770Y-36508889D02*
X219432770Y-36842222D01*
X219432770Y-37080318D02*
X219432770Y-37699365D01*
X219432770Y-37699365D02*
X219051818Y-37366032D01*
X219051818Y-37366032D02*
X219051818Y-37508889D01*
X219051818Y-37508889D02*
X219004199Y-37604127D01*
X219004199Y-37604127D02*
X218956580Y-37651746D01*
X218956580Y-37651746D02*
X218861342Y-37699365D01*
X218861342Y-37699365D02*
X218623247Y-37699365D01*
X218623247Y-37699365D02*
X218528009Y-37651746D01*
X218528009Y-37651746D02*
X218480390Y-37604127D01*
X218480390Y-37604127D02*
X218432770Y-37508889D01*
X218432770Y-37508889D02*
X218432770Y-37223175D01*
X218432770Y-37223175D02*
X218480390Y-37127937D01*
X218480390Y-37127937D02*
X218528009Y-37080318D01*
X173732770Y-36699365D02*
X173732770Y-36223175D01*
X173732770Y-36223175D02*
X173256580Y-36175556D01*
X173256580Y-36175556D02*
X173304199Y-36223175D01*
X173304199Y-36223175D02*
X173351818Y-36318413D01*
X173351818Y-36318413D02*
X173351818Y-36556508D01*
X173351818Y-36556508D02*
X173304199Y-36651746D01*
X173304199Y-36651746D02*
X173256580Y-36699365D01*
X173256580Y-36699365D02*
X173161342Y-36746984D01*
X173161342Y-36746984D02*
X172923247Y-36746984D01*
X172923247Y-36746984D02*
X172828009Y-36699365D01*
X172828009Y-36699365D02*
X172780390Y-36651746D01*
X172780390Y-36651746D02*
X172732770Y-36556508D01*
X172732770Y-36556508D02*
X172732770Y-36318413D01*
X172732770Y-36318413D02*
X172780390Y-36223175D01*
X172780390Y-36223175D02*
X172828009Y-36175556D01*
X173732770Y-37032699D02*
X172732770Y-37366032D01*
X172732770Y-37366032D02*
X173732770Y-37699365D01*
X199037532Y-36127937D02*
X199085151Y-36175556D01*
X199085151Y-36175556D02*
X199132770Y-36270794D01*
X199132770Y-36270794D02*
X199132770Y-36508889D01*
X199132770Y-36508889D02*
X199085151Y-36604127D01*
X199085151Y-36604127D02*
X199037532Y-36651746D01*
X199037532Y-36651746D02*
X198942294Y-36699365D01*
X198942294Y-36699365D02*
X198847056Y-36699365D01*
X198847056Y-36699365D02*
X198704199Y-36651746D01*
X198704199Y-36651746D02*
X198132770Y-36080318D01*
X198132770Y-36080318D02*
X198132770Y-36699365D01*
X199132770Y-37604127D02*
X199132770Y-37127937D01*
X199132770Y-37127937D02*
X198656580Y-37080318D01*
X198656580Y-37080318D02*
X198704199Y-37127937D01*
X198704199Y-37127937D02*
X198751818Y-37223175D01*
X198751818Y-37223175D02*
X198751818Y-37461270D01*
X198751818Y-37461270D02*
X198704199Y-37556508D01*
X198704199Y-37556508D02*
X198656580Y-37604127D01*
X198656580Y-37604127D02*
X198561342Y-37651746D01*
X198561342Y-37651746D02*
X198323247Y-37651746D01*
X198323247Y-37651746D02*
X198228009Y-37604127D01*
X198228009Y-37604127D02*
X198180390Y-37556508D01*
X198180390Y-37556508D02*
X198132770Y-37461270D01*
X198132770Y-37461270D02*
X198132770Y-37223175D01*
X198132770Y-37223175D02*
X198180390Y-37127937D01*
X198180390Y-37127937D02*
X198228009Y-37080318D01*
X178404199Y-66694604D02*
X178451818Y-66599366D01*
X178451818Y-66599366D02*
X178499437Y-66551747D01*
X178499437Y-66551747D02*
X178594675Y-66504128D01*
X178594675Y-66504128D02*
X178642294Y-66504128D01*
X178642294Y-66504128D02*
X178737532Y-66551747D01*
X178737532Y-66551747D02*
X178785151Y-66599366D01*
X178785151Y-66599366D02*
X178832770Y-66694604D01*
X178832770Y-66694604D02*
X178832770Y-66885080D01*
X178832770Y-66885080D02*
X178785151Y-66980318D01*
X178785151Y-66980318D02*
X178737532Y-67027937D01*
X178737532Y-67027937D02*
X178642294Y-67075556D01*
X178642294Y-67075556D02*
X178594675Y-67075556D01*
X178594675Y-67075556D02*
X178499437Y-67027937D01*
X178499437Y-67027937D02*
X178451818Y-66980318D01*
X178451818Y-66980318D02*
X178404199Y-66885080D01*
X178404199Y-66885080D02*
X178404199Y-66694604D01*
X178404199Y-66694604D02*
X178356580Y-66599366D01*
X178356580Y-66599366D02*
X178308961Y-66551747D01*
X178308961Y-66551747D02*
X178213723Y-66504128D01*
X178213723Y-66504128D02*
X178023247Y-66504128D01*
X178023247Y-66504128D02*
X177928009Y-66551747D01*
X177928009Y-66551747D02*
X177880390Y-66599366D01*
X177880390Y-66599366D02*
X177832770Y-66694604D01*
X177832770Y-66694604D02*
X177832770Y-66885080D01*
X177832770Y-66885080D02*
X177880390Y-66980318D01*
X177880390Y-66980318D02*
X177928009Y-67027937D01*
X177928009Y-67027937D02*
X178023247Y-67075556D01*
X178023247Y-67075556D02*
X178213723Y-67075556D01*
X178213723Y-67075556D02*
X178308961Y-67027937D01*
X178308961Y-67027937D02*
X178356580Y-66980318D01*
X178356580Y-66980318D02*
X178404199Y-66885080D01*
X214432770Y-36080318D02*
X214432770Y-36699365D01*
X214432770Y-36699365D02*
X214051818Y-36366032D01*
X214051818Y-36366032D02*
X214051818Y-36508889D01*
X214051818Y-36508889D02*
X214004199Y-36604127D01*
X214004199Y-36604127D02*
X213956580Y-36651746D01*
X213956580Y-36651746D02*
X213861342Y-36699365D01*
X213861342Y-36699365D02*
X213623247Y-36699365D01*
X213623247Y-36699365D02*
X213528009Y-36651746D01*
X213528009Y-36651746D02*
X213480390Y-36604127D01*
X213480390Y-36604127D02*
X213432770Y-36508889D01*
X213432770Y-36508889D02*
X213432770Y-36223175D01*
X213432770Y-36223175D02*
X213480390Y-36127937D01*
X213480390Y-36127937D02*
X213528009Y-36080318D01*
X214432770Y-37556508D02*
X214432770Y-37366032D01*
X214432770Y-37366032D02*
X214385151Y-37270794D01*
X214385151Y-37270794D02*
X214337532Y-37223175D01*
X214337532Y-37223175D02*
X214194675Y-37127937D01*
X214194675Y-37127937D02*
X214004199Y-37080318D01*
X214004199Y-37080318D02*
X213623247Y-37080318D01*
X213623247Y-37080318D02*
X213528009Y-37127937D01*
X213528009Y-37127937D02*
X213480390Y-37175556D01*
X213480390Y-37175556D02*
X213432770Y-37270794D01*
X213432770Y-37270794D02*
X213432770Y-37461270D01*
X213432770Y-37461270D02*
X213480390Y-37556508D01*
X213480390Y-37556508D02*
X213528009Y-37604127D01*
X213528009Y-37604127D02*
X213623247Y-37651746D01*
X213623247Y-37651746D02*
X213861342Y-37651746D01*
X213861342Y-37651746D02*
X213956580Y-37604127D01*
X213956580Y-37604127D02*
X214004199Y-37556508D01*
X214004199Y-37556508D02*
X214051818Y-37461270D01*
X214051818Y-37461270D02*
X214051818Y-37270794D01*
X214051818Y-37270794D02*
X214004199Y-37175556D01*
X214004199Y-37175556D02*
X213956580Y-37127937D01*
X213956580Y-37127937D02*
X213861342Y-37080318D01*
X204285151Y-67027937D02*
X204332770Y-66932699D01*
X204332770Y-66932699D02*
X204332770Y-66789842D01*
X204332770Y-66789842D02*
X204285151Y-66646985D01*
X204285151Y-66646985D02*
X204189913Y-66551747D01*
X204189913Y-66551747D02*
X204094675Y-66504128D01*
X204094675Y-66504128D02*
X203904199Y-66456509D01*
X203904199Y-66456509D02*
X203761342Y-66456509D01*
X203761342Y-66456509D02*
X203570866Y-66504128D01*
X203570866Y-66504128D02*
X203475628Y-66551747D01*
X203475628Y-66551747D02*
X203380390Y-66646985D01*
X203380390Y-66646985D02*
X203332770Y-66789842D01*
X203332770Y-66789842D02*
X203332770Y-66885080D01*
X203332770Y-66885080D02*
X203380390Y-67027937D01*
X203380390Y-67027937D02*
X203428009Y-67075556D01*
X203428009Y-67075556D02*
X203761342Y-67075556D01*
X203761342Y-67075556D02*
X203761342Y-66885080D01*
X203332770Y-67504128D02*
X204332770Y-67504128D01*
X204332770Y-67504128D02*
X203332770Y-68075556D01*
X203332770Y-68075556D02*
X204332770Y-68075556D01*
X203332770Y-68551747D02*
X204332770Y-68551747D01*
X204332770Y-68551747D02*
X204332770Y-68789842D01*
X204332770Y-68789842D02*
X204285151Y-68932699D01*
X204285151Y-68932699D02*
X204189913Y-69027937D01*
X204189913Y-69027937D02*
X204094675Y-69075556D01*
X204094675Y-69075556D02*
X203904199Y-69123175D01*
X203904199Y-69123175D02*
X203761342Y-69123175D01*
X203761342Y-69123175D02*
X203570866Y-69075556D01*
X203570866Y-69075556D02*
X203475628Y-69027937D01*
X203475628Y-69027937D02*
X203380390Y-68932699D01*
X203380390Y-68932699D02*
X203332770Y-68789842D01*
X203332770Y-68789842D02*
X203332770Y-68551747D01*
X214437532Y-66627937D02*
X214485151Y-66675556D01*
X214485151Y-66675556D02*
X214532770Y-66770794D01*
X214532770Y-66770794D02*
X214532770Y-67008889D01*
X214532770Y-67008889D02*
X214485151Y-67104127D01*
X214485151Y-67104127D02*
X214437532Y-67151746D01*
X214437532Y-67151746D02*
X214342294Y-67199365D01*
X214342294Y-67199365D02*
X214247056Y-67199365D01*
X214247056Y-67199365D02*
X214104199Y-67151746D01*
X214104199Y-67151746D02*
X213532770Y-66580318D01*
X213532770Y-66580318D02*
X213532770Y-67199365D01*
X214437532Y-67580318D02*
X214485151Y-67627937D01*
X214485151Y-67627937D02*
X214532770Y-67723175D01*
X214532770Y-67723175D02*
X214532770Y-67961270D01*
X214532770Y-67961270D02*
X214485151Y-68056508D01*
X214485151Y-68056508D02*
X214437532Y-68104127D01*
X214437532Y-68104127D02*
X214342294Y-68151746D01*
X214342294Y-68151746D02*
X214247056Y-68151746D01*
X214247056Y-68151746D02*
X214104199Y-68104127D01*
X214104199Y-68104127D02*
X213532770Y-67532699D01*
X213532770Y-67532699D02*
X213532770Y-68151746D01*
X177732770Y-36699365D02*
X177732770Y-36127937D01*
X177732770Y-36413651D02*
X178732770Y-36413651D01*
X178732770Y-36413651D02*
X178589913Y-36318413D01*
X178589913Y-36318413D02*
X178494675Y-36223175D01*
X178494675Y-36223175D02*
X178447056Y-36127937D01*
X178732770Y-37318413D02*
X178732770Y-37413651D01*
X178732770Y-37413651D02*
X178685151Y-37508889D01*
X178685151Y-37508889D02*
X178637532Y-37556508D01*
X178637532Y-37556508D02*
X178542294Y-37604127D01*
X178542294Y-37604127D02*
X178351818Y-37651746D01*
X178351818Y-37651746D02*
X178113723Y-37651746D01*
X178113723Y-37651746D02*
X177923247Y-37604127D01*
X177923247Y-37604127D02*
X177828009Y-37556508D01*
X177828009Y-37556508D02*
X177780390Y-37508889D01*
X177780390Y-37508889D02*
X177732770Y-37413651D01*
X177732770Y-37413651D02*
X177732770Y-37318413D01*
X177732770Y-37318413D02*
X177780390Y-37223175D01*
X177780390Y-37223175D02*
X177828009Y-37175556D01*
X177828009Y-37175556D02*
X177923247Y-37127937D01*
X177923247Y-37127937D02*
X178113723Y-37080318D01*
X178113723Y-37080318D02*
X178351818Y-37080318D01*
X178351818Y-37080318D02*
X178542294Y-37127937D01*
X178542294Y-37127937D02*
X178637532Y-37175556D01*
X178637532Y-37175556D02*
X178685151Y-37223175D01*
X178685151Y-37223175D02*
X178732770Y-37318413D01*
X216356580Y-36151747D02*
X216356580Y-36485080D01*
X215832770Y-36627937D02*
X215832770Y-36151747D01*
X215832770Y-36151747D02*
X216832770Y-36151747D01*
X216832770Y-36151747D02*
X216832770Y-36627937D01*
X215832770Y-37056509D02*
X216832770Y-37056509D01*
X216832770Y-37056509D02*
X215832770Y-37627937D01*
X215832770Y-37627937D02*
X216832770Y-37627937D01*
X219485151Y-67127937D02*
X219532770Y-67032699D01*
X219532770Y-67032699D02*
X219532770Y-66889842D01*
X219532770Y-66889842D02*
X219485151Y-66746985D01*
X219485151Y-66746985D02*
X219389913Y-66651747D01*
X219389913Y-66651747D02*
X219294675Y-66604128D01*
X219294675Y-66604128D02*
X219104199Y-66556509D01*
X219104199Y-66556509D02*
X218961342Y-66556509D01*
X218961342Y-66556509D02*
X218770866Y-66604128D01*
X218770866Y-66604128D02*
X218675628Y-66651747D01*
X218675628Y-66651747D02*
X218580390Y-66746985D01*
X218580390Y-66746985D02*
X218532770Y-66889842D01*
X218532770Y-66889842D02*
X218532770Y-66985080D01*
X218532770Y-66985080D02*
X218580390Y-67127937D01*
X218580390Y-67127937D02*
X218628009Y-67175556D01*
X218628009Y-67175556D02*
X218961342Y-67175556D01*
X218961342Y-67175556D02*
X218961342Y-66985080D01*
X218532770Y-67604128D02*
X219532770Y-67604128D01*
X219532770Y-67604128D02*
X218532770Y-68175556D01*
X218532770Y-68175556D02*
X219532770Y-68175556D01*
X218532770Y-68651747D02*
X219532770Y-68651747D01*
X219532770Y-68651747D02*
X219532770Y-68889842D01*
X219532770Y-68889842D02*
X219485151Y-69032699D01*
X219485151Y-69032699D02*
X219389913Y-69127937D01*
X219389913Y-69127937D02*
X219294675Y-69175556D01*
X219294675Y-69175556D02*
X219104199Y-69223175D01*
X219104199Y-69223175D02*
X218961342Y-69223175D01*
X218961342Y-69223175D02*
X218770866Y-69175556D01*
X218770866Y-69175556D02*
X218675628Y-69127937D01*
X218675628Y-69127937D02*
X218580390Y-69032699D01*
X218580390Y-69032699D02*
X218532770Y-68889842D01*
X218532770Y-68889842D02*
X218532770Y-68651747D01*
X186432770Y-66742223D02*
X186432770Y-66837461D01*
X186432770Y-66837461D02*
X186385151Y-66932699D01*
X186385151Y-66932699D02*
X186337532Y-66980318D01*
X186337532Y-66980318D02*
X186242294Y-67027937D01*
X186242294Y-67027937D02*
X186051818Y-67075556D01*
X186051818Y-67075556D02*
X185813723Y-67075556D01*
X185813723Y-67075556D02*
X185623247Y-67027937D01*
X185623247Y-67027937D02*
X185528009Y-66980318D01*
X185528009Y-66980318D02*
X185480390Y-66932699D01*
X185480390Y-66932699D02*
X185432770Y-66837461D01*
X185432770Y-66837461D02*
X185432770Y-66742223D01*
X185432770Y-66742223D02*
X185480390Y-66646985D01*
X185480390Y-66646985D02*
X185528009Y-66599366D01*
X185528009Y-66599366D02*
X185623247Y-66551747D01*
X185623247Y-66551747D02*
X185813723Y-66504128D01*
X185813723Y-66504128D02*
X186051818Y-66504128D01*
X186051818Y-66504128D02*
X186242294Y-66551747D01*
X186242294Y-66551747D02*
X186337532Y-66599366D01*
X186337532Y-66599366D02*
X186385151Y-66646985D01*
X186385151Y-66646985D02*
X186432770Y-66742223D01*
X204232770Y-36080318D02*
X204232770Y-36699365D01*
X204232770Y-36699365D02*
X203851818Y-36366032D01*
X203851818Y-36366032D02*
X203851818Y-36508889D01*
X203851818Y-36508889D02*
X203804199Y-36604127D01*
X203804199Y-36604127D02*
X203756580Y-36651746D01*
X203756580Y-36651746D02*
X203661342Y-36699365D01*
X203661342Y-36699365D02*
X203423247Y-36699365D01*
X203423247Y-36699365D02*
X203328009Y-36651746D01*
X203328009Y-36651746D02*
X203280390Y-36604127D01*
X203280390Y-36604127D02*
X203232770Y-36508889D01*
X203232770Y-36508889D02*
X203232770Y-36223175D01*
X203232770Y-36223175D02*
X203280390Y-36127937D01*
X203280390Y-36127937D02*
X203328009Y-36080318D01*
X204137532Y-37080318D02*
X204185151Y-37127937D01*
X204185151Y-37127937D02*
X204232770Y-37223175D01*
X204232770Y-37223175D02*
X204232770Y-37461270D01*
X204232770Y-37461270D02*
X204185151Y-37556508D01*
X204185151Y-37556508D02*
X204137532Y-37604127D01*
X204137532Y-37604127D02*
X204042294Y-37651746D01*
X204042294Y-37651746D02*
X203947056Y-37651746D01*
X203947056Y-37651746D02*
X203804199Y-37604127D01*
X203804199Y-37604127D02*
X203232770Y-37032699D01*
X203232770Y-37032699D02*
X203232770Y-37651746D01*
X186285151Y-35627937D02*
X186332770Y-35532699D01*
X186332770Y-35532699D02*
X186332770Y-35389842D01*
X186332770Y-35389842D02*
X186285151Y-35246985D01*
X186285151Y-35246985D02*
X186189913Y-35151747D01*
X186189913Y-35151747D02*
X186094675Y-35104128D01*
X186094675Y-35104128D02*
X185904199Y-35056509D01*
X185904199Y-35056509D02*
X185761342Y-35056509D01*
X185761342Y-35056509D02*
X185570866Y-35104128D01*
X185570866Y-35104128D02*
X185475628Y-35151747D01*
X185475628Y-35151747D02*
X185380390Y-35246985D01*
X185380390Y-35246985D02*
X185332770Y-35389842D01*
X185332770Y-35389842D02*
X185332770Y-35485080D01*
X185332770Y-35485080D02*
X185380390Y-35627937D01*
X185380390Y-35627937D02*
X185428009Y-35675556D01*
X185428009Y-35675556D02*
X185761342Y-35675556D01*
X185761342Y-35675556D02*
X185761342Y-35485080D01*
X185332770Y-36104128D02*
X186332770Y-36104128D01*
X186332770Y-36104128D02*
X185332770Y-36675556D01*
X185332770Y-36675556D02*
X186332770Y-36675556D01*
X185332770Y-37151747D02*
X186332770Y-37151747D01*
X186332770Y-37151747D02*
X186332770Y-37389842D01*
X186332770Y-37389842D02*
X186285151Y-37532699D01*
X186285151Y-37532699D02*
X186189913Y-37627937D01*
X186189913Y-37627937D02*
X186094675Y-37675556D01*
X186094675Y-37675556D02*
X185904199Y-37723175D01*
X185904199Y-37723175D02*
X185761342Y-37723175D01*
X185761342Y-37723175D02*
X185570866Y-37675556D01*
X185570866Y-37675556D02*
X185475628Y-37627937D01*
X185475628Y-37627937D02*
X185380390Y-37532699D01*
X185380390Y-37532699D02*
X185332770Y-37389842D01*
X185332770Y-37389842D02*
X185332770Y-37151747D01*
X201632770Y-36080318D02*
X201632770Y-36699365D01*
X201632770Y-36699365D02*
X201251818Y-36366032D01*
X201251818Y-36366032D02*
X201251818Y-36508889D01*
X201251818Y-36508889D02*
X201204199Y-36604127D01*
X201204199Y-36604127D02*
X201156580Y-36651746D01*
X201156580Y-36651746D02*
X201061342Y-36699365D01*
X201061342Y-36699365D02*
X200823247Y-36699365D01*
X200823247Y-36699365D02*
X200728009Y-36651746D01*
X200728009Y-36651746D02*
X200680390Y-36604127D01*
X200680390Y-36604127D02*
X200632770Y-36508889D01*
X200632770Y-36508889D02*
X200632770Y-36223175D01*
X200632770Y-36223175D02*
X200680390Y-36127937D01*
X200680390Y-36127937D02*
X200728009Y-36080318D01*
X201632770Y-37032699D02*
X201632770Y-37651746D01*
X201632770Y-37651746D02*
X201251818Y-37318413D01*
X201251818Y-37318413D02*
X201251818Y-37461270D01*
X201251818Y-37461270D02*
X201204199Y-37556508D01*
X201204199Y-37556508D02*
X201156580Y-37604127D01*
X201156580Y-37604127D02*
X201061342Y-37651746D01*
X201061342Y-37651746D02*
X200823247Y-37651746D01*
X200823247Y-37651746D02*
X200728009Y-37604127D01*
X200728009Y-37604127D02*
X200680390Y-37556508D01*
X200680390Y-37556508D02*
X200632770Y-37461270D01*
X200632770Y-37461270D02*
X200632770Y-37175556D01*
X200632770Y-37175556D02*
X200680390Y-37080318D01*
X200680390Y-37080318D02*
X200728009Y-37032699D01*
X190632770Y-67099365D02*
X190632770Y-66527937D01*
X190632770Y-66813651D02*
X191632770Y-66813651D01*
X191632770Y-66813651D02*
X191489913Y-66718413D01*
X191489913Y-66718413D02*
X191394675Y-66623175D01*
X191394675Y-66623175D02*
X191347056Y-66527937D01*
X191632770Y-67956508D02*
X191632770Y-67766032D01*
X191632770Y-67766032D02*
X191585151Y-67670794D01*
X191585151Y-67670794D02*
X191537532Y-67623175D01*
X191537532Y-67623175D02*
X191394675Y-67527937D01*
X191394675Y-67527937D02*
X191204199Y-67480318D01*
X191204199Y-67480318D02*
X190823247Y-67480318D01*
X190823247Y-67480318D02*
X190728009Y-67527937D01*
X190728009Y-67527937D02*
X190680390Y-67575556D01*
X190680390Y-67575556D02*
X190632770Y-67670794D01*
X190632770Y-67670794D02*
X190632770Y-67861270D01*
X190632770Y-67861270D02*
X190680390Y-67956508D01*
X190680390Y-67956508D02*
X190728009Y-68004127D01*
X190728009Y-68004127D02*
X190823247Y-68051746D01*
X190823247Y-68051746D02*
X191061342Y-68051746D01*
X191061342Y-68051746D02*
X191156580Y-68004127D01*
X191156580Y-68004127D02*
X191204199Y-67956508D01*
X191204199Y-67956508D02*
X191251818Y-67861270D01*
X191251818Y-67861270D02*
X191251818Y-67670794D01*
X191251818Y-67670794D02*
X191204199Y-67575556D01*
X191204199Y-67575556D02*
X191156580Y-67527937D01*
X191156580Y-67527937D02*
X191061342Y-67480318D01*
X175332770Y-36699365D02*
X175332770Y-36127937D01*
X175332770Y-36413651D02*
X176332770Y-36413651D01*
X176332770Y-36413651D02*
X176189913Y-36318413D01*
X176189913Y-36318413D02*
X176094675Y-36223175D01*
X176094675Y-36223175D02*
X176047056Y-36127937D01*
X175332770Y-37651746D02*
X175332770Y-37080318D01*
X175332770Y-37366032D02*
X176332770Y-37366032D01*
X176332770Y-37366032D02*
X176189913Y-37270794D01*
X176189913Y-37270794D02*
X176094675Y-37175556D01*
X176094675Y-37175556D02*
X176047056Y-37080318D01*
X188699437Y-66980318D02*
X188032770Y-66980318D01*
X189080390Y-66742223D02*
X188366104Y-66504128D01*
X188366104Y-66504128D02*
X188366104Y-67123175D01*
X183937532Y-66504128D02*
X183985151Y-66551747D01*
X183985151Y-66551747D02*
X184032770Y-66646985D01*
X184032770Y-66646985D02*
X184032770Y-66885080D01*
X184032770Y-66885080D02*
X183985151Y-66980318D01*
X183985151Y-66980318D02*
X183937532Y-67027937D01*
X183937532Y-67027937D02*
X183842294Y-67075556D01*
X183842294Y-67075556D02*
X183747056Y-67075556D01*
X183747056Y-67075556D02*
X183604199Y-67027937D01*
X183604199Y-67027937D02*
X183032770Y-66456509D01*
X183032770Y-66456509D02*
X183032770Y-67075556D01*
X196437532Y-36127937D02*
X196485151Y-36175556D01*
X196485151Y-36175556D02*
X196532770Y-36270794D01*
X196532770Y-36270794D02*
X196532770Y-36508889D01*
X196532770Y-36508889D02*
X196485151Y-36604127D01*
X196485151Y-36604127D02*
X196437532Y-36651746D01*
X196437532Y-36651746D02*
X196342294Y-36699365D01*
X196342294Y-36699365D02*
X196247056Y-36699365D01*
X196247056Y-36699365D02*
X196104199Y-36651746D01*
X196104199Y-36651746D02*
X195532770Y-36080318D01*
X195532770Y-36080318D02*
X195532770Y-36699365D01*
X196532770Y-37556508D02*
X196532770Y-37366032D01*
X196532770Y-37366032D02*
X196485151Y-37270794D01*
X196485151Y-37270794D02*
X196437532Y-37223175D01*
X196437532Y-37223175D02*
X196294675Y-37127937D01*
X196294675Y-37127937D02*
X196104199Y-37080318D01*
X196104199Y-37080318D02*
X195723247Y-37080318D01*
X195723247Y-37080318D02*
X195628009Y-37127937D01*
X195628009Y-37127937D02*
X195580390Y-37175556D01*
X195580390Y-37175556D02*
X195532770Y-37270794D01*
X195532770Y-37270794D02*
X195532770Y-37461270D01*
X195532770Y-37461270D02*
X195580390Y-37556508D01*
X195580390Y-37556508D02*
X195628009Y-37604127D01*
X195628009Y-37604127D02*
X195723247Y-37651746D01*
X195723247Y-37651746D02*
X195961342Y-37651746D01*
X195961342Y-37651746D02*
X196056580Y-37604127D01*
X196056580Y-37604127D02*
X196104199Y-37556508D01*
X196104199Y-37556508D02*
X196151818Y-37461270D01*
X196151818Y-37461270D02*
X196151818Y-37270794D01*
X196151818Y-37270794D02*
X196104199Y-37175556D01*
X196104199Y-37175556D02*
X196056580Y-37127937D01*
X196056580Y-37127937D02*
X195961342Y-37080318D01*
X187932770Y-36699365D02*
X187932770Y-36127937D01*
X187932770Y-36413651D02*
X188932770Y-36413651D01*
X188932770Y-36413651D02*
X188789913Y-36318413D01*
X188789913Y-36318413D02*
X188694675Y-36223175D01*
X188694675Y-36223175D02*
X188647056Y-36127937D01*
X188837532Y-37080318D02*
X188885151Y-37127937D01*
X188885151Y-37127937D02*
X188932770Y-37223175D01*
X188932770Y-37223175D02*
X188932770Y-37461270D01*
X188932770Y-37461270D02*
X188885151Y-37556508D01*
X188885151Y-37556508D02*
X188837532Y-37604127D01*
X188837532Y-37604127D02*
X188742294Y-37651746D01*
X188742294Y-37651746D02*
X188647056Y-37651746D01*
X188647056Y-37651746D02*
X188504199Y-37604127D01*
X188504199Y-37604127D02*
X187932770Y-37032699D01*
X187932770Y-37032699D02*
X187932770Y-37651746D01*
X206632770Y-36080318D02*
X206632770Y-36699365D01*
X206632770Y-36699365D02*
X206251818Y-36366032D01*
X206251818Y-36366032D02*
X206251818Y-36508889D01*
X206251818Y-36508889D02*
X206204199Y-36604127D01*
X206204199Y-36604127D02*
X206156580Y-36651746D01*
X206156580Y-36651746D02*
X206061342Y-36699365D01*
X206061342Y-36699365D02*
X205823247Y-36699365D01*
X205823247Y-36699365D02*
X205728009Y-36651746D01*
X205728009Y-36651746D02*
X205680390Y-36604127D01*
X205680390Y-36604127D02*
X205632770Y-36508889D01*
X205632770Y-36508889D02*
X205632770Y-36223175D01*
X205632770Y-36223175D02*
X205680390Y-36127937D01*
X205680390Y-36127937D02*
X205728009Y-36080318D01*
X206632770Y-37604127D02*
X206632770Y-37127937D01*
X206632770Y-37127937D02*
X206156580Y-37080318D01*
X206156580Y-37080318D02*
X206204199Y-37127937D01*
X206204199Y-37127937D02*
X206251818Y-37223175D01*
X206251818Y-37223175D02*
X206251818Y-37461270D01*
X206251818Y-37461270D02*
X206204199Y-37556508D01*
X206204199Y-37556508D02*
X206156580Y-37604127D01*
X206156580Y-37604127D02*
X206061342Y-37651746D01*
X206061342Y-37651746D02*
X205823247Y-37651746D01*
X205823247Y-37651746D02*
X205728009Y-37604127D01*
X205728009Y-37604127D02*
X205680390Y-37556508D01*
X205680390Y-37556508D02*
X205632770Y-37461270D01*
X205632770Y-37461270D02*
X205632770Y-37223175D01*
X205632770Y-37223175D02*
X205680390Y-37127937D01*
X205680390Y-37127937D02*
X205728009Y-37080318D01*
X180332770Y-36699366D02*
X180332770Y-36889842D01*
X180332770Y-36889842D02*
X180380390Y-36985080D01*
X180380390Y-36985080D02*
X180428009Y-37032699D01*
X180428009Y-37032699D02*
X180570866Y-37127937D01*
X180570866Y-37127937D02*
X180761342Y-37175556D01*
X180761342Y-37175556D02*
X181142294Y-37175556D01*
X181142294Y-37175556D02*
X181237532Y-37127937D01*
X181237532Y-37127937D02*
X181285151Y-37080318D01*
X181285151Y-37080318D02*
X181332770Y-36985080D01*
X181332770Y-36985080D02*
X181332770Y-36794604D01*
X181332770Y-36794604D02*
X181285151Y-36699366D01*
X181285151Y-36699366D02*
X181237532Y-36651747D01*
X181237532Y-36651747D02*
X181142294Y-36604128D01*
X181142294Y-36604128D02*
X180904199Y-36604128D01*
X180904199Y-36604128D02*
X180808961Y-36651747D01*
X180808961Y-36651747D02*
X180761342Y-36699366D01*
X180761342Y-36699366D02*
X180713723Y-36794604D01*
X180713723Y-36794604D02*
X180713723Y-36985080D01*
X180713723Y-36985080D02*
X180761342Y-37080318D01*
X180761342Y-37080318D02*
X180808961Y-37127937D01*
X180808961Y-37127937D02*
X180904199Y-37175556D01*
X196632770Y-67127937D02*
X196632770Y-66651747D01*
X196632770Y-66651747D02*
X196156580Y-66604128D01*
X196156580Y-66604128D02*
X196204199Y-66651747D01*
X196204199Y-66651747D02*
X196251818Y-66746985D01*
X196251818Y-66746985D02*
X196251818Y-66985080D01*
X196251818Y-66985080D02*
X196204199Y-67080318D01*
X196204199Y-67080318D02*
X196156580Y-67127937D01*
X196156580Y-67127937D02*
X196061342Y-67175556D01*
X196061342Y-67175556D02*
X195823247Y-67175556D01*
X195823247Y-67175556D02*
X195728009Y-67127937D01*
X195728009Y-67127937D02*
X195680390Y-67080318D01*
X195680390Y-67080318D02*
X195632770Y-66985080D01*
X195632770Y-66985080D02*
X195632770Y-66746985D01*
X195632770Y-66746985D02*
X195680390Y-66651747D01*
X195680390Y-66651747D02*
X195728009Y-66604128D01*
X210932770Y-67175556D02*
X210932770Y-66604128D01*
X210932770Y-66889842D02*
X211932770Y-66889842D01*
X211932770Y-66889842D02*
X211789913Y-66794604D01*
X211789913Y-66794604D02*
X211694675Y-66699366D01*
X211694675Y-66699366D02*
X211647056Y-66604128D01*
X173832770Y-66980318D02*
X173832770Y-66789842D01*
X173832770Y-66789842D02*
X173785151Y-66694604D01*
X173785151Y-66694604D02*
X173737532Y-66646985D01*
X173737532Y-66646985D02*
X173594675Y-66551747D01*
X173594675Y-66551747D02*
X173404199Y-66504128D01*
X173404199Y-66504128D02*
X173023247Y-66504128D01*
X173023247Y-66504128D02*
X172928009Y-66551747D01*
X172928009Y-66551747D02*
X172880390Y-66599366D01*
X172880390Y-66599366D02*
X172832770Y-66694604D01*
X172832770Y-66694604D02*
X172832770Y-66885080D01*
X172832770Y-66885080D02*
X172880390Y-66980318D01*
X172880390Y-66980318D02*
X172928009Y-67027937D01*
X172928009Y-67027937D02*
X173023247Y-67075556D01*
X173023247Y-67075556D02*
X173261342Y-67075556D01*
X173261342Y-67075556D02*
X173356580Y-67027937D01*
X173356580Y-67027937D02*
X173404199Y-66980318D01*
X173404199Y-66980318D02*
X173451818Y-66885080D01*
X173451818Y-66885080D02*
X173451818Y-66694604D01*
X173451818Y-66694604D02*
X173404199Y-66599366D01*
X173404199Y-66599366D02*
X173356580Y-66551747D01*
X173356580Y-66551747D02*
X173261342Y-66504128D01*
X194037532Y-36127937D02*
X194085151Y-36175556D01*
X194085151Y-36175556D02*
X194132770Y-36270794D01*
X194132770Y-36270794D02*
X194132770Y-36508889D01*
X194132770Y-36508889D02*
X194085151Y-36604127D01*
X194085151Y-36604127D02*
X194037532Y-36651746D01*
X194037532Y-36651746D02*
X193942294Y-36699365D01*
X193942294Y-36699365D02*
X193847056Y-36699365D01*
X193847056Y-36699365D02*
X193704199Y-36651746D01*
X193704199Y-36651746D02*
X193132770Y-36080318D01*
X193132770Y-36080318D02*
X193132770Y-36699365D01*
X194132770Y-37032699D02*
X194132770Y-37699365D01*
X194132770Y-37699365D02*
X193132770Y-37270794D01*
X206637532Y-66527937D02*
X206685151Y-66575556D01*
X206685151Y-66575556D02*
X206732770Y-66670794D01*
X206732770Y-66670794D02*
X206732770Y-66908889D01*
X206732770Y-66908889D02*
X206685151Y-67004127D01*
X206685151Y-67004127D02*
X206637532Y-67051746D01*
X206637532Y-67051746D02*
X206542294Y-67099365D01*
X206542294Y-67099365D02*
X206447056Y-67099365D01*
X206447056Y-67099365D02*
X206304199Y-67051746D01*
X206304199Y-67051746D02*
X205732770Y-66480318D01*
X205732770Y-66480318D02*
X205732770Y-67099365D01*
X205732770Y-68051746D02*
X205732770Y-67480318D01*
X205732770Y-67766032D02*
X206732770Y-67766032D01*
X206732770Y-67766032D02*
X206589913Y-67670794D01*
X206589913Y-67670794D02*
X206494675Y-67575556D01*
X206494675Y-67575556D02*
X206447056Y-67480318D01*
X216837532Y-66627937D02*
X216885151Y-66675556D01*
X216885151Y-66675556D02*
X216932770Y-66770794D01*
X216932770Y-66770794D02*
X216932770Y-67008889D01*
X216932770Y-67008889D02*
X216885151Y-67104127D01*
X216885151Y-67104127D02*
X216837532Y-67151746D01*
X216837532Y-67151746D02*
X216742294Y-67199365D01*
X216742294Y-67199365D02*
X216647056Y-67199365D01*
X216647056Y-67199365D02*
X216504199Y-67151746D01*
X216504199Y-67151746D02*
X215932770Y-66580318D01*
X215932770Y-66580318D02*
X215932770Y-67199365D01*
X216932770Y-67532699D02*
X216932770Y-68151746D01*
X216932770Y-68151746D02*
X216551818Y-67818413D01*
X216551818Y-67818413D02*
X216551818Y-67961270D01*
X216551818Y-67961270D02*
X216504199Y-68056508D01*
X216504199Y-68056508D02*
X216456580Y-68104127D01*
X216456580Y-68104127D02*
X216361342Y-68151746D01*
X216361342Y-68151746D02*
X216123247Y-68151746D01*
X216123247Y-68151746D02*
X216028009Y-68104127D01*
X216028009Y-68104127D02*
X215980390Y-68056508D01*
X215980390Y-68056508D02*
X215932770Y-67961270D01*
X215932770Y-67961270D02*
X215932770Y-67675556D01*
X215932770Y-67675556D02*
X215980390Y-67580318D01*
X215980390Y-67580318D02*
X216028009Y-67532699D01*
X193232770Y-67099365D02*
X193232770Y-66527937D01*
X193232770Y-66813651D02*
X194232770Y-66813651D01*
X194232770Y-66813651D02*
X194089913Y-66718413D01*
X194089913Y-66718413D02*
X193994675Y-66623175D01*
X193994675Y-66623175D02*
X193947056Y-66527937D01*
X194232770Y-67432699D02*
X194232770Y-68099365D01*
X194232770Y-68099365D02*
X193232770Y-67670794D01*
X190532770Y-36699365D02*
X190532770Y-36127937D01*
X190532770Y-36413651D02*
X191532770Y-36413651D01*
X191532770Y-36413651D02*
X191389913Y-36318413D01*
X191389913Y-36318413D02*
X191294675Y-36223175D01*
X191294675Y-36223175D02*
X191247056Y-36127937D01*
X191199437Y-37556508D02*
X190532770Y-37556508D01*
X191580390Y-37318413D02*
X190866104Y-37080318D01*
X190866104Y-37080318D02*
X190866104Y-37699365D01*
X198232770Y-67099365D02*
X198232770Y-66527937D01*
X198232770Y-66813651D02*
X199232770Y-66813651D01*
X199232770Y-66813651D02*
X199089913Y-66718413D01*
X199089913Y-66718413D02*
X198994675Y-66623175D01*
X198994675Y-66623175D02*
X198947056Y-66527937D01*
X198804199Y-67670794D02*
X198851818Y-67575556D01*
X198851818Y-67575556D02*
X198899437Y-67527937D01*
X198899437Y-67527937D02*
X198994675Y-67480318D01*
X198994675Y-67480318D02*
X199042294Y-67480318D01*
X199042294Y-67480318D02*
X199137532Y-67527937D01*
X199137532Y-67527937D02*
X199185151Y-67575556D01*
X199185151Y-67575556D02*
X199232770Y-67670794D01*
X199232770Y-67670794D02*
X199232770Y-67861270D01*
X199232770Y-67861270D02*
X199185151Y-67956508D01*
X199185151Y-67956508D02*
X199137532Y-68004127D01*
X199137532Y-68004127D02*
X199042294Y-68051746D01*
X199042294Y-68051746D02*
X198994675Y-68051746D01*
X198994675Y-68051746D02*
X198899437Y-68004127D01*
X198899437Y-68004127D02*
X198851818Y-67956508D01*
X198851818Y-67956508D02*
X198804199Y-67861270D01*
X198804199Y-67861270D02*
X198804199Y-67670794D01*
X198804199Y-67670794D02*
X198756580Y-67575556D01*
X198756580Y-67575556D02*
X198708961Y-67527937D01*
X198708961Y-67527937D02*
X198613723Y-67480318D01*
X198613723Y-67480318D02*
X198423247Y-67480318D01*
X198423247Y-67480318D02*
X198328009Y-67527937D01*
X198328009Y-67527937D02*
X198280390Y-67575556D01*
X198280390Y-67575556D02*
X198232770Y-67670794D01*
X198232770Y-67670794D02*
X198232770Y-67861270D01*
X198232770Y-67861270D02*
X198280390Y-67956508D01*
X198280390Y-67956508D02*
X198328009Y-68004127D01*
X198328009Y-68004127D02*
X198423247Y-68051746D01*
X198423247Y-68051746D02*
X198613723Y-68051746D01*
X198613723Y-68051746D02*
X198708961Y-68004127D01*
X198708961Y-68004127D02*
X198756580Y-67956508D01*
X198756580Y-67956508D02*
X198804199Y-67861270D01*
X200732770Y-67099365D02*
X200732770Y-66527937D01*
X200732770Y-66813651D02*
X201732770Y-66813651D01*
X201732770Y-66813651D02*
X201589913Y-66718413D01*
X201589913Y-66718413D02*
X201494675Y-66623175D01*
X201494675Y-66623175D02*
X201447056Y-66527937D01*
X200732770Y-67575556D02*
X200732770Y-67766032D01*
X200732770Y-67766032D02*
X200780390Y-67861270D01*
X200780390Y-67861270D02*
X200828009Y-67908889D01*
X200828009Y-67908889D02*
X200970866Y-68004127D01*
X200970866Y-68004127D02*
X201161342Y-68051746D01*
X201161342Y-68051746D02*
X201542294Y-68051746D01*
X201542294Y-68051746D02*
X201637532Y-68004127D01*
X201637532Y-68004127D02*
X201685151Y-67956508D01*
X201685151Y-67956508D02*
X201732770Y-67861270D01*
X201732770Y-67861270D02*
X201732770Y-67670794D01*
X201732770Y-67670794D02*
X201685151Y-67575556D01*
X201685151Y-67575556D02*
X201637532Y-67527937D01*
X201637532Y-67527937D02*
X201542294Y-67480318D01*
X201542294Y-67480318D02*
X201304199Y-67480318D01*
X201304199Y-67480318D02*
X201208961Y-67527937D01*
X201208961Y-67527937D02*
X201161342Y-67575556D01*
X201161342Y-67575556D02*
X201113723Y-67670794D01*
X201113723Y-67670794D02*
X201113723Y-67861270D01*
X201113723Y-67861270D02*
X201161342Y-67956508D01*
X201161342Y-67956508D02*
X201208961Y-68004127D01*
X201208961Y-68004127D02*
X201304199Y-68051746D01*
X211832770Y-36080318D02*
X211832770Y-36699365D01*
X211832770Y-36699365D02*
X211451818Y-36366032D01*
X211451818Y-36366032D02*
X211451818Y-36508889D01*
X211451818Y-36508889D02*
X211404199Y-36604127D01*
X211404199Y-36604127D02*
X211356580Y-36651746D01*
X211356580Y-36651746D02*
X211261342Y-36699365D01*
X211261342Y-36699365D02*
X211023247Y-36699365D01*
X211023247Y-36699365D02*
X210928009Y-36651746D01*
X210928009Y-36651746D02*
X210880390Y-36604127D01*
X210880390Y-36604127D02*
X210832770Y-36508889D01*
X210832770Y-36508889D02*
X210832770Y-36223175D01*
X210832770Y-36223175D02*
X210880390Y-36127937D01*
X210880390Y-36127937D02*
X210928009Y-36080318D01*
X210832770Y-37175556D02*
X210832770Y-37366032D01*
X210832770Y-37366032D02*
X210880390Y-37461270D01*
X210880390Y-37461270D02*
X210928009Y-37508889D01*
X210928009Y-37508889D02*
X211070866Y-37604127D01*
X211070866Y-37604127D02*
X211261342Y-37651746D01*
X211261342Y-37651746D02*
X211642294Y-37651746D01*
X211642294Y-37651746D02*
X211737532Y-37604127D01*
X211737532Y-37604127D02*
X211785151Y-37556508D01*
X211785151Y-37556508D02*
X211832770Y-37461270D01*
X211832770Y-37461270D02*
X211832770Y-37270794D01*
X211832770Y-37270794D02*
X211785151Y-37175556D01*
X211785151Y-37175556D02*
X211737532Y-37127937D01*
X211737532Y-37127937D02*
X211642294Y-37080318D01*
X211642294Y-37080318D02*
X211404199Y-37080318D01*
X211404199Y-37080318D02*
X211308961Y-37127937D01*
X211308961Y-37127937D02*
X211261342Y-37175556D01*
X211261342Y-37175556D02*
X211213723Y-37270794D01*
X211213723Y-37270794D02*
X211213723Y-37461270D01*
X211213723Y-37461270D02*
X211261342Y-37556508D01*
X211261342Y-37556508D02*
X211308961Y-37604127D01*
X211308961Y-37604127D02*
X211404199Y-37651746D01*
X176432770Y-66556509D02*
X176432770Y-67223175D01*
X176432770Y-67223175D02*
X175432770Y-66794604D01*
D12*
%TO.C,U1*%
X172969990Y-38119842D02*
X219229990Y-38119842D01*
X172969990Y-66059842D02*
X219229990Y-66059842D01*
X219229990Y-38119842D02*
G75*
G02*
X220229990Y-39119842I1J-999999D01*
G01*
X171969990Y-39119842D02*
G75*
G02*
X172969990Y-38119842I999999J1D01*
G01*
X220229990Y-65059842D02*
G75*
G02*
X219229990Y-66059842I-1000000J0D01*
G01*
X172969990Y-66059842D02*
G75*
G02*
X171969990Y-65059842I0J1000000D01*
G01*
D13*
%TO.C,U4*%
X197599990Y-55204092D02*
X201359990Y-55204092D01*
X201359990Y-55204092D02*
X201359990Y-53944092D01*
X197599990Y-48384092D02*
X201359990Y-48384092D01*
X201359990Y-48384092D02*
X201359990Y-49644092D01*
X196319990Y-48484092D02*
X196079990Y-48154092D01*
X196559990Y-48154092D01*
X196319990Y-48484092D01*
G36*
X196319990Y-48484092D02*
G01*
X196079990Y-48154092D01*
X196559990Y-48154092D01*
X196319990Y-48484092D01*
G37*
%TO.C,R1*%
X187313024Y-57108800D02*
X187313024Y-57583316D01*
X188358024Y-57108800D02*
X188358024Y-57583316D01*
%TO.C,C7*%
X207325524Y-51045340D02*
X207325524Y-52467844D01*
X209145524Y-51045340D02*
X209145524Y-52467844D01*
%TO.C,R2*%
X185713024Y-57583316D02*
X185713024Y-57108800D01*
X186758024Y-57583316D02*
X186758024Y-57108800D01*
%TO.C,C3*%
X218675524Y-51045340D02*
X218675524Y-52467844D01*
X220495524Y-51045340D02*
X220495524Y-52467844D01*
%TO.C,J4*%
X217699990Y-34664092D02*
X171919990Y-34664092D01*
X171919990Y-32004092D02*
X171919990Y-34664092D01*
X217699990Y-32004092D02*
X217699990Y-34664092D01*
X217699990Y-32004092D02*
X171919990Y-32004092D01*
X218969990Y-32004092D02*
X220299990Y-32004092D01*
X220299990Y-32004092D02*
X220299990Y-33334092D01*
%TO.C,C2*%
X217493360Y-46706058D02*
X217277688Y-46706058D01*
X217493360Y-45986058D02*
X217277688Y-45986058D01*
%TO.C,C6*%
X195857688Y-57756058D02*
X196073360Y-57756058D01*
X195857688Y-57036058D02*
X196073360Y-57036058D01*
%TO.C,C5*%
X217257688Y-57356058D02*
X217473360Y-57356058D01*
X217257688Y-56636058D02*
X217473360Y-56636058D01*
%TO.C,J2*%
X171884466Y-96312116D02*
X174544466Y-96312116D01*
X171884466Y-93712116D02*
X171884466Y-96312116D01*
X171884466Y-93712116D02*
X174544466Y-93712116D01*
X174544466Y-93712116D02*
X174544466Y-96312116D01*
X171884466Y-92442116D02*
X171884466Y-91112116D01*
X171884466Y-91112116D02*
X173214466Y-91112116D01*
%TO.C,C9*%
X196043360Y-46506058D02*
X195827688Y-46506058D01*
X196043360Y-45786058D02*
X195827688Y-45786058D01*
%TO.C,U3*%
X183575524Y-51756592D02*
X183575524Y-53706592D01*
X183575524Y-51756592D02*
X183575524Y-49806592D01*
X188695524Y-51756592D02*
X188695524Y-53706592D01*
X188695524Y-51756592D02*
X188695524Y-49806592D01*
X188930524Y-49296592D02*
X188600524Y-49056592D01*
X188930524Y-48816592D01*
X188930524Y-49296592D01*
G36*
X188930524Y-49296592D02*
G01*
X188600524Y-49056592D01*
X188930524Y-48816592D01*
X188930524Y-49296592D01*
G37*
%TO.C,C8*%
X204175524Y-51045340D02*
X204175524Y-52467844D01*
X205995524Y-51045340D02*
X205995524Y-52467844D01*
%TO.C,C1*%
X186413360Y-59806058D02*
X186197688Y-59806058D01*
X186413360Y-59086058D02*
X186197688Y-59086058D01*
%TO.C,R3*%
X184113024Y-57108800D02*
X184113024Y-57583316D01*
X185158024Y-57108800D02*
X185158024Y-57583316D01*
%TO.C,C4*%
X192875524Y-52467844D02*
X192875524Y-51045340D01*
X194695524Y-52467844D02*
X194695524Y-51045340D01*
%TO.C,U2*%
X211989990Y-55129092D02*
X211989990Y-53869092D01*
X215749990Y-55129092D02*
X211989990Y-55129092D01*
X211989990Y-48309092D02*
X211989990Y-49569092D01*
X215749990Y-48309092D02*
X211989990Y-48309092D01*
X217269990Y-55359092D02*
X216789990Y-55359092D01*
X217029990Y-55029092D01*
X217269990Y-55359092D01*
G36*
X217269990Y-55359092D02*
G01*
X216789990Y-55359092D01*
X217029990Y-55029092D01*
X217269990Y-55359092D01*
G37*
%TO.C,J3*%
X174544466Y-89892116D02*
X173214466Y-89892116D01*
X174544466Y-88562116D02*
X174544466Y-89892116D01*
X171884466Y-87292116D02*
X171884466Y-79612116D01*
X174544466Y-87292116D02*
X171884466Y-87292116D01*
X174544466Y-87292116D02*
X174544466Y-79612116D01*
X174544466Y-79612116D02*
X171884466Y-79612116D01*
%TO.C,J5*%
X217629990Y-72264092D02*
X171849990Y-72264092D01*
X171849990Y-69604092D02*
X171849990Y-72264092D01*
X217629990Y-69604092D02*
X217629990Y-72264092D01*
X217629990Y-69604092D02*
X171849990Y-69604092D01*
X218899990Y-69604092D02*
X220229990Y-69604092D01*
X220229990Y-69604092D02*
X220229990Y-70934092D01*
%TO.C,J1*%
X182008932Y-77622116D02*
X220168932Y-77622116D01*
X182008932Y-77622116D02*
X182008932Y-74962116D01*
X220168932Y-77622116D02*
X220168932Y-74962116D01*
X179408932Y-76292116D02*
X179408932Y-74962116D01*
X179408932Y-74962116D02*
X180738932Y-74962116D01*
X182008932Y-74962116D02*
X220168932Y-74962116D01*
%TD*%
M02*
