%TF.GenerationSoftware,KiCad,Pcbnew,8.0.6*%
%TF.CreationDate,2025-08-25T17:41:28+02:00*%
%TF.ProjectId,controller,636f6e74-726f-46c6-9c65-722e6b696361,rev?*%
%TF.SameCoordinates,Original*%
%TF.FileFunction,Copper,L2,Bot*%
%TF.FilePolarity,Positive*%
%FSLAX46Y46*%
G04 Gerber Fmt 4.6, Leading zero omitted, Abs format (unit mm)*
G04 Created by KiCad (PCBNEW 8.0.6) date 2025-08-25 17:41:28*
%MOMM*%
%LPD*%
G01*
G04 APERTURE LIST*
%TA.AperFunction,ComponentPad*%
%ADD10R,1.408000X1.408000*%
%TD*%
%TA.AperFunction,ComponentPad*%
%ADD11C,1.408000*%
%TD*%
%TA.AperFunction,ComponentPad*%
%ADD12R,1.700000X1.700000*%
%TD*%
%TA.AperFunction,ComponentPad*%
%ADD13O,1.700000X1.700000*%
%TD*%
%TA.AperFunction,ViaPad*%
%ADD14C,0.600000*%
%TD*%
%TA.AperFunction,ViaPad*%
%ADD15C,0.800000*%
%TD*%
%TA.AperFunction,Conductor*%
%ADD16C,0.400000*%
%TD*%
%TA.AperFunction,Conductor*%
%ADD17C,0.250000*%
%TD*%
G04 APERTURE END LIST*
D10*
%TO.P,U1,J2_1,3V3*%
%TO.N,ESP3V3*%
X218934990Y-39389842D03*
D11*
%TO.P,U1,J2_2,EN*%
%TO.N,EN*%
X216394990Y-39389842D03*
%TO.P,U1,J2_3,SENSOR_VP*%
%TO.N,GPIO36*%
X213854990Y-39389842D03*
%TO.P,U1,J2_4,SENSOR_VN*%
%TO.N,GPIO39*%
X211314990Y-39389842D03*
%TO.P,U1,J2_5,IO34*%
%TO.N,GPIO34*%
X208774990Y-39389842D03*
%TO.P,U1,J2_6,IO35*%
%TO.N,GPIO35*%
X206234990Y-39389842D03*
%TO.P,U1,J2_7,IO32*%
%TO.N,GPIO32*%
X203694990Y-39389842D03*
%TO.P,U1,J2_8,IO33*%
%TO.N,GPIO33*%
X201154990Y-39389842D03*
%TO.P,U1,J2_9,IO25*%
%TO.N,GPIO25*%
X198614990Y-39389842D03*
%TO.P,U1,J2_10,IO26*%
%TO.N,GPIO26*%
X196074990Y-39389842D03*
%TO.P,U1,J2_11,IO27*%
%TO.N,GPIO27*%
X193534990Y-39389842D03*
%TO.P,U1,J2_12,IO14*%
%TO.N,GPIO14*%
X190994990Y-39389842D03*
%TO.P,U1,J2_13,IO12*%
%TO.N,12*%
X188454990Y-39389842D03*
%TO.P,U1,J2_14,GND_J2_14*%
%TO.N,GND*%
X185914990Y-39389842D03*
%TO.P,U1,J2_15,IO13*%
%TO.N,GPIO13*%
X183374990Y-39389842D03*
%TO.P,U1,J2_16,SD2*%
%TO.N,SD2*%
X180834990Y-39389842D03*
%TO.P,U1,J2_17,SD3*%
%TO.N,SD3*%
X178294990Y-39389842D03*
%TO.P,U1,J2_18,CMD*%
%TO.N,CMD*%
X175754990Y-39389842D03*
%TO.P,U1,J2_19,EXT_5V*%
%TO.N,5V*%
X173214990Y-39389842D03*
%TO.P,U1,J3_1,GND_J3_1*%
%TO.N,GND*%
X218934990Y-64789842D03*
%TO.P,U1,J3_2,IO23*%
%TO.N,GPIO23*%
X216394990Y-64789842D03*
%TO.P,U1,J3_3,IO22*%
%TO.N,GPIO22*%
X213854990Y-64789842D03*
%TO.P,U1,J3_4,TXD0*%
%TO.N,GPIO1*%
X211314990Y-64789842D03*
%TO.P,U1,J3_5,RXD0*%
%TO.N,GPIO3*%
X208774990Y-64789842D03*
%TO.P,U1,J3_6,IO21*%
%TO.N,GPIO21*%
X206234990Y-64789842D03*
%TO.P,U1,J3_7,GND_J3_7*%
%TO.N,GND*%
X203694990Y-64789842D03*
%TO.P,U1,J3_8,IO19*%
%TO.N,GPIO19*%
X201154990Y-64789842D03*
%TO.P,U1,J3_9,IO18*%
%TO.N,GPIO18*%
X198614990Y-64789842D03*
%TO.P,U1,J3_10,IO5*%
%TO.N,GPIO5*%
X196074990Y-64789842D03*
%TO.P,U1,J3_11,IO17*%
%TO.N,GPIO17*%
X193534990Y-64789842D03*
%TO.P,U1,J3_12,IO16*%
%TO.N,GPIO16*%
X190994990Y-64789842D03*
%TO.P,U1,J3_13,IO4*%
%TO.N,GPIO4*%
X188454990Y-64789842D03*
%TO.P,U1,J3_14,IO0*%
%TO.N,GPIO0*%
X185914990Y-64789842D03*
%TO.P,U1,J3_15,IO2*%
%TO.N,GPIO2*%
X183374990Y-64789842D03*
%TO.P,U1,J3_16,IO15*%
%TO.N,GPIO15*%
X180834990Y-64789842D03*
%TO.P,U1,J3_17,SD1*%
%TO.N,SD1*%
X178294990Y-64789842D03*
%TO.P,U1,J3_18,SD0*%
%TO.N,SD0*%
X175754990Y-64789842D03*
%TO.P,U1,J3_19,CLK*%
%TO.N,CLK*%
X173214990Y-64789842D03*
%TD*%
D12*
%TO.P,J4,1,Pin_1*%
%TO.N,ESP3V3*%
X218969990Y-33334092D03*
D13*
%TO.P,J4,2,Pin_2*%
%TO.N,EN*%
X216429990Y-33334092D03*
%TO.P,J4,3,Pin_3*%
%TO.N,GPIO36*%
X213889990Y-33334092D03*
%TO.P,J4,4,Pin_4*%
%TO.N,GPIO39*%
X211349990Y-33334092D03*
%TO.P,J4,5,Pin_5*%
%TO.N,GPIO34*%
X208809990Y-33334092D03*
%TO.P,J4,6,Pin_6*%
%TO.N,GPIO35*%
X206269990Y-33334092D03*
%TO.P,J4,7,Pin_7*%
%TO.N,GPIO32*%
X203729990Y-33334092D03*
%TO.P,J4,8,Pin_8*%
%TO.N,GPIO33*%
X201189990Y-33334092D03*
%TO.P,J4,9,Pin_9*%
%TO.N,GPIO25*%
X198649990Y-33334092D03*
%TO.P,J4,10,Pin_10*%
%TO.N,GPIO26*%
X196109990Y-33334092D03*
%TO.P,J4,11,Pin_11*%
%TO.N,GPIO27*%
X193569990Y-33334092D03*
%TO.P,J4,12,Pin_12*%
%TO.N,GPIO14*%
X191029990Y-33334092D03*
%TO.P,J4,13,Pin_13*%
%TO.N,12*%
X188489990Y-33334092D03*
%TO.P,J4,14,Pin_14*%
%TO.N,GND*%
X185949990Y-33334092D03*
%TO.P,J4,15,Pin_15*%
%TO.N,GPIO13*%
X183409990Y-33334092D03*
%TO.P,J4,16,Pin_16*%
%TO.N,SD2*%
X180869990Y-33334092D03*
%TO.P,J4,17,Pin_17*%
%TO.N,SD3*%
X178329990Y-33334092D03*
%TO.P,J4,18,Pin_18*%
%TO.N,CMD*%
X175789990Y-33334092D03*
%TO.P,J4,19,Pin_19*%
%TO.N,5V*%
X173249990Y-33334092D03*
%TD*%
D12*
%TO.P,J2,1,Pin_1*%
%TO.N,GND*%
X173214466Y-92442116D03*
D13*
%TO.P,J2,2,Pin_2*%
%TO.N,9V*%
X173214466Y-94982116D03*
%TD*%
%TO.P,RV1,1,1*%
%TO.N,GND*%
X180478932Y-92072116D03*
%TO.P,RV1,2,2*%
%TO.N,Net-(J1-Pin_3)*%
X183018932Y-89532116D03*
%TO.P,RV1,3,3*%
%TO.N,5V*%
X180478932Y-86992116D03*
%TD*%
D12*
%TO.P,J3,1,Pin_1*%
%TO.N,GND*%
X173214466Y-88562116D03*
D13*
%TO.P,J3,2,Pin_2*%
%TO.N,RS485_B-*%
X173214466Y-86022116D03*
%TO.P,J3,3,Pin_3*%
%TO.N,RS485_A+*%
X173214466Y-83482116D03*
%TO.P,J3,4,Pin_4*%
%TO.N,9V*%
X173214466Y-80942116D03*
%TD*%
D12*
%TO.P,J5,1,Pin_1*%
%TO.N,GND*%
X218899990Y-70934092D03*
D13*
%TO.P,J5,2,Pin_2*%
%TO.N,GPIO23*%
X216359990Y-70934092D03*
%TO.P,J5,3,Pin_3*%
%TO.N,GPIO22*%
X213819990Y-70934092D03*
%TO.P,J5,4,Pin_4*%
%TO.N,GPIO1*%
X211279990Y-70934092D03*
%TO.P,J5,5,Pin_5*%
%TO.N,GPIO3*%
X208739990Y-70934092D03*
%TO.P,J5,6,Pin_6*%
%TO.N,GPIO21*%
X206199990Y-70934092D03*
%TO.P,J5,7,Pin_7*%
%TO.N,GND*%
X203659990Y-70934092D03*
%TO.P,J5,8,Pin_8*%
%TO.N,GPIO19*%
X201119990Y-70934092D03*
%TO.P,J5,9,Pin_9*%
%TO.N,GPIO18*%
X198579990Y-70934092D03*
%TO.P,J5,10,Pin_10*%
%TO.N,GPIO5*%
X196039990Y-70934092D03*
%TO.P,J5,11,Pin_11*%
%TO.N,GPIO17*%
X193499990Y-70934092D03*
%TO.P,J5,12,Pin_12*%
%TO.N,GPIO16*%
X190959990Y-70934092D03*
%TO.P,J5,13,Pin_13*%
%TO.N,GPIO4*%
X188419990Y-70934092D03*
%TO.P,J5,14,Pin_14*%
%TO.N,GPIO0*%
X185879990Y-70934092D03*
%TO.P,J5,15,Pin_15*%
%TO.N,GPIO2*%
X183339990Y-70934092D03*
%TO.P,J5,16,Pin_16*%
%TO.N,GPIO15*%
X180799990Y-70934092D03*
%TO.P,J5,17,Pin_17*%
%TO.N,SD1*%
X178259990Y-70934092D03*
%TO.P,J5,18,Pin_18*%
%TO.N,SD0*%
X175719990Y-70934092D03*
%TO.P,J5,19,Pin_19*%
%TO.N,CLK*%
X173179990Y-70934092D03*
%TD*%
D12*
%TO.P,J1,1,Pin_1*%
%TO.N,GND*%
X180738932Y-76292116D03*
D13*
%TO.P,J1,2,Pin_2*%
%TO.N,5V*%
X183278932Y-76292116D03*
%TO.P,J1,3,Pin_3*%
%TO.N,Net-(J1-Pin_3)*%
X185818932Y-76292116D03*
%TO.P,J1,4,Pin_4*%
%TO.N,GPIO19*%
X188358932Y-76292116D03*
%TO.P,J1,5,Pin_5*%
%TO.N,GND*%
X190898932Y-76292116D03*
%TO.P,J1,6,Pin_6*%
%TO.N,GPIO23*%
X193438932Y-76292116D03*
%TO.P,J1,7,Pin_7*%
%TO.N,GND*%
X195978932Y-76292116D03*
%TO.P,J1,8,Pin_8*%
X198518932Y-76292116D03*
%TO.P,J1,9,Pin_9*%
X201058932Y-76292116D03*
%TO.P,J1,10,Pin_10*%
X203598932Y-76292116D03*
%TO.P,J1,11,Pin_11*%
%TO.N,GPIO18*%
X206138932Y-76292116D03*
%TO.P,J1,12,Pin_12*%
%TO.N,GPIO17*%
X208678932Y-76292116D03*
%TO.P,J1,13,Pin_13*%
%TO.N,GPIO16*%
X211218932Y-76292116D03*
%TO.P,J1,14,Pin_14*%
%TO.N,GPIO15*%
X213758932Y-76292116D03*
%TO.P,J1,15,Pin_15*%
%TO.N,5V*%
X216298932Y-76292116D03*
%TO.P,J1,16,Pin_16*%
%TO.N,GND*%
X218838932Y-76292116D03*
%TD*%
D14*
%TO.N,GPIO18*%
X209478932Y-74392116D03*
D15*
%TO.N,3V3*%
X192432069Y-49092116D03*
X190078932Y-57792116D03*
D14*
%TO.N,RS485_A+*%
X188864466Y-58192116D03*
%TO.N,RS485_B-*%
X189078932Y-55792116D03*
%TO.N,5V*%
X191078932Y-53192116D03*
D15*
X220885524Y-55292116D03*
X211568408Y-56996058D03*
%TD*%
D16*
%TO.N,GPIO23*%
X216394990Y-70899092D02*
X216359990Y-70934092D01*
X216394990Y-64789842D02*
X216394990Y-70899092D01*
%TO.N,GPIO19*%
X201154990Y-70899092D02*
X201119990Y-70934092D01*
X201154990Y-64789842D02*
X201154990Y-70899092D01*
%TO.N,GPIO16*%
X197268932Y-76809883D02*
X197268932Y-75682116D01*
X192209990Y-72184092D02*
X190959990Y-70934092D01*
X211218932Y-76292116D02*
X208818932Y-78692116D01*
X190994990Y-64789842D02*
X190994990Y-70899092D01*
X197268932Y-75682116D02*
X193770908Y-72184092D01*
X190994990Y-70899092D02*
X190959990Y-70934092D01*
X193770908Y-72184092D02*
X192209990Y-72184092D01*
X199151165Y-78692116D02*
X197268932Y-76809883D01*
X208818932Y-78692116D02*
X199151165Y-78692116D01*
%TO.N,GPIO18*%
X198579990Y-70934092D02*
X199829990Y-72184092D01*
X199829990Y-72184092D02*
X207270908Y-72184092D01*
X198579990Y-70934092D02*
X198579990Y-64824842D01*
X207270908Y-72184092D02*
X209478932Y-74392116D01*
X198579990Y-64824842D02*
X198614990Y-64789842D01*
%TO.N,GPIO17*%
X208678932Y-76292116D02*
X205978932Y-73592116D01*
X195958014Y-73392116D02*
X193499990Y-70934092D01*
X195978932Y-73392116D02*
X195958014Y-73392116D01*
X193499990Y-64824842D02*
X193534990Y-64789842D01*
X205978932Y-73592116D02*
X196178932Y-73592116D01*
X196178932Y-73592116D02*
X195978932Y-73392116D01*
X193499990Y-70934092D02*
X193499990Y-64824842D01*
%TO.N,GPIO27*%
X193569990Y-33334092D02*
X193569990Y-39354842D01*
X193569990Y-39354842D02*
X193534990Y-39389842D01*
%TO.N,GPIO14*%
X190994990Y-39389842D02*
X190994990Y-33369092D01*
X190994990Y-33369092D02*
X191029990Y-33334092D01*
%TO.N,12*%
X188489990Y-39354842D02*
X188454990Y-39389842D01*
X188489990Y-33334092D02*
X188489990Y-39354842D01*
%TO.N,SD2*%
X180869990Y-33334092D02*
X180869990Y-39354842D01*
X180869990Y-39354842D02*
X180834990Y-39389842D01*
%TO.N,GPIO25*%
X198649990Y-33334092D02*
X198649990Y-39354842D01*
X198649990Y-39354842D02*
X198614990Y-39389842D01*
%TO.N,GPIO33*%
X201154990Y-39389842D02*
X201154990Y-33369092D01*
X201154990Y-33369092D02*
X201189990Y-33334092D01*
%TO.N,GPIO13*%
X183374990Y-33369092D02*
X183409990Y-33334092D01*
X183374990Y-39389842D02*
X183374990Y-33369092D01*
%TO.N,SD3*%
X178294990Y-39389842D02*
X178294990Y-33369092D01*
X178294990Y-33369092D02*
X178329990Y-33334092D01*
%TO.N,GPIO34*%
X208809990Y-33334092D02*
X208809990Y-39354842D01*
X208809990Y-39354842D02*
X208774990Y-39389842D01*
%TO.N,GPIO32*%
X203729990Y-39354842D02*
X203694990Y-39389842D01*
X203729990Y-33334092D02*
X203729990Y-39354842D01*
%TO.N,EN*%
X216394990Y-39389842D02*
X216394990Y-33369092D01*
X216394990Y-33369092D02*
X216429990Y-33334092D01*
%TO.N,GPIO36*%
X213854990Y-39389842D02*
X213854990Y-33369092D01*
X213854990Y-33369092D02*
X213889990Y-33334092D01*
D17*
%TO.N,GPIO26*%
X196074990Y-39389842D02*
X196074990Y-33369092D01*
X196074990Y-33369092D02*
X196109990Y-33334092D01*
D16*
%TO.N,CMD*%
X175789990Y-33334092D02*
X175789990Y-39354842D01*
X175789990Y-39354842D02*
X175754990Y-39389842D01*
%TO.N,ESP3V3*%
X218934990Y-39389842D02*
X218934990Y-33369092D01*
X218934990Y-33369092D02*
X218969990Y-33334092D01*
%TO.N,GPIO35*%
X206234990Y-33369092D02*
X206269990Y-33334092D01*
X206234990Y-39389842D02*
X206234990Y-33369092D01*
%TO.N,GPIO22*%
X213819990Y-64824842D02*
X213854990Y-64789842D01*
X213819990Y-70934092D02*
X213819990Y-64824842D01*
%TO.N,CLK*%
X173179990Y-64824842D02*
X173214990Y-64789842D01*
X173179990Y-70934092D02*
X173179990Y-64824842D01*
%TO.N,GPIO1*%
X211314990Y-64789842D02*
X211314990Y-70899092D01*
X211314990Y-70899092D02*
X211279990Y-70934092D01*
%TO.N,SD0*%
X175754990Y-64789842D02*
X175754990Y-70899092D01*
X175754990Y-70899092D02*
X175719990Y-70934092D01*
%TO.N,SD1*%
X178259990Y-64824842D02*
X178294990Y-64789842D01*
X178259990Y-70934092D02*
X178259990Y-64824842D01*
%TO.N,GPIO2*%
X183339990Y-64824842D02*
X183374990Y-64789842D01*
X183339990Y-70934092D02*
X183339990Y-64824842D01*
%TO.N,GPIO21*%
X206234990Y-70899092D02*
X206199990Y-70934092D01*
X206234990Y-64789842D02*
X206234990Y-70899092D01*
%TO.N,GPIO5*%
X196074990Y-70899092D02*
X196039990Y-70934092D01*
X196074990Y-64789842D02*
X196074990Y-70899092D01*
%TO.N,GPIO0*%
X185879990Y-70934092D02*
X185879990Y-64824842D01*
X185879990Y-64824842D02*
X185914990Y-64789842D01*
%TO.N,GPIO15*%
X180834990Y-64789842D02*
X180834990Y-70899092D01*
X210029990Y-72563174D02*
X210029990Y-64443174D01*
X209178932Y-63592116D02*
X182032716Y-63592116D01*
X213758932Y-76292116D02*
X210029990Y-72563174D01*
X210029990Y-64443174D02*
X209178932Y-63592116D01*
X182032716Y-63592116D02*
X180834990Y-64789842D01*
X180834990Y-70899092D02*
X180799990Y-70934092D01*
%TO.N,GPIO3*%
X208739990Y-64824842D02*
X208774990Y-64789842D01*
X208739990Y-70934092D02*
X208739990Y-64824842D01*
%TO.N,GPIO4*%
X188419990Y-64824842D02*
X188454990Y-64789842D01*
X188419990Y-70934092D02*
X188419990Y-64824842D01*
%TO.N,GND*%
X185914990Y-33369092D02*
X185949990Y-33334092D01*
X203659990Y-64824842D02*
X203694990Y-64789842D01*
%TO.N,RS485_A+*%
X171478932Y-64692116D02*
X177978932Y-58192116D01*
X177978932Y-58192116D02*
X188864466Y-58192116D01*
X171478932Y-81746582D02*
X171478932Y-64692116D01*
X173214466Y-83482116D02*
X171478932Y-81746582D01*
%TO.N,RS485_B-*%
X170678932Y-64392116D02*
X170678932Y-83486582D01*
X189078932Y-55792116D02*
X187478932Y-57392116D01*
X177678932Y-57392116D02*
X170678932Y-64392116D01*
X187478932Y-57392116D02*
X177678932Y-57392116D01*
X170678932Y-83486582D02*
X173214466Y-86022116D01*
%TO.N,5V*%
X186278932Y-79292116D02*
X213298932Y-79292116D01*
X191078932Y-53192116D02*
X187017264Y-53192116D01*
X183278932Y-76292116D02*
X186278932Y-79292116D01*
X173214990Y-33369092D02*
X173249990Y-33334092D01*
X213298932Y-79292116D02*
X216298932Y-76292116D01*
X187017264Y-53192116D02*
X173214990Y-39389842D01*
X173214990Y-39389842D02*
X173214990Y-33369092D01*
%TO.N,GPIO39*%
X211314990Y-33369092D02*
X211349990Y-33334092D01*
X211314990Y-39389842D02*
X211314990Y-33369092D01*
%TD*%
%TA.AperFunction,Conductor*%
%TO.N,GND*%
G36*
X196228932Y-77622749D02*
G01*
X196442415Y-77565549D01*
X196442424Y-77565545D01*
X196656511Y-77465715D01*
X196734550Y-77411071D01*
X196800756Y-77388743D01*
X196868524Y-77405752D01*
X196893356Y-77424964D01*
X197848328Y-78379935D01*
X197881813Y-78441258D01*
X197876829Y-78510949D01*
X197834957Y-78566883D01*
X197769493Y-78591300D01*
X197760647Y-78591616D01*
X186620451Y-78591616D01*
X186553412Y-78571931D01*
X186532770Y-78555297D01*
X185828862Y-77851389D01*
X185795377Y-77790066D01*
X185800361Y-77720374D01*
X185842233Y-77664441D01*
X185905734Y-77640180D01*
X186054340Y-77627179D01*
X186282595Y-77566019D01*
X186496762Y-77466151D01*
X186690333Y-77330611D01*
X186857427Y-77163517D01*
X186987357Y-76977958D01*
X187041934Y-76934333D01*
X187111432Y-76927139D01*
X187173787Y-76958662D01*
X187190507Y-76977958D01*
X187320213Y-77163198D01*
X187320437Y-77163517D01*
X187487531Y-77330611D01*
X187564067Y-77384202D01*
X187681097Y-77466148D01*
X187681099Y-77466149D01*
X187681102Y-77466151D01*
X187895269Y-77566019D01*
X188123524Y-77627179D01*
X188294251Y-77642116D01*
X188358931Y-77647775D01*
X188358932Y-77647775D01*
X188358933Y-77647775D01*
X188423613Y-77642116D01*
X188594340Y-77627179D01*
X188822595Y-77566019D01*
X189036762Y-77466151D01*
X189230333Y-77330611D01*
X189397427Y-77163517D01*
X189527662Y-76977521D01*
X189582239Y-76933897D01*
X189651737Y-76926703D01*
X189714092Y-76958226D01*
X189730811Y-76977521D01*
X189860822Y-77163194D01*
X190027849Y-77330221D01*
X190221353Y-77465716D01*
X190435439Y-77565545D01*
X190435448Y-77565549D01*
X190648932Y-77622750D01*
X190648932Y-76725128D01*
X190705939Y-76758041D01*
X190833106Y-76792116D01*
X190964758Y-76792116D01*
X191091925Y-76758041D01*
X191148932Y-76725128D01*
X191148932Y-77622749D01*
X191362415Y-77565549D01*
X191362424Y-77565545D01*
X191576510Y-77465716D01*
X191770014Y-77330221D01*
X191937037Y-77163198D01*
X192067051Y-76977521D01*
X192121628Y-76933897D01*
X192191127Y-76926704D01*
X192253481Y-76958226D01*
X192270201Y-76977521D01*
X192400437Y-77163517D01*
X192567531Y-77330611D01*
X192644067Y-77384202D01*
X192761097Y-77466148D01*
X192761099Y-77466149D01*
X192761102Y-77466151D01*
X192975269Y-77566019D01*
X193203524Y-77627179D01*
X193374251Y-77642116D01*
X193438931Y-77647775D01*
X193438932Y-77647775D01*
X193438933Y-77647775D01*
X193503613Y-77642116D01*
X193674340Y-77627179D01*
X193902595Y-77566019D01*
X194116762Y-77466151D01*
X194310333Y-77330611D01*
X194477427Y-77163517D01*
X194607662Y-76977521D01*
X194662239Y-76933897D01*
X194731737Y-76926703D01*
X194794092Y-76958226D01*
X194810811Y-76977521D01*
X194940822Y-77163194D01*
X195107849Y-77330221D01*
X195301353Y-77465716D01*
X195515439Y-77565545D01*
X195515448Y-77565549D01*
X195728932Y-77622750D01*
X195728932Y-76725128D01*
X195785939Y-76758041D01*
X195913106Y-76792116D01*
X196044758Y-76792116D01*
X196171925Y-76758041D01*
X196228932Y-76725128D01*
X196228932Y-77622749D01*
G37*
%TD.AperFunction*%
%TA.AperFunction,Conductor*%
G36*
X203848932Y-77622749D02*
G01*
X204062415Y-77565549D01*
X204062424Y-77565545D01*
X204276510Y-77465716D01*
X204470014Y-77330221D01*
X204637037Y-77163198D01*
X204767051Y-76977521D01*
X204821628Y-76933897D01*
X204891127Y-76926704D01*
X204953481Y-76958226D01*
X204970201Y-76977521D01*
X205100437Y-77163517D01*
X205267531Y-77330611D01*
X205344067Y-77384202D01*
X205461097Y-77466148D01*
X205461099Y-77466149D01*
X205461102Y-77466151D01*
X205675269Y-77566019D01*
X205903524Y-77627179D01*
X206074251Y-77642116D01*
X206138931Y-77647775D01*
X206138932Y-77647775D01*
X206138933Y-77647775D01*
X206203613Y-77642116D01*
X206374340Y-77627179D01*
X206602595Y-77566019D01*
X206816762Y-77466151D01*
X207010333Y-77330611D01*
X207177427Y-77163517D01*
X207307357Y-76977958D01*
X207361934Y-76934333D01*
X207431432Y-76927139D01*
X207493787Y-76958662D01*
X207510507Y-76977958D01*
X207640213Y-77163198D01*
X207640437Y-77163517D01*
X207807531Y-77330611D01*
X207884067Y-77384202D01*
X208001097Y-77466148D01*
X208001099Y-77466149D01*
X208001102Y-77466151D01*
X208215269Y-77566019D01*
X208443524Y-77627179D01*
X208592128Y-77640180D01*
X208657196Y-77665632D01*
X208698175Y-77722223D01*
X208702053Y-77791985D01*
X208669002Y-77851388D01*
X208565092Y-77955298D01*
X208503772Y-77988782D01*
X208477413Y-77991616D01*
X199492683Y-77991616D01*
X199425644Y-77971931D01*
X199405002Y-77955297D01*
X199130033Y-77680327D01*
X199096548Y-77619004D01*
X199101532Y-77549312D01*
X199143404Y-77493379D01*
X199165313Y-77480262D01*
X199196511Y-77465715D01*
X199390014Y-77330221D01*
X199557037Y-77163198D01*
X199687357Y-76977084D01*
X199741934Y-76933460D01*
X199811433Y-76926267D01*
X199873787Y-76957789D01*
X199890507Y-76977084D01*
X200020826Y-77163198D01*
X200187849Y-77330221D01*
X200381353Y-77465716D01*
X200595439Y-77565545D01*
X200595448Y-77565549D01*
X200808932Y-77622750D01*
X200808932Y-76725128D01*
X200865939Y-76758041D01*
X200993106Y-76792116D01*
X201124758Y-76792116D01*
X201251925Y-76758041D01*
X201308932Y-76725128D01*
X201308932Y-77622749D01*
X201522415Y-77565549D01*
X201522424Y-77565545D01*
X201736510Y-77465716D01*
X201930014Y-77330221D01*
X202097037Y-77163198D01*
X202227357Y-76977084D01*
X202281934Y-76933460D01*
X202351433Y-76926267D01*
X202413787Y-76957789D01*
X202430507Y-76977084D01*
X202560826Y-77163198D01*
X202727849Y-77330221D01*
X202921353Y-77465716D01*
X203135439Y-77565545D01*
X203135448Y-77565549D01*
X203348932Y-77622750D01*
X203348932Y-76725128D01*
X203405939Y-76758041D01*
X203533106Y-76792116D01*
X203664758Y-76792116D01*
X203791925Y-76758041D01*
X203848932Y-76725128D01*
X203848932Y-77622749D01*
G37*
%TD.AperFunction*%
%TA.AperFunction,Conductor*%
G36*
X196511471Y-76061801D02*
G01*
X196557226Y-76114605D01*
X196568432Y-76166116D01*
X196568432Y-76418116D01*
X196548747Y-76485155D01*
X196495943Y-76530910D01*
X196444432Y-76542116D01*
X196411944Y-76542116D01*
X196444857Y-76485109D01*
X196478932Y-76357942D01*
X196478932Y-76226290D01*
X196444857Y-76099123D01*
X196411944Y-76042116D01*
X196444432Y-76042116D01*
X196511471Y-76061801D01*
G37*
%TD.AperFunction*%
%TA.AperFunction,Conductor*%
G36*
X200593007Y-76099123D02*
G01*
X200558932Y-76226290D01*
X200558932Y-76357942D01*
X200593007Y-76485109D01*
X200625920Y-76542116D01*
X198951944Y-76542116D01*
X198984857Y-76485109D01*
X199018932Y-76357942D01*
X199018932Y-76226290D01*
X198984857Y-76099123D01*
X198951944Y-76042116D01*
X200625920Y-76042116D01*
X200593007Y-76099123D01*
G37*
%TD.AperFunction*%
%TA.AperFunction,Conductor*%
G36*
X203133007Y-76099123D02*
G01*
X203098932Y-76226290D01*
X203098932Y-76357942D01*
X203133007Y-76485109D01*
X203165920Y-76542116D01*
X201491944Y-76542116D01*
X201524857Y-76485109D01*
X201558932Y-76357942D01*
X201558932Y-76226290D01*
X201524857Y-76099123D01*
X201491944Y-76042116D01*
X203165920Y-76042116D01*
X203133007Y-76099123D01*
G37*
%TD.AperFunction*%
%TA.AperFunction,Conductor*%
G36*
X198053007Y-76099123D02*
G01*
X198018932Y-76226290D01*
X198018932Y-76357942D01*
X198053007Y-76485109D01*
X198084386Y-76539459D01*
X198026393Y-76522431D01*
X197980638Y-76469627D01*
X197969432Y-76418116D01*
X197969432Y-76166116D01*
X197989117Y-76099077D01*
X198041921Y-76053322D01*
X198084840Y-76043984D01*
X198053007Y-76099123D01*
G37*
%TD.AperFunction*%
%TA.AperFunction,Conductor*%
G36*
X205704452Y-74312301D02*
G01*
X205725094Y-74328935D01*
X206129001Y-74732842D01*
X206162486Y-74794165D01*
X206157502Y-74863857D01*
X206115630Y-74919790D01*
X206052128Y-74944051D01*
X205903528Y-74957052D01*
X205903518Y-74957054D01*
X205675276Y-75018210D01*
X205675267Y-75018214D01*
X205461103Y-75118080D01*
X205461101Y-75118081D01*
X205267529Y-75253621D01*
X205100440Y-75420710D01*
X204970201Y-75606711D01*
X204915624Y-75650335D01*
X204846125Y-75657528D01*
X204783771Y-75626006D01*
X204767051Y-75606710D01*
X204637045Y-75421042D01*
X204637040Y-75421036D01*
X204470014Y-75254010D01*
X204276510Y-75118515D01*
X204062424Y-75018686D01*
X204062418Y-75018683D01*
X203848932Y-74961480D01*
X203848932Y-75859104D01*
X203791925Y-75826191D01*
X203664758Y-75792116D01*
X203533106Y-75792116D01*
X203405939Y-75826191D01*
X203348932Y-75859104D01*
X203348932Y-74961480D01*
X203348931Y-74961480D01*
X203135445Y-75018683D01*
X203135439Y-75018686D01*
X202921354Y-75118515D01*
X202921352Y-75118516D01*
X202727858Y-75254002D01*
X202727852Y-75254007D01*
X202560823Y-75421036D01*
X202560822Y-75421038D01*
X202430507Y-75607147D01*
X202375930Y-75650771D01*
X202306431Y-75657964D01*
X202244077Y-75626442D01*
X202227357Y-75607147D01*
X202097041Y-75421038D01*
X202097040Y-75421036D01*
X201930014Y-75254010D01*
X201736510Y-75118515D01*
X201522424Y-75018686D01*
X201522418Y-75018683D01*
X201308932Y-74961480D01*
X201308932Y-75859104D01*
X201251925Y-75826191D01*
X201124758Y-75792116D01*
X200993106Y-75792116D01*
X200865939Y-75826191D01*
X200808932Y-75859104D01*
X200808932Y-74961480D01*
X200808931Y-74961480D01*
X200595445Y-75018683D01*
X200595439Y-75018686D01*
X200381354Y-75118515D01*
X200381352Y-75118516D01*
X200187858Y-75254002D01*
X200187852Y-75254007D01*
X200020823Y-75421036D01*
X200020822Y-75421038D01*
X199890507Y-75607147D01*
X199835930Y-75650771D01*
X199766431Y-75657964D01*
X199704077Y-75626442D01*
X199687357Y-75607147D01*
X199557041Y-75421038D01*
X199557040Y-75421036D01*
X199390014Y-75254010D01*
X199196510Y-75118515D01*
X198982424Y-75018686D01*
X198982418Y-75018683D01*
X198768932Y-74961480D01*
X198768932Y-75859104D01*
X198711925Y-75826191D01*
X198584758Y-75792116D01*
X198453106Y-75792116D01*
X198325939Y-75826191D01*
X198268932Y-75859104D01*
X198268932Y-74961480D01*
X198268931Y-74961480D01*
X198055445Y-75018683D01*
X198055439Y-75018686D01*
X197841351Y-75118517D01*
X197841085Y-75118704D01*
X197840947Y-75118750D01*
X197836659Y-75121226D01*
X197836161Y-75120364D01*
X197774879Y-75141031D01*
X197707112Y-75124019D01*
X197682282Y-75104809D01*
X197081770Y-74504297D01*
X197048285Y-74442974D01*
X197053269Y-74373282D01*
X197095141Y-74317349D01*
X197160605Y-74292932D01*
X197169451Y-74292616D01*
X205637413Y-74292616D01*
X205704452Y-74312301D01*
G37*
%TD.AperFunction*%
%TA.AperFunction,Conductor*%
G36*
X203275657Y-64963536D02*
G01*
X203334900Y-65066148D01*
X203418684Y-65149932D01*
X203521296Y-65209175D01*
X203606404Y-65231979D01*
X203038756Y-65799627D01*
X203156021Y-65872235D01*
X203156022Y-65872236D01*
X203364085Y-65952839D01*
X203583425Y-65993842D01*
X203806555Y-65993842D01*
X204025894Y-65952839D01*
X204233957Y-65872236D01*
X204233961Y-65872234D01*
X204351221Y-65799628D01*
X204351221Y-65799627D01*
X203783575Y-65231979D01*
X203868684Y-65209175D01*
X203971296Y-65149932D01*
X204055080Y-65066148D01*
X204114323Y-64963536D01*
X204137128Y-64878427D01*
X204706706Y-65448005D01*
X204723039Y-65426378D01*
X204723043Y-65426371D01*
X204822489Y-65226655D01*
X204822494Y-65226642D01*
X204845462Y-65145917D01*
X204882741Y-65086823D01*
X204946051Y-65057265D01*
X205015290Y-65066626D01*
X205068477Y-65111936D01*
X205083995Y-65145915D01*
X205107014Y-65226819D01*
X205107016Y-65226823D01*
X205206516Y-65426646D01*
X205341041Y-65604787D01*
X205494028Y-65744252D01*
X205530310Y-65803963D01*
X205534490Y-65835889D01*
X205534490Y-69686873D01*
X205514805Y-69753912D01*
X205481613Y-69788448D01*
X205328587Y-69895597D01*
X205161498Y-70062686D01*
X205031259Y-70248687D01*
X204976682Y-70292311D01*
X204907183Y-70299504D01*
X204844829Y-70267982D01*
X204828109Y-70248686D01*
X204698103Y-70063018D01*
X204698098Y-70063012D01*
X204531072Y-69895986D01*
X204337568Y-69760491D01*
X204123482Y-69660662D01*
X204123476Y-69660659D01*
X203909990Y-69603456D01*
X203909990Y-70501080D01*
X203852983Y-70468167D01*
X203725816Y-70434092D01*
X203594164Y-70434092D01*
X203466997Y-70468167D01*
X203409990Y-70501080D01*
X203409990Y-69603456D01*
X203409989Y-69603456D01*
X203196503Y-69660659D01*
X203196497Y-69660662D01*
X202982412Y-69760491D01*
X202982410Y-69760492D01*
X202788916Y-69895978D01*
X202788910Y-69895983D01*
X202621881Y-70063012D01*
X202621880Y-70063014D01*
X202491870Y-70248687D01*
X202437293Y-70292311D01*
X202367794Y-70299504D01*
X202305440Y-70267982D01*
X202288720Y-70248686D01*
X202158484Y-70062689D01*
X201991392Y-69895598D01*
X201991391Y-69895597D01*
X201927583Y-69850918D01*
X201908366Y-69837462D01*
X201864741Y-69782884D01*
X201855490Y-69735887D01*
X201855490Y-65835889D01*
X201875175Y-65768850D01*
X201895952Y-65744252D01*
X202048938Y-65604787D01*
X202048940Y-65604785D01*
X202183464Y-65426646D01*
X202282964Y-65226822D01*
X202305983Y-65145915D01*
X202343262Y-65086823D01*
X202406572Y-65057265D01*
X202475811Y-65066627D01*
X202528998Y-65111936D01*
X202544516Y-65145916D01*
X202567482Y-65226635D01*
X202567488Y-65226650D01*
X202666943Y-65426382D01*
X202683272Y-65448005D01*
X203252851Y-64878425D01*
X203275657Y-64963536D01*
G37*
%TD.AperFunction*%
%TA.AperFunction,Conductor*%
G36*
X186199990Y-34664725D02*
G01*
X186413473Y-34607525D01*
X186413482Y-34607521D01*
X186627568Y-34507692D01*
X186821072Y-34372197D01*
X186988095Y-34205174D01*
X187118109Y-34019497D01*
X187172686Y-33975873D01*
X187242185Y-33968680D01*
X187304539Y-34000202D01*
X187321259Y-34019497D01*
X187451495Y-34205493D01*
X187451496Y-34205494D01*
X187618587Y-34372586D01*
X187736613Y-34455228D01*
X187780238Y-34509805D01*
X187789490Y-34556803D01*
X187789490Y-38316137D01*
X187769805Y-38383176D01*
X187730770Y-38421563D01*
X187726004Y-38424513D01*
X187561041Y-38574896D01*
X187426516Y-38753037D01*
X187327016Y-38952860D01*
X187327014Y-38952864D01*
X187303995Y-39033768D01*
X187266715Y-39092861D01*
X187203406Y-39122418D01*
X187134166Y-39113056D01*
X187080980Y-39067746D01*
X187065462Y-39033767D01*
X187042493Y-38953038D01*
X187042491Y-38953033D01*
X186943036Y-38753300D01*
X186926706Y-38731678D01*
X186357128Y-39301256D01*
X186334323Y-39216148D01*
X186275080Y-39113536D01*
X186191296Y-39029752D01*
X186088684Y-38970509D01*
X186003574Y-38947703D01*
X186571222Y-38380055D01*
X186453956Y-38307447D01*
X186453955Y-38307446D01*
X186245894Y-38226844D01*
X186026555Y-38185842D01*
X185803425Y-38185842D01*
X185584085Y-38226844D01*
X185376024Y-38307446D01*
X185376018Y-38307449D01*
X185258757Y-38380054D01*
X185258756Y-38380055D01*
X185826405Y-38947703D01*
X185741296Y-38970509D01*
X185638684Y-39029752D01*
X185554900Y-39113536D01*
X185495657Y-39216148D01*
X185472851Y-39301257D01*
X184903272Y-38731678D01*
X184903271Y-38731678D01*
X184886943Y-38753300D01*
X184787488Y-38953033D01*
X184787483Y-38953046D01*
X184764516Y-39033768D01*
X184727237Y-39092861D01*
X184663927Y-39122418D01*
X184594687Y-39113056D01*
X184541501Y-39067746D01*
X184525984Y-39033767D01*
X184502966Y-38952866D01*
X184502963Y-38952860D01*
X184496481Y-38939842D01*
X184403464Y-38753038D01*
X184268940Y-38574899D01*
X184268938Y-38574896D01*
X184115952Y-38435431D01*
X184079670Y-38375720D01*
X184075490Y-38343794D01*
X184075490Y-34581311D01*
X184095175Y-34514272D01*
X184128367Y-34479736D01*
X184163368Y-34455228D01*
X184281391Y-34372587D01*
X184448485Y-34205493D01*
X184578720Y-34019497D01*
X184633297Y-33975873D01*
X184702795Y-33968679D01*
X184765150Y-34000202D01*
X184781869Y-34019497D01*
X184911880Y-34205170D01*
X185078907Y-34372197D01*
X185272411Y-34507692D01*
X185486497Y-34607521D01*
X185486506Y-34607525D01*
X185699990Y-34664726D01*
X185699990Y-33767104D01*
X185756997Y-33800017D01*
X185884164Y-33834092D01*
X186015816Y-33834092D01*
X186142983Y-33800017D01*
X186199990Y-33767104D01*
X186199990Y-34664725D01*
G37*
%TD.AperFunction*%
%TA.AperFunction,Conductor*%
G36*
X217967162Y-29292733D02*
G01*
X218359941Y-29309887D01*
X218370683Y-29310827D01*
X218757810Y-29361798D01*
X218768425Y-29363670D01*
X219149620Y-29448183D01*
X219160036Y-29450973D01*
X219532413Y-29568386D01*
X219542579Y-29572086D01*
X219903293Y-29721502D01*
X219913096Y-29726074D01*
X220259405Y-29906352D01*
X220268773Y-29911761D01*
X220598042Y-30121529D01*
X220606904Y-30127733D01*
X220916661Y-30365419D01*
X220924947Y-30372372D01*
X221212799Y-30636139D01*
X221220448Y-30643788D01*
X221484216Y-30931638D01*
X221491170Y-30939925D01*
X221728852Y-31249677D01*
X221735056Y-31258538D01*
X221944830Y-31587812D01*
X221950239Y-31597180D01*
X222130508Y-31943468D01*
X222130521Y-31943492D01*
X222135090Y-31953290D01*
X222171130Y-32040296D01*
X222284510Y-32314013D01*
X222288209Y-32324178D01*
X222405614Y-32696523D01*
X222408414Y-32706972D01*
X222492922Y-33088139D01*
X222494801Y-33098792D01*
X222545768Y-33485881D01*
X222546711Y-33496657D01*
X222563848Y-33889008D01*
X222563966Y-33894419D01*
X222563966Y-93889408D01*
X222563848Y-93894817D01*
X222546698Y-94287577D01*
X222545755Y-94298354D01*
X222494794Y-94685432D01*
X222492916Y-94696085D01*
X222408409Y-95077262D01*
X222405609Y-95087711D01*
X222288205Y-95460065D01*
X222284505Y-95470230D01*
X222135094Y-95830936D01*
X222130522Y-95840740D01*
X221950245Y-96187046D01*
X221944836Y-96196415D01*
X221735056Y-96525700D01*
X221728851Y-96534561D01*
X221491180Y-96844297D01*
X221484227Y-96852584D01*
X221220454Y-97140438D01*
X221212805Y-97148087D01*
X220924949Y-97411856D01*
X220916662Y-97418809D01*
X220606924Y-97656477D01*
X220598062Y-97662682D01*
X220268775Y-97872458D01*
X220259407Y-97877867D01*
X219913090Y-98058146D01*
X219903286Y-98062717D01*
X219542588Y-98212120D01*
X219532423Y-98215820D01*
X219160068Y-98333221D01*
X219149619Y-98336021D01*
X218768440Y-98420524D01*
X218757786Y-98422402D01*
X218370710Y-98473358D01*
X218359934Y-98474301D01*
X217966020Y-98491498D01*
X217960612Y-98491616D01*
X172967165Y-98491616D01*
X172961758Y-98491498D01*
X172949997Y-98490984D01*
X172568992Y-98474353D01*
X172558216Y-98473410D01*
X172202934Y-98426641D01*
X172171132Y-98422454D01*
X172160484Y-98420577D01*
X171779300Y-98336074D01*
X171768853Y-98333275D01*
X171396499Y-98215876D01*
X171386333Y-98212176D01*
X171025626Y-98062768D01*
X171015821Y-98058196D01*
X170669512Y-97877920D01*
X170660144Y-97872512D01*
X170330851Y-97662731D01*
X170321990Y-97656526D01*
X170012244Y-97418850D01*
X170003957Y-97411896D01*
X169716113Y-97148135D01*
X169708469Y-97140492D01*
X169586285Y-97007151D01*
X169444687Y-96852622D01*
X169437734Y-96844335D01*
X169295464Y-96658925D01*
X169200055Y-96534585D01*
X169193858Y-96525734D01*
X168984081Y-96196445D01*
X168978672Y-96187077D01*
X168978656Y-96187046D01*
X168798391Y-95840753D01*
X168793833Y-95830979D01*
X168644408Y-95470227D01*
X168640720Y-95460089D01*
X168523320Y-95087730D01*
X168520520Y-95077281D01*
X168499424Y-94982115D01*
X171858807Y-94982115D01*
X171858807Y-94982116D01*
X171879402Y-95217519D01*
X171879404Y-95217529D01*
X171940560Y-95445771D01*
X171940562Y-95445775D01*
X171940563Y-95445779D01*
X171951965Y-95470230D01*
X172040431Y-95659946D01*
X172040433Y-95659950D01*
X172148747Y-95814637D01*
X172175971Y-95853517D01*
X172343065Y-96020611D01*
X172439850Y-96088381D01*
X172536631Y-96156148D01*
X172536633Y-96156149D01*
X172536636Y-96156151D01*
X172750803Y-96256019D01*
X172979058Y-96317179D01*
X173167384Y-96333655D01*
X173214465Y-96337775D01*
X173214466Y-96337775D01*
X173214467Y-96337775D01*
X173253700Y-96334342D01*
X173449874Y-96317179D01*
X173678129Y-96256019D01*
X173892296Y-96156151D01*
X174085867Y-96020611D01*
X174252961Y-95853517D01*
X174388501Y-95659946D01*
X174488369Y-95445779D01*
X174549529Y-95217524D01*
X174570125Y-94982116D01*
X174549529Y-94746708D01*
X174488369Y-94518453D01*
X174388501Y-94304287D01*
X174380587Y-94292985D01*
X174252962Y-94110716D01*
X174252961Y-94110715D01*
X174130645Y-93988399D01*
X174097162Y-93927079D01*
X174102146Y-93857387D01*
X174144017Y-93801453D01*
X174174995Y-93784538D01*
X174306552Y-93735470D01*
X174306559Y-93735466D01*
X174421653Y-93649306D01*
X174421656Y-93649303D01*
X174507816Y-93534209D01*
X174507820Y-93534202D01*
X174558062Y-93399495D01*
X174558064Y-93399488D01*
X174564465Y-93339960D01*
X174564466Y-93339943D01*
X174564466Y-92692116D01*
X173647478Y-92692116D01*
X173680391Y-92635109D01*
X173714466Y-92507942D01*
X173714466Y-92376290D01*
X173680391Y-92249123D01*
X173647478Y-92192116D01*
X174564466Y-92192116D01*
X174564466Y-91822115D01*
X179148296Y-91822115D01*
X179148296Y-91822116D01*
X180045920Y-91822116D01*
X180013007Y-91879123D01*
X179978932Y-92006290D01*
X179978932Y-92137942D01*
X180013007Y-92265109D01*
X180045920Y-92322116D01*
X179148296Y-92322116D01*
X179205499Y-92535602D01*
X179205502Y-92535608D01*
X179305331Y-92749694D01*
X179440826Y-92943198D01*
X179607849Y-93110221D01*
X179801353Y-93245716D01*
X180015439Y-93345545D01*
X180015448Y-93345549D01*
X180228932Y-93402750D01*
X180228932Y-92505128D01*
X180285939Y-92538041D01*
X180413106Y-92572116D01*
X180544758Y-92572116D01*
X180671925Y-92538041D01*
X180728932Y-92505128D01*
X180728932Y-93402749D01*
X180942415Y-93345549D01*
X180942424Y-93345545D01*
X181156510Y-93245716D01*
X181350014Y-93110221D01*
X181517037Y-92943198D01*
X181652532Y-92749694D01*
X181752361Y-92535608D01*
X181752364Y-92535602D01*
X181809568Y-92322116D01*
X180911944Y-92322116D01*
X180944857Y-92265109D01*
X180978932Y-92137942D01*
X180978932Y-92006290D01*
X180944857Y-91879123D01*
X180911944Y-91822116D01*
X181809568Y-91822116D01*
X181809567Y-91822115D01*
X181752364Y-91608629D01*
X181752361Y-91608623D01*
X181652532Y-91394538D01*
X181652531Y-91394536D01*
X181517045Y-91201042D01*
X181517040Y-91201036D01*
X181350014Y-91034010D01*
X181156510Y-90898515D01*
X180942424Y-90798686D01*
X180942418Y-90798683D01*
X180728932Y-90741480D01*
X180728932Y-91639104D01*
X180671925Y-91606191D01*
X180544758Y-91572116D01*
X180413106Y-91572116D01*
X180285939Y-91606191D01*
X180228932Y-91639104D01*
X180228932Y-90741480D01*
X180228931Y-90741480D01*
X180015445Y-90798683D01*
X180015439Y-90798686D01*
X179801354Y-90898515D01*
X179801352Y-90898516D01*
X179607858Y-91034002D01*
X179607852Y-91034007D01*
X179440823Y-91201036D01*
X179440818Y-91201042D01*
X179305332Y-91394536D01*
X179305331Y-91394538D01*
X179205502Y-91608623D01*
X179205499Y-91608629D01*
X179148296Y-91822115D01*
X174564466Y-91822115D01*
X174564466Y-91544288D01*
X174564465Y-91544271D01*
X174558064Y-91484743D01*
X174558062Y-91484736D01*
X174507820Y-91350029D01*
X174507816Y-91350022D01*
X174421656Y-91234928D01*
X174421653Y-91234925D01*
X174306559Y-91148765D01*
X174306552Y-91148761D01*
X174171845Y-91098519D01*
X174171838Y-91098517D01*
X174112310Y-91092116D01*
X173464466Y-91092116D01*
X173464466Y-92009104D01*
X173407459Y-91976191D01*
X173280292Y-91942116D01*
X173148640Y-91942116D01*
X173021473Y-91976191D01*
X172964466Y-92009104D01*
X172964466Y-91092116D01*
X172316621Y-91092116D01*
X172257093Y-91098517D01*
X172257086Y-91098519D01*
X172122379Y-91148761D01*
X172122372Y-91148765D01*
X172007278Y-91234925D01*
X172007275Y-91234928D01*
X171921115Y-91350022D01*
X171921111Y-91350029D01*
X171870869Y-91484736D01*
X171870867Y-91484743D01*
X171864466Y-91544271D01*
X171864466Y-92192116D01*
X172781454Y-92192116D01*
X172748541Y-92249123D01*
X172714466Y-92376290D01*
X172714466Y-92507942D01*
X172748541Y-92635109D01*
X172781454Y-92692116D01*
X171864466Y-92692116D01*
X171864466Y-93339960D01*
X171870867Y-93399488D01*
X171870869Y-93399495D01*
X171921111Y-93534202D01*
X171921115Y-93534209D01*
X172007275Y-93649303D01*
X172007278Y-93649306D01*
X172122372Y-93735466D01*
X172122379Y-93735470D01*
X172253936Y-93784537D01*
X172309869Y-93826408D01*
X172334287Y-93891872D01*
X172319436Y-93960145D01*
X172298285Y-93988400D01*
X172175969Y-94110716D01*
X172040431Y-94304285D01*
X172040430Y-94304287D01*
X171940564Y-94518451D01*
X171940560Y-94518460D01*
X171879404Y-94746702D01*
X171879402Y-94746712D01*
X171858807Y-94982115D01*
X168499424Y-94982115D01*
X168436020Y-94696101D01*
X168434142Y-94685448D01*
X168383187Y-94298367D01*
X168382244Y-94287590D01*
X168367285Y-93944843D01*
X168365083Y-93894409D01*
X168364966Y-93889010D01*
X168364967Y-93834540D01*
X168364966Y-93834536D01*
X168364966Y-83555578D01*
X169978431Y-83555578D01*
X170005350Y-83690904D01*
X170005353Y-83690914D01*
X170058154Y-83818389D01*
X170134819Y-83933127D01*
X170134820Y-83933128D01*
X171851814Y-85650121D01*
X171885299Y-85711444D01*
X171883908Y-85769894D01*
X171879405Y-85786700D01*
X171879402Y-85786713D01*
X171858807Y-86022115D01*
X171858807Y-86022116D01*
X171879402Y-86257519D01*
X171879404Y-86257529D01*
X171940560Y-86485771D01*
X171940562Y-86485775D01*
X171940563Y-86485779D01*
X171960466Y-86528460D01*
X172040431Y-86699946D01*
X172040433Y-86699950D01*
X172080172Y-86756702D01*
X172175967Y-86893512D01*
X172175972Y-86893518D01*
X172298284Y-87015830D01*
X172331769Y-87077153D01*
X172326785Y-87146845D01*
X172284913Y-87202778D01*
X172253937Y-87219693D01*
X172122378Y-87268762D01*
X172122372Y-87268765D01*
X172007278Y-87354925D01*
X172007275Y-87354928D01*
X171921115Y-87470022D01*
X171921111Y-87470029D01*
X171870869Y-87604736D01*
X171870867Y-87604743D01*
X171864466Y-87664271D01*
X171864466Y-88312116D01*
X172781454Y-88312116D01*
X172748541Y-88369123D01*
X172714466Y-88496290D01*
X172714466Y-88627942D01*
X172748541Y-88755109D01*
X172781454Y-88812116D01*
X171864466Y-88812116D01*
X171864466Y-89459960D01*
X171870867Y-89519488D01*
X171870869Y-89519495D01*
X171921111Y-89654202D01*
X171921115Y-89654209D01*
X172007275Y-89769303D01*
X172007278Y-89769306D01*
X172122372Y-89855466D01*
X172122379Y-89855470D01*
X172257086Y-89905712D01*
X172257093Y-89905714D01*
X172316621Y-89912115D01*
X172316638Y-89912116D01*
X172964466Y-89912116D01*
X172964466Y-88995128D01*
X173021473Y-89028041D01*
X173148640Y-89062116D01*
X173280292Y-89062116D01*
X173407459Y-89028041D01*
X173464466Y-88995128D01*
X173464466Y-89912116D01*
X174112294Y-89912116D01*
X174112310Y-89912115D01*
X174171838Y-89905714D01*
X174171845Y-89905712D01*
X174306552Y-89855470D01*
X174306559Y-89855466D01*
X174421653Y-89769306D01*
X174421656Y-89769303D01*
X174507816Y-89654209D01*
X174507820Y-89654202D01*
X174553355Y-89532115D01*
X181663273Y-89532115D01*
X181663273Y-89532116D01*
X181683868Y-89767519D01*
X181683870Y-89767529D01*
X181745026Y-89995771D01*
X181745028Y-89995775D01*
X181745029Y-89995779D01*
X181844897Y-90209946D01*
X181844899Y-90209950D01*
X181953213Y-90364637D01*
X181980437Y-90403517D01*
X182147531Y-90570611D01*
X182244316Y-90638381D01*
X182341097Y-90706148D01*
X182341099Y-90706149D01*
X182341102Y-90706151D01*
X182555269Y-90806019D01*
X182783524Y-90867179D01*
X182971850Y-90883655D01*
X183018931Y-90887775D01*
X183018932Y-90887775D01*
X183018933Y-90887775D01*
X183058166Y-90884342D01*
X183254340Y-90867179D01*
X183482595Y-90806019D01*
X183696762Y-90706151D01*
X183890333Y-90570611D01*
X184057427Y-90403517D01*
X184192967Y-90209946D01*
X184292835Y-89995779D01*
X184353995Y-89767524D01*
X184374591Y-89532116D01*
X184353995Y-89296708D01*
X184292835Y-89068453D01*
X184192967Y-88854287D01*
X184123523Y-88755109D01*
X184057426Y-88660713D01*
X183890334Y-88493622D01*
X183890327Y-88493617D01*
X183696766Y-88358083D01*
X183696762Y-88358081D01*
X183674661Y-88347775D01*
X183482595Y-88258213D01*
X183482591Y-88258212D01*
X183482587Y-88258210D01*
X183254345Y-88197054D01*
X183254335Y-88197052D01*
X183018933Y-88176457D01*
X183018931Y-88176457D01*
X182783528Y-88197052D01*
X182783518Y-88197054D01*
X182555276Y-88258210D01*
X182555267Y-88258214D01*
X182341103Y-88358080D01*
X182341101Y-88358081D01*
X182147529Y-88493621D01*
X181980437Y-88660713D01*
X181844897Y-88854285D01*
X181844896Y-88854287D01*
X181745030Y-89068451D01*
X181745026Y-89068460D01*
X181683870Y-89296702D01*
X181683868Y-89296712D01*
X181663273Y-89532115D01*
X174553355Y-89532115D01*
X174558062Y-89519495D01*
X174558064Y-89519488D01*
X174564465Y-89459960D01*
X174564466Y-89459943D01*
X174564466Y-88812116D01*
X173647478Y-88812116D01*
X173680391Y-88755109D01*
X173714466Y-88627942D01*
X173714466Y-88496290D01*
X173680391Y-88369123D01*
X173647478Y-88312116D01*
X174564466Y-88312116D01*
X174564466Y-87664288D01*
X174564465Y-87664271D01*
X174558064Y-87604743D01*
X174558062Y-87604736D01*
X174507820Y-87470029D01*
X174507816Y-87470022D01*
X174421656Y-87354928D01*
X174421653Y-87354925D01*
X174306559Y-87268765D01*
X174306554Y-87268762D01*
X174174994Y-87219693D01*
X174119061Y-87177821D01*
X174094644Y-87112357D01*
X174109496Y-87044084D01*
X174130641Y-87015836D01*
X174154362Y-86992115D01*
X179123273Y-86992115D01*
X179123273Y-86992116D01*
X179143868Y-87227519D01*
X179143870Y-87227529D01*
X179205026Y-87455771D01*
X179205028Y-87455775D01*
X179205029Y-87455779D01*
X179211671Y-87470022D01*
X179304897Y-87669946D01*
X179304899Y-87669950D01*
X179413213Y-87824637D01*
X179440437Y-87863517D01*
X179607531Y-88030611D01*
X179652525Y-88062116D01*
X179801097Y-88166148D01*
X179801099Y-88166149D01*
X179801102Y-88166151D01*
X180015269Y-88266019D01*
X180243524Y-88327179D01*
X180431850Y-88343655D01*
X180478931Y-88347775D01*
X180478932Y-88347775D01*
X180478933Y-88347775D01*
X180518166Y-88344342D01*
X180714340Y-88327179D01*
X180942595Y-88266019D01*
X181156762Y-88166151D01*
X181350333Y-88030611D01*
X181517427Y-87863517D01*
X181652967Y-87669946D01*
X181752835Y-87455779D01*
X181813995Y-87227524D01*
X181834591Y-86992116D01*
X181813995Y-86756708D01*
X181752835Y-86528453D01*
X181652967Y-86314287D01*
X181613222Y-86257524D01*
X181517426Y-86120713D01*
X181350334Y-85953622D01*
X181350327Y-85953617D01*
X181156766Y-85818083D01*
X181156762Y-85818081D01*
X181089491Y-85786712D01*
X180942595Y-85718213D01*
X180942591Y-85718212D01*
X180942587Y-85718210D01*
X180714345Y-85657054D01*
X180714335Y-85657052D01*
X180478933Y-85636457D01*
X180478931Y-85636457D01*
X180243528Y-85657052D01*
X180243518Y-85657054D01*
X180015276Y-85718210D01*
X180015267Y-85718214D01*
X179801103Y-85818080D01*
X179801101Y-85818081D01*
X179607529Y-85953621D01*
X179440437Y-86120713D01*
X179304897Y-86314285D01*
X179304896Y-86314287D01*
X179205030Y-86528451D01*
X179205026Y-86528460D01*
X179143870Y-86756702D01*
X179143868Y-86756712D01*
X179123273Y-86992115D01*
X174154362Y-86992115D01*
X174252961Y-86893517D01*
X174388501Y-86699946D01*
X174488369Y-86485779D01*
X174549529Y-86257524D01*
X174570125Y-86022116D01*
X174549529Y-85786708D01*
X174488369Y-85558453D01*
X174388501Y-85344287D01*
X174252961Y-85150715D01*
X174252960Y-85150713D01*
X174085868Y-84983622D01*
X174085862Y-84983617D01*
X173900308Y-84853691D01*
X173856683Y-84799114D01*
X173849489Y-84729616D01*
X173881012Y-84667261D01*
X173900308Y-84650541D01*
X173922492Y-84635007D01*
X174085867Y-84520611D01*
X174252961Y-84353517D01*
X174388501Y-84159946D01*
X174488369Y-83945779D01*
X174549529Y-83717524D01*
X174570125Y-83482116D01*
X174549529Y-83246708D01*
X174488369Y-83018453D01*
X174388501Y-82804287D01*
X174271884Y-82637739D01*
X174252960Y-82610713D01*
X174085868Y-82443622D01*
X174085862Y-82443617D01*
X173900308Y-82313691D01*
X173856683Y-82259114D01*
X173849489Y-82189616D01*
X173881012Y-82127261D01*
X173900308Y-82110541D01*
X173922492Y-82095007D01*
X174085867Y-81980611D01*
X174252961Y-81813517D01*
X174388501Y-81619946D01*
X174488369Y-81405779D01*
X174549529Y-81177524D01*
X174570125Y-80942116D01*
X174549529Y-80706708D01*
X174488369Y-80478453D01*
X174388501Y-80264287D01*
X174252961Y-80070715D01*
X174252960Y-80070713D01*
X174085868Y-79903622D01*
X174085861Y-79903617D01*
X173892300Y-79768083D01*
X173892296Y-79768081D01*
X173892294Y-79768080D01*
X173678129Y-79668213D01*
X173678125Y-79668212D01*
X173678121Y-79668210D01*
X173449879Y-79607054D01*
X173449869Y-79607052D01*
X173214467Y-79586457D01*
X173214465Y-79586457D01*
X172979062Y-79607052D01*
X172979052Y-79607054D01*
X172750810Y-79668210D01*
X172750801Y-79668214D01*
X172536637Y-79768080D01*
X172536635Y-79768081D01*
X172374555Y-79881571D01*
X172308349Y-79903898D01*
X172240582Y-79886888D01*
X172192769Y-79835940D01*
X172179432Y-79779996D01*
X172179432Y-72120352D01*
X172199117Y-72053313D01*
X172251921Y-72007558D01*
X172321079Y-71997614D01*
X172374553Y-72018776D01*
X172502160Y-72108127D01*
X172716327Y-72207995D01*
X172716333Y-72207996D01*
X172716334Y-72207997D01*
X172771275Y-72222718D01*
X172944582Y-72269155D01*
X173115309Y-72284092D01*
X173179989Y-72289751D01*
X173179990Y-72289751D01*
X173179991Y-72289751D01*
X173244671Y-72284092D01*
X173415398Y-72269155D01*
X173643653Y-72207995D01*
X173857820Y-72108127D01*
X174051391Y-71972587D01*
X174218485Y-71805493D01*
X174348415Y-71619934D01*
X174402992Y-71576309D01*
X174472490Y-71569115D01*
X174534845Y-71600638D01*
X174551565Y-71619934D01*
X174681495Y-71805493D01*
X174848589Y-71972587D01*
X174898533Y-72007558D01*
X175042155Y-72108124D01*
X175042157Y-72108125D01*
X175042160Y-72108127D01*
X175256327Y-72207995D01*
X175256333Y-72207996D01*
X175256334Y-72207997D01*
X175311275Y-72222718D01*
X175484582Y-72269155D01*
X175655309Y-72284092D01*
X175719989Y-72289751D01*
X175719990Y-72289751D01*
X175719991Y-72289751D01*
X175784671Y-72284092D01*
X175955398Y-72269155D01*
X176183653Y-72207995D01*
X176397820Y-72108127D01*
X176591391Y-71972587D01*
X176758485Y-71805493D01*
X176888415Y-71619934D01*
X176942992Y-71576309D01*
X177012490Y-71569115D01*
X177074845Y-71600638D01*
X177091565Y-71619934D01*
X177221495Y-71805493D01*
X177388589Y-71972587D01*
X177438533Y-72007558D01*
X177582155Y-72108124D01*
X177582157Y-72108125D01*
X177582160Y-72108127D01*
X177796327Y-72207995D01*
X177796333Y-72207996D01*
X177796334Y-72207997D01*
X177851275Y-72222718D01*
X178024582Y-72269155D01*
X178195309Y-72284092D01*
X178259989Y-72289751D01*
X178259990Y-72289751D01*
X178259991Y-72289751D01*
X178324671Y-72284092D01*
X178495398Y-72269155D01*
X178723653Y-72207995D01*
X178937820Y-72108127D01*
X179131391Y-71972587D01*
X179298485Y-71805493D01*
X179428415Y-71619934D01*
X179482992Y-71576309D01*
X179552490Y-71569115D01*
X179614845Y-71600638D01*
X179631565Y-71619934D01*
X179761495Y-71805493D01*
X179928589Y-71972587D01*
X179978533Y-72007558D01*
X180122155Y-72108124D01*
X180122157Y-72108125D01*
X180122160Y-72108127D01*
X180336327Y-72207995D01*
X180336333Y-72207996D01*
X180336334Y-72207997D01*
X180391275Y-72222718D01*
X180564582Y-72269155D01*
X180735309Y-72284092D01*
X180799989Y-72289751D01*
X180799990Y-72289751D01*
X180799991Y-72289751D01*
X180864671Y-72284092D01*
X181035398Y-72269155D01*
X181263653Y-72207995D01*
X181477820Y-72108127D01*
X181671391Y-71972587D01*
X181838485Y-71805493D01*
X181968415Y-71619934D01*
X182022992Y-71576309D01*
X182092490Y-71569115D01*
X182154845Y-71600638D01*
X182171565Y-71619934D01*
X182301495Y-71805493D01*
X182468589Y-71972587D01*
X182518533Y-72007558D01*
X182662155Y-72108124D01*
X182662157Y-72108125D01*
X182662160Y-72108127D01*
X182876327Y-72207995D01*
X182876333Y-72207996D01*
X182876334Y-72207997D01*
X182931275Y-72222718D01*
X183104582Y-72269155D01*
X183275309Y-72284092D01*
X183339989Y-72289751D01*
X183339990Y-72289751D01*
X183339991Y-72289751D01*
X183404671Y-72284092D01*
X183575398Y-72269155D01*
X183803653Y-72207995D01*
X184017820Y-72108127D01*
X184211391Y-71972587D01*
X184378485Y-71805493D01*
X184508415Y-71619934D01*
X184562992Y-71576309D01*
X184632490Y-71569115D01*
X184694845Y-71600638D01*
X184711565Y-71619934D01*
X184841495Y-71805493D01*
X185008589Y-71972587D01*
X185058533Y-72007558D01*
X185202155Y-72108124D01*
X185202157Y-72108125D01*
X185202160Y-72108127D01*
X185416327Y-72207995D01*
X185416333Y-72207996D01*
X185416334Y-72207997D01*
X185471275Y-72222718D01*
X185644582Y-72269155D01*
X185815309Y-72284092D01*
X185879989Y-72289751D01*
X185879990Y-72289751D01*
X185879991Y-72289751D01*
X185944671Y-72284092D01*
X186115398Y-72269155D01*
X186343653Y-72207995D01*
X186557820Y-72108127D01*
X186751391Y-71972587D01*
X186918485Y-71805493D01*
X187048415Y-71619934D01*
X187102992Y-71576309D01*
X187172490Y-71569115D01*
X187234845Y-71600638D01*
X187251565Y-71619934D01*
X187381495Y-71805493D01*
X187548589Y-71972587D01*
X187598533Y-72007558D01*
X187742155Y-72108124D01*
X187742157Y-72108125D01*
X187742160Y-72108127D01*
X187956327Y-72207995D01*
X187956333Y-72207996D01*
X187956334Y-72207997D01*
X188011275Y-72222718D01*
X188184582Y-72269155D01*
X188355309Y-72284092D01*
X188419989Y-72289751D01*
X188419990Y-72289751D01*
X188419991Y-72289751D01*
X188484671Y-72284092D01*
X188655398Y-72269155D01*
X188883653Y-72207995D01*
X189097820Y-72108127D01*
X189291391Y-71972587D01*
X189458485Y-71805493D01*
X189588415Y-71619934D01*
X189642992Y-71576309D01*
X189712490Y-71569115D01*
X189774845Y-71600638D01*
X189791565Y-71619934D01*
X189921495Y-71805493D01*
X190088589Y-71972587D01*
X190138533Y-72007558D01*
X190282155Y-72108124D01*
X190282157Y-72108125D01*
X190282160Y-72108127D01*
X190496327Y-72207995D01*
X190496333Y-72207996D01*
X190496334Y-72207997D01*
X190551275Y-72222718D01*
X190724582Y-72269155D01*
X190895309Y-72284092D01*
X190959989Y-72289751D01*
X190959990Y-72289751D01*
X190959991Y-72289751D01*
X191024671Y-72284092D01*
X191195398Y-72269155D01*
X191212206Y-72264651D01*
X191282054Y-72266310D01*
X191331984Y-72296743D01*
X191763443Y-72728203D01*
X191763444Y-72728204D01*
X191878182Y-72804869D01*
X191982314Y-72848001D01*
X192005662Y-72857672D01*
X192005666Y-72857672D01*
X192005667Y-72857673D01*
X192140993Y-72884592D01*
X192140996Y-72884592D01*
X192140997Y-72884592D01*
X193429389Y-72884592D01*
X193496428Y-72904277D01*
X193517070Y-72920911D01*
X195458010Y-74861851D01*
X195491495Y-74923174D01*
X195486511Y-74992866D01*
X195444639Y-75048799D01*
X195422735Y-75061914D01*
X195301351Y-75118517D01*
X195107858Y-75254002D01*
X195107852Y-75254007D01*
X194940823Y-75421036D01*
X194940822Y-75421038D01*
X194810812Y-75606711D01*
X194756235Y-75650335D01*
X194686736Y-75657528D01*
X194624382Y-75626006D01*
X194607662Y-75606710D01*
X194477426Y-75420713D01*
X194310334Y-75253622D01*
X194310327Y-75253617D01*
X194116766Y-75118083D01*
X194116762Y-75118081D01*
X194045659Y-75084925D01*
X193902595Y-75018213D01*
X193902591Y-75018212D01*
X193902587Y-75018210D01*
X193674345Y-74957054D01*
X193674335Y-74957052D01*
X193438933Y-74936457D01*
X193438931Y-74936457D01*
X193203528Y-74957052D01*
X193203518Y-74957054D01*
X192975276Y-75018210D01*
X192975267Y-75018214D01*
X192761103Y-75118080D01*
X192761101Y-75118081D01*
X192567529Y-75253621D01*
X192400440Y-75420710D01*
X192270201Y-75606711D01*
X192215624Y-75650335D01*
X192146125Y-75657528D01*
X192083771Y-75626006D01*
X192067051Y-75606710D01*
X191937045Y-75421042D01*
X191937040Y-75421036D01*
X191770014Y-75254010D01*
X191576510Y-75118515D01*
X191362424Y-75018686D01*
X191362418Y-75018683D01*
X191148932Y-74961480D01*
X191148932Y-75859104D01*
X191091925Y-75826191D01*
X190964758Y-75792116D01*
X190833106Y-75792116D01*
X190705939Y-75826191D01*
X190648932Y-75859104D01*
X190648932Y-74961480D01*
X190648931Y-74961480D01*
X190435445Y-75018683D01*
X190435439Y-75018686D01*
X190221354Y-75118515D01*
X190221352Y-75118516D01*
X190027858Y-75254002D01*
X190027852Y-75254007D01*
X189860823Y-75421036D01*
X189860822Y-75421038D01*
X189730812Y-75606711D01*
X189676235Y-75650335D01*
X189606736Y-75657528D01*
X189544382Y-75626006D01*
X189527662Y-75606710D01*
X189397426Y-75420713D01*
X189230334Y-75253622D01*
X189230327Y-75253617D01*
X189036766Y-75118083D01*
X189036762Y-75118081D01*
X188965659Y-75084925D01*
X188822595Y-75018213D01*
X188822591Y-75018212D01*
X188822587Y-75018210D01*
X188594345Y-74957054D01*
X188594335Y-74957052D01*
X188358933Y-74936457D01*
X188358931Y-74936457D01*
X188123528Y-74957052D01*
X188123518Y-74957054D01*
X187895276Y-75018210D01*
X187895267Y-75018214D01*
X187681103Y-75118080D01*
X187681101Y-75118081D01*
X187487529Y-75253621D01*
X187320437Y-75420713D01*
X187190507Y-75606274D01*
X187135930Y-75649899D01*
X187066432Y-75657093D01*
X187004077Y-75625570D01*
X186987357Y-75606274D01*
X186857426Y-75420713D01*
X186690334Y-75253622D01*
X186690327Y-75253617D01*
X186496766Y-75118083D01*
X186496762Y-75118081D01*
X186425659Y-75084925D01*
X186282595Y-75018213D01*
X186282591Y-75018212D01*
X186282587Y-75018210D01*
X186054345Y-74957054D01*
X186054335Y-74957052D01*
X185818933Y-74936457D01*
X185818931Y-74936457D01*
X185583528Y-74957052D01*
X185583518Y-74957054D01*
X185355276Y-75018210D01*
X185355267Y-75018214D01*
X185141103Y-75118080D01*
X185141101Y-75118081D01*
X184947529Y-75253621D01*
X184780437Y-75420713D01*
X184650507Y-75606274D01*
X184595930Y-75649899D01*
X184526432Y-75657093D01*
X184464077Y-75625570D01*
X184447357Y-75606274D01*
X184317426Y-75420713D01*
X184150334Y-75253622D01*
X184150327Y-75253617D01*
X183956766Y-75118083D01*
X183956762Y-75118081D01*
X183885659Y-75084925D01*
X183742595Y-75018213D01*
X183742591Y-75018212D01*
X183742587Y-75018210D01*
X183514345Y-74957054D01*
X183514335Y-74957052D01*
X183278933Y-74936457D01*
X183278931Y-74936457D01*
X183043528Y-74957052D01*
X183043518Y-74957054D01*
X182815276Y-75018210D01*
X182815267Y-75018214D01*
X182601103Y-75118080D01*
X182601101Y-75118081D01*
X182407532Y-75253619D01*
X182285216Y-75375935D01*
X182223893Y-75409419D01*
X182154201Y-75404435D01*
X182098268Y-75362563D01*
X182081353Y-75331586D01*
X182032286Y-75200029D01*
X182032282Y-75200022D01*
X181946122Y-75084928D01*
X181946119Y-75084925D01*
X181831025Y-74998765D01*
X181831018Y-74998761D01*
X181696311Y-74948519D01*
X181696304Y-74948517D01*
X181636776Y-74942116D01*
X180988932Y-74942116D01*
X180988932Y-75859104D01*
X180931925Y-75826191D01*
X180804758Y-75792116D01*
X180673106Y-75792116D01*
X180545939Y-75826191D01*
X180488932Y-75859104D01*
X180488932Y-74942116D01*
X179841087Y-74942116D01*
X179781559Y-74948517D01*
X179781552Y-74948519D01*
X179646845Y-74998761D01*
X179646838Y-74998765D01*
X179531744Y-75084925D01*
X179531741Y-75084928D01*
X179445581Y-75200022D01*
X179445577Y-75200029D01*
X179395335Y-75334736D01*
X179395333Y-75334743D01*
X179388932Y-75394271D01*
X179388932Y-76042116D01*
X180305920Y-76042116D01*
X180273007Y-76099123D01*
X180238932Y-76226290D01*
X180238932Y-76357942D01*
X180273007Y-76485109D01*
X180305920Y-76542116D01*
X179388932Y-76542116D01*
X179388932Y-77189960D01*
X179395333Y-77249488D01*
X179395335Y-77249495D01*
X179445577Y-77384202D01*
X179445581Y-77384209D01*
X179531741Y-77499303D01*
X179531744Y-77499306D01*
X179646838Y-77585466D01*
X179646845Y-77585470D01*
X179781552Y-77635712D01*
X179781559Y-77635714D01*
X179841087Y-77642115D01*
X179841104Y-77642116D01*
X180488932Y-77642116D01*
X180488932Y-76725128D01*
X180545939Y-76758041D01*
X180673106Y-76792116D01*
X180804758Y-76792116D01*
X180931925Y-76758041D01*
X180988932Y-76725128D01*
X180988932Y-77642116D01*
X181636760Y-77642116D01*
X181636776Y-77642115D01*
X181696304Y-77635714D01*
X181696311Y-77635712D01*
X181831018Y-77585470D01*
X181831025Y-77585466D01*
X181946119Y-77499306D01*
X181946122Y-77499303D01*
X182032282Y-77384209D01*
X182032286Y-77384202D01*
X182081354Y-77252645D01*
X182123225Y-77196711D01*
X182188689Y-77172294D01*
X182256962Y-77187146D01*
X182285217Y-77208297D01*
X182407531Y-77330611D01*
X182484067Y-77384202D01*
X182601097Y-77466148D01*
X182601099Y-77466149D01*
X182601102Y-77466151D01*
X182815269Y-77566019D01*
X183043524Y-77627179D01*
X183214251Y-77642116D01*
X183278931Y-77647775D01*
X183278932Y-77647775D01*
X183278933Y-77647775D01*
X183343613Y-77642116D01*
X183514340Y-77627179D01*
X183531148Y-77622675D01*
X183600996Y-77624334D01*
X183650926Y-77654767D01*
X185832385Y-79836227D01*
X185832386Y-79836228D01*
X185947124Y-79912893D01*
X186074599Y-79965694D01*
X186074604Y-79965696D01*
X186074608Y-79965696D01*
X186074609Y-79965697D01*
X186209935Y-79992616D01*
X186209938Y-79992616D01*
X213367928Y-79992616D01*
X213458972Y-79974505D01*
X213503260Y-79965696D01*
X213567001Y-79939293D01*
X213630739Y-79912893D01*
X213630740Y-79912892D01*
X213630743Y-79912891D01*
X213745475Y-79836230D01*
X215926938Y-77654765D01*
X215988259Y-77621282D01*
X216046710Y-77622673D01*
X216063524Y-77627179D01*
X216234251Y-77642116D01*
X216298931Y-77647775D01*
X216298932Y-77647775D01*
X216298933Y-77647775D01*
X216363613Y-77642116D01*
X216534340Y-77627179D01*
X216762595Y-77566019D01*
X216976762Y-77466151D01*
X217170333Y-77330611D01*
X217337427Y-77163517D01*
X217467662Y-76977521D01*
X217522239Y-76933897D01*
X217591737Y-76926703D01*
X217654092Y-76958226D01*
X217670811Y-76977521D01*
X217800822Y-77163194D01*
X217967849Y-77330221D01*
X218161353Y-77465716D01*
X218375439Y-77565545D01*
X218375448Y-77565549D01*
X218588932Y-77622750D01*
X218588932Y-76725128D01*
X218645939Y-76758041D01*
X218773106Y-76792116D01*
X218904758Y-76792116D01*
X219031925Y-76758041D01*
X219088932Y-76725128D01*
X219088932Y-77622749D01*
X219302415Y-77565549D01*
X219302424Y-77565545D01*
X219516510Y-77465716D01*
X219710014Y-77330221D01*
X219877037Y-77163198D01*
X220012532Y-76969694D01*
X220112361Y-76755608D01*
X220112364Y-76755602D01*
X220169568Y-76542116D01*
X219271944Y-76542116D01*
X219304857Y-76485109D01*
X219338932Y-76357942D01*
X219338932Y-76226290D01*
X219304857Y-76099123D01*
X219271944Y-76042116D01*
X220169568Y-76042116D01*
X220169567Y-76042115D01*
X220112364Y-75828629D01*
X220112361Y-75828623D01*
X220012532Y-75614538D01*
X220012531Y-75614536D01*
X219877045Y-75421042D01*
X219877040Y-75421036D01*
X219710014Y-75254010D01*
X219516510Y-75118515D01*
X219302424Y-75018686D01*
X219302418Y-75018683D01*
X219088932Y-74961480D01*
X219088932Y-75859104D01*
X219031925Y-75826191D01*
X218904758Y-75792116D01*
X218773106Y-75792116D01*
X218645939Y-75826191D01*
X218588932Y-75859104D01*
X218588932Y-74961480D01*
X218588931Y-74961480D01*
X218375445Y-75018683D01*
X218375439Y-75018686D01*
X218161354Y-75118515D01*
X218161352Y-75118516D01*
X217967858Y-75254002D01*
X217967852Y-75254007D01*
X217800823Y-75421036D01*
X217800822Y-75421038D01*
X217670812Y-75606711D01*
X217616235Y-75650335D01*
X217546736Y-75657528D01*
X217484382Y-75626006D01*
X217467662Y-75606710D01*
X217337426Y-75420713D01*
X217170334Y-75253622D01*
X217170327Y-75253617D01*
X216976766Y-75118083D01*
X216976762Y-75118081D01*
X216905659Y-75084925D01*
X216762595Y-75018213D01*
X216762591Y-75018212D01*
X216762587Y-75018210D01*
X216534345Y-74957054D01*
X216534335Y-74957052D01*
X216298933Y-74936457D01*
X216298931Y-74936457D01*
X216063528Y-74957052D01*
X216063518Y-74957054D01*
X215835276Y-75018210D01*
X215835267Y-75018214D01*
X215621103Y-75118080D01*
X215621101Y-75118081D01*
X215427529Y-75253621D01*
X215260437Y-75420713D01*
X215130507Y-75606274D01*
X215075930Y-75649899D01*
X215006432Y-75657093D01*
X214944077Y-75625570D01*
X214927357Y-75606274D01*
X214797426Y-75420713D01*
X214630334Y-75253622D01*
X214630327Y-75253617D01*
X214436766Y-75118083D01*
X214436762Y-75118081D01*
X214365659Y-75084925D01*
X214222595Y-75018213D01*
X214222591Y-75018212D01*
X214222587Y-75018210D01*
X213994345Y-74957054D01*
X213994335Y-74957052D01*
X213758933Y-74936457D01*
X213758931Y-74936457D01*
X213523529Y-74957052D01*
X213523525Y-74957052D01*
X213523524Y-74957053D01*
X213523519Y-74957054D01*
X213523516Y-74957055D01*
X213506710Y-74961558D01*
X213436860Y-74959894D01*
X213386937Y-74929464D01*
X210936651Y-72479178D01*
X210903166Y-72417855D01*
X210908150Y-72348163D01*
X210950022Y-72292230D01*
X211015486Y-72267813D01*
X211039158Y-72269034D01*
X211039189Y-72268683D01*
X211044581Y-72269154D01*
X211044582Y-72269155D01*
X211193181Y-72282156D01*
X211279989Y-72289751D01*
X211279990Y-72289751D01*
X211279991Y-72289751D01*
X211344671Y-72284092D01*
X211515398Y-72269155D01*
X211743653Y-72207995D01*
X211957820Y-72108127D01*
X212151391Y-71972587D01*
X212318485Y-71805493D01*
X212448415Y-71619934D01*
X212502992Y-71576309D01*
X212572490Y-71569115D01*
X212634845Y-71600638D01*
X212651565Y-71619934D01*
X212781495Y-71805493D01*
X212948589Y-71972587D01*
X212998533Y-72007558D01*
X213142155Y-72108124D01*
X213142157Y-72108125D01*
X213142160Y-72108127D01*
X213356327Y-72207995D01*
X213356333Y-72207996D01*
X213356334Y-72207997D01*
X213411275Y-72222718D01*
X213584582Y-72269155D01*
X213755309Y-72284092D01*
X213819989Y-72289751D01*
X213819990Y-72289751D01*
X213819991Y-72289751D01*
X213884671Y-72284092D01*
X214055398Y-72269155D01*
X214283653Y-72207995D01*
X214497820Y-72108127D01*
X214691391Y-71972587D01*
X214858485Y-71805493D01*
X214988415Y-71619934D01*
X215042992Y-71576309D01*
X215112490Y-71569115D01*
X215174845Y-71600638D01*
X215191565Y-71619934D01*
X215321495Y-71805493D01*
X215488589Y-71972587D01*
X215538533Y-72007558D01*
X215682155Y-72108124D01*
X215682157Y-72108125D01*
X215682160Y-72108127D01*
X215896327Y-72207995D01*
X215896333Y-72207996D01*
X215896334Y-72207997D01*
X215951275Y-72222718D01*
X216124582Y-72269155D01*
X216295309Y-72284092D01*
X216359989Y-72289751D01*
X216359990Y-72289751D01*
X216359991Y-72289751D01*
X216424671Y-72284092D01*
X216595398Y-72269155D01*
X216823653Y-72207995D01*
X217037820Y-72108127D01*
X217231391Y-71972587D01*
X217353707Y-71850270D01*
X217415026Y-71816788D01*
X217484718Y-71821772D01*
X217540652Y-71863643D01*
X217557567Y-71894620D01*
X217606636Y-72026180D01*
X217606639Y-72026185D01*
X217692799Y-72141279D01*
X217692802Y-72141282D01*
X217807896Y-72227442D01*
X217807903Y-72227446D01*
X217942610Y-72277688D01*
X217942617Y-72277690D01*
X218002145Y-72284091D01*
X218002162Y-72284092D01*
X218649990Y-72284092D01*
X218649990Y-71367104D01*
X218706997Y-71400017D01*
X218834164Y-71434092D01*
X218965816Y-71434092D01*
X219092983Y-71400017D01*
X219149990Y-71367104D01*
X219149990Y-72284092D01*
X219797818Y-72284092D01*
X219797834Y-72284091D01*
X219857362Y-72277690D01*
X219857369Y-72277688D01*
X219992076Y-72227446D01*
X219992083Y-72227442D01*
X220107177Y-72141282D01*
X220107180Y-72141279D01*
X220193340Y-72026185D01*
X220193344Y-72026178D01*
X220243586Y-71891471D01*
X220243588Y-71891464D01*
X220249989Y-71831936D01*
X220249990Y-71831919D01*
X220249990Y-71184092D01*
X219333002Y-71184092D01*
X219365915Y-71127085D01*
X219399990Y-70999918D01*
X219399990Y-70868266D01*
X219365915Y-70741099D01*
X219333002Y-70684092D01*
X220249990Y-70684092D01*
X220249990Y-70036264D01*
X220249989Y-70036247D01*
X220243588Y-69976719D01*
X220243586Y-69976712D01*
X220193344Y-69842005D01*
X220193340Y-69841998D01*
X220107180Y-69726904D01*
X220107177Y-69726901D01*
X219992083Y-69640741D01*
X219992076Y-69640737D01*
X219857369Y-69590495D01*
X219857362Y-69590493D01*
X219797834Y-69584092D01*
X219149990Y-69584092D01*
X219149990Y-70501080D01*
X219092983Y-70468167D01*
X218965816Y-70434092D01*
X218834164Y-70434092D01*
X218706997Y-70468167D01*
X218649990Y-70501080D01*
X218649990Y-69584092D01*
X218002145Y-69584092D01*
X217942617Y-69590493D01*
X217942610Y-69590495D01*
X217807903Y-69640737D01*
X217807896Y-69640741D01*
X217692802Y-69726901D01*
X217692799Y-69726904D01*
X217606639Y-69841998D01*
X217606635Y-69842005D01*
X217557568Y-69973562D01*
X217515697Y-70029496D01*
X217450232Y-70053913D01*
X217381959Y-70039061D01*
X217353705Y-70017911D01*
X217309356Y-69973562D01*
X217231391Y-69895597D01*
X217173017Y-69854723D01*
X217148366Y-69837462D01*
X217104741Y-69782884D01*
X217095490Y-69735887D01*
X217095490Y-65835889D01*
X217115175Y-65768850D01*
X217135952Y-65744252D01*
X217288938Y-65604787D01*
X217288940Y-65604785D01*
X217423464Y-65426646D01*
X217522964Y-65226822D01*
X217545983Y-65145915D01*
X217583262Y-65086823D01*
X217646572Y-65057265D01*
X217715811Y-65066627D01*
X217768998Y-65111936D01*
X217784516Y-65145916D01*
X217807482Y-65226635D01*
X217807488Y-65226650D01*
X217906943Y-65426382D01*
X217923272Y-65448005D01*
X218492851Y-64878426D01*
X218515657Y-64963536D01*
X218574900Y-65066148D01*
X218658684Y-65149932D01*
X218761296Y-65209175D01*
X218846404Y-65231979D01*
X218278756Y-65799627D01*
X218396021Y-65872235D01*
X218396022Y-65872236D01*
X218604085Y-65952839D01*
X218823425Y-65993842D01*
X219046555Y-65993842D01*
X219265894Y-65952839D01*
X219473957Y-65872236D01*
X219473961Y-65872234D01*
X219591221Y-65799628D01*
X219591221Y-65799627D01*
X219023575Y-65231979D01*
X219108684Y-65209175D01*
X219211296Y-65149932D01*
X219295080Y-65066148D01*
X219354323Y-64963536D01*
X219377128Y-64878427D01*
X219946706Y-65448005D01*
X219963039Y-65426378D01*
X219963043Y-65426371D01*
X220062489Y-65226655D01*
X220062496Y-65226637D01*
X220123560Y-65012023D01*
X220144148Y-64789842D01*
X220144148Y-64789841D01*
X220123560Y-64567660D01*
X220062496Y-64353046D01*
X220062491Y-64353033D01*
X219963036Y-64153300D01*
X219946706Y-64131678D01*
X219377128Y-64701256D01*
X219354323Y-64616148D01*
X219295080Y-64513536D01*
X219211296Y-64429752D01*
X219108684Y-64370509D01*
X219023574Y-64347703D01*
X219591222Y-63780055D01*
X219473956Y-63707447D01*
X219473955Y-63707446D01*
X219265894Y-63626844D01*
X219046555Y-63585842D01*
X218823425Y-63585842D01*
X218604085Y-63626844D01*
X218396024Y-63707446D01*
X218396018Y-63707449D01*
X218278757Y-63780054D01*
X218278756Y-63780055D01*
X218846405Y-64347703D01*
X218761296Y-64370509D01*
X218658684Y-64429752D01*
X218574900Y-64513536D01*
X218515657Y-64616148D01*
X218492851Y-64701257D01*
X217923272Y-64131678D01*
X217923271Y-64131678D01*
X217906943Y-64153300D01*
X217807488Y-64353033D01*
X217807483Y-64353046D01*
X217784516Y-64433768D01*
X217747237Y-64492861D01*
X217683927Y-64522418D01*
X217614687Y-64513056D01*
X217561501Y-64467746D01*
X217545984Y-64433767D01*
X217522966Y-64352866D01*
X217522963Y-64352860D01*
X217469542Y-64245576D01*
X217423464Y-64153038D01*
X217288940Y-63974899D01*
X217123973Y-63824512D01*
X217123969Y-63824509D01*
X217123964Y-63824506D01*
X216934185Y-63707000D01*
X216934179Y-63706998D01*
X216934174Y-63706996D01*
X216726029Y-63626360D01*
X216506603Y-63585342D01*
X216283377Y-63585342D01*
X216063951Y-63626360D01*
X216004096Y-63649548D01*
X215855800Y-63706998D01*
X215855794Y-63707000D01*
X215666015Y-63824506D01*
X215666005Y-63824513D01*
X215501041Y-63974897D01*
X215366516Y-64153037D01*
X215267016Y-64352860D01*
X215267013Y-64352866D01*
X215244256Y-64432853D01*
X215206977Y-64491946D01*
X215143668Y-64521504D01*
X215074428Y-64512142D01*
X215021242Y-64466833D01*
X215005724Y-64432853D01*
X214982966Y-64352866D01*
X214982963Y-64352860D01*
X214929542Y-64245576D01*
X214883464Y-64153038D01*
X214748940Y-63974899D01*
X214583973Y-63824512D01*
X214583969Y-63824509D01*
X214583964Y-63824506D01*
X214394185Y-63707000D01*
X214394179Y-63706998D01*
X214394174Y-63706996D01*
X214186029Y-63626360D01*
X213966603Y-63585342D01*
X213743377Y-63585342D01*
X213523951Y-63626360D01*
X213464096Y-63649548D01*
X213315800Y-63706998D01*
X213315794Y-63707000D01*
X213126015Y-63824506D01*
X213126005Y-63824513D01*
X212961041Y-63974897D01*
X212826516Y-64153037D01*
X212727016Y-64352860D01*
X212727013Y-64352866D01*
X212704256Y-64432853D01*
X212666977Y-64491946D01*
X212603668Y-64521504D01*
X212534428Y-64512142D01*
X212481242Y-64466833D01*
X212465724Y-64432853D01*
X212442966Y-64352866D01*
X212442963Y-64352860D01*
X212389542Y-64245576D01*
X212343464Y-64153038D01*
X212208940Y-63974899D01*
X212043973Y-63824512D01*
X212043969Y-63824509D01*
X212043964Y-63824506D01*
X211854185Y-63707000D01*
X211854179Y-63706998D01*
X211854174Y-63706996D01*
X211646029Y-63626360D01*
X211426603Y-63585342D01*
X211203377Y-63585342D01*
X210983951Y-63626360D01*
X210924096Y-63649548D01*
X210775800Y-63706998D01*
X210775794Y-63707000D01*
X210586004Y-63824513D01*
X210577233Y-63832509D01*
X210514427Y-63863122D01*
X210445040Y-63854919D01*
X210406020Y-63828547D01*
X209625478Y-63048004D01*
X209625477Y-63048003D01*
X209510739Y-62971338D01*
X209383264Y-62918537D01*
X209383254Y-62918534D01*
X209247928Y-62891616D01*
X209247926Y-62891616D01*
X209247925Y-62891616D01*
X181963723Y-62891616D01*
X181963719Y-62891616D01*
X181855306Y-62913181D01*
X181855305Y-62913181D01*
X181841847Y-62915858D01*
X181828389Y-62918535D01*
X181775582Y-62940407D01*
X181775582Y-62940408D01*
X181728490Y-62959914D01*
X181700902Y-62971342D01*
X181690750Y-62978126D01*
X181690639Y-62978200D01*
X181586173Y-63048002D01*
X181586169Y-63048005D01*
X181078950Y-63555224D01*
X181017627Y-63588709D01*
X180968488Y-63589432D01*
X180946608Y-63585342D01*
X180946603Y-63585342D01*
X180723377Y-63585342D01*
X180503951Y-63626360D01*
X180444096Y-63649548D01*
X180295800Y-63706998D01*
X180295794Y-63707000D01*
X180106015Y-63824506D01*
X180106005Y-63824513D01*
X179941041Y-63974897D01*
X179806516Y-64153037D01*
X179707016Y-64352860D01*
X179707013Y-64352866D01*
X179684256Y-64432853D01*
X179646977Y-64491946D01*
X179583668Y-64521504D01*
X179514428Y-64512142D01*
X179461242Y-64466833D01*
X179445724Y-64432853D01*
X179422966Y-64352866D01*
X179422963Y-64352860D01*
X179369542Y-64245576D01*
X179323464Y-64153038D01*
X179188940Y-63974899D01*
X179023973Y-63824512D01*
X179023969Y-63824509D01*
X179023964Y-63824506D01*
X178834185Y-63707000D01*
X178834179Y-63706998D01*
X178834174Y-63706996D01*
X178626029Y-63626360D01*
X178406603Y-63585342D01*
X178183377Y-63585342D01*
X177963951Y-63626360D01*
X177904096Y-63649548D01*
X177755800Y-63706998D01*
X177755794Y-63707000D01*
X177566015Y-63824506D01*
X177566005Y-63824513D01*
X177401041Y-63974897D01*
X177266516Y-64153037D01*
X177167016Y-64352860D01*
X177167013Y-64352866D01*
X177144256Y-64432853D01*
X177106977Y-64491946D01*
X177043668Y-64521504D01*
X176974428Y-64512142D01*
X176921242Y-64466833D01*
X176905724Y-64432853D01*
X176882966Y-64352866D01*
X176882963Y-64352860D01*
X176829542Y-64245576D01*
X176783464Y-64153038D01*
X176648940Y-63974899D01*
X176483973Y-63824512D01*
X176483969Y-63824509D01*
X176483964Y-63824506D01*
X176294185Y-63707000D01*
X176294179Y-63706998D01*
X176294174Y-63706996D01*
X176086029Y-63626360D01*
X175866603Y-63585342D01*
X175643377Y-63585342D01*
X175423951Y-63626360D01*
X175364096Y-63649548D01*
X175215800Y-63706998D01*
X175215794Y-63707000D01*
X175026015Y-63824506D01*
X175026005Y-63824513D01*
X174861041Y-63974897D01*
X174726516Y-64153037D01*
X174627016Y-64352860D01*
X174627013Y-64352866D01*
X174604256Y-64432853D01*
X174566977Y-64491946D01*
X174503668Y-64521504D01*
X174434428Y-64512142D01*
X174381242Y-64466833D01*
X174365724Y-64432853D01*
X174342966Y-64352866D01*
X174342963Y-64352860D01*
X174289542Y-64245576D01*
X174243464Y-64153038D01*
X174108940Y-63974899D01*
X173943973Y-63824512D01*
X173943969Y-63824509D01*
X173943964Y-63824506D01*
X173754185Y-63707000D01*
X173754176Y-63706996D01*
X173715778Y-63692121D01*
X173660376Y-63649548D01*
X173636785Y-63583782D01*
X173652496Y-63515701D01*
X173672886Y-63488817D01*
X178232770Y-58928935D01*
X178294093Y-58895450D01*
X178320451Y-58892616D01*
X188438972Y-58892616D01*
X188504943Y-58911622D01*
X188514940Y-58917903D01*
X188514941Y-58917903D01*
X188514944Y-58917905D01*
X188685211Y-58977484D01*
X188685216Y-58977485D01*
X188864462Y-58997681D01*
X188864466Y-58997681D01*
X188864470Y-58997681D01*
X189043715Y-58977485D01*
X189043718Y-58977484D01*
X189043721Y-58977484D01*
X189213988Y-58917905D01*
X189366728Y-58821932D01*
X189494282Y-58694378D01*
X189523905Y-58647231D01*
X189576238Y-58600941D01*
X189645291Y-58590291D01*
X189679335Y-58599924D01*
X189799124Y-58653258D01*
X189799129Y-58653260D01*
X189984286Y-58692616D01*
X189984287Y-58692616D01*
X190173576Y-58692616D01*
X190173578Y-58692616D01*
X190358735Y-58653260D01*
X190531662Y-58576267D01*
X190684803Y-58465004D01*
X190811465Y-58324332D01*
X190906111Y-58160400D01*
X190964606Y-57980372D01*
X190984392Y-57792116D01*
X190964606Y-57603860D01*
X190906111Y-57423832D01*
X190811465Y-57259900D01*
X190684803Y-57119228D01*
X190684802Y-57119227D01*
X190531666Y-57007967D01*
X190531661Y-57007964D01*
X190504920Y-56996058D01*
X210662948Y-56996058D01*
X210682734Y-57184314D01*
X210682735Y-57184317D01*
X210741226Y-57364335D01*
X210741229Y-57364342D01*
X210835875Y-57528274D01*
X210962537Y-57668946D01*
X211115673Y-57780206D01*
X211115678Y-57780209D01*
X211288600Y-57857200D01*
X211288605Y-57857202D01*
X211473762Y-57896558D01*
X211473763Y-57896558D01*
X211663052Y-57896558D01*
X211663054Y-57896558D01*
X211848211Y-57857202D01*
X212021138Y-57780209D01*
X212174279Y-57668946D01*
X212300941Y-57528274D01*
X212395587Y-57364342D01*
X212454082Y-57184314D01*
X212473868Y-56996058D01*
X212454082Y-56807802D01*
X212395587Y-56627774D01*
X212300941Y-56463842D01*
X212174279Y-56323170D01*
X212174278Y-56323169D01*
X212021142Y-56211909D01*
X212021137Y-56211906D01*
X211848215Y-56134915D01*
X211848210Y-56134913D01*
X211702409Y-56103923D01*
X211663054Y-56095558D01*
X211473762Y-56095558D01*
X211441305Y-56102456D01*
X211288605Y-56134913D01*
X211288600Y-56134915D01*
X211115678Y-56211906D01*
X211115673Y-56211909D01*
X210962537Y-56323169D01*
X210835874Y-56463843D01*
X210741229Y-56627773D01*
X210741226Y-56627780D01*
X210694581Y-56771341D01*
X210682734Y-56807802D01*
X210662948Y-56996058D01*
X190504920Y-56996058D01*
X190358739Y-56930973D01*
X190358734Y-56930971D01*
X190212933Y-56899981D01*
X190173578Y-56891616D01*
X189984286Y-56891616D01*
X189951829Y-56898514D01*
X189799129Y-56930971D01*
X189799124Y-56930973D01*
X189626202Y-57007964D01*
X189626197Y-57007967D01*
X189473061Y-57119227D01*
X189346398Y-57259901D01*
X189276364Y-57381204D01*
X189225797Y-57429420D01*
X189157190Y-57442643D01*
X189128023Y-57436246D01*
X189043723Y-57406748D01*
X189043715Y-57406746D01*
X188864470Y-57386551D01*
X188864462Y-57386551D01*
X188777861Y-57396308D01*
X188709039Y-57384253D01*
X188657660Y-57336904D01*
X188640036Y-57269293D01*
X188661763Y-57202888D01*
X188676293Y-57185410D01*
X189278222Y-56583481D01*
X189324945Y-56554123D01*
X189428454Y-56517905D01*
X189581194Y-56421932D01*
X189708748Y-56294378D01*
X189804721Y-56141638D01*
X189864300Y-55971371D01*
X189864301Y-55971365D01*
X189884497Y-55792119D01*
X189884497Y-55792112D01*
X189864301Y-55612866D01*
X189864300Y-55612861D01*
X189804720Y-55442592D01*
X189710169Y-55292116D01*
X219980064Y-55292116D01*
X219999850Y-55480372D01*
X219999851Y-55480375D01*
X220058342Y-55660393D01*
X220058345Y-55660400D01*
X220152991Y-55824332D01*
X220279653Y-55965004D01*
X220432789Y-56076264D01*
X220432794Y-56076267D01*
X220605716Y-56153258D01*
X220605721Y-56153260D01*
X220790878Y-56192616D01*
X220790879Y-56192616D01*
X220980168Y-56192616D01*
X220980170Y-56192616D01*
X221165327Y-56153260D01*
X221338254Y-56076267D01*
X221491395Y-55965004D01*
X221618057Y-55824332D01*
X221712703Y-55660400D01*
X221771198Y-55480372D01*
X221790984Y-55292116D01*
X221771198Y-55103860D01*
X221712703Y-54923832D01*
X221618057Y-54759900D01*
X221491395Y-54619228D01*
X221491394Y-54619227D01*
X221338258Y-54507967D01*
X221338253Y-54507964D01*
X221165331Y-54430973D01*
X221165326Y-54430971D01*
X221019525Y-54399981D01*
X220980170Y-54391616D01*
X220790878Y-54391616D01*
X220758421Y-54398514D01*
X220605721Y-54430971D01*
X220605716Y-54430973D01*
X220432794Y-54507964D01*
X220432789Y-54507967D01*
X220279653Y-54619227D01*
X220152990Y-54759901D01*
X220058345Y-54923831D01*
X220058342Y-54923838D01*
X220012045Y-55066327D01*
X219999850Y-55103860D01*
X219980064Y-55292116D01*
X189710169Y-55292116D01*
X189708747Y-55289853D01*
X189581194Y-55162300D01*
X189428455Y-55066327D01*
X189258186Y-55006747D01*
X189258181Y-55006746D01*
X189078936Y-54986551D01*
X189078928Y-54986551D01*
X188899682Y-55006746D01*
X188899677Y-55006747D01*
X188729408Y-55066327D01*
X188576669Y-55162300D01*
X188449116Y-55289853D01*
X188353144Y-55442591D01*
X188353143Y-55442592D01*
X188316924Y-55546100D01*
X188287564Y-55592825D01*
X187225094Y-56655297D01*
X187163771Y-56688782D01*
X187137413Y-56691616D01*
X177609936Y-56691616D01*
X177474609Y-56718534D01*
X177474599Y-56718537D01*
X177347124Y-56771338D01*
X177232386Y-56848003D01*
X170134819Y-63945570D01*
X170058155Y-64060308D01*
X170005353Y-64187784D01*
X170005350Y-64187796D01*
X169993857Y-64245575D01*
X169993857Y-64245576D01*
X169978432Y-64323120D01*
X169978432Y-64323123D01*
X169978432Y-83417588D01*
X169978432Y-83555576D01*
X169978432Y-83555578D01*
X169978431Y-83555578D01*
X168364966Y-83555578D01*
X168364966Y-33894814D01*
X168365084Y-33889406D01*
X168368720Y-33806124D01*
X168382231Y-33496625D01*
X168383171Y-33485891D01*
X168403155Y-33334091D01*
X171894331Y-33334091D01*
X171894331Y-33334092D01*
X171914926Y-33569495D01*
X171914928Y-33569505D01*
X171976084Y-33797747D01*
X171976086Y-33797751D01*
X171976087Y-33797755D01*
X172055791Y-33968680D01*
X172075955Y-34011922D01*
X172075957Y-34011926D01*
X172184271Y-34166613D01*
X172211494Y-34205492D01*
X172211496Y-34205494D01*
X172378585Y-34372584D01*
X172378588Y-34372586D01*
X172378589Y-34372587D01*
X172461613Y-34430720D01*
X172505238Y-34485296D01*
X172514490Y-34532295D01*
X172514490Y-38343794D01*
X172494805Y-38410833D01*
X172474028Y-38435431D01*
X172321041Y-38574896D01*
X172186516Y-38753037D01*
X172087016Y-38952860D01*
X172087013Y-38952866D01*
X172025927Y-39167565D01*
X172025926Y-39167568D01*
X172005330Y-39389841D01*
X172005330Y-39389842D01*
X172025926Y-39612115D01*
X172025927Y-39612118D01*
X172087013Y-39826817D01*
X172087016Y-39826823D01*
X172142011Y-39937267D01*
X172186516Y-40026646D01*
X172321040Y-40204785D01*
X172486007Y-40355172D01*
X172486014Y-40355176D01*
X172486015Y-40355177D01*
X172675794Y-40472683D01*
X172675795Y-40472683D01*
X172675798Y-40472685D01*
X172883951Y-40553324D01*
X173103377Y-40594342D01*
X173103379Y-40594342D01*
X173326602Y-40594342D01*
X173326603Y-40594342D01*
X173348482Y-40590252D01*
X173417998Y-40597282D01*
X173458950Y-40624459D01*
X186570717Y-53736227D01*
X186570718Y-53736228D01*
X186685456Y-53812893D01*
X186812931Y-53865694D01*
X186812936Y-53865696D01*
X186812940Y-53865696D01*
X186812941Y-53865697D01*
X186948267Y-53892616D01*
X186948270Y-53892616D01*
X186948271Y-53892616D01*
X190653438Y-53892616D01*
X190719409Y-53911622D01*
X190729406Y-53917903D01*
X190729407Y-53917903D01*
X190729410Y-53917905D01*
X190899677Y-53977484D01*
X190899682Y-53977485D01*
X191078928Y-53997681D01*
X191078932Y-53997681D01*
X191078936Y-53997681D01*
X191258181Y-53977485D01*
X191258184Y-53977484D01*
X191258187Y-53977484D01*
X191428454Y-53917905D01*
X191581194Y-53821932D01*
X191708748Y-53694378D01*
X191804721Y-53541638D01*
X191864300Y-53371371D01*
X191884497Y-53192116D01*
X191864300Y-53012861D01*
X191804721Y-52842594D01*
X191708748Y-52689854D01*
X191581194Y-52562300D01*
X191428455Y-52466327D01*
X191258186Y-52406747D01*
X191258181Y-52406746D01*
X191078936Y-52386551D01*
X191078928Y-52386551D01*
X190899682Y-52406746D01*
X190899677Y-52406747D01*
X190729406Y-52466328D01*
X190719409Y-52472610D01*
X190653438Y-52491616D01*
X187358783Y-52491616D01*
X187291744Y-52471931D01*
X187271102Y-52455297D01*
X183907921Y-49092116D01*
X191526609Y-49092116D01*
X191546395Y-49280372D01*
X191546396Y-49280375D01*
X191604887Y-49460393D01*
X191604890Y-49460400D01*
X191699536Y-49624332D01*
X191826198Y-49765004D01*
X191979334Y-49876264D01*
X191979339Y-49876267D01*
X192152261Y-49953258D01*
X192152266Y-49953260D01*
X192337423Y-49992616D01*
X192337424Y-49992616D01*
X192526713Y-49992616D01*
X192526715Y-49992616D01*
X192711872Y-49953260D01*
X192884799Y-49876267D01*
X193037940Y-49765004D01*
X193164602Y-49624332D01*
X193259248Y-49460400D01*
X193317743Y-49280372D01*
X193337529Y-49092116D01*
X193317743Y-48903860D01*
X193259248Y-48723832D01*
X193164602Y-48559900D01*
X193037940Y-48419228D01*
X193037939Y-48419227D01*
X192884803Y-48307967D01*
X192884798Y-48307964D01*
X192711876Y-48230973D01*
X192711871Y-48230971D01*
X192566070Y-48199981D01*
X192526715Y-48191616D01*
X192337423Y-48191616D01*
X192304966Y-48198514D01*
X192152266Y-48230971D01*
X192152261Y-48230973D01*
X191979339Y-48307964D01*
X191979334Y-48307967D01*
X191826198Y-48419227D01*
X191699535Y-48559901D01*
X191604890Y-48723831D01*
X191604887Y-48723838D01*
X191546396Y-48903856D01*
X191546395Y-48903860D01*
X191526609Y-49092116D01*
X183907921Y-49092116D01*
X175621828Y-40806023D01*
X175588343Y-40744700D01*
X175593327Y-40675008D01*
X175635199Y-40619075D01*
X175700663Y-40594658D01*
X175709509Y-40594342D01*
X175866601Y-40594342D01*
X175866603Y-40594342D01*
X176086029Y-40553324D01*
X176294182Y-40472685D01*
X176483973Y-40355172D01*
X176648940Y-40204785D01*
X176783464Y-40026646D01*
X176882964Y-39826822D01*
X176905723Y-39746829D01*
X176943002Y-39687737D01*
X177006312Y-39658179D01*
X177075552Y-39667541D01*
X177128738Y-39712850D01*
X177144257Y-39746831D01*
X177167016Y-39826824D01*
X177266379Y-40026371D01*
X177266516Y-40026646D01*
X177401040Y-40204785D01*
X177566007Y-40355172D01*
X177566014Y-40355176D01*
X177566015Y-40355177D01*
X177755794Y-40472683D01*
X177755795Y-40472683D01*
X177755798Y-40472685D01*
X177963951Y-40553324D01*
X178183377Y-40594342D01*
X178183379Y-40594342D01*
X178406601Y-40594342D01*
X178406603Y-40594342D01*
X178626029Y-40553324D01*
X178834182Y-40472685D01*
X179023973Y-40355172D01*
X179188940Y-40204785D01*
X179323464Y-40026646D01*
X179422964Y-39826822D01*
X179445723Y-39746829D01*
X179483002Y-39687737D01*
X179546312Y-39658179D01*
X179615552Y-39667541D01*
X179668738Y-39712850D01*
X179684257Y-39746831D01*
X179707016Y-39826824D01*
X179806379Y-40026371D01*
X179806516Y-40026646D01*
X179941040Y-40204785D01*
X180106007Y-40355172D01*
X180106014Y-40355176D01*
X180106015Y-40355177D01*
X180295794Y-40472683D01*
X180295795Y-40472683D01*
X180295798Y-40472685D01*
X180503951Y-40553324D01*
X180723377Y-40594342D01*
X180723379Y-40594342D01*
X180946601Y-40594342D01*
X180946603Y-40594342D01*
X181166029Y-40553324D01*
X181374182Y-40472685D01*
X181563973Y-40355172D01*
X181728940Y-40204785D01*
X181863464Y-40026646D01*
X181962964Y-39826822D01*
X181985723Y-39746829D01*
X182023002Y-39687737D01*
X182086312Y-39658179D01*
X182155552Y-39667541D01*
X182208738Y-39712850D01*
X182224257Y-39746831D01*
X182247016Y-39826824D01*
X182346379Y-40026371D01*
X182346516Y-40026646D01*
X182481040Y-40204785D01*
X182646007Y-40355172D01*
X182646014Y-40355176D01*
X182646015Y-40355177D01*
X182835794Y-40472683D01*
X182835795Y-40472683D01*
X182835798Y-40472685D01*
X183043951Y-40553324D01*
X183263377Y-40594342D01*
X183263379Y-40594342D01*
X183486601Y-40594342D01*
X183486603Y-40594342D01*
X183706029Y-40553324D01*
X183914182Y-40472685D01*
X184103973Y-40355172D01*
X184268940Y-40204785D01*
X184403464Y-40026646D01*
X184502964Y-39826822D01*
X184525983Y-39745915D01*
X184563262Y-39686823D01*
X184626572Y-39657265D01*
X184695811Y-39666627D01*
X184748998Y-39711936D01*
X184764516Y-39745916D01*
X184787482Y-39826635D01*
X184787488Y-39826650D01*
X184886943Y-40026382D01*
X184903272Y-40048005D01*
X185472851Y-39478426D01*
X185495657Y-39563536D01*
X185554900Y-39666148D01*
X185638684Y-39749932D01*
X185741296Y-39809175D01*
X185826404Y-39831979D01*
X185258756Y-40399627D01*
X185376021Y-40472235D01*
X185376022Y-40472236D01*
X185584085Y-40552839D01*
X185803425Y-40593842D01*
X186026555Y-40593842D01*
X186245894Y-40552839D01*
X186453957Y-40472236D01*
X186453961Y-40472234D01*
X186571221Y-40399628D01*
X186571221Y-40399627D01*
X186003575Y-39831979D01*
X186088684Y-39809175D01*
X186191296Y-39749932D01*
X186275080Y-39666148D01*
X186334323Y-39563536D01*
X186357128Y-39478427D01*
X186926706Y-40048005D01*
X186943039Y-40026378D01*
X186943043Y-40026371D01*
X187042489Y-39826655D01*
X187042494Y-39826642D01*
X187065462Y-39745917D01*
X187102741Y-39686823D01*
X187166051Y-39657265D01*
X187235290Y-39666626D01*
X187288477Y-39711936D01*
X187303995Y-39745915D01*
X187327014Y-39826819D01*
X187327016Y-39826823D01*
X187382011Y-39937267D01*
X187426516Y-40026646D01*
X187561040Y-40204785D01*
X187726007Y-40355172D01*
X187726014Y-40355176D01*
X187726015Y-40355177D01*
X187915794Y-40472683D01*
X187915795Y-40472683D01*
X187915798Y-40472685D01*
X188123951Y-40553324D01*
X188343377Y-40594342D01*
X188343379Y-40594342D01*
X188566601Y-40594342D01*
X188566603Y-40594342D01*
X188786029Y-40553324D01*
X188994182Y-40472685D01*
X189183973Y-40355172D01*
X189348940Y-40204785D01*
X189483464Y-40026646D01*
X189582964Y-39826822D01*
X189605723Y-39746829D01*
X189643002Y-39687737D01*
X189706312Y-39658179D01*
X189775552Y-39667541D01*
X189828738Y-39712850D01*
X189844257Y-39746831D01*
X189867016Y-39826824D01*
X189966379Y-40026371D01*
X189966516Y-40026646D01*
X190101040Y-40204785D01*
X190266007Y-40355172D01*
X190266014Y-40355176D01*
X190266015Y-40355177D01*
X190455794Y-40472683D01*
X190455795Y-40472683D01*
X190455798Y-40472685D01*
X190663951Y-40553324D01*
X190883377Y-40594342D01*
X190883379Y-40594342D01*
X191106601Y-40594342D01*
X191106603Y-40594342D01*
X191326029Y-40553324D01*
X191534182Y-40472685D01*
X191723973Y-40355172D01*
X191888940Y-40204785D01*
X192023464Y-40026646D01*
X192122964Y-39826822D01*
X192145723Y-39746829D01*
X192183002Y-39687737D01*
X192246312Y-39658179D01*
X192315552Y-39667541D01*
X192368738Y-39712850D01*
X192384257Y-39746831D01*
X192407016Y-39826824D01*
X192506379Y-40026371D01*
X192506516Y-40026646D01*
X192641040Y-40204785D01*
X192806007Y-40355172D01*
X192806014Y-40355176D01*
X192806015Y-40355177D01*
X192995794Y-40472683D01*
X192995795Y-40472683D01*
X192995798Y-40472685D01*
X193203951Y-40553324D01*
X193423377Y-40594342D01*
X193423379Y-40594342D01*
X193646601Y-40594342D01*
X193646603Y-40594342D01*
X193866029Y-40553324D01*
X194074182Y-40472685D01*
X194263973Y-40355172D01*
X194428940Y-40204785D01*
X194563464Y-40026646D01*
X194662964Y-39826822D01*
X194685723Y-39746829D01*
X194723002Y-39687737D01*
X194786312Y-39658179D01*
X194855552Y-39667541D01*
X194908738Y-39712850D01*
X194924257Y-39746831D01*
X194947016Y-39826824D01*
X195046379Y-40026371D01*
X195046516Y-40026646D01*
X195181040Y-40204785D01*
X195346007Y-40355172D01*
X195346014Y-40355176D01*
X195346015Y-40355177D01*
X195535794Y-40472683D01*
X195535795Y-40472683D01*
X195535798Y-40472685D01*
X195743951Y-40553324D01*
X195963377Y-40594342D01*
X195963379Y-40594342D01*
X196186601Y-40594342D01*
X196186603Y-40594342D01*
X196406029Y-40553324D01*
X196614182Y-40472685D01*
X196803973Y-40355172D01*
X196968940Y-40204785D01*
X197103464Y-40026646D01*
X197202964Y-39826822D01*
X197225723Y-39746829D01*
X197263002Y-39687737D01*
X197326312Y-39658179D01*
X197395552Y-39667541D01*
X197448738Y-39712850D01*
X197464257Y-39746831D01*
X197487016Y-39826824D01*
X197586379Y-40026371D01*
X197586516Y-40026646D01*
X197721040Y-40204785D01*
X197886007Y-40355172D01*
X197886014Y-40355176D01*
X197886015Y-40355177D01*
X198075794Y-40472683D01*
X198075795Y-40472683D01*
X198075798Y-40472685D01*
X198283951Y-40553324D01*
X198503377Y-40594342D01*
X198503379Y-40594342D01*
X198726601Y-40594342D01*
X198726603Y-40594342D01*
X198946029Y-40553324D01*
X199154182Y-40472685D01*
X199343973Y-40355172D01*
X199508940Y-40204785D01*
X199643464Y-40026646D01*
X199742964Y-39826822D01*
X199765723Y-39746829D01*
X199803002Y-39687737D01*
X199866312Y-39658179D01*
X199935552Y-39667541D01*
X199988738Y-39712850D01*
X200004257Y-39746831D01*
X200027016Y-39826824D01*
X200126379Y-40026371D01*
X200126516Y-40026646D01*
X200261040Y-40204785D01*
X200426007Y-40355172D01*
X200426014Y-40355176D01*
X200426015Y-40355177D01*
X200615794Y-40472683D01*
X200615795Y-40472683D01*
X200615798Y-40472685D01*
X200823951Y-40553324D01*
X201043377Y-40594342D01*
X201043379Y-40594342D01*
X201266601Y-40594342D01*
X201266603Y-40594342D01*
X201486029Y-40553324D01*
X201694182Y-40472685D01*
X201883973Y-40355172D01*
X202048940Y-40204785D01*
X202183464Y-40026646D01*
X202282964Y-39826822D01*
X202305723Y-39746829D01*
X202343002Y-39687737D01*
X202406312Y-39658179D01*
X202475552Y-39667541D01*
X202528738Y-39712850D01*
X202544257Y-39746831D01*
X202567016Y-39826824D01*
X202666379Y-40026371D01*
X202666516Y-40026646D01*
X202801040Y-40204785D01*
X202966007Y-40355172D01*
X202966014Y-40355176D01*
X202966015Y-40355177D01*
X203155794Y-40472683D01*
X203155795Y-40472683D01*
X203155798Y-40472685D01*
X203363951Y-40553324D01*
X203583377Y-40594342D01*
X203583379Y-40594342D01*
X203806601Y-40594342D01*
X203806603Y-40594342D01*
X204026029Y-40553324D01*
X204234182Y-40472685D01*
X204423973Y-40355172D01*
X204588940Y-40204785D01*
X204723464Y-40026646D01*
X204822964Y-39826822D01*
X204845723Y-39746829D01*
X204883002Y-39687737D01*
X204946312Y-39658179D01*
X205015552Y-39667541D01*
X205068738Y-39712850D01*
X205084257Y-39746831D01*
X205107016Y-39826824D01*
X205206379Y-40026371D01*
X205206516Y-40026646D01*
X205341040Y-40204785D01*
X205506007Y-40355172D01*
X205506014Y-40355176D01*
X205506015Y-40355177D01*
X205695794Y-40472683D01*
X205695795Y-40472683D01*
X205695798Y-40472685D01*
X205903951Y-40553324D01*
X206123377Y-40594342D01*
X206123379Y-40594342D01*
X206346601Y-40594342D01*
X206346603Y-40594342D01*
X206566029Y-40553324D01*
X206774182Y-40472685D01*
X206963973Y-40355172D01*
X207128940Y-40204785D01*
X207263464Y-40026646D01*
X207362964Y-39826822D01*
X207385723Y-39746829D01*
X207423002Y-39687737D01*
X207486312Y-39658179D01*
X207555552Y-39667541D01*
X207608738Y-39712850D01*
X207624257Y-39746831D01*
X207647016Y-39826824D01*
X207746379Y-40026371D01*
X207746516Y-40026646D01*
X207881040Y-40204785D01*
X208046007Y-40355172D01*
X208046014Y-40355176D01*
X208046015Y-40355177D01*
X208235794Y-40472683D01*
X208235795Y-40472683D01*
X208235798Y-40472685D01*
X208443951Y-40553324D01*
X208663377Y-40594342D01*
X208663379Y-40594342D01*
X208886601Y-40594342D01*
X208886603Y-40594342D01*
X209106029Y-40553324D01*
X209314182Y-40472685D01*
X209503973Y-40355172D01*
X209668940Y-40204785D01*
X209803464Y-40026646D01*
X209902964Y-39826822D01*
X209925723Y-39746829D01*
X209963002Y-39687737D01*
X210026312Y-39658179D01*
X210095552Y-39667541D01*
X210148738Y-39712850D01*
X210164257Y-39746831D01*
X210187016Y-39826824D01*
X210286379Y-40026371D01*
X210286516Y-40026646D01*
X210421040Y-40204785D01*
X210586007Y-40355172D01*
X210586014Y-40355176D01*
X210586015Y-40355177D01*
X210775794Y-40472683D01*
X210775795Y-40472683D01*
X210775798Y-40472685D01*
X210983951Y-40553324D01*
X211203377Y-40594342D01*
X211203379Y-40594342D01*
X211426601Y-40594342D01*
X211426603Y-40594342D01*
X211646029Y-40553324D01*
X211854182Y-40472685D01*
X212043973Y-40355172D01*
X212208940Y-40204785D01*
X212343464Y-40026646D01*
X212442964Y-39826822D01*
X212465723Y-39746829D01*
X212503002Y-39687737D01*
X212566312Y-39658179D01*
X212635552Y-39667541D01*
X212688738Y-39712850D01*
X212704257Y-39746831D01*
X212727016Y-39826824D01*
X212826379Y-40026371D01*
X212826516Y-40026646D01*
X212961040Y-40204785D01*
X213126007Y-40355172D01*
X213126014Y-40355176D01*
X213126015Y-40355177D01*
X213315794Y-40472683D01*
X213315795Y-40472683D01*
X213315798Y-40472685D01*
X213523951Y-40553324D01*
X213743377Y-40594342D01*
X213743379Y-40594342D01*
X213966601Y-40594342D01*
X213966603Y-40594342D01*
X214186029Y-40553324D01*
X214394182Y-40472685D01*
X214583973Y-40355172D01*
X214748940Y-40204785D01*
X214883464Y-40026646D01*
X214982964Y-39826822D01*
X215005723Y-39746829D01*
X215043002Y-39687737D01*
X215106312Y-39658179D01*
X215175552Y-39667541D01*
X215228738Y-39712850D01*
X215244257Y-39746831D01*
X215267016Y-39826824D01*
X215366379Y-40026371D01*
X215366516Y-40026646D01*
X215501040Y-40204785D01*
X215666007Y-40355172D01*
X215666014Y-40355176D01*
X215666015Y-40355177D01*
X215855794Y-40472683D01*
X215855795Y-40472683D01*
X215855798Y-40472685D01*
X216063951Y-40553324D01*
X216283377Y-40594342D01*
X216283379Y-40594342D01*
X216506601Y-40594342D01*
X216506603Y-40594342D01*
X216726029Y-40553324D01*
X216934182Y-40472685D01*
X217123973Y-40355172D01*
X217288940Y-40204785D01*
X217423464Y-40026646D01*
X217495491Y-39881994D01*
X217542992Y-39830760D01*
X217610655Y-39813338D01*
X217676995Y-39835263D01*
X217720951Y-39889574D01*
X217730490Y-39937267D01*
X217730490Y-40141711D01*
X217730491Y-40141718D01*
X217736898Y-40201325D01*
X217787192Y-40336170D01*
X217787196Y-40336177D01*
X217873442Y-40451386D01*
X217873445Y-40451389D01*
X217988654Y-40537635D01*
X217988661Y-40537639D01*
X218123507Y-40587933D01*
X218123506Y-40587933D01*
X218130434Y-40588677D01*
X218183117Y-40594342D01*
X219686862Y-40594341D01*
X219746473Y-40587933D01*
X219881321Y-40537638D01*
X219996536Y-40451388D01*
X220082786Y-40336173D01*
X220133081Y-40201325D01*
X220139490Y-40141715D01*
X220139489Y-38637970D01*
X220133081Y-38578359D01*
X220131789Y-38574896D01*
X220082787Y-38443513D01*
X220082783Y-38443506D01*
X219996537Y-38328297D01*
X219996534Y-38328294D01*
X219881325Y-38242048D01*
X219881318Y-38242044D01*
X219746473Y-38191750D01*
X219746232Y-38191725D01*
X219746056Y-38191652D01*
X219738928Y-38189968D01*
X219739201Y-38188812D01*
X219681682Y-38164986D01*
X219641835Y-38107593D01*
X219635490Y-38068436D01*
X219635490Y-34808591D01*
X219655175Y-34741552D01*
X219707979Y-34695797D01*
X219759490Y-34684591D01*
X219867861Y-34684591D01*
X219867862Y-34684591D01*
X219927473Y-34678183D01*
X220062321Y-34627888D01*
X220177536Y-34541638D01*
X220263786Y-34426423D01*
X220314081Y-34291575D01*
X220320490Y-34231965D01*
X220320489Y-32436220D01*
X220314081Y-32376609D01*
X220312800Y-32373175D01*
X220263787Y-32241763D01*
X220263783Y-32241756D01*
X220177537Y-32126547D01*
X220177534Y-32126544D01*
X220062325Y-32040298D01*
X220062318Y-32040294D01*
X219927472Y-31990000D01*
X219927473Y-31990000D01*
X219867873Y-31983593D01*
X219867871Y-31983592D01*
X219867863Y-31983592D01*
X219867854Y-31983592D01*
X218072119Y-31983592D01*
X218072113Y-31983593D01*
X218012506Y-31990000D01*
X217877661Y-32040294D01*
X217877654Y-32040298D01*
X217762445Y-32126544D01*
X217762442Y-32126547D01*
X217676196Y-32241756D01*
X217676193Y-32241761D01*
X217627179Y-32373175D01*
X217585307Y-32429108D01*
X217519843Y-32453525D01*
X217451570Y-32438673D01*
X217423316Y-32417522D01*
X217301392Y-32295598D01*
X217301385Y-32295593D01*
X217107824Y-32160059D01*
X217107820Y-32160057D01*
X217107818Y-32160056D01*
X216893653Y-32060189D01*
X216893649Y-32060188D01*
X216893645Y-32060186D01*
X216665403Y-31999030D01*
X216665393Y-31999028D01*
X216429991Y-31978433D01*
X216429989Y-31978433D01*
X216194586Y-31999028D01*
X216194576Y-31999030D01*
X215966334Y-32060186D01*
X215966325Y-32060190D01*
X215752161Y-32160056D01*
X215752159Y-32160057D01*
X215558587Y-32295597D01*
X215391495Y-32462689D01*
X215261565Y-32648250D01*
X215206988Y-32691875D01*
X215137490Y-32699069D01*
X215075135Y-32667546D01*
X215058415Y-32648250D01*
X214928484Y-32462689D01*
X214761392Y-32295598D01*
X214761385Y-32295593D01*
X214567824Y-32160059D01*
X214567820Y-32160057D01*
X214567818Y-32160056D01*
X214353653Y-32060189D01*
X214353649Y-32060188D01*
X214353645Y-32060186D01*
X214125403Y-31999030D01*
X214125393Y-31999028D01*
X213889991Y-31978433D01*
X213889989Y-31978433D01*
X213654586Y-31999028D01*
X213654576Y-31999030D01*
X213426334Y-32060186D01*
X213426325Y-32060190D01*
X213212161Y-32160056D01*
X213212159Y-32160057D01*
X213018587Y-32295597D01*
X212851495Y-32462689D01*
X212721565Y-32648250D01*
X212666988Y-32691875D01*
X212597490Y-32699069D01*
X212535135Y-32667546D01*
X212518415Y-32648250D01*
X212388484Y-32462689D01*
X212221392Y-32295598D01*
X212221385Y-32295593D01*
X212027824Y-32160059D01*
X212027820Y-32160057D01*
X212027818Y-32160056D01*
X211813653Y-32060189D01*
X211813649Y-32060188D01*
X211813645Y-32060186D01*
X211585403Y-31999030D01*
X211585393Y-31999028D01*
X211349991Y-31978433D01*
X211349989Y-31978433D01*
X211114586Y-31999028D01*
X211114576Y-31999030D01*
X210886334Y-32060186D01*
X210886325Y-32060190D01*
X210672161Y-32160056D01*
X210672159Y-32160057D01*
X210478587Y-32295597D01*
X210311495Y-32462689D01*
X210181565Y-32648250D01*
X210126988Y-32691875D01*
X210057490Y-32699069D01*
X209995135Y-32667546D01*
X209978415Y-32648250D01*
X209848484Y-32462689D01*
X209681392Y-32295598D01*
X209681385Y-32295593D01*
X209487824Y-32160059D01*
X209487820Y-32160057D01*
X209487818Y-32160056D01*
X209273653Y-32060189D01*
X209273649Y-32060188D01*
X209273645Y-32060186D01*
X209045403Y-31999030D01*
X209045393Y-31999028D01*
X208809991Y-31978433D01*
X208809989Y-31978433D01*
X208574586Y-31999028D01*
X208574576Y-31999030D01*
X208346334Y-32060186D01*
X208346325Y-32060190D01*
X208132161Y-32160056D01*
X208132159Y-32160057D01*
X207938587Y-32295597D01*
X207771495Y-32462689D01*
X207641565Y-32648250D01*
X207586988Y-32691875D01*
X207517490Y-32699069D01*
X207455135Y-32667546D01*
X207438415Y-32648250D01*
X207308484Y-32462689D01*
X207141392Y-32295598D01*
X207141385Y-32295593D01*
X206947824Y-32160059D01*
X206947820Y-32160057D01*
X206947818Y-32160056D01*
X206733653Y-32060189D01*
X206733649Y-32060188D01*
X206733645Y-32060186D01*
X206505403Y-31999030D01*
X206505393Y-31999028D01*
X206269991Y-31978433D01*
X206269989Y-31978433D01*
X206034586Y-31999028D01*
X206034576Y-31999030D01*
X205806334Y-32060186D01*
X205806325Y-32060190D01*
X205592161Y-32160056D01*
X205592159Y-32160057D01*
X205398587Y-32295597D01*
X205231495Y-32462689D01*
X205101565Y-32648250D01*
X205046988Y-32691875D01*
X204977490Y-32699069D01*
X204915135Y-32667546D01*
X204898415Y-32648250D01*
X204768484Y-32462689D01*
X204601392Y-32295598D01*
X204601385Y-32295593D01*
X204407824Y-32160059D01*
X204407820Y-32160057D01*
X204407818Y-32160056D01*
X204193653Y-32060189D01*
X204193649Y-32060188D01*
X204193645Y-32060186D01*
X203965403Y-31999030D01*
X203965393Y-31999028D01*
X203729991Y-31978433D01*
X203729989Y-31978433D01*
X203494586Y-31999028D01*
X203494576Y-31999030D01*
X203266334Y-32060186D01*
X203266325Y-32060190D01*
X203052161Y-32160056D01*
X203052159Y-32160057D01*
X202858587Y-32295597D01*
X202691495Y-32462689D01*
X202561565Y-32648250D01*
X202506988Y-32691875D01*
X202437490Y-32699069D01*
X202375135Y-32667546D01*
X202358415Y-32648250D01*
X202228484Y-32462689D01*
X202061392Y-32295598D01*
X202061385Y-32295593D01*
X201867824Y-32160059D01*
X201867820Y-32160057D01*
X201867818Y-32160056D01*
X201653653Y-32060189D01*
X201653649Y-32060188D01*
X201653645Y-32060186D01*
X201425403Y-31999030D01*
X201425393Y-31999028D01*
X201189991Y-31978433D01*
X201189989Y-31978433D01*
X200954586Y-31999028D01*
X200954576Y-31999030D01*
X200726334Y-32060186D01*
X200726325Y-32060190D01*
X200512161Y-32160056D01*
X200512159Y-32160057D01*
X200318587Y-32295597D01*
X200151495Y-32462689D01*
X200021565Y-32648250D01*
X199966988Y-32691875D01*
X199897490Y-32699069D01*
X199835135Y-32667546D01*
X199818415Y-32648250D01*
X199688484Y-32462689D01*
X199521392Y-32295598D01*
X199521385Y-32295593D01*
X199327824Y-32160059D01*
X199327820Y-32160057D01*
X199327818Y-32160056D01*
X199113653Y-32060189D01*
X199113649Y-32060188D01*
X199113645Y-32060186D01*
X198885403Y-31999030D01*
X198885393Y-31999028D01*
X198649991Y-31978433D01*
X198649989Y-31978433D01*
X198414586Y-31999028D01*
X198414576Y-31999030D01*
X198186334Y-32060186D01*
X198186325Y-32060190D01*
X197972161Y-32160056D01*
X197972159Y-32160057D01*
X197778587Y-32295597D01*
X197611495Y-32462689D01*
X197481565Y-32648250D01*
X197426988Y-32691875D01*
X197357490Y-32699069D01*
X197295135Y-32667546D01*
X197278415Y-32648250D01*
X197148484Y-32462689D01*
X196981392Y-32295598D01*
X196981385Y-32295593D01*
X196787824Y-32160059D01*
X196787820Y-32160057D01*
X196787818Y-32160056D01*
X196573653Y-32060189D01*
X196573649Y-32060188D01*
X196573645Y-32060186D01*
X196345403Y-31999030D01*
X196345393Y-31999028D01*
X196109991Y-31978433D01*
X196109989Y-31978433D01*
X195874586Y-31999028D01*
X195874576Y-31999030D01*
X195646334Y-32060186D01*
X195646325Y-32060190D01*
X195432161Y-32160056D01*
X195432159Y-32160057D01*
X195238587Y-32295597D01*
X195071495Y-32462689D01*
X194941565Y-32648250D01*
X194886988Y-32691875D01*
X194817490Y-32699069D01*
X194755135Y-32667546D01*
X194738415Y-32648250D01*
X194608484Y-32462689D01*
X194441392Y-32295598D01*
X194441385Y-32295593D01*
X194247824Y-32160059D01*
X194247820Y-32160057D01*
X194247818Y-32160056D01*
X194033653Y-32060189D01*
X194033649Y-32060188D01*
X194033645Y-32060186D01*
X193805403Y-31999030D01*
X193805393Y-31999028D01*
X193569991Y-31978433D01*
X193569989Y-31978433D01*
X193334586Y-31999028D01*
X193334576Y-31999030D01*
X193106334Y-32060186D01*
X193106325Y-32060190D01*
X192892161Y-32160056D01*
X192892159Y-32160057D01*
X192698587Y-32295597D01*
X192531495Y-32462689D01*
X192401565Y-32648250D01*
X192346988Y-32691875D01*
X192277490Y-32699069D01*
X192215135Y-32667546D01*
X192198415Y-32648250D01*
X192068484Y-32462689D01*
X191901392Y-32295598D01*
X191901385Y-32295593D01*
X191707824Y-32160059D01*
X191707820Y-32160057D01*
X191707818Y-32160056D01*
X191493653Y-32060189D01*
X191493649Y-32060188D01*
X191493645Y-32060186D01*
X191265403Y-31999030D01*
X191265393Y-31999028D01*
X191029991Y-31978433D01*
X191029989Y-31978433D01*
X190794586Y-31999028D01*
X190794576Y-31999030D01*
X190566334Y-32060186D01*
X190566325Y-32060190D01*
X190352161Y-32160056D01*
X190352159Y-32160057D01*
X190158587Y-32295597D01*
X189991495Y-32462689D01*
X189861565Y-32648250D01*
X189806988Y-32691875D01*
X189737490Y-32699069D01*
X189675135Y-32667546D01*
X189658415Y-32648250D01*
X189528484Y-32462689D01*
X189361392Y-32295598D01*
X189361385Y-32295593D01*
X189167824Y-32160059D01*
X189167820Y-32160057D01*
X189167818Y-32160056D01*
X188953653Y-32060189D01*
X188953649Y-32060188D01*
X188953645Y-32060186D01*
X188725403Y-31999030D01*
X188725393Y-31999028D01*
X188489991Y-31978433D01*
X188489989Y-31978433D01*
X188254586Y-31999028D01*
X188254576Y-31999030D01*
X188026334Y-32060186D01*
X188026325Y-32060190D01*
X187812161Y-32160056D01*
X187812159Y-32160057D01*
X187618587Y-32295597D01*
X187451498Y-32462686D01*
X187321259Y-32648687D01*
X187266682Y-32692311D01*
X187197183Y-32699504D01*
X187134829Y-32667982D01*
X187118109Y-32648686D01*
X186988103Y-32463018D01*
X186988098Y-32463012D01*
X186821072Y-32295986D01*
X186627568Y-32160491D01*
X186413482Y-32060662D01*
X186413476Y-32060659D01*
X186199990Y-32003456D01*
X186199990Y-32901080D01*
X186142983Y-32868167D01*
X186015816Y-32834092D01*
X185884164Y-32834092D01*
X185756997Y-32868167D01*
X185699990Y-32901080D01*
X185699990Y-32003456D01*
X185699989Y-32003456D01*
X185486503Y-32060659D01*
X185486497Y-32060662D01*
X185272412Y-32160491D01*
X185272410Y-32160492D01*
X185078916Y-32295978D01*
X185078910Y-32295983D01*
X184911881Y-32463012D01*
X184911880Y-32463014D01*
X184781870Y-32648687D01*
X184727293Y-32692311D01*
X184657794Y-32699504D01*
X184595440Y-32667982D01*
X184578720Y-32648686D01*
X184448484Y-32462689D01*
X184281392Y-32295598D01*
X184281385Y-32295593D01*
X184087824Y-32160059D01*
X184087820Y-32160057D01*
X184087818Y-32160056D01*
X183873653Y-32060189D01*
X183873649Y-32060188D01*
X183873645Y-32060186D01*
X183645403Y-31999030D01*
X183645393Y-31999028D01*
X183409991Y-31978433D01*
X183409989Y-31978433D01*
X183174586Y-31999028D01*
X183174576Y-31999030D01*
X182946334Y-32060186D01*
X182946325Y-32060190D01*
X182732161Y-32160056D01*
X182732159Y-32160057D01*
X182538587Y-32295597D01*
X182371495Y-32462689D01*
X182241565Y-32648250D01*
X182186988Y-32691875D01*
X182117490Y-32699069D01*
X182055135Y-32667546D01*
X182038415Y-32648250D01*
X181908484Y-32462689D01*
X181741392Y-32295598D01*
X181741385Y-32295593D01*
X181547824Y-32160059D01*
X181547820Y-32160057D01*
X181547818Y-32160056D01*
X181333653Y-32060189D01*
X181333649Y-32060188D01*
X181333645Y-32060186D01*
X181105403Y-31999030D01*
X181105393Y-31999028D01*
X180869991Y-31978433D01*
X180869989Y-31978433D01*
X180634586Y-31999028D01*
X180634576Y-31999030D01*
X180406334Y-32060186D01*
X180406325Y-32060190D01*
X180192161Y-32160056D01*
X180192159Y-32160057D01*
X179998587Y-32295597D01*
X179831495Y-32462689D01*
X179701565Y-32648250D01*
X179646988Y-32691875D01*
X179577490Y-32699069D01*
X179515135Y-32667546D01*
X179498415Y-32648250D01*
X179368484Y-32462689D01*
X179201392Y-32295598D01*
X179201385Y-32295593D01*
X179007824Y-32160059D01*
X179007820Y-32160057D01*
X179007818Y-32160056D01*
X178793653Y-32060189D01*
X178793649Y-32060188D01*
X178793645Y-32060186D01*
X178565403Y-31999030D01*
X178565393Y-31999028D01*
X178329991Y-31978433D01*
X178329989Y-31978433D01*
X178094586Y-31999028D01*
X178094576Y-31999030D01*
X177866334Y-32060186D01*
X177866325Y-32060190D01*
X177652161Y-32160056D01*
X177652159Y-32160057D01*
X177458587Y-32295597D01*
X177291495Y-32462689D01*
X177161565Y-32648250D01*
X177106988Y-32691875D01*
X177037490Y-32699069D01*
X176975135Y-32667546D01*
X176958415Y-32648250D01*
X176828484Y-32462689D01*
X176661392Y-32295598D01*
X176661385Y-32295593D01*
X176467824Y-32160059D01*
X176467820Y-32160057D01*
X176467818Y-32160056D01*
X176253653Y-32060189D01*
X176253649Y-32060188D01*
X176253645Y-32060186D01*
X176025403Y-31999030D01*
X176025393Y-31999028D01*
X175789991Y-31978433D01*
X175789989Y-31978433D01*
X175554586Y-31999028D01*
X175554576Y-31999030D01*
X175326334Y-32060186D01*
X175326325Y-32060190D01*
X175112161Y-32160056D01*
X175112159Y-32160057D01*
X174918587Y-32295597D01*
X174751495Y-32462689D01*
X174621565Y-32648250D01*
X174566988Y-32691875D01*
X174497490Y-32699069D01*
X174435135Y-32667546D01*
X174418415Y-32648250D01*
X174288484Y-32462689D01*
X174121392Y-32295598D01*
X174121385Y-32295593D01*
X173927824Y-32160059D01*
X173927820Y-32160057D01*
X173927818Y-32160056D01*
X173713653Y-32060189D01*
X173713649Y-32060188D01*
X173713645Y-32060186D01*
X173485403Y-31999030D01*
X173485393Y-31999028D01*
X173249991Y-31978433D01*
X173249989Y-31978433D01*
X173014586Y-31999028D01*
X173014576Y-31999030D01*
X172786334Y-32060186D01*
X172786325Y-32060190D01*
X172572161Y-32160056D01*
X172572159Y-32160057D01*
X172378587Y-32295597D01*
X172211495Y-32462689D01*
X172075955Y-32656261D01*
X172075954Y-32656263D01*
X171976088Y-32870427D01*
X171976084Y-32870436D01*
X171914928Y-33098678D01*
X171914926Y-33098688D01*
X171894331Y-33334091D01*
X168403155Y-33334091D01*
X168434135Y-33098766D01*
X168436006Y-33088155D01*
X168520519Y-32706935D01*
X168523310Y-32696521D01*
X168640719Y-32324142D01*
X168644419Y-32313979D01*
X168651875Y-32295978D01*
X168793831Y-31953259D01*
X168798390Y-31943481D01*
X168978684Y-31597138D01*
X168984070Y-31587808D01*
X169193873Y-31258480D01*
X169200058Y-31249647D01*
X169437742Y-30939887D01*
X169444692Y-30931605D01*
X169708475Y-30643734D01*
X169716102Y-30636107D01*
X170003987Y-30372306D01*
X170012225Y-30365393D01*
X170322022Y-30127675D01*
X170330846Y-30121497D01*
X170660155Y-29911702D01*
X170669511Y-29906301D01*
X171015825Y-29726019D01*
X171025622Y-29721449D01*
X171386350Y-29572028D01*
X171396496Y-29568335D01*
X171768878Y-29450921D01*
X171779312Y-29448126D01*
X172160483Y-29363620D01*
X172171127Y-29361742D01*
X172558246Y-29310775D01*
X172568980Y-29309835D01*
X172937699Y-29293734D01*
X172960623Y-29292734D01*
X172966032Y-29292616D01*
X217961753Y-29292616D01*
X217967162Y-29292733D01*
G37*
%TD.AperFunction*%
%TD*%
M02*
