%TF.GenerationSoftware,KiCad,Pcbnew,8.0.6*%
%TF.CreationDate,2025-08-25T17:41:28+02:00*%
%TF.ProjectId,controller,636f6e74-726f-46c6-9c65-722e6b696361,rev?*%
%TF.SameCoordinates,Original*%
%TF.FileFunction,Paste,Top*%
%TF.FilePolarity,Positive*%
%FSLAX46Y46*%
G04 Gerber Fmt 4.6, Leading zero omitted, Abs format (unit mm)*
G04 Created by KiCad (PCBNEW 8.0.6) date 2025-08-25 17:41:28*
%MOMM*%
%LPD*%
G01*
G04 APERTURE LIST*
G04 Aperture macros list*
%AMRoundRect*
0 Rectangle with rounded corners*
0 $1 Rounding radius*
0 $2 $3 $4 $5 $6 $7 $8 $9 X,Y pos of 4 corners*
0 Add a 4 corners polygon primitive as box body*
4,1,4,$2,$3,$4,$5,$6,$7,$8,$9,$2,$3,0*
0 Add four circle primitives for the rounded corners*
1,1,$1+$1,$2,$3*
1,1,$1+$1,$4,$5*
1,1,$1+$1,$6,$7*
1,1,$1+$1,$8,$9*
0 Add four rect primitives between the rounded corners*
20,1,$1+$1,$2,$3,$4,$5,0*
20,1,$1+$1,$4,$5,$6,$7,0*
20,1,$1+$1,$6,$7,$8,$9,0*
20,1,$1+$1,$8,$9,$2,$3,0*%
G04 Aperture macros list end*
%ADD10RoundRect,0.375000X-0.625000X-0.375000X0.625000X-0.375000X0.625000X0.375000X-0.625000X0.375000X0*%
%ADD11RoundRect,0.500000X-0.500000X-1.400000X0.500000X-1.400000X0.500000X1.400000X-0.500000X1.400000X0*%
%ADD12RoundRect,0.200000X-0.275000X0.200000X-0.275000X-0.200000X0.275000X-0.200000X0.275000X0.200000X0*%
%ADD13RoundRect,0.250000X-0.650000X0.325000X-0.650000X-0.325000X0.650000X-0.325000X0.650000X0.325000X0*%
%ADD14RoundRect,0.200000X0.275000X-0.200000X0.275000X0.200000X-0.275000X0.200000X-0.275000X-0.200000X0*%
%ADD15RoundRect,0.140000X0.140000X0.170000X-0.140000X0.170000X-0.140000X-0.170000X0.140000X-0.170000X0*%
%ADD16RoundRect,0.140000X-0.140000X-0.170000X0.140000X-0.170000X0.140000X0.170000X-0.140000X0.170000X0*%
%ADD17RoundRect,0.150000X-0.150000X0.825000X-0.150000X-0.825000X0.150000X-0.825000X0.150000X0.825000X0*%
%ADD18RoundRect,0.250000X0.650000X-0.325000X0.650000X0.325000X-0.650000X0.325000X-0.650000X-0.325000X0*%
%ADD19RoundRect,0.375000X0.625000X0.375000X-0.625000X0.375000X-0.625000X-0.375000X0.625000X-0.375000X0*%
%ADD20RoundRect,0.500000X0.500000X1.400000X-0.500000X1.400000X-0.500000X-1.400000X0.500000X-1.400000X0*%
G04 APERTURE END LIST*
D10*
%TO.C,U4*%
X196299990Y-49494092D03*
X196299990Y-51794092D03*
D11*
X202599990Y-51794092D03*
D10*
X196299990Y-54094092D03*
%TD*%
D12*
%TO.C,R1*%
X187835524Y-56521058D03*
X187835524Y-58171058D03*
%TD*%
D13*
%TO.C,C7*%
X208235524Y-50281592D03*
X208235524Y-53231592D03*
%TD*%
D14*
%TO.C,R2*%
X186235524Y-58171058D03*
X186235524Y-56521058D03*
%TD*%
D13*
%TO.C,C3*%
X219585524Y-50281592D03*
X219585524Y-53231592D03*
%TD*%
D15*
%TO.C,C2*%
X217865524Y-46346058D03*
X216905524Y-46346058D03*
%TD*%
D16*
%TO.C,C6*%
X195485524Y-57396058D03*
X196445524Y-57396058D03*
%TD*%
%TO.C,C5*%
X216885524Y-56996058D03*
X217845524Y-56996058D03*
%TD*%
D15*
%TO.C,C9*%
X196415524Y-46146058D03*
X195455524Y-46146058D03*
%TD*%
D17*
%TO.C,U3*%
X188040524Y-49281592D03*
X186770524Y-49281592D03*
X185500524Y-49281592D03*
X184230524Y-49281592D03*
X184230524Y-54231592D03*
X185500524Y-54231592D03*
X186770524Y-54231592D03*
X188040524Y-54231592D03*
%TD*%
D13*
%TO.C,C8*%
X205085524Y-50281592D03*
X205085524Y-53231592D03*
%TD*%
D15*
%TO.C,C1*%
X186785524Y-59446058D03*
X185825524Y-59446058D03*
%TD*%
D12*
%TO.C,R3*%
X184635524Y-56521058D03*
X184635524Y-58171058D03*
%TD*%
D18*
%TO.C,C4*%
X193785524Y-53231592D03*
X193785524Y-50281592D03*
%TD*%
D19*
%TO.C,U2*%
X217049990Y-54019092D03*
X217049990Y-51719092D03*
D20*
X210749990Y-51719092D03*
D19*
X217049990Y-49419092D03*
%TD*%
M02*
